<?xml version="1.0" encoding="utf-8"?>
<!-- Generator: Adobe Illustrator 25.2.3, SVG Export Plug-In . SVG Version: 6.00 Build 0)  -->
<svg version="1.1" id="圖層_1" xmlns="http://www.w3.org/2000/svg" xmlns:xlink="http://www.w3.org/1999/xlink" x="0px" y="0px"
	 viewBox="0 0 576 512" style="enable-background:new 0 0 576 512;" xml:space="preserve">
<style type="text/css">
	.st0{fill:#FFFFFF;}
</style>
<path class="st0" d="M510.5,225.5c-6.9-37.2-39.3-65.5-78.5-65.5c-12.3,0-23.9,3-34.3,8c-17.4-24.1-45.6-40-77.7-40
	c-53,0-96,43-96,96c0,0.5,0.2,1.1,0.2,1.6C187.6,233,160,265.2,160,304c0,44.2,35.8,80,80,80h256c44.2,0,80-35.8,80-80
	C576,264.8,547.8,232.3,510.5,225.5z M124.1,259.9c-37.4-37.4-37.4-98.3,0-135.8c34.6-34.6,89.1-36.8,126.7-7.4
	c20-12.9,43.6-20.7,69.2-20.7c0.7,0,1.3,0.2,2,0.2l8.9-26.7c3.4-10.2-6.3-19.8-16.5-16.4l-75.3,25.1l-35.5-71
	c-4.8-9.6-18.5-9.6-23.3,0l-35.5,71L69.5,53.1c-10.2-3.4-19.8,6.3-16.4,16.5l25.1,75.3l-71,35.5c-9.6,4.8-9.6,18.5,0,23.3l71,35.5
	l-25.1,75.3c-3.4,10.2,6.3,19.8,16.5,16.5l59.2-19.7c-0.2-2.4-0.7-4.7-0.7-7.2c0-12.5,2.3-24.5,6.2-35.9
	C130.7,265.5,127.2,263,124.1,259.9L124.1,259.9z M193.9,201.9c4.3-24.5,15.8-46.4,31.9-64c-9.8-6.2-21.4-9.9-33.8-9.9
	c-35.3,0-64,28.7-64,64c0,18.7,8.2,35.4,21.1,47.1C160.4,223.2,175.7,210.2,193.9,201.9L193.9,201.9z M524.5,418.1
	c-7.6-4.3-17.4-1.8-21.8,6l-36.6,64c-4.4,7.7-1.7,17.4,6,21.8c2.5,1.4,5.2,2.1,7.9,2.1c5.5,0,10.9-2.9,13.9-8.1l36.6-64
	C534.8,432.2,532.2,422.5,524.5,418.1z M428.5,418.1c-7.6-4.3-17.4-1.8-21.8,6l-36.6,64c-4.4,7.7-1.7,17.4,6,21.8
	c2.5,1.4,5.2,2.1,7.9,2.1c5.5,0,10.9-2.9,13.9-8.1l36.6-64C438.8,432.2,436.2,422.5,428.5,418.1z M332.5,418.1
	c-7.6-4.3-17.4-1.8-21.8,6l-36.6,64c-4.4,7.7-1.7,17.4,6,21.8c2.5,1.4,5.2,2.1,7.9,2.1c5.5,0,10.9-2.9,13.9-8.1l36.6-64
	C342.8,432.2,340.2,422.5,332.5,418.1z M236.5,418.1c-7.6-4.3-17.4-1.8-21.8,6l-36.6,64c-4.4,7.7-1.7,17.4,6,21.8
	c2.5,1.4,5.2,2.1,7.9,2.1c5.5,0,10.9-2.9,13.9-8.1l36.6-64C246.8,432.2,244.2,422.5,236.5,418.1z"/>
</svg>
