<svg width="100" height="100" viewBox="0 0 100 100" fill="none" xmlns="http://www.w3.org/2000/svg">
<g clip-path="url(#clip0_3148_10992)" filter="url(#filter0_d_3148_10992)">
<path d="M53.6953 66.5781H43.5234C43.5599 63.0781 43.8698 60.2161 44.4531 57.9922C45.0729 55.7318 46.0755 53.6719 47.4609 51.8125C48.8464 49.9531 50.6875 47.8385 52.9844 45.4688C54.6615 43.7552 56.1927 42.151 57.5781 40.6562C59 39.125 60.1484 37.4844 61.0234 35.7344C61.8984 33.9479 62.3359 31.8151 62.3359 29.3359C62.3359 26.8203 61.8802 24.651 60.9688 22.8281C60.0938 21.0052 58.7812 19.6016 57.0312 18.6172C55.3177 17.6328 53.1849 17.1406 50.6328 17.1406C48.5182 17.1406 46.513 17.5234 44.6172 18.2891C42.7214 19.0547 41.1901 20.2396 40.0234 21.8438C38.8568 23.4115 38.2552 25.4714 38.2188 28.0234H28.1016C28.1745 23.9036 29.1953 20.3672 31.1641 17.4141C33.1693 14.4609 35.8672 12.2005 39.2578 10.6328C42.6484 9.0651 46.4401 8.28125 50.6328 8.28125C55.263 8.28125 59.2005 9.11979 62.4453 10.7969C65.7266 12.474 68.224 14.8802 69.9375 18.0156C71.651 21.1146 72.5078 24.7969 72.5078 29.0625C72.5078 32.3438 71.8333 35.3698 70.4844 38.1406C69.1719 40.875 67.4766 43.4453 65.3984 45.8516C63.3203 48.2578 61.1146 50.5547 58.7812 52.7422C56.776 54.6016 55.4271 56.6979 54.7344 59.0312C54.0417 61.3646 53.6953 63.8802 53.6953 66.5781ZM43.0859 83.9141C43.0859 82.2734 43.5964 80.888 44.6172 79.7578C45.638 78.6276 47.1146 78.0625 49.0469 78.0625C51.0156 78.0625 52.5104 78.6276 53.5312 79.7578C54.5521 80.888 55.0625 82.2734 55.0625 83.9141C55.0625 85.4818 54.5521 86.8307 53.5312 87.9609C52.5104 89.0911 51.0156 89.6562 49.0469 89.6562C47.1146 89.6562 45.638 89.0911 44.6172 87.9609C43.5964 86.8307 43.0859 85.4818 43.0859 83.9141Z" fill="black"/>
</g>
<defs>
<filter id="filter0_d_3148_10992" x="-4" y="0" width="108" height="108" filterUnits="userSpaceOnUse" color-interpolation-filters="sRGB">
<feFlood flood-opacity="0" result="BackgroundImageFix"/>
<feColorMatrix in="SourceAlpha" type="matrix" values="0 0 0 0 0 0 0 0 0 0 0 0 0 0 0 0 0 0 127 0" result="hardAlpha"/>
<feOffset dy="4"/>
<feGaussianBlur stdDeviation="2"/>
<feComposite in2="hardAlpha" operator="out"/>
<feColorMatrix type="matrix" values="0 0 0 0 0 0 0 0 0 0 0 0 0 0 0 0 0 0 0.25 0"/>
<feBlend mode="normal" in2="BackgroundImageFix" result="effect1_dropShadow_3148_10992"/>
<feBlend mode="normal" in="SourceGraphic" in2="effect1_dropShadow_3148_10992" result="shape"/>
</filter>
<clipPath id="clip0_3148_10992">
<rect width="100" height="100" fill="white"/>
</clipPath>
</defs>
</svg>
