<?xml version="1.0" encoding="utf-8"?>
<!-- Generator: Adobe Illustrator 25.2.3, SVG Export Plug-In . SVG Version: 6.00 Build 0)  -->
<svg version="1.1" id="圖層_1" xmlns="http://www.w3.org/2000/svg" xmlns:xlink="http://www.w3.org/1999/xlink" x="0px" y="0px"
	 viewBox="0 0 381 90" style="enable-background:new 0 0 381 90;" xml:space="preserve">
<style type="text/css">
	.st0{fill:#FFFFFF;filter:url(#Adobe_OpacityMaskFilter);}
	.st1{mask:url(#path-1-inside-1_3146_10992_1_);fill:none;stroke:#FFFFFF;stroke-width:10;}
	.st2{fill:#FFFFFF;}
</style>
<defs>
	<filter id="Adobe_OpacityMaskFilter" filterUnits="userSpaceOnUse" x="-5" y="-5" width="391" height="100">
		<feColorMatrix  type="matrix" values="1 0 0 0 0  0 1 0 0 0  0 0 1 0 0  0 0 0 1 0"/>
	</filter>
</defs>
<mask maskUnits="userSpaceOnUse" x="-5" y="-5" width="391" height="100" id="path-1-inside-1_3146_10992_1_">
	<path class="st0" d="M381,0c0,11.8-4.9,23.5-14.5,34.4c-9.6,10.9-23.6,20.8-41.3,29.2c-17.7,8.4-38.7,15-61.8,19.5
		c-23.1,4.5-47.9,6.9-72.9,6.9s-49.8-2.3-72.9-6.9C94.5,78.6,73.5,72,55.8,63.6c-17.7-8.4-31.7-18.3-41.3-29.2C4.9,23.5,0,11.8,0,0
		h119.9c0,4.4,1.8,8.7,5.4,12.8c3.5,4,8.8,7.7,15.3,10.8c6.6,3.1,14.3,5.6,22.9,7.2c8.6,1.7,17.8,2.5,27,2.5s18.5-0.9,27-2.5
		c8.6-1.7,16.4-4.1,22.9-7.2c6.6-3.1,11.8-6.8,15.3-10.8c3.5-4,5.4-8.4,5.4-12.8H381z"/>
</mask>
<path class="st1" d="M381,0c0,11.8-4.9,23.5-14.5,34.4c-9.6,10.9-23.6,20.8-41.3,29.2c-17.7,8.4-38.7,15-61.8,19.5
	c-23.1,4.5-47.9,6.9-72.9,6.9s-49.8-2.3-72.9-6.9C94.5,78.6,73.5,72,55.8,63.6c-17.7-8.4-31.7-18.3-41.3-29.2C4.9,23.5,0,11.8,0,0
	h119.9c0,4.4,1.8,8.7,5.4,12.8c3.5,4,8.8,7.7,15.3,10.8c6.6,3.1,14.3,5.6,22.9,7.2c8.6,1.7,17.8,2.5,27,2.5s18.5-0.9,27-2.5
	c8.6-1.7,16.4-4.1,22.9-7.2c6.6-3.1,11.8-6.8,15.3-10.8c3.5-4,5.4-8.4,5.4-12.8H381z"/>
<path class="st2" d="M170.5,64.1c-0.5,1.3-1.3,2.4-2.2,3.4c-0.8-0.8-2.1-1.8-3.2-2.6c0.3-0.3,0.5-0.5,0.8-0.8H170.5z M167.2,55.3
	h3.1v3h-3.1V55.3z M167.2,50.4h3.1v3h-3.1V50.4z M180.8,53.4h-3.3v-3h3.3V53.4z M180.8,58.3h-3.3v-3h3.3V58.3z M172.2,53.4v-3h3.4v3
	H172.2z M175.6,55.3v3h-3.4v-3H175.6z M171.8,62.4l-0.4,0.1h-4.2c0.4-0.6,0.8-1.3,1.2-2l-1.6-0.4h20v-1.8h-3.9v-3h4.4v-1.9h-4.4v-3
	h3v-1.8h-19c0.5-0.8,1.1-1.6,1.5-2.3l-2.2-0.4c-1,1.9-2.7,4.1-5.1,5.9c0.5,0.3,1.3,0.8,1.6,1.3c0.9-0.7,1.7-1.4,2.4-2.2v2.7h-4.3
	v1.9h4.3v3h-3.7v1.8h4.9c-1.3,2.6-3.7,4.8-6.3,6.2c0.4,0.3,1.2,1,1.4,1.4c0.8-0.4,1.5-1,2.2-1.6c1.1,0.8,2.4,1.8,3.1,2.6
	c-1.6,1.4-3.7,2.4-5.9,3c0.4,0.4,1,1.2,1.3,1.6c4.8-1.6,8.8-4.7,10.6-10.3L171.8,62.4z M177.1,67.8v-3.6h3.1v3.6H177.1z M187.5,67.8
	h-5.3v-3.6h4.4v-1.8h-4.4v-2h-2.1v2h-6.5v1.8h1.6v3.6h-3v1.8h8v3.7h2.1v-3.7h5.3V67.8z M211.1,62.7v7.1h-14.4v-7.1H211.1z
	 M194.5,73.3h2.2V72h14.4v1.3h2.4V60.6h-19V73.3z M207.7,50.6c1.3,1.1,2.6,2.3,3.9,3.6c-4.6,0.2-9.4,0.4-13.5,0.6
	c1.7-2.4,3.5-5.5,4.9-8.2l-2.5-0.8c-1.2,2.8-3.2,6.4-5,9.1c-1.6,0.1-3.2,0.1-4.5,0.2l0.2,2.2c5.5-0.2,14.1-0.5,22.3-1
	c0.9,1.1,1.6,2,2.1,2.9l1.9-1.5c-1.5-2.5-5.1-6-8.1-8.4L207.7,50.6z"/>
</svg>
