<svg width="114" height="25" viewBox="0 0 114 25" fill="none" xmlns="http://www.w3.org/2000/svg">
<mask id="path-1-inside-1_2016_9307" fill="white">
<path d="M113.307 0.952183C113.307 4.09763 111.855 7.21227 109.032 10.1183C106.21 13.0243 102.073 15.6648 96.858 17.8889C91.6429 20.1131 85.4517 21.8774 78.6379 23.0811C71.8241 24.2848 64.5211 24.9044 57.1458 24.9044C49.7706 24.9044 42.4676 24.2848 35.6538 23.0811C28.84 21.8774 22.6488 20.1131 17.4337 17.8889C12.2186 15.6648 8.08179 13.0243 5.25941 10.1183C2.43703 7.21227 0.984374 4.09763 0.984375 0.952181L36.3261 0.952183C36.3261 2.11824 36.8646 3.27288 37.9109 4.35017C38.9572 5.42747 40.4907 6.40633 42.424 7.23085C44.3573 8.05538 46.6525 8.70943 49.1785 9.15566C51.7044 9.60189 54.4117 9.83156 57.1458 9.83156C59.8799 9.83157 62.5872 9.60189 65.1132 9.15566C67.6392 8.70943 69.9343 8.05538 71.8676 7.23085C73.8009 6.40633 75.3345 5.42747 76.3808 4.35018C77.4271 3.27288 77.9656 2.11824 77.9656 0.952183H113.307Z"/>
</mask>
<path d="M113.307 0.952183C113.307 4.09763 111.855 7.21227 109.032 10.1183C106.21 13.0243 102.073 15.6648 96.858 17.8889C91.6429 20.1131 85.4517 21.8774 78.6379 23.0811C71.8241 24.2848 64.5211 24.9044 57.1458 24.9044C49.7706 24.9044 42.4676 24.2848 35.6538 23.0811C28.84 21.8774 22.6488 20.1131 17.4337 17.8889C12.2186 15.6648 8.08179 13.0243 5.25941 10.1183C2.43703 7.21227 0.984374 4.09763 0.984375 0.952181L36.3261 0.952183C36.3261 2.11824 36.8646 3.27288 37.9109 4.35017C38.9572 5.42747 40.4907 6.40633 42.424 7.23085C44.3573 8.05538 46.6525 8.70943 49.1785 9.15566C51.7044 9.60189 54.4117 9.83156 57.1458 9.83156C59.8799 9.83157 62.5872 9.60189 65.1132 9.15566C67.6392 8.70943 69.9343 8.05538 71.8676 7.23085C73.8009 6.40633 75.3345 5.42747 76.3808 4.35018C77.4271 3.27288 77.9656 2.11824 77.9656 0.952183H113.307Z" stroke="white" stroke-width="2" mask="url(#path-1-inside-1_2016_9307)"/>
</svg>
