<svg width="689" height="692" viewBox="0 0 689 692" fill="none" xmlns="http://www.w3.org/2000/svg">
<path d="M146.623 400.254C146.278 400.666 145.857 401.014 145.376 401.305C144.21 401.988 142.795 402.123 141.444 402.344C137.485 403.016 133.781 404.661 130.672 407.115C128.908 408.508 127.264 410.2 125.077 410.808C116.736 413.115 116.312 398.976 114.592 393.874C111.866 385.791 109.163 377.679 105.625 369.816C98.2129 353.361 88.7693 337.855 81.105 321.514C78.2078 315.322 75.5691 309.029 73.1954 302.645C68.1112 288.921 75.1897 273.616 80.8619 263.025C86.6899 252.177 92.5643 241.363 98.485 230.584C101.389 225.304 104.346 219.978 108.411 215.734C114.336 209.552 122.166 206.098 129.523 202.117C140.916 195.963 151.442 189.448 158.426 177.692C161.177 173.066 163.313 167.965 166.332 163.554C170.555 157.396 176.385 152.755 182.695 149.112C186.476 146.933 197.369 141.219 201.634 147.149C202.967 148.992 202.513 151.429 202.912 153.623C203.478 156.641 205.67 159.158 207.748 161.449C208.28 162.033 208.819 162.629 209.461 163.059C210.212 163.564 211.083 163.817 211.914 164.047C219.019 166.082 225.487 168.297 232.561 168.157C236.618 168.074 240.682 167.817 244.765 167.918C249.422 168.027 262.39 165.94 266.038 170.122C267.195 171.453 269.145 174.583 268.332 176.229C268.04 176.826 267.47 177.167 266.907 177.474C258.91 181.883 250.187 184.837 243.48 191.313C238.937 195.692 232.714 201.768 233.947 209.572C234.598 213.707 239.006 216.335 242.834 217.026C246.661 217.717 250.629 217.317 254.287 219.071C257.63 220.668 260.262 223.884 262.176 227.296C264.906 232.157 266.432 238.213 264.33 242.774C263.487 244.621 262.121 246.062 260.784 247.487C257.658 250.81 254.524 254.121 251.397 257.444C246.695 262.42 243.682 267.487 245.193 275.545C245.815 278.822 247.699 282.205 250.602 283.656C254.319 285.515 258.209 283.733 261.724 282.334C269.176 279.371 277.423 278.238 285.751 279.021C290.483 279.471 295.377 280.594 299.56 283.52C304.053 286.667 312.867 296.83 311.724 302.789C311.325 304.858 310.23 306.588 309.496 308.511C306.024 317.597 312.186 321.49 315.244 329.138C317.486 334.738 320.134 344.875 319.458 350.566C318.09 361.989 300.258 357.447 292.633 355.771C289.521 355.084 286.286 354.345 283.6 352.28C280.466 349.873 278.56 346.058 276.835 342.399C274.543 337.518 272.326 332.608 270.192 327.682C269.618 326.355 269.046 325.011 268.819 323.623C268.533 321.855 268.814 320.13 269.196 318.47C270.681 312.024 282.31 299.573 271.5 294.2C269.12 293.018 266.546 293.755 264.243 294.506C253.264 298.108 246.804 299.736 234.676 294.597C221.575 289.049 208.629 282.875 195.907 276.099C188.252 272.018 168.492 264.915 164.565 256.002C163.237 252.99 163.228 249.608 164.056 246.696C165.057 243.164 167.216 240.226 169.832 237.993C174.207 234.246 179.767 232.337 185.121 230.253C187.579 229.29 190.068 228.265 192.004 226.436C195.538 223.11 195.598 216.989 189.36 215.592C187.215 215.118 185.108 215.588 183.084 216.088C174.501 218.18 165.835 220.611 158.857 225.923C157.757 226.768 156.676 227.693 155.903 228.902C153.577 232.518 154.396 237.706 154.301 242.36C154.136 249.936 149.467 263.985 141.164 264.491C138.73 264.642 136.274 263.304 133.911 262.173C129.912 260.261 125.304 258.851 121.715 260.675C118.547 262.289 116.94 266.168 116.796 270.114C116.533 277.241 119.868 279.563 115.841 285.026C112.339 289.791 118.393 295.11 122.188 297.982C126.291 301.091 120.01 303.123 117.511 301.962C115.555 301.058 113.877 299.443 111.948 298.447C109.191 297.02 106.151 296.966 103.289 297.179C100.616 297.375 97.6149 298.081 96.6945 300.693C95.8273 303.167 97.3405 306.272 99.4047 308.218C104.241 312.793 111.359 314.621 116.919 317.878C124.217 322.164 131.524 326.444 138.828 330.741C142.568 332.939 147.541 339.92 147.757 344.426C147.997 349.272 145.145 355.473 144.162 360.098C143.972 360.989 143.766 361.92 143.186 362.543C140.503 365.489 134.478 366.378 131.064 368.577C128.237 370.395 125.106 371.819 122.666 374.197C121.674 375.163 116.817 383.141 121.463 383.349C122.271 383.377 122.927 382.863 123.547 382.401C126.703 380.027 131.707 377.056 135.949 377.295C143.691 377.677 151.454 394.56 146.623 400.254Z" fill="#3D3D3D"/>
<path d="M148.344 323.503C142.94 326.03 132.744 319.585 127.995 316.248C126.523 315.22 124.882 313.553 125.275 311.887C125.438 311.18 125.942 310.677 126.452 310.232C127.464 309.346 128.531 308.536 129.668 307.824C131.477 306.696 133.498 305.754 134.739 303.955C136.667 301.165 135.006 296.811 132.73 294.174C131.761 293.057 130.454 292.134 130.009 290.733C129.596 289.436 130.068 288.139 130.344 286.892C131.307 282.555 128.12 277.357 129.883 273.404C130.81 271.31 133.275 270.405 135.536 271.012C136.301 271.218 137.045 271.573 137.774 271.969C139.263 272.773 140.719 273.748 142.291 274.259C144.877 275.109 147.866 273.781 150.155 272.916C153.654 271.603 156.191 268.403 160.109 267.984C163.577 267.609 169.927 269.34 171.453 273.112C172.476 275.639 171.699 280.99 170.848 283.286C169.313 287.43 167.08 291.208 164.228 294.342C162.6 296.133 160.78 297.727 159.46 299.801C155.402 306.156 154.816 314.724 150.556 321.256C149.979 322.139 149.345 323.038 148.417 323.492C148.404 323.469 148.374 323.486 148.344 323.503Z" fill="#20BDEF" fill-opacity="0.3"/>
<path d="M213.35 365.439C211.28 365.443 209.217 365.413 207.127 365.337C206.319 365.308 205.471 365.257 204.723 364.827C201.03 362.663 203.095 355.686 199.313 352.792C196.385 350.558 192.488 352.099 189.553 352.46C186.755 352.805 183.777 352.884 180.997 351.67C177.922 350.333 177.474 348.213 175.632 345.757C173.608 343.051 171.6 341.181 168.977 338.972C164.96 335.599 163.5 329.934 162.535 324.767C162.341 323.759 162.167 322.74 162.208 321.751C162.252 320.514 162.634 319.36 163.033 318.258C165.651 310.933 169.566 304.952 173.319 298.434C176.445 293.011 178.554 284.935 184.789 282.776C189.431 281.177 194.766 284.272 199.442 287.068C215.331 296.586 234.094 306.697 251.436 310.798C252.078 310.952 252.73 311.1 253.289 311.5C253.776 311.866 254.143 312.391 254.483 312.917C261.912 324.303 263.755 336.816 265.134 349.626C265.39 352.055 265.559 354.657 264.427 356.577C263.11 358.818 260.427 359.526 257.946 360.057C243.38 363.182 228.534 365.379 213.35 365.439Z" fill="#3D3D3D"/>
<path d="M190.842 399.033C186.982 400.522 183.261 402.345 178.998 402.899C175.632 403.339 172.006 403.114 168.723 401.437C165.046 399.556 162.182 396.074 159.59 392.606C155.556 387.219 153.304 381.44 156.026 375.451C158.467 370.098 159.606 366.947 156.888 360.423C153.79 352.982 160.269 352.033 166.087 353.134C170.623 354.002 173.12 356.728 176.478 359.988L181.462 368.695C185.757 371.495 188.768 373.804 193.53 374.42C202.106 375.521 210.995 375.048 219.464 374.922C241.172 374.593 262.242 371.255 283.862 370.793C297.268 370.509 308.851 366.163 322.348 373.692C326.131 375.804 329.784 378.22 333.265 380.935C334.026 381.526 334.777 382.124 335.409 382.881C336.384 384.055 336.999 385.497 337.583 386.911C340.902 394.853 342.684 411.48 334.196 414.637C328.309 416.826 321.523 416.433 315.632 418.594C312.786 419.64 310.191 421.264 307.253 422.056C298.921 424.311 295.854 416.209 289.155 412.853C288.284 412.416 287.348 412.232 286.417 412.059C262.449 407.519 238.546 400.672 214.539 397.289C208.41 396.427 202.161 396.187 196.292 397.37C194.407 397.743 192.608 398.359 190.842 399.033Z" fill="#3D3D3D"/>
<path d="M132.278 443.917C132.339 445.66 132.469 447.41 132.636 449.154C134.693 471.771 141.538 494.499 152.334 515.226C163.945 537.495 179.973 552.974 200.172 566.217C204.074 568.768 208.393 571.263 212.622 570.835C215.408 570.559 217.787 569.043 220.431 568.266C224.937 566.96 230.224 567.965 234.526 570.961C240.701 575.245 244.242 582.724 248.875 588.903C261.595 605.845 282.177 612.538 301.185 616.714C303.39 617.199 305.681 617.697 307.643 619.073C311.912 622.057 314.686 628.978 319.429 628.731C323.83 628.512 324.678 622.338 324.459 617.527C324.21 612.135 323.978 606.748 323.729 601.356C323.542 597.109 323.269 592.574 320.972 588.814C318.503 584.754 314.24 582.472 310.55 579.693C303.949 574.733 298.695 567.744 292.051 562.87C282.392 555.796 270.055 553.889 260.237 557.93C256.105 559.636 251.883 562.359 247.321 560.8C242.154 559.036 239.366 552.828 236.842 547.543C233.31 540.151 228.871 533.156 223.688 526.846C220.798 523.319 217.556 519.916 213.638 518.004C209.719 516.092 205.006 515.954 202.109 518.685C198.952 521.657 197.369 527.884 192.892 526.981C190.72 526.553 189.024 524.443 187.711 522.404C184.713 517.742 182.737 510.717 186.619 507.928C189.022 506.199 192.521 507.125 195.393 506.308C200.104 504.992 202.27 499.091 201.538 493.638C200.816 488.18 197.891 483.093 194.959 478.271C193.865 476.474 192.672 474.597 190.938 473.551C188.657 472.173 185.994 472.593 183.761 473.442C178.844 475.322 174.902 479.019 170.501 481.891C166.106 484.775 160.742 486.864 155.349 485.168C150.451 482.652 161.16 477.978 165.411 476.25C169.672 474.516 174.313 473.009 177.056 469.201C179.8 465.392 179.381 458.319 174.966 455.725C171.345 453.597 167.369 455.505 163.471 455.498C158.742 455.491 153.768 452.267 151.26 447.585C148.752 442.904 148.855 437.019 151.502 433.158C152.424 431.817 153.641 430.646 154.05 428.985C154.629 426.584 153.212 423.716 151.121 422.184C149.026 420.669 146.453 420.348 144.168 420.783C138.924 421.791 135.153 426.433 133.514 431.802C132.36 435.621 132.12 439.744 132.278 443.917Z" fill="#3D3D3D"/>
<path d="M368.674 577.29C367.918 577.585 367.153 577.885 366.404 578.191C364.075 579.171 361.739 580.141 359.248 580.677C353.461 581.935 345.275 581.332 339.32 578.884C333.587 576.524 329.1 570.414 324.624 566.031C321.263 562.742 317.351 560.244 313.838 557.15C310.324 554.055 307.103 550.089 306.195 545.503C305.237 540.67 306.991 536.125 308.704 531.924C310.415 527.741 312.125 523.558 313.836 519.374C317.323 510.847 328.043 519.429 333.316 512.731C334.537 511.173 335.774 509.622 336.995 508.065C337.32 507.664 337.648 507.246 338.112 507.042C338.576 506.838 339.125 506.876 339.665 506.92C342.48 507.133 345.295 507.346 348.109 507.559C350.288 507.723 352.573 507.932 354.536 509.216C358.153 511.592 358.766 514.047 358.238 517.553C357.731 520.909 356.963 523.971 360.5 526.392C362.389 527.687 364.614 528.391 366.202 530.104C367.538 531.563 368.231 533.558 368.477 535.486C368.687 537.145 368.702 538.991 369.793 540.299C370.253 540.848 370.852 541.226 371.414 541.655C380.947 548.923 372.46 556.787 374.851 564.954C375.353 566.66 376.576 568.244 376.577 569.976C376.583 571.138 376.019 572.135 375.362 572.971C373.594 575.256 371.179 576.316 368.674 577.29Z" fill="#3D3D3D"/>
<path d="M171.876 422.037C171.736 422.485 171.653 422.962 171.635 423.463C171.544 425.079 172.142 426.745 172.802 428.314C176.656 437.423 184.12 444.143 189.843 451.952C197.624 462.569 204.957 461.959 215.08 459.629C218.273 458.89 224.291 458.542 227.315 461.288C231.95 465.488 225.598 468.526 221.548 468.208C219.962 468.088 218.343 467.543 216.789 467.712C209.37 468.494 213.876 486.351 216.461 491.05C216.461 491.05 223.992 504.784 224.415 505.569C230.344 516.388 239.049 526.016 248.177 533.869C250.407 535.781 252.73 537.625 255.295 538.809C264.474 543.015 282.866 540.858 290.135 535.455C294.163 532.46 297.026 527.939 298.741 522.91C300.495 517.812 301.483 511.65 305.903 509.135C307.812 508.043 310.144 507.827 312.046 506.723C318.545 502.972 310.373 495.661 307.132 491.751C301.18 484.58 297.219 475.655 295.72 466.625C294.96 462.046 294.651 457.102 295.421 452.706C296.201 448.258 299.01 444.979 299.79 440.577C301.604 430.324 285.351 426.811 279.034 425.275C263.502 421.502 247.895 417.756 232.293 414.989C220.436 412.884 208.183 409.718 196.518 411.198C189.516 412.063 174.296 413.952 171.876 422.037Z" fill="#3D3D3D"/>
<path d="M426.645 587.841C417.075 590.468 412.873 580.822 407.538 572.746C400.337 561.827 389.777 554.948 385.755 542.502C384.108 537.389 381.247 530.974 377.33 527.544C373.278 523.992 372.675 521.697 369.774 516.673C367.169 512.169 368.625 501.23 366.02 496.727C361.509 488.914 358.103 480.638 366.41 480.673C374.718 480.707 376.954 498.631 377.97 502.02C377.97 502.02 387.462 518.603 387.535 518.73C395.077 531.906 400.095 542.541 414.458 548.516C415.709 549.042 417.033 549.51 418.282 549.363C419.504 549.215 420.541 548.514 421.552 547.859C426.169 544.925 431.371 542.944 436.853 542.029C439.602 541.575 442.695 541.582 445.279 540.609C448.596 539.37 448.966 537.18 451.641 535.143C454.545 532.929 457.943 532.087 461.557 531.506C468.566 530.376 477.315 531.041 482.042 524.932C487.269 518.153 484.062 507.202 484.434 497.913C484.735 490.229 487.65 483.332 490.536 476.636C494.272 468.012 496.415 459.12 490.203 449.72C482.705 438.374 468.552 434.287 460.213 423.591C458.05 420.828 456.275 417.612 453.555 415.535C451.921 414.294 450.044 413.528 448.356 412.379C441.212 407.484 443.272 399.068 438.112 393.145C435.463 390.108 432.144 387.883 428.762 385.987C427.805 385.446 426.64 384.61 426.728 383.517C426.761 383.115 426.967 382.782 427.186 382.473C428.719 380.262 431.686 377.076 434.366 376.339C438.6 375.158 443.298 376.102 447.682 377.487C458.663 380.968 470.033 376.805 480.891 380.923C481.739 381.25 482.596 381.618 483.301 382.273C484.068 382.968 484.594 383.909 485.106 384.827C491.745 396.818 495.439 407.214 496.016 420.651C496.155 423.868 496.032 427.066 496.621 430.286C497.167 433.27 498.323 436.165 499.641 438.952C506.387 453.182 517.352 464.843 524.35 478.913C526.897 484.032 530.491 491.879 530.309 497.533C530.178 501.87 527.316 505.425 525.884 509.173C523.685 514.924 521.125 520.483 518.225 525.792C517.116 527.821 515.942 529.828 514.423 531.51C512.748 533.357 510.707 534.771 508.724 536.243C497.17 544.835 487.798 555.811 475.836 563.992C460.898 574.213 444.506 582.217 427.152 587.689C427 587.745 426.814 587.79 426.645 587.841Z" fill="#3D3D3D"/>
<path d="M452.221 513.321C450.753 515.414 448.9 517.21 447.628 518.314C442.852 522.458 438.067 526.609 433.299 530.763C432.603 531.36 431.907 531.974 431.025 532.273C429.945 532.641 428.71 532.506 427.502 532.365C423.094 531.854 418.387 531.056 414.726 527.721C407.465 521.103 400.739 511.316 394.662 503.529C388.999 496.281 382.013 486.546 382.086 477.556C382.111 473.914 382.144 470.229 383.075 466.852C384.347 462.251 387.201 458.473 390.302 455.098C394.423 450.592 398.546 454.034 404.147 454.806C405.139 455.066 406.15 455.345 407.034 455.932C410.641 458.374 412.341 470.343 413.794 474.171C415.516 478.703 419 488.831 424.944 489.282C426.439 489.401 427.84 488.945 429.224 488.575C432.167 487.789 435.244 487.381 438.386 487.341C440.435 487.308 442.546 487.45 444.57 488.237C449.786 490.253 451.255 496.038 452.901 500.707C454.646 505.715 454.995 509.383 452.221 513.321Z" fill="#20BDEF" fill-opacity="0.3"/>
<path d="M469.974 479.729C469.974 479.729 460.724 482.616 460.688 482.622C457.358 483.654 453.244 481.701 449.821 480.839C445.318 479.706 440.825 479.212 436.38 479.656C435.207 479.775 433.998 479.946 432.8 479.605C428.748 478.429 427.102 472.625 425.278 469.116C423.074 464.873 421.122 460.517 419.454 456.06C417.665 451.273 414.881 447.286 410.931 443.936C404.747 438.691 398.663 433.664 390.884 436.262C389.817 436.612 388.846 437.153 387.882 437.705C382.964 440.504 378.201 443.598 373.627 446.953C372.636 447.689 371.578 448.447 370.307 448.485C368.691 448.521 367.082 447.326 366.061 445.841C363.095 441.559 362.945 433.826 358.176 430.96L352.051 427.291C352.051 427.291 346.27 419.684 346.089 419.435C342.607 414.851 350.919 403.592 350.018 398.19C349.544 395.334 347.862 392.602 347.825 389.771C347.703 381.394 356.352 384.768 361.183 385.482C363.865 385.879 366.372 386.453 368.983 387.533C374.574 389.853 379.776 393.682 385.606 394.99C387.454 395.405 389.308 395.508 391.146 395.514C396.707 395.52 402.146 394.599 407.241 392.802C411.522 391.287 416.022 389.14 420.62 390.832C432.229 395.087 433.271 413.164 442.701 420.231C444.091 421.275 445.667 421.998 447.05 423.077C448.909 424.527 450.334 426.532 451.859 428.389C461.472 440.18 479.881 444.622 483.117 461.228C483.492 463.129 483.718 465.115 483.19 466.844C482.571 468.9 480.983 470.299 479.462 471.63C476.296 474.331 473.117 477.01 469.974 479.729Z" fill="#3D3D3D"/>
<path d="M353.771 329.81C351.681 331.808 348.118 330.518 345.109 330.289C330.78 329.215 329.934 358.844 340.701 365.755C346.117 369.222 354.35 367.233 359.977 367.493C367.669 367.856 375.419 368.943 383.091 370.771C390.497 372.524 393.611 378.519 401.232 379.151C409.141 379.799 416.502 376.796 422.707 372.578C428.687 368.52 433.955 362.781 441.205 361.657C447.745 360.653 454.603 363.642 461.302 365.497C467.657 367.262 474.168 368.029 480.514 367.771C482.991 367.67 485.551 367.369 487.479 365.918C489.861 364.13 490.867 360.907 491.707 357.854C496.406 340.652 499.345 323.535 498.627 304.985C498.001 288.925 496.808 272.13 506.143 259.614C508.595 256.334 511.651 253.511 513.256 249.626C515.068 245.275 514.862 240.097 514.711 235.129C514.104 215.275 514.81 195.547 516.785 176.122C518.303 161.135 525.791 140.294 505.731 133.406C499.207 131.163 492.466 131.239 485.823 131.001C479.189 130.758 472.275 130.116 466.116 126.665C452.541 119.046 456.643 100.386 442.755 92.7949C432.826 87.3711 422.293 93.5515 413.597 99.0437C396.659 109.738 380.471 114.086 360.151 103.791C350.447 98.8744 341.398 92.2663 331.744 87.1845C326.751 84.5495 320.312 82.5004 316.747 86.281C314.48 88.6837 314.29 92.7113 315.038 96.3235C317.786 109.656 334.588 109.193 345.814 116.492C354.181 121.932 358.202 136.911 366.569 142.351C372.202 146.012 386.475 154.805 384.644 163.344C383.931 166.642 380.735 168.229 377.897 169.566C371.151 172.747 323.671 201.498 345.252 210.33C347.092 211.078 349.015 211.324 350.922 211.564C352.485 211.759 354.075 211.953 355.582 211.681C357.125 211.403 358.517 210.652 359.872 209.906C363.083 208.159 366.287 206.401 369.497 204.654C373.331 202.565 375.842 200.267 379.88 196.759C382.556 193.063 401.522 181.72 404.019 191.35C404.153 198.249 392.891 202.264 388.212 206.425C381.915 212.027 371.933 213.958 369.227 222.422C367.298 228.414 369.901 235.428 372.462 241.725C376.998 252.899 382.252 262.194 388.228 272.634C391.873 278.84 402.296 289.671 399.865 297.115C399.076 299.564 397.268 301.386 395.32 302.849C388.999 307.602 380.973 309.306 373.521 311.968C366.059 314.635 358.573 318.829 355.517 326.541C355.07 327.674 354.705 328.882 353.894 329.724C353.847 329.736 353.804 329.776 353.771 329.81Z" fill="#1B7754" stroke="white" stroke-width="3" stroke-miterlimit="10"/>
<path d="M339.748 174.975C338.244 175.253 336.635 175.254 335.062 175.204C322.444 174.837 312.818 165.767 309.114 151.988C306.661 142.86 307.663 124.686 318.427 123.707C321.497 123.421 324.695 124.534 327.754 125.727C331.835 127.3 335.956 129.081 339.517 131.934C346.432 137.466 352.114 152.028 350.72 160.522C350.203 163.701 348.713 166.47 347.077 169.031C345.76 171.089 344.271 173.122 342.147 174.184C341.401 174.565 340.593 174.813 339.748 174.975Z" fill="#20BDEF"/>
<path d="M213.261 140.988C212.994 142.643 213.025 144.358 213.52 146.098C214.82 150.674 219.088 154.027 223.335 155.336C227.599 156.652 231.921 156.339 236.177 156.188C250.041 155.688 265.058 157.364 277.251 166.513C279.034 167.853 280.827 169.464 281.663 171.592C282.911 174.787 281.665 178.122 280.142 180.788C276.296 187.466 270.584 192.729 263.791 195.805C260.504 197.303 256.325 199.618 257.384 203.612C258.125 206.407 261.058 207.886 263.474 209.294C276.139 216.685 283.046 234.886 278.11 247.892C276.349 252.518 267.875 263.286 272.744 268.379C276.988 272.819 292.512 268.348 297.935 269.475C305.647 271.071 312.754 276.892 317.471 284.096C322.188 291.299 324.722 299.738 325.925 308.065C326.421 311.537 327.492 316.014 330.7 316.799C332.018 317.118 333.277 316.643 334.449 316.155C348.402 310.392 361.605 302.972 373.756 294.039C376.096 292.316 378.589 290.215 378.834 287.023C379.11 283.493 376.584 280.14 374.388 277.135C368.093 268.534 363.173 258.855 359.972 248.744C357.864 242.086 356.266 234.844 351.526 229.723C346.171 223.942 338.291 222.489 331.951 218.1C323.529 212.265 321.662 202.985 320.703 193.584C319.452 181.253 317.005 184.126 308.87 176.394C296.604 164.742 289.953 145.444 294.647 130.124C296.519 124.009 299.87 118.656 301.407 112.395C302.944 106.134 302.172 98.1895 297.2 93.4465C284.702 81.5281 266.36 97.4241 256.801 103.37C248.171 108.724 239.806 114.54 231.758 120.772C224.866 126.097 214.865 131.223 213.261 140.988Z" fill="#1B7754" stroke="white" stroke-width="3" stroke-miterlimit="10"/>
<path d="M478.463 182.191C478.449 182.174 478.434 182.157 478.42 182.14C477.677 181.279 476.614 180.022 475.337 178.448C472.781 175.3 469.377 170.892 465.975 165.85C462.57 160.804 459.187 155.15 456.66 149.509C454.124 143.848 452.5 138.309 452.5 133.463C452.5 119.108 464.108 107.5 478.463 107.5C492.818 107.5 504.426 119.108 504.426 133.463C504.426 138.309 502.802 143.848 500.266 149.509C497.739 155.15 494.356 160.804 490.951 165.85C487.55 170.892 484.145 175.3 481.59 178.448C480.313 180.022 479.249 181.279 478.507 182.14C478.492 182.157 478.478 182.174 478.463 182.191ZM467.155 133.463C467.155 139.706 472.221 144.771 478.463 144.771C484.706 144.771 489.771 139.706 489.771 133.463C489.771 127.221 484.706 122.155 478.463 122.155C472.221 122.155 467.155 127.221 467.155 133.463Z" fill="#F9B112" stroke="white" stroke-width="3"/>
<path d="M214.354 314.753C214.354 314.753 214.803 314.019 215.403 313.281C215.448 313.228 215.403 313.143 215.337 313.152C214.261 313.246 213.376 314.073 213.376 314.073L214.354 314.753Z" fill="black"/>
<path d="M215.973 313.68C215.622 313.711 215.297 313.845 215.044 313.987L215.035 314.009C215.035 314.009 215.302 314.209 215.515 314.458C215.649 314.263 215.827 314.023 216.022 313.783C216.058 313.738 216.027 313.676 215.973 313.68Z" fill="black"/>
<path d="M218.975 318.038C218.375 316.837 216.872 316.224 216.036 315.219C215.858 315.005 215.712 314.756 215.489 314.583C213.529 313.049 210.59 313.485 208.878 315.188C207.78 316.281 206.98 317.682 206.015 318.909H206.882L205.841 319.127C205.375 319.696 204.859 320.221 204.254 320.647L205.343 320.705C205.343 320.705 204.525 321.048 203.716 320.985C203.596 321.052 203.476 321.114 203.352 321.172C200.902 322.292 197.883 321.55 195.665 320.278C194.904 319.843 194.131 319.394 193.281 319.18C190.729 318.536 187.422 320.59 187.022 323.226C186.919 323.902 186.933 324.569 187.088 325.236C187.075 326.778 187.048 328.286 186.675 329.811C186.515 330.455 185.99 330.971 185.861 331.589C185.759 332.069 186.008 332.603 185.999 333.087C185.977 334.35 185.132 336.133 184.825 337.364C184.541 337.809 184.363 338.227 184.807 338.583C184.852 339.249 184.692 339.316 184.576 339.965C184.527 340.232 184.505 340.414 184.767 340.579C184.954 340.694 185.203 340.739 185.421 340.761C185.919 340.81 186.893 340.943 186.879 340.236C186.87 339.761 186.71 339.285 186.421 338.894C186.266 338.685 186.146 338.609 186.146 338.347C186.146 338.08 186.203 337.818 186.235 337.556C186.328 336.737 186.479 335.906 186.644 335.101C186.835 334.163 187.306 333.247 187.733 332.385C188.026 331.794 188.404 331.242 188.8 330.7C188.729 329.891 188.475 329.068 188.298 328.059C188.733 328.624 189.049 329.677 189.182 330.184C189.187 330.175 189.191 330.171 189.196 330.162C189.24 330.366 189.271 330.58 189.289 330.789C189.298 331.104 189.302 331.425 189.293 331.749C189.258 332.105 189.187 332.456 189.067 332.789C188.684 333.852 188.409 334.288 188.973 335.359C189.707 336.751 189.587 338.329 189.734 339.89C189.756 340.116 189.894 340.325 190.12 340.316C190.347 340.308 189.987 341.53 190.258 341.761C190.587 342.037 191.379 342.153 191.77 342.064C193.077 341.766 191.885 340.219 191.401 339.721C190.89 339.192 190.552 338.974 190.467 338.089C190.405 337.467 190.498 336.813 190.507 336.186C190.512 335.635 190.414 335.057 190.467 334.51C190.538 333.776 190.943 333.345 191.312 332.776C191.37 332.687 191.427 332.589 191.485 332.496C191.881 332.14 192.677 331.767 192.988 331.327C193.473 330.633 193.864 329.842 194.14 329.028C194.14 329.028 194.14 329.028 194.14 329.024C194.202 328.846 194.255 328.668 194.308 328.49C194.317 328.495 194.322 328.495 194.326 328.499C194.517 327.948 194.815 327.032 195.078 326.04C194.984 327.063 194.851 327.939 194.713 328.659C194.958 328.761 195.198 328.868 195.438 328.979C196.705 329.579 197.825 330.429 199.208 330.771C200.515 331.095 201.8 330.998 203.049 330.678C204.183 330.526 205.21 329.98 206.29 329.615C206.499 329.544 206.704 329.468 206.908 329.388C206.9 329.584 206.886 329.779 206.864 329.975C206.797 330.633 206.348 331.22 206.308 331.851C206.273 332.345 206.593 332.834 206.655 333.318C206.811 334.572 206.224 336.453 206.09 337.72C205.873 338.2 205.753 338.64 206.242 338.929C206.379 339.583 206.228 339.672 206.206 340.334C206.197 340.605 206.197 340.788 206.482 340.912C206.682 341.001 206.935 341.006 207.153 340.997C207.651 340.975 208.469 341.055 208.358 340.357C208.282 339.885 208.224 339.525 207.882 339.178C207.7 338.992 207.566 338.765 207.531 338.507C207.495 338.245 207.513 337.978 207.509 337.711C207.486 336.889 207.522 336.044 207.571 335.226C207.629 334.27 207.967 333.301 208.269 332.38C208.549 331.531 208.998 330.735 209.429 329.935C208.851 329.708 208.096 329.393 207.513 329.064C207.504 329.059 207.5 329.055 207.491 329.05C207.473 329.041 207.455 329.033 207.438 329.019C207.429 329.015 207.42 329.01 207.415 329.006C207.398 328.997 207.384 328.988 207.371 328.979C207.362 328.975 207.353 328.97 207.349 328.966C207.335 328.957 207.317 328.948 207.304 328.939C207.295 328.935 207.291 328.93 207.282 328.926C207.269 328.917 207.251 328.908 207.237 328.899C207.229 328.895 207.224 328.89 207.215 328.886C207.202 328.877 207.184 328.864 207.171 328.855C207.166 328.85 207.162 328.846 207.153 328.846C207.135 328.832 207.117 328.824 207.104 328.81C207.1 328.81 207.1 328.806 207.095 328.806C207.033 328.761 206.98 328.721 206.931 328.681C206.855 328.619 206.793 328.561 206.744 328.499C206.215 327.872 205.686 327.725 205.65 327.712L206.148 327.845C206.406 327.974 206.651 328.121 206.873 328.277C208.176 329.188 209.918 329.868 211.528 329.771C212.986 329.682 213.715 330.531 213.751 331.945C213.769 332.767 213.084 333.652 213.244 334.417C213.306 334.719 213.524 335.11 213.048 335.239C213.044 335.239 213.039 335.244 213.031 335.244C213.013 335.257 212.991 335.27 212.964 335.284C212.848 335.333 212.386 335.341 212.048 335.333C211.523 335.622 210.919 337.204 211.595 337.489C212.617 337.92 213.982 336.64 214.36 335.79C214.911 334.55 214.489 333.145 214.725 331.856C214.911 330.842 215.294 329.402 214.204 328.752C213.489 328.326 212.715 328.001 212.008 327.556C212.284 326.725 212.039 325.831 212.301 324.871C212.453 324.311 212.871 323.809 213.017 323.226C213.28 322.19 213.413 321.123 213.409 320.056C213.409 319.603 213.328 319.074 213.466 318.7C213.297 318.469 213.115 318.153 213.137 317.869C213.137 317.869 213.253 318.193 213.555 318.531C213.555 318.531 213.555 318.527 213.56 318.527C213.72 318.651 213.902 318.767 214.124 318.851C215.116 319.242 215.476 318.753 216.218 318.736C216.396 318.771 216.579 318.798 216.756 318.802C217.912 319.105 218.161 319.002 218.161 319.002C218.161 319.002 219.117 318.318 218.975 318.038Z" fill="black"/>
<path d="M189.347 320.87C189.147 320.265 188.582 319.896 188.053 319.603C187.444 319.269 186.822 318.927 186.159 318.714C184.407 318.149 182.531 318.803 181.362 320.199C180.148 321.644 179.855 323.533 179.054 325.191C178.521 326.29 177.761 327.272 176.689 327.886C175.88 328.344 174.973 328.584 174.053 328.664C174.035 328.828 174.097 328.993 174.266 329.077C175.751 329.806 177.681 330.255 179.29 329.673C179.361 329.633 181.02 328.659 181.718 327.695C181.273 328.513 180.766 329.131 180.299 329.589C181.264 329.606 182.162 328.922 182.825 328.29C183.558 327.588 184.212 326.743 184.501 325.756C184.941 324.258 184.176 321.826 185.559 320.754C186.31 320.172 187.613 320.145 188.244 320.928C188.302 321.003 188.391 321.043 188.484 321.052C188.498 321.074 188.502 321.097 188.511 321.11C188.671 321.644 189.525 321.412 189.347 320.87Z" fill="black"/>
<path d="M306.366 233.052C306.366 233.052 306.361 233.052 306.366 233.052C306.361 233.052 306.361 233.052 306.366 233.052C306.408 233.052 306.434 233.047 306.429 233.047C306.408 233.052 306.387 233.052 306.366 233.052Z" fill="black"/>
<path d="M338.077 249.957C338.067 249.884 338.051 249.815 338.025 249.752C337.872 249.368 337.467 249.064 337.252 248.722C336.658 247.76 336.348 246.614 336.1 245.478C334.781 245.683 333.467 246.251 332.946 246.493C332.962 246.514 332.978 246.53 332.988 246.551C333.141 246.882 333.262 247.155 333.309 247.224C333.866 248.128 334.697 248.795 335.238 249.673C335.785 250.567 335.675 251.755 335.591 252.775C335.548 253.274 335.454 253.795 335.454 254.299C335.459 254.851 335.622 255.388 335.58 255.95C335.538 256.486 335.433 257.007 335.27 257.517C335.18 257.806 335.075 258.09 334.965 258.374C334.918 258.5 334.65 258.905 334.707 259.036C334.849 259.367 336.284 259.178 336.532 259.025C337.073 258.694 336.605 257.527 336.7 257.023C336.742 256.791 336.784 256.565 336.826 256.334C336.973 255.545 336.868 254.72 336.973 253.905C337.068 253.19 337.225 252.486 337.451 251.813C337.625 251.287 338.145 250.525 338.077 249.957Z" fill="black"/>
<path d="M343.593 246.65C343.093 246.43 342.862 245.92 342.699 245.373C342.52 244.779 342.452 244.159 342.294 243.559C342.115 242.876 341.805 242.256 341.322 241.74C340.354 240.71 339.045 240.158 338.004 239.249C337.836 239.002 337.668 238.765 337.5 238.544C336.585 237.335 335.181 237.009 334.44 235.669C333.142 233.319 330.692 230.07 327.816 229.718C324.994 229.366 324.11 232.52 322.617 234.212C321.377 235.621 318.985 235.616 317.907 237.13C317.697 237.424 317.565 237.782 317.292 238.018C316.709 238.518 315.915 237.745 315.473 237.382C314.969 236.967 314.606 236.494 314.306 235.916C313.959 235.243 313.675 234.538 313.339 233.855C313.123 233.424 312.887 233.003 312.608 232.609C312.471 232.409 312.324 232.22 312.167 232.036C312.04 231.889 311.914 231.658 311.72 231.6C311.546 231.552 311.247 231.484 311.073 231.447C311.304 231.474 311.536 231.442 311.714 231.4C312.14 231.305 312.745 231.163 312.987 230.753C313.108 230.548 312.976 230.391 312.703 230.275C311.725 229.865 310.558 229.749 309.517 229.949C308.986 230.054 308.455 230.238 308.029 230.585C307.393 231.1 307.183 231.106 306.363 231.29C305.664 231.447 304.092 231.847 303.913 232.656C303.803 233.145 303.987 233.476 304.292 233.687C304.376 234.023 304.675 234.365 305.054 234.318C305.495 234.26 305.932 234.165 306.373 234.097C306.368 234.097 306.368 234.097 306.363 234.097C306.368 234.097 306.373 234.097 306.379 234.097C306.421 234.092 306.442 234.092 306.442 234.092C306.473 234.086 306.5 234.081 306.531 234.081C306.547 234.081 306.568 234.081 306.584 234.076C306.789 234.181 306.978 234.339 307.251 234.575C308.04 235.259 309.238 235.816 310.158 235.148C310.542 236.662 310.968 238.155 311.746 239.532C312.035 240.048 312.377 240.558 312.776 241.01C313.076 241.43 313.428 241.814 313.854 242.129C314.674 242.739 315.699 243.018 316.688 243.207C317.387 243.344 318.112 243.417 318.822 243.323C318.964 243.459 319.111 243.596 319.253 243.728C319.358 243.827 319.468 243.922 319.574 244.017C319.637 245.242 319.8 246.451 320.036 247.66C320.273 248.858 320.525 250.067 320.588 251.287C320.588 251.371 320.583 251.455 320.583 251.545C320.583 251.692 320.588 251.834 320.604 251.981C320.604 252.065 320.604 252.154 320.599 252.239C320.593 252.349 320.625 252.438 320.678 252.501C320.709 252.685 320.746 252.869 320.777 253.048C320.961 254.036 320.925 255.04 320.904 256.039C320.893 256.581 320.893 257.101 320.751 257.627C320.63 258.068 320.262 258.463 320.21 258.925C320.147 259.514 322.228 259.441 322.433 259.078C322.596 258.789 322.581 258.273 322.491 257.958C322.297 257.269 322.281 256.512 322.318 255.808C322.36 255.019 322.47 254.231 322.586 253.453C322.602 253.358 322.612 253.264 322.628 253.169C322.633 253.148 322.638 253.085 322.649 253.032C322.649 253.022 322.654 253.011 322.654 253.006C322.659 252.959 322.665 252.906 322.67 252.859C322.675 252.754 322.68 252.649 322.675 252.549C322.675 252.496 322.67 252.449 322.665 252.396C322.649 252.323 322.638 252.249 322.623 252.175C322.586 252.018 322.539 251.86 322.491 251.708C322.36 251.266 322.244 250.84 322.186 250.383C322.123 249.894 322.171 249.41 322.244 248.927C322.318 248.443 322.391 248.022 322.539 247.555C322.386 247.244 322.26 246.855 322.081 246.608C321.666 246.03 320.956 245.1 320.956 245.1C320.956 245.1 321.866 245.546 322.244 246.477C322.381 246.808 322.507 247.134 322.617 247.418C322.617 247.413 322.617 247.413 322.623 247.407C322.733 247.691 322.843 247.986 322.949 248.28C322.954 248.291 322.954 248.296 322.954 248.296C322.954 248.296 322.954 248.296 322.954 248.291C323.227 249.053 323.464 249.831 323.616 250.546C323.737 251.098 323.48 251.597 323.637 252.149C323.816 252.775 324.252 253.285 324.447 253.889C324.615 254.404 324.578 255.025 324.62 255.577C324.678 256.281 324.731 256.991 324.62 257.695C324.541 258.195 324.279 258.62 324.068 259.067C323.832 259.572 323.837 259.824 324.457 259.845C324.431 259.835 324.405 259.83 324.378 259.819C324.62 259.872 324.867 259.924 325.109 259.908C325.803 259.861 325.94 259.267 325.945 258.673C325.956 258.631 325.966 258.594 325.971 258.552C326.024 258.258 325.966 257.953 325.95 257.658C325.919 257.028 325.919 256.397 325.966 255.766C326.055 254.578 326.602 253.532 326.224 252.317C325.829 251.056 325.866 249.715 325.992 248.411C326.034 247.98 326.082 247.555 326.119 247.124C326.119 247.108 326.119 247.097 326.124 247.081C326.161 246.65 326.192 246.219 326.203 245.788C326.208 245.788 326.213 245.788 326.218 245.788C326.26 245.063 326.276 244.448 326.276 244.448C326.402 245.073 326.55 245.51 326.56 245.788C326.665 245.788 326.665 245.793 326.77 245.799C327.196 245.82 327.606 245.925 328.011 246.067C328.81 246.345 329.567 246.682 330.424 246.734C331.859 246.819 333.152 246.14 334.456 245.652C335.024 245.436 335.607 245.268 336.207 245.22C336.391 245.205 337.41 247.365 337.568 247.591C338.194 248.496 339.129 249.163 339.734 250.041C340.349 250.935 340.223 252.123 340.134 253.143C340.086 253.642 339.976 254.163 339.981 254.667C339.986 255.219 340.17 255.755 340.123 256.318C340.076 256.854 339.955 257.375 339.776 257.884C339.692 258.121 338.961 259.383 339.24 259.504C339.292 259.53 339.355 259.525 339.413 259.525C339.96 259.504 341.28 259.688 341.427 259.02C341.542 258.479 341.274 257.921 341.385 257.39C341.432 257.159 341.479 256.933 341.527 256.702C341.69 255.913 341.574 255.088 341.69 254.273C341.795 253.558 341.973 252.854 342.226 252.181C342.426 251.655 343.004 250.893 342.925 250.325C342.914 250.251 342.893 250.183 342.867 250.12C342.699 249.736 342.236 249.431 342 249.09C341.248 248.007 340.901 246.692 340.607 245.426C340.354 244.322 340.123 243.202 339.666 242.161C339.508 241.798 339.319 241.42 339.119 241.041C339.214 241.11 339.308 241.183 339.403 241.251C339.771 241.525 340.144 241.798 340.48 242.103C340.733 242.334 340.938 242.576 341.101 242.85C341.174 242.949 341.243 243.055 341.306 243.155C341.637 243.696 341.868 244.295 342.11 244.879C342.168 245.021 342.226 245.163 342.284 245.305C342.31 245.362 342.331 245.42 342.357 245.483C342.362 245.494 342.362 245.499 342.368 245.51C342.483 245.783 342.61 246.056 342.746 246.324C342.867 246.561 343.004 246.792 343.162 247.013C343.167 247.024 343.177 247.029 343.183 247.039C343.214 247.076 343.251 247.113 343.282 247.15C343.319 247.192 343.361 247.229 343.403 247.265C343.445 247.292 343.487 247.318 343.53 247.344C343.556 247.355 343.582 247.36 343.608 247.371C343.629 247.371 343.645 247.371 343.666 247.371C343.708 247.339 343.75 247.297 343.777 247.244C343.855 247.06 343.808 246.745 343.593 246.65Z" fill="black"/>
<path d="M527.593 501.537C527.357 500.979 526.663 500.822 526.205 500.349C526 500.133 525.948 498.903 525.764 498.477C524.702 495.991 522.005 494.23 519.398 493.777C515.676 493.131 514.409 492.616 510.645 493.005C510.645 493.005 509.22 493.168 508.274 493.394C508.873 493.005 509.483 492.726 510.072 492.526C509.961 492.395 509.872 492.284 509.851 492.263C509.178 491.548 508.326 491.207 507.38 491.018C506.019 490.744 504.626 490.728 503.243 490.828C502.864 490.855 502.46 490.77 502.092 490.881C501.55 491.039 501.424 491.433 502.055 491.57C503.043 491.78 504.01 492.305 504.715 493.041C504.904 493.241 505.141 493.541 505.13 493.83C505.109 494.251 504.767 494.34 504.426 494.477C502.675 495.181 500.841 496.127 499.384 497.336C497.413 498.971 495.81 501.048 494.753 503.382C493.476 506.194 492.997 509.359 493.37 512.419C493.391 512.534 493.723 514.248 494.127 515.021C493.707 514.511 493.386 514.027 493.134 513.58C492.345 513.827 490.747 514.989 490.589 515.147C489.785 515.951 489.097 516.94 488.692 518.012C488.571 518.327 488.592 519.61 489.049 519.715C489.365 519.784 490.432 518.627 490.773 518.432C490.773 518.432 490.773 518.432 490.779 518.432C492.119 517.66 493.88 517.313 495.363 517.87C495.994 518.112 496.488 518.8 497.082 518.401C498.596 517.381 496.377 514.532 495.61 513.854C495.258 513.544 496.609 511.556 496.808 511.236C497.45 510.205 498.207 509.243 499.064 508.381C501.992 505.416 506.103 503.429 510.235 502.993C510.382 502.472 510.608 501.899 510.955 501.337C510.776 502.005 510.771 502.946 510.771 502.946L510.718 503.066C510.618 503.582 510.65 505.553 510.829 505.737C511.996 506.93 514.53 503.555 514.556 502.483C514.566 502.099 517.237 501.889 517.6 501.868C520.728 501.689 523.819 502.02 526.899 502.514C527.088 502.546 527.288 502.572 527.467 502.493C527.809 502.325 527.714 501.81 527.593 501.537Z" fill="black"/>
<path d="M118.003 235.06C116.205 238.057 113.692 239.445 112.52 239.96C112.073 240.38 111.647 240.827 111.652 241.358C111.658 242.215 111.957 243.03 111.984 243.881C112.01 244.786 111.463 245.627 111.773 246.531C112.01 247.22 112.704 247.64 113.366 247.509C113.718 247.435 114.218 247.209 114.349 246.81C114.554 246.184 113.708 246.068 113.54 245.574C113.04 244.118 114.034 242.199 114.722 241.022C115.569 239.576 117.446 238.777 118.507 237.552C119.307 236.627 119.88 235.618 120.437 234.582C119.858 234.235 118.749 233.809 118.003 235.06Z" fill="black"/>
<path d="M141.505 215.69C141.505 215.69 140.921 216.573 141.021 216.784C141.048 216.836 141.51 216.983 141.983 217.12C142.083 216.663 142.357 216.263 142.567 215.837C142.693 215.585 142.803 215.122 142.703 214.849C142.472 214.223 142.22 215.064 141.983 215.296C141.841 215.432 141.678 215.548 141.515 215.659L141.505 215.69Z" fill="black"/>
<path d="M130.259 238.805C130.28 238.731 130.296 238.652 130.317 238.579C130.154 237.985 130.06 237.343 130.007 236.928C129.586 236.917 128.84 236.896 128.199 236.818C128.22 236.986 128.241 237.159 128.262 237.327C128.32 237.753 128.419 238.074 128.293 238.452C128.193 238.763 128.109 239.115 127.983 239.414C127.694 240.077 127.946 240.629 127.925 241.296C127.899 242.017 127.683 242.726 127.584 243.441C127.494 244.067 127.426 244.692 127.389 245.323C127.363 245.76 127.258 246.364 127.526 246.727C127.668 246.916 127.883 247.021 128.099 247.063C128.477 247.132 128.987 247.121 129.36 247.016C129.402 247.005 129.445 246.984 129.481 246.958H129.487C129.765 246.958 130.018 246.69 130.002 246.359C129.986 246.001 129.597 245.707 129.366 245.491C129.124 245.271 128.877 245.108 128.856 244.745C128.835 244.314 129.04 243.767 129.14 243.357C129.518 241.838 129.891 240.324 130.259 238.805Z" fill="black"/>
<path d="M147.702 221.284C147.681 221.226 147.645 221.173 147.581 221.11C147.366 220.9 146.819 220.784 146.541 220.669C145.841 220.369 145.179 220.038 144.569 219.586C144.632 219.633 144.716 218.918 144.685 218.818C144.438 217.972 142.424 217.346 141.673 217.199C141.347 217.136 140.994 217.041 140.637 216.952C140.779 216.437 141.089 215.974 141.331 215.485C141.494 215.159 141.615 214.607 141.489 214.255C141.268 213.63 140.963 214.329 140.779 214.576C140.301 215.233 139.523 215.543 138.986 216.137C138.755 216.39 138.55 216.668 138.371 216.963C137.63 217.225 137.004 217.704 136.342 218.145C135.448 218.739 134.45 219.397 133.666 220.196C132.794 221.084 132.094 222.12 131.111 222.898C130.386 223.471 129.524 223.875 128.593 223.939C127.558 224.012 126.585 223.86 125.649 224.459C123.626 225.747 121.638 226.036 119.289 226.188C116.613 226.367 113.764 227.34 111.966 229.432C111.561 229.285 111.135 229.185 110.699 229.217C110.373 229.238 110.094 229.479 110.094 229.821C110.094 230.131 110.373 230.447 110.699 230.426C110.993 230.405 111.277 230.468 111.545 230.562C111.524 230.625 111.514 230.694 111.514 230.767C111.503 232.77 111.072 234.836 110.252 236.671C109.826 237.622 109.285 238.537 108.559 239.289C107.944 239.925 106.509 240.377 106.356 241.276C106.215 242.122 106.399 242.979 106.278 243.82C106.151 244.719 105.421 245.466 105.605 246.407C105.741 247.127 106.409 247.647 107.14 247.621C107.529 247.605 108.102 247.458 108.307 247.085C108.633 246.501 107.75 246.254 107.65 245.739C107.361 244.225 108.748 242.485 109.689 241.428C110.835 240.135 112.98 239.641 114.321 238.595C116.056 237.239 117.138 235.525 118.595 233.948C118.957 233.559 122.122 235.125 122.537 235.278C124.02 235.824 125.539 236.287 127.111 236.476C128.026 236.587 128.993 236.597 129.95 236.476C129.986 235.935 130.092 235.241 130.36 234.489C130.36 234.489 130.286 235.53 130.312 236.487C130.349 236.96 130.407 237.438 130.481 237.906C130.549 238.343 130.659 238.668 130.517 239.052C130.402 239.368 130.307 239.73 130.155 240.03C129.823 240.708 130.113 241.265 130.086 241.949C130.055 242.685 129.808 243.41 129.692 244.136C129.587 244.772 129.513 245.413 129.466 246.055C129.434 246.496 129.314 247.116 129.624 247.484C129.787 247.679 130.039 247.784 130.286 247.826C130.722 247.9 131.311 247.884 131.748 247.779C131.8 247.768 131.847 247.747 131.889 247.721C131.895 247.721 131.895 247.721 131.9 247.721C132.226 247.721 132.51 247.448 132.494 247.111C132.473 246.748 132.031 246.449 131.763 246.228C131.485 246.002 131.196 245.839 131.175 245.466C131.148 245.024 131.385 244.472 131.506 244.052C131.937 242.506 132.363 240.961 132.794 239.415C133.03 238.569 133.235 237.791 133.603 236.992C134.029 236.066 134.613 235.167 134.938 234.205C135.002 234.021 135.054 233.843 135.112 233.659C136.347 231.855 136.384 229.7 137.162 227.687C137.388 227.103 137.588 226.525 137.882 225.973C138.282 225.226 138.771 224.48 139.412 223.923C140.285 223.171 141.026 223.366 142.077 223.555C142.887 223.702 143.691 223.797 144.517 223.77C144.716 223.765 144.916 223.755 145.105 223.686C145.237 223.639 145.384 223.555 145.468 223.434C145.547 223.313 145.494 223.082 145.594 222.987C145.694 222.892 145.989 222.908 146.125 222.877C146.882 222.719 147.45 222.524 147.655 221.72C147.702 221.52 147.739 221.399 147.702 221.284Z" fill="black"/>
<path d="M216.386 536.485C216.628 535.292 216.717 534.314 217.301 533.184C218.284 531.27 218.994 529.404 218.426 527.27C218.168 526.297 217.821 525.351 217.742 524.342C217.69 523.642 216.749 523.29 216.365 523.968C215.398 525.661 214.988 527.58 214.73 529.493C214.688 529.803 214.22 533.389 214.021 534.487C214.599 534.808 215.634 535.476 216.386 536.485Z" fill="black"/>
<path d="M218.104 539.903C218.062 539.798 218.014 539.693 217.967 539.593C217.73 539.067 217.457 538.552 217.152 538.063C217.094 537.99 217.042 537.911 216.984 537.842C216.826 537.648 216.605 537.401 216.463 537.196C215.097 535.587 213.877 534.809 213.877 534.809L213.872 534.799C213.872 534.799 213.872 534.799 213.867 534.799C212.957 533.795 212.384 532.522 211.9 531.271C211.291 529.684 210.775 528.017 209.845 526.577C209.304 525.741 208.641 525.026 207.826 524.458C207.395 524.159 206.901 524.495 206.738 524.9C206.412 525.709 206.654 526.666 206.764 527.491C206.88 528.354 206.665 529.31 206.764 530.209C206.875 531.192 207.343 531.981 208.063 532.643C208.673 533.2 209.372 533.637 209.961 534.215C210.334 534.573 210.697 534.946 211.044 535.33C210.959 535.235 210.844 535.309 210.712 535.482C210.392 535.671 210.171 535.955 209.924 536.223C209.677 536.491 209.488 536.77 209.335 537.101C209.009 537.806 208.794 538.536 208.752 539.304C208.073 539.472 207.217 538.773 206.675 538.478C204.83 537.474 202.811 536.507 200.724 536.16C198.59 535.803 196.293 535.955 194.342 536.959C190.599 538.888 189.821 542.994 189.637 546.805C188.807 546.937 188.817 545.444 188.901 544.561C187.061 545.213 185.758 547.557 186.215 549.465C186.315 549.897 186.515 550.286 186.767 550.633C186.851 551.526 187.119 552.378 187.945 552.861C188.297 553.066 188.696 553.103 189.085 553.045C189.117 553.098 189.154 553.145 189.196 553.187C189.448 553.461 189.795 553.561 190.158 553.571C190.652 553.582 191.141 553.371 191.44 553.009C191.477 553.813 191.956 554.244 192.723 554.538C193.811 554.959 195.062 554.922 196.208 554.933C197.796 554.948 201.691 555.295 202.575 553.639C202.711 553.387 202.764 553.109 202.738 552.835C202.506 551.684 199.668 552.746 199.668 552.746C201.728 551.242 203.269 552.147 203.269 552.798C203.668 552.762 204.057 552.704 204.451 552.646C204.047 551.631 204.415 549.318 205.713 549.055C205.713 549.055 204.457 550.406 204.856 552.593C204.867 552.593 204.877 552.593 204.882 552.588C204.909 552.583 205.014 553.498 205.093 553.624C205.361 554.065 205.881 554.276 206.349 554.423C207.863 554.901 209.535 555.138 211.117 555.175C211.753 555.19 212.552 555.232 213.131 554.906C213.719 554.575 213.709 553.813 213.225 553.398C212.831 553.056 212.326 552.861 211.848 552.667C211.427 552.493 211.002 552.341 210.581 552.173C210.565 552.168 210.534 552.152 210.502 552.141C210.397 552.089 210.292 552.031 210.197 551.973C210.197 551.973 211.522 551.116 212.516 550.201C212.826 549.902 213.12 549.586 213.404 549.26C214.382 548.146 215.186 546.916 215.538 545.517C215.444 545.281 215.565 544.944 215.896 544.929C216.032 544.923 216.164 544.908 216.295 544.881C216.521 544.913 216.758 544.913 217 544.908C217.305 544.897 217.61 544.86 217.878 544.713C219.507 543.814 218.635 541.17 218.104 539.903Z" fill="black"/>
<path d="M213.472 550.989C213.188 550.853 212.889 550.721 212.584 550.616C211.948 551.326 211.122 551.699 210.665 551.862C211.107 552.046 211.574 552.178 212.037 552.304C212.615 552.461 213.204 552.614 213.661 553.013C214.308 553.592 215.17 552.877 214.823 552.114C214.576 551.583 213.977 551.231 213.472 550.989Z" fill="black"/>
<path d="M284.337 495.548C284.332 495.553 284.327 495.553 284.321 495.559C284.327 495.559 284.332 495.553 284.337 495.548Z" fill="black"/>
<path d="M289.879 490.989C289.795 490.422 289.596 489.849 289.511 489.323C289.469 489.339 289.433 489.354 289.396 489.375C289.327 489.418 289.243 490.075 289.196 490.196C289.07 490.5 288.886 490.816 288.639 491.037C288.145 491.473 287.566 491.499 286.972 491.478C286.957 491.415 286.936 491.352 286.92 491.284C286.315 489.176 283.986 488.145 283.487 486.048C283.093 485.99 282.583 485.885 281.941 485.701C282.53 485.869 283.429 485.743 283.429 485.743C283.429 485.743 283.429 485.743 283.429 485.738C283.729 485.732 284.028 485.711 284.323 485.669C285.069 485.569 285.847 485.338 286.389 484.807C286.347 484.618 286.215 484.46 286.005 484.423C285.59 484.355 285.164 484.318 284.754 484.224C284.381 484.134 284.05 483.971 283.697 483.819C283.04 483.53 282.383 483.351 281.673 483.314C281.416 483.288 281.153 483.293 280.89 483.298C280.885 483.251 280.874 483.199 280.864 483.151C280.838 483.046 280.811 482.951 280.78 482.867C280.438 482.005 278.735 481.69 277.962 481.322C276.001 480.386 273.925 478.609 271.648 479.513C269.956 480.186 268.268 480.985 266.449 481.222C264.788 481.443 263.011 481.217 261.308 481.164C261.608 481.6 261.986 482.095 262.428 482.599C261.55 482.452 260.33 480.922 260.33 480.922C259.705 480.496 259.205 479.855 258.532 479.477C257.623 478.967 256.592 478.672 255.552 478.646C252.944 478.578 251.357 480.544 248.938 480.991C248.339 481.101 247.766 481.296 247.209 481.548C246.163 482.032 245.243 482.789 244.454 483.651C244.023 484.119 243.639 484.623 243.214 485.091C242.457 485.916 241.573 486.81 241.232 487.909C240.958 488.787 241.032 490.616 242.446 490.106C242.514 490.08 242.593 490.059 242.662 490.027C242.767 490.784 243.014 491.505 243.398 492.183C243.913 493.092 244.607 493.849 245.237 494.674C245.485 495 245.705 495.358 245.774 495.763C245.874 496.341 245.816 496.972 245.8 497.555C245.784 498.055 245.669 498.549 245.726 499.048C245.784 499.563 246.026 499.994 246.399 500.341C246.699 500.625 247.077 500.836 247.335 501.162C247.34 501.167 247.382 501.23 247.419 501.298C247.403 501.272 247.445 501.372 247.456 501.414C247.466 501.451 247.477 501.487 247.487 501.524C247.472 501.572 247.461 501.619 247.451 501.666C247.314 502.308 247.761 502.655 248.329 502.744C249.149 502.87 249.979 502.875 250.81 502.86C250.831 502.86 250.847 502.865 250.868 502.87C251.467 502.949 252.066 503.001 252.671 503.007C253.081 503.012 253.564 503.033 253.927 502.807C255.052 502.097 253.827 500.704 253.165 500.178C252.928 499.989 252.645 499.832 252.418 499.658C252.266 499.542 252.098 499.369 252.019 499.248C251.756 498.864 251.656 498.523 251.577 498.039C251.504 497.592 251.488 497.077 251.477 496.551C251.488 496.556 251.498 496.556 251.504 496.562C251.477 496.236 251.451 495.863 251.43 495.447C252.734 494.916 253.57 493.823 253.633 493.739L253.638 493.733C253.638 493.733 253.638 493.733 253.633 493.739L252.166 495.71L252.035 496.751C253.675 497.308 255.347 497.723 256.861 498.018C260.115 498.654 263.752 498.885 267.127 498.302C267.259 498.27 269.025 497.871 269.724 497.66C269.761 497.65 269.798 497.634 269.84 497.624C270.445 497.398 270.155 496.919 270.36 496.273C270.786 497.771 270.155 500.489 269.777 501.855C269.808 502.034 269.887 502.208 270.019 502.35C270.245 502.597 270.586 502.697 270.907 502.744C271.932 502.896 272.989 502.902 274.025 502.907C274.739 502.912 275.949 503.059 276.227 502.171C276.353 501.777 276.227 501.293 276.001 500.957C275.78 500.636 275.439 500.405 275.213 500.215C275.155 500.168 275.102 500.115 275.05 500.063C275.034 500.042 275.013 500.026 274.997 500.005C274.992 499.994 274.96 499.947 274.955 499.937C274.939 499.905 274.939 499.905 274.944 499.916C274.944 499.916 274.944 499.916 274.944 499.91C274.929 499.874 274.923 499.832 274.913 499.795C274.887 499.684 274.881 499.574 274.876 499.464C274.855 498.99 274.923 498.528 275.044 498.07C275.197 497.492 275.397 496.924 275.539 496.341C275.686 495.742 275.812 495.137 275.954 494.538C275.964 494.49 275.975 494.443 275.991 494.396C276.495 493.981 276.963 493.528 277.389 493.04C276.663 492.146 276.884 490.726 276.884 490.726C276.884 490.726 276.737 492.424 278.772 493.728C279.019 493.839 279.281 493.917 279.565 493.96C280.301 494.07 281.037 493.996 281.779 493.986C281.779 494.007 281.784 494.033 281.779 494.059C281.726 494.911 282.562 495.584 283.245 495.936C283.818 496.231 284.465 496.273 285.101 496.372C285.117 496.357 285.138 496.341 285.153 496.325C285.164 496.325 285.18 496.325 285.19 496.325C286.158 496.288 286.999 495.589 287.53 494.827C287.787 494.454 287.871 494.154 287.824 493.828C289.028 493.365 290.079 492.309 289.879 490.989Z" fill="black"/>
<path d="M269.902 498.071C269.503 498.26 268.93 498.328 268.409 498.349C268.393 498.617 268.383 498.88 268.362 499.148C268.336 499.5 268.183 499.821 268.089 500.179C267.994 500.536 268.015 500.925 268.278 501.204C268.483 501.424 268.788 501.519 269.082 501.561C269.266 501.587 269.455 501.614 269.645 501.63C269.755 500.625 269.902 499.117 269.902 498.071Z" fill="black"/>
<path d="M404.608 411.451C404.614 411.367 404.629 411.288 404.64 411.204L404.656 411.083L404.682 410.962C404.703 410.883 404.713 410.799 404.74 410.72C404.766 410.642 404.787 410.563 404.813 410.484C404.824 410.447 404.84 410.405 404.855 410.368C404.871 410.331 404.887 410.289 404.903 410.253C404.919 410.216 404.934 410.174 404.95 410.137C404.966 410.1 404.987 410.069 405.003 410.032C405.018 409.995 405.039 409.963 405.055 409.927L405.081 409.874L405.092 409.848L405.097 409.837L405.103 409.827L405.108 409.821C405.15 409.748 405.187 409.69 405.223 409.627C405.255 409.564 405.286 409.501 405.297 409.448C405.302 409.422 405.308 409.396 405.302 409.38C405.302 409.375 405.302 409.369 405.302 409.369C405.302 409.364 405.297 409.364 405.297 409.359V409.354L405.292 409.348L405.286 409.343C405.286 409.343 405.292 409.343 405.281 409.338L405.26 409.322L405.255 409.317C405.26 409.317 405.239 409.317 405.218 409.317C405.171 409.322 405.108 409.343 405.05 409.369C404.929 409.417 404.813 409.48 404.698 409.543C404.64 409.574 404.582 409.606 404.524 409.637L404.477 409.658C404.461 409.664 404.44 409.674 404.424 409.68C404.393 409.69 404.361 409.701 404.324 409.711C404.072 409.79 403.825 409.811 403.615 409.795C403.399 409.779 403.221 409.737 403.079 409.69C403.031 409.674 402.984 409.658 402.942 409.643C402.937 409.706 402.937 409.769 402.937 409.837C402.737 410.011 402.658 410.253 402.705 410.563C402.842 411.409 402.096 412.282 401.638 412.913C401.428 413.202 401.186 413.491 401.013 413.806C400.813 414.174 400.855 414.642 401.165 414.889C401.586 415.22 402.642 414.148 402.905 413.906C403.541 413.333 404.114 412.655 404.556 411.924C404.561 411.914 404.566 411.908 404.572 411.898C404.587 411.751 404.593 411.604 404.608 411.451Z" fill="black"/>
<path d="M435.662 425.167C435.63 424.846 435.552 424.51 435.42 424.199C435.189 423.658 434.795 423.216 434.174 423.143C434.248 423.153 433.617 424.404 433.559 424.494C433.212 425.004 432.571 425.729 431.924 425.829C431.772 425.855 431.498 425.666 431.388 425.724C431.262 425.787 431.157 426.229 431.099 426.36C430.878 426.849 430.647 427.327 430.379 427.79C429.984 428.468 429.401 429.488 428.555 429.661C429.338 428.736 430.431 426.255 430.431 426.255C430.684 425.577 430.92 424.909 431.025 424.199C430.973 424.163 430.925 424.126 430.878 424.073C430.037 423.122 428.849 422.517 427.682 422.055C426.389 421.539 425.148 421.24 423.75 421.213C422.204 421.182 420.653 421.234 419.108 421.324C419.06 421.324 419.018 421.329 418.971 421.329C418.561 421.345 418.172 421.371 417.809 421.408C421.615 420.215 423.597 420.987 423.597 420.987C423.476 420.467 423.045 420.01 422.53 419.815C421.016 419.247 419.344 419.316 417.773 419.552C416.29 419.778 414.829 420.241 413.488 420.914C412.032 421.644 410.886 422.859 409.719 423.968C409.535 424.147 409.34 424.331 409.156 424.525C409.219 424.341 409.288 424.163 409.361 423.984C409.425 423.826 409.388 423.931 409.372 423.963C409.403 423.889 409.44 423.816 409.472 423.742C409.551 423.569 409.635 423.4 409.724 423.232C410.36 422.023 411.249 420.987 412 419.852C413.609 417.418 414.808 414.558 414.303 411.593C413.861 408.991 411.911 406.452 409.44 405.495C406.538 404.37 403.374 406.31 402.979 409.291C403.032 409.317 403.106 409.348 403.185 409.375C403.311 409.417 403.463 409.459 403.642 409.48C403.821 409.496 404.026 409.49 404.241 409.433C404.267 409.427 404.294 409.417 404.32 409.412C404.336 409.406 404.341 409.401 404.357 409.396L404.394 409.38C404.446 409.354 404.504 409.327 404.562 409.296C404.683 409.238 404.804 409.175 404.946 409.122C405.014 409.096 405.088 409.07 405.182 409.059C405.229 409.054 405.282 409.054 405.356 409.08L405.361 409.086C405.361 409.086 405.387 409.101 405.377 409.096L405.382 409.101L405.392 409.107L405.413 409.122C405.413 409.122 405.424 409.133 405.429 409.138L405.45 409.154C405.461 409.164 405.477 409.18 405.487 409.191C405.498 409.207 405.503 409.217 405.508 409.233L405.519 409.254L405.524 409.275C405.529 409.291 405.534 409.306 405.534 409.317C405.534 409.333 405.54 409.343 405.54 409.359C405.545 409.417 405.534 409.464 405.519 409.506C405.492 409.596 405.456 409.669 405.413 409.738C405.371 409.806 405.329 409.874 405.287 409.932C405.25 410 405.214 410.063 405.177 410.132C405.161 410.169 405.135 410.2 405.124 410.237C405.109 410.274 405.093 410.305 405.077 410.342C405.061 410.379 405.045 410.41 405.03 410.447C405.014 410.484 404.998 410.516 404.988 410.552C404.961 410.626 404.935 410.7 404.914 410.773C404.888 410.847 404.872 410.926 404.851 410.999L404.819 411.115L404.798 411.23C404.788 411.309 404.767 411.388 404.756 411.467C404.746 411.556 404.735 411.641 404.73 411.73C405.65 411.662 406.549 411.33 407.322 410.836C407.742 410.568 408.137 410.247 408.478 409.885C408.725 409.627 409.23 409.07 409.23 408.686C409.23 408.686 409.23 408.681 409.23 408.67C409.456 408.875 409.708 409.054 409.934 409.264C409.934 409.27 409.934 409.275 409.934 409.28C410.712 410.095 411.222 411.252 411.401 412.298C411.68 413.933 411.149 415.352 410.402 416.771C409.808 417.896 409.083 418.937 408.321 419.957C406.701 422.123 405.75 424.73 405.603 427.432C405.519 428.957 405.634 430.686 406.328 432.069C407.516 434.44 410.744 436.148 413.21 437.021C415.933 437.983 418.65 437.61 421.442 437.263C426.136 436.679 431.908 434.929 434.521 430.644C435.562 428.983 435.856 427.08 435.662 425.167Z" fill="black"/>
<path d="M416.477 144.341C416.477 144.341 416.477 141.55 415.83 140.74C415.783 141.245 415.441 141.476 415.22 141.582C415.241 140.677 415.446 139.715 415.336 138.811C415.289 138.433 415.189 138.059 415.052 137.702C415.031 137.649 414.826 137.281 414.847 137.234C414.847 137.234 414.847 137.234 414.243 138.212C414.616 136.54 413.033 133.854 413.033 133.854C413.033 133.854 413.033 133.854 412.697 135.205C412.997 133.996 411.872 132.597 411.183 131.709C410.578 130.92 409.333 129.512 408.202 130.185C408.297 130.127 409.154 131.336 409.443 132.676C409.753 134.111 409.254 135.268 408.896 136.614C408.181 139.295 407.882 142.607 408.307 145.356C408.618 147.385 409.858 149.015 411.199 150.508C412.024 151.423 412.734 152.484 413.254 153.62L413.995 153.836C413.995 153.836 414.132 153.604 413.811 152.879C413.396 151.933 412.529 150.371 412.487 149.719C412.345 147.133 415.609 145.093 416.477 144.341Z" fill="black"/>
<path d="M429.861 144.567C431.001 142.585 433.625 138.805 432.005 136.471C431.753 138.033 430.938 139.173 430.534 139.662C430.455 139.752 430.376 139.836 430.302 139.925C430.781 138.653 431.054 137.312 431.133 135.94C431.201 134.789 431.075 133.633 430.823 132.508C430.702 131.977 430.56 131.435 430.371 130.925C430.318 130.794 429.798 130.016 429.803 129.947C429.756 131.635 429.146 133.223 428.489 134.752C428.084 135.699 427.127 136.824 426.906 137.791C429.261 127.498 426.097 125.547 426.097 125.547C426.055 125.626 426.028 125.721 426.028 125.831C426.023 127.561 425.829 129.275 425.639 130.994C425.192 130.237 424.609 129.9 424.604 129.9C424.719 129.969 424.604 131.283 424.604 131.409C424.588 132.413 424.383 133.37 424.115 134.348C423.421 136.892 422.301 139.468 420.693 141.571C419.731 142.827 418.506 143.558 417.233 144.451C415.262 145.834 412.665 147.648 413.149 150.413C413.301 151.291 413.969 151.937 414.326 152.726C414.5 153.11 414.616 153.525 414.521 153.945C414.342 154.734 413.264 154.256 412.818 154.04C411.877 153.593 410.962 153.125 409.995 152.721C409.385 152.468 408.754 152.268 408.118 152.106C407.524 151.953 406.872 151.743 406.257 151.764C405.889 151.774 405.016 151.864 405.111 152.358C405.106 152.363 405.095 152.363 405.09 152.368C404.517 152.584 403.939 152.905 403.744 153.535C404.317 153.577 404.832 153.241 405.337 153.583C405.705 153.83 405.91 154.334 406.141 154.697C406.562 155.36 407.04 155.896 407.703 156.332C409.08 157.236 410.736 157.583 412.302 158.025C414.121 158.54 415.951 159.081 417.628 159.965C419.189 160.79 420.304 162.062 421.607 163.171C421.833 162.919 422.091 162.688 422.348 162.493C422.107 162.183 421.881 161.883 421.97 161.936C422.17 162.062 422.433 162.183 422.659 162.278C422.727 162.309 423.1 161.983 423.169 161.936C423.484 161.736 423.836 161.605 424.199 161.526C424.378 161.484 425.261 161.279 425.392 161.416C425.135 161.153 424.809 160.864 424.404 160.569C425.192 160.743 425.902 161.084 426.459 161.426C426.491 161.426 426.528 161.426 426.559 161.426C427.516 161.431 428.473 161.437 429.424 161.442C429.456 161.442 429.482 161.442 429.514 161.442C428.778 159.975 426.028 158.945 424.583 158.508C423.479 158.172 422.254 157.93 421.092 157.988C421.812 157.951 422.459 157.383 423 156.963C423.347 156.695 423.705 156.432 424.057 156.169L423.484 155.344L424.593 155.759C424.672 155.696 424.751 155.633 424.824 155.57C425.303 155.176 425.76 154.755 426.197 154.313L425.25 153.924L426.67 153.809C427.143 153.278 427.579 152.715 427.973 152.127C428.284 151.659 428.604 151.18 428.92 150.691L427.605 150.397L429.424 149.887C430.16 148.673 430.812 147.406 431.128 146.102C431.17 145.923 431.201 145.408 431.333 145.282C430.933 145.676 429.424 146.176 428.594 146.659C429.025 145.971 429.451 145.277 429.861 144.567Z" fill="black"/>
<path d="M424.491 326.034C424.307 325.582 424.076 325.187 423.819 324.803C423.819 324.267 423.74 323.773 423.514 323.263C423.393 322.989 423.246 322.726 423.068 322.484C423.068 322.479 423.068 322.474 423.073 322.469C423.157 322.532 423.236 322.59 423.299 322.637C423.498 322.795 423.798 322.753 423.876 322.484C424.071 321.832 423.892 321.096 423.724 320.46C423.698 320.355 423.661 320.249 423.619 320.15C423.834 320.292 424.123 320.097 424.144 319.845C424.249 318.42 423.488 316.826 422.416 315.827C423.204 315.469 423.745 315.354 424.092 315.327C424.044 315.212 423.934 315.101 423.787 315.044C423.698 315.007 423.587 314.991 423.472 315.007C422.973 315.07 422.485 315.159 421.996 315.254C422.112 315.038 421.944 314.765 421.686 314.749C421.045 314.707 420.457 314.328 419.843 314.176C419.239 314.023 418.609 313.871 417.984 313.866C416.734 313.866 415.562 314.391 414.333 314.544C414.06 314.576 413.845 314.965 414.092 315.149C413.96 315.133 413.834 315.122 413.703 315.107C413.23 315.059 412.191 314.812 411.755 315.012C411.655 315.054 411.587 315.138 411.55 315.228C411.823 315.233 412.301 315.364 413.12 315.827C412.999 315.943 412.884 316.069 412.779 316.211C411.728 317.562 411.203 319.466 411.665 321.143C411.734 321.385 412.007 321.448 412.191 321.338C412.096 321.506 412.017 321.69 411.949 321.853C411.718 322.421 411.597 323.042 411.629 323.652C410.447 324.104 409.486 325.056 408.724 326.034C406.665 328.674 405.71 331.955 403.882 334.747C403.351 335.557 402.763 336.341 402.049 336.998C401.403 337.597 400.636 338.039 399.864 338.455C399.465 338.67 399.391 339.07 399.528 339.401C399.607 339.433 399.685 339.459 399.769 339.48C400.568 339.701 401.403 339.764 402.217 339.906C402.311 339.922 402.411 339.943 402.511 339.959C402.999 339.99 403.483 340.058 403.966 340.106C404.155 340.127 404.344 340.137 404.538 340.153C404.953 340.132 405.347 340.058 405.699 339.895C406.592 337.96 407.054 336.42 407.054 336.42C407.054 336.42 406.56 339.512 406.345 339.948C408.015 339.701 410.079 338.849 411.266 337.887C411.739 335.93 411.797 335.531 411.797 335.531L411.76 337.687C411.76 337.687 413.188 336.682 413.85 335.825C412.978 337.145 411.692 338.097 410.31 338.833C408.871 339.601 407.275 340.316 405.626 340.406C405.216 340.427 404.806 340.427 404.397 340.411C403.651 341.636 402.921 342.872 401.813 343.808C401.671 343.923 401.681 344.181 401.813 344.297C402.185 344.639 402.642 344.796 403.147 344.749C403.388 344.723 403.551 344.602 403.772 344.518C403.772 344.518 404.144 344.244 404.481 343.76C404.349 344.06 404.218 344.313 404.092 344.523C404.202 344.56 404.307 344.623 404.412 344.675C404.859 344.902 405.268 345.017 405.752 344.817C405.878 344.765 405.993 344.718 406.109 344.681V344.675C406.109 344.675 406.482 344.402 406.818 343.918C406.697 344.192 406.576 344.428 406.461 344.628C406.644 344.623 406.828 344.612 407.012 344.586C407.852 344.46 408.178 343.713 408.483 343.003C408.561 342.824 408.63 342.646 408.698 342.467C408.167 342.472 407.711 342.425 407.38 342.325C407.38 342.325 410.92 342.025 414.339 341.1C414.354 341.094 414.37 341.089 414.386 341.084C414.402 341.079 414.423 341.073 414.438 341.068C414.438 341.068 414.444 341.068 414.444 341.063C414.612 341.016 414.775 340.968 414.943 340.921C414.958 340.916 414.974 340.91 414.99 340.905C415.006 340.9 415.027 340.895 415.042 340.889C415 340.91 414.964 340.937 414.922 340.958C414.743 341.063 414.554 341.147 414.365 341.221C414.454 341.536 414.554 341.852 414.617 342.178C414.727 342.735 414.67 343.25 414.129 343.513C413.787 343.682 413.399 343.76 413.089 343.987C412.721 344.255 412.579 344.66 412.637 345.101C412.653 345.212 412.7 345.301 412.768 345.359C412.374 345.023 414.901 344.481 414.958 344.476C415.772 344.418 416.986 344.181 417.511 344.996C417.658 345.222 417.726 345.491 417.889 345.706C418.094 345.98 418.761 346.148 418.766 345.627C418.766 345.454 418.756 345.285 418.729 345.117C418.918 345.333 419.113 345.659 419.276 345.701C419.486 345.759 419.738 345.643 419.717 345.38C419.669 344.675 419.365 344.102 418.698 343.813C418.099 343.55 417.432 343.561 416.818 343.345C416.539 343.245 416.324 343.087 416.161 342.893C416.586 342.772 416.991 342.688 417.007 342.688C417.674 342.64 418.666 342.446 419.097 343.114C419.218 343.298 419.276 343.519 419.407 343.692C419.575 343.913 420.121 344.05 420.126 343.629C420.126 343.487 420.116 343.35 420.1 343.214C420.252 343.392 420.415 343.655 420.547 343.692C420.715 343.739 420.925 343.645 420.909 343.429C420.867 342.851 420.62 342.383 420.074 342.146C419.585 341.931 419.034 341.941 418.535 341.762C417.779 341.494 417.605 340.716 417.5 339.922C417.963 339.659 418.419 339.375 418.855 339.075C419.438 338.67 419.948 338.176 420.336 337.587C420.431 337.319 420.573 336.845 420.799 336.02C420.851 336.488 420.835 336.893 420.783 337.235C421.003 337.261 421.235 337.198 421.424 337.009C421.98 336.462 422.348 335.82 422.605 335.131C422.611 335.131 422.611 335.136 422.616 335.136C422.642 335.126 422.763 334.942 423.23 333.222C423.346 334.2 423.152 334.895 422.973 335.305C423.209 335.357 423.461 335.299 423.645 335.073C424.706 333.769 425.011 332.15 425.116 330.514C425.216 329.01 425.069 327.443 424.491 326.034ZM416.34 341.909C416.156 341.999 415.956 342.062 415.772 342.141C415.636 341.715 415.578 341.231 415.52 340.763C415.904 340.695 416.282 340.553 416.634 340.39C416.671 340.532 416.707 340.668 416.739 340.81C416.833 341.273 416.781 341.699 416.34 341.909Z" fill="black"/>
<path d="M480.081 239.728C480.087 239.723 480.092 239.713 480.102 239.707C480.081 239.713 480.061 239.733 480.045 239.754C480.05 239.754 480.055 239.754 480.061 239.754C480.066 239.744 480.076 239.739 480.081 239.728Z" fill="black"/>
<path d="M489.454 233.652C489.444 233.636 489.433 233.631 489.428 233.62C489.423 233.61 489.418 233.599 489.407 233.583C489.302 233.426 489.207 233.268 489.123 233.1C489.076 233.005 489.034 232.911 488.992 232.821C488.981 232.8 488.976 232.784 488.971 232.774C488.966 232.763 488.96 232.748 488.955 232.727C488.881 232.527 488.813 232.327 488.755 232.127C488.524 231.344 488.424 230.529 488.261 229.73C488.072 228.81 487.825 227.911 487.494 227.033C487.367 226.702 487.241 226.376 487.131 226.04C486.984 226.487 486.731 226.975 486.637 227.175C486.379 227.732 486.048 228.263 485.627 228.71C484.907 229.483 484.587 229.662 484.492 230.766C484.481 230.913 484.466 231.06 484.455 231.213C484.718 231.444 484.997 231.654 485.296 231.833C485.543 231.98 485.801 232.111 486.048 232.259C486.09 232.285 486.137 232.311 486.179 232.343C486.363 232.611 486.542 232.889 486.731 233.152C486.868 233.336 487.01 233.515 487.147 233.699C487.141 233.694 487.183 233.746 487.194 233.773C487.247 233.851 487.294 233.925 487.341 234.004C487.478 234.23 487.593 234.461 487.714 234.698C487.704 234.761 487.693 234.829 487.693 234.898C487.683 235.944 487.431 236.885 487.178 237.968C487.152 238.073 487.131 238.178 487.099 238.278C487.089 238.32 487.02 238.462 487.026 238.457C486.994 238.514 486.963 238.572 486.931 238.63C486.926 238.635 486.926 238.646 486.921 238.651C486.915 238.656 486.915 238.656 486.91 238.662C486.863 238.709 486.821 238.756 486.773 238.798C486.752 238.814 486.695 238.867 486.663 238.882C486.6 238.924 486.532 238.961 486.463 238.998C486.5 238.977 486.274 239.066 486.242 239.077C485.764 239.229 485.407 239.781 485.57 240.307C485.727 240.812 486.237 241.169 486.752 241.006C487.83 240.664 488.64 239.902 488.966 238.767C489.276 237.684 489.533 236.517 489.602 235.376C489.633 235.35 489.659 235.323 489.686 235.292C490.027 234.903 490.075 234.262 489.686 233.878C489.602 233.815 489.528 233.731 489.454 233.652Z" fill="black"/>
<path d="M500.69 232.21C500.926 232.326 501.284 232.447 501.767 232.436C501.342 231.984 501.158 231.559 501.158 231.559C501.158 231.559 501.31 231.343 501.557 231.559C501.515 230.528 499.696 230.339 498.971 230.292C498.682 230.276 498.124 229.798 497.814 229.687C497.378 229.529 496.92 229.43 496.458 229.351C495.512 229.193 494.55 229.151 493.609 228.998C492.72 228.851 491.769 228.609 491.054 228.036C490.255 227.395 489.771 226.375 489.298 225.487C488.993 224.919 488.699 224.346 488.399 223.773C487.999 223.011 487.395 222.343 486.869 221.654C486.859 221.644 486.853 221.633 486.843 221.623C486.512 221.018 485.944 220.593 485.339 220.309C484.835 220.072 484.298 219.794 483.747 219.625C483.641 219.562 483.536 219.51 483.426 219.457C482.537 219.052 481.57 218.916 480.598 218.942C479.667 218.968 478.737 219.121 477.817 219.263C477.223 219.357 477.002 219.394 476.445 219.452C475.761 219.52 475.073 219.557 474.384 219.578C474.174 219.583 473.963 219.589 473.748 219.594C473.7 219.589 473.658 219.583 473.611 219.578C472.912 219.499 472.218 219.457 471.519 219.405C471.524 219.405 471.387 219.389 471.335 219.383C471.277 219.373 471.209 219.357 471.214 219.362C471.088 219.336 470.967 219.305 470.846 219.273C470.531 219.184 470.22 219.068 469.915 218.952C469.763 218.895 469.611 218.837 469.458 218.784C468.281 218.905 467.203 219.047 466.472 219.236C466.472 219.236 467.135 218.726 469.416 218.516C469.421 218.442 469.4 218.364 469.332 218.274C469.158 218.048 468.538 217.628 468.391 217.502C467.597 216.823 466.435 216.476 465.862 215.593C465.852 215.577 465.847 215.562 465.836 215.551C465.168 214.841 464.695 214.006 463.965 213.349C462.582 212.097 460.91 211.556 459.091 211.488L459.917 212.05L458.618 211.477C458.497 211.467 458.376 211.44 458.266 211.398C457.961 211.314 457.499 211.162 457.409 211.151C457.041 211.125 456.657 211.256 456.426 211.54L457.772 212.171L456.295 211.756C455.611 211.714 454.875 211.677 454.192 211.745C453.934 211.771 452.667 212.208 452.646 212.634C453.204 212.849 454.323 213.448 454.413 214.815C453.682 214.999 452.957 215.409 452.731 216.14C452.688 216.277 452.688 216.398 452.72 216.503C452.305 216.886 451.889 217.27 451.474 217.654C451.274 217.838 451.069 218.032 450.943 218.274C450.665 218.816 450.912 219.499 451.348 219.883C451.416 219.941 451.485 219.988 451.563 220.03C451.574 220.277 451.669 220.514 451.868 220.698C452.131 220.94 452.604 221.103 452.957 220.982C453.183 220.903 453.372 220.745 453.593 220.656C453.85 220.556 454.124 220.582 454.392 220.556C454.339 220.714 454.292 220.871 454.25 221.029C453.961 222.117 453.856 223.41 454.103 224.52C454.344 225.608 455.023 226.628 455.722 227.474C455.864 227.642 456.016 227.8 456.174 227.952C456.416 228.257 456.673 228.552 456.926 228.846C457.004 228.935 457.089 229.025 457.178 229.119C457.625 230.024 458.392 231.706 458.392 232.578C458.723 232.331 459.007 232.021 459.254 231.674C459.26 231.695 459.26 231.711 459.265 231.732C459.265 231.816 459.27 231.895 459.27 231.979C459.365 232.421 459.433 232.873 459.512 233.299C459.775 234.702 460.285 236.069 460.343 237.509C460.364 237.988 460.406 239.018 459.98 239.365C459.754 239.549 459.296 239.502 459.023 239.696C458.755 239.886 458.061 240.737 458.582 241.037C458.776 241.668 459.449 241.715 460.022 241.615C460.605 241.515 461.289 241.31 461.715 240.879C462.246 240.348 462.403 239.57 462.466 238.85C462.545 237.956 462.487 237.052 462.551 236.153C462.645 234.923 462.829 233.698 463.066 232.489C462.75 232.132 462.261 231.69 461.52 231.217C461.52 231.217 462.351 231.154 463.286 232.221C463.297 232.226 463.313 232.231 463.329 232.237C463.381 232.316 463.434 232.394 463.491 232.468C463.591 232.599 463.691 232.741 463.791 232.899C463.854 232.999 463.917 233.094 463.97 233.188C464.322 233.819 464.638 234.46 464.885 235.139C465.447 236.663 465.421 238.566 464.291 239.833C463.66 239.886 462.845 240.243 462.703 240.837C462.671 240.879 462.656 240.937 462.656 241.005C462.692 241.962 464.227 241.857 464.853 241.789C465.31 241.736 465.836 241.662 466.257 241.468C467.05 241.089 467.576 239.686 467.797 238.892C468.055 237.988 468.049 237.147 467.923 236.311C467.807 235.507 467.581 234.707 467.376 233.872C467.245 233.325 467.15 232.773 467.077 232.221C467.077 232.221 466.651 230.518 466.94 229.529C467.029 230.423 467.439 231.559 467.723 232.258C469.206 232.337 470.683 232.342 472.139 231.969C473.364 231.658 474.531 231.07 475.651 230.497C476.182 230.229 476.707 229.95 477.233 229.682C477.491 229.55 477.748 229.424 478.011 229.303C478.132 229.246 478.258 229.188 478.379 229.13C478.448 229.098 478.516 229.067 478.584 229.041C478.6 229.035 478.616 229.025 478.626 229.025C478.637 229.019 478.647 229.014 478.663 229.009C478.842 228.935 479.015 228.867 479.194 228.804C478.705 228.131 478.053 227.043 478.3 226.349C478.474 227.385 479.478 228.336 479.778 228.604C479.788 228.599 479.799 228.599 479.809 228.594C480.103 229.041 480.408 229.482 480.655 229.955C481.002 230.602 481.197 231.059 481.397 231.695C481.497 232.011 481.581 232.337 481.649 232.663C481.681 232.815 481.707 232.973 481.733 233.125C481.738 233.151 481.749 233.262 481.754 233.278C481.765 233.362 481.77 233.446 481.775 233.525C481.801 233.908 481.807 234.292 481.775 234.676C481.749 235.002 481.707 235.196 481.623 235.622C481.544 236.016 481.47 236.416 481.381 236.805C481.302 237.152 481.165 237.646 481.071 237.888C480.887 238.361 480.671 238.834 480.424 239.271C480.372 239.365 480.308 239.455 480.251 239.549C480.24 239.56 480.235 239.575 480.224 239.581C480.182 239.628 480.14 239.675 480.098 239.717C480.103 239.717 480.109 239.717 480.114 239.717C480.109 239.712 480.093 239.723 480.077 239.738C480.072 239.744 480.067 239.749 480.061 239.754C480.061 239.754 480.061 239.754 480.056 239.759H480.051C480.046 239.765 480.046 239.765 480.04 239.77C480.035 239.77 480.035 239.77 480.03 239.77C480.03 239.77 480.03 239.765 480.035 239.765C479.946 239.78 479.856 239.791 479.767 239.807C479.294 239.875 479.021 240.49 479.078 240.937C479.147 241.463 479.541 241.794 480.025 241.831C480.261 241.846 480.477 241.81 480.682 241.731C481.817 241.536 483.053 241.137 483.315 239.78C483.457 239.044 483.547 238.272 483.594 237.52C483.599 237.431 483.605 237.346 483.61 237.257C483.61 237.247 483.61 237.231 483.61 237.22C483.631 237.11 483.652 237.01 483.683 236.9C483.71 236.842 483.736 236.789 483.768 236.731C483.789 236.7 483.841 236.632 483.852 236.595C483.936 236.532 483.999 236.5 484.093 236.321C484.204 236.106 484.251 235.885 484.272 235.643C484.298 235.291 484.188 234.991 484.109 234.66C484.104 234.639 484.099 234.623 484.093 234.608C484.093 234.602 484.093 234.587 484.093 234.555C484.083 234.466 484.078 234.371 484.072 234.282C484.062 234.113 484.062 233.945 484.062 233.782C484.057 233.377 484.062 232.973 484.067 232.568C484.088 231.269 483.952 229.992 484.85 228.951C485.949 227.689 486.806 226.349 487.09 224.661C487.148 224.315 487.195 223.962 487.211 223.615C488.036 224.898 488.578 226.38 489.492 227.605C489.987 228.268 490.628 228.778 491.348 229.161C492.3 229.671 493.388 229.887 494.455 229.987C495.002 230.039 495.548 230.024 496.1 230.055C496.637 230.081 497.036 230.286 497.53 230.449C497.84 230.549 498.145 230.712 498.35 230.97C498.613 231.301 498.703 231.732 499.023 232.032C499.128 232.126 499.239 232.21 499.354 232.284C499.354 232.284 500.29 232.889 501.331 232.673C501.094 232.584 500.837 232.41 500.648 232.258C500.669 232.231 500.679 232.221 500.69 232.21ZM483.694 236.747C483.762 236.668 483.815 236.621 483.857 236.589C483.825 236.642 483.61 236.847 483.694 236.747Z" fill="black"/>
<path d="M325.046 391.531C325.046 391.526 325.041 391.526 325.041 391.521C325.046 391.521 325.046 391.526 325.046 391.531Z" fill="black"/>
<path d="M325.292 391.785C325.297 391.79 325.297 391.79 325.303 391.796C325.308 391.801 325.318 391.806 325.323 391.811C325.329 391.816 325.334 391.816 325.339 391.822C325.297 391.785 325.287 391.78 325.292 391.785Z" fill="black"/>
<path d="M286.544 393.266C286.544 393.271 286.544 393.271 286.539 393.277C286.544 393.277 286.544 393.271 286.544 393.266Z" fill="black"/>
<path d="M316.544 401.514C313.911 399.817 312.749 397.225 312.381 396.994C312.207 396.883 312.034 396.81 311.882 396.757C312.097 397.193 312.244 397.651 312.213 398.166C312.155 399.243 312.202 400.353 312.244 401.436C312.292 402.661 312.649 404.085 311.918 405.179C311.787 405.373 311.634 405.552 311.456 405.699C311.456 405.715 311.456 405.731 311.456 405.752C311.156 406.025 311.072 406.556 311.288 406.903C311.666 407.507 312.465 407.549 313.091 407.507C313.743 407.46 314.4 407.402 315.051 407.339C315.588 407.292 316.266 407.376 316.476 406.729C316.623 406.272 316.429 406.014 316.324 405.604C316.203 405.126 316.324 404.679 316.329 404.201C316.334 403.78 316.245 403.365 316.308 402.939C316.366 402.461 316.455 401.988 316.544 401.514Z" fill="black"/>
<path d="M321.691 390.486C321.071 388.951 320.53 387.458 319.804 385.997C319.799 385.954 319.788 385.912 319.767 385.87C319.489 385.376 319.284 384.851 319.068 384.33C319 384.167 318.932 384.004 318.858 383.841C318.579 383.205 318.222 382.616 317.801 382.064C316.992 380.997 315.988 380.025 314.779 379.42C313.543 378.805 312.066 378.616 310.704 378.763C310.489 378.784 310.273 378.816 310.058 378.852C309.595 378.936 309.138 379.052 308.686 379.194C308.113 379.378 307.535 379.588 306.983 379.846C306.436 379.977 305.894 380.125 305.342 380.235C304.706 380.356 304.06 380.408 303.418 380.45C302.74 380.493 302.073 380.514 301.394 380.45C301.163 380.429 300.927 380.408 300.695 380.382C300.695 381.002 300.606 381.943 300.133 382.648C300.385 381.849 300.248 380.345 300.248 380.345C300.238 380.188 300.227 380.035 300.206 379.883C300.112 379.094 299.386 378.663 298.708 378.405C297.862 378.09 297.11 377.543 296.237 377.281C293.866 376.576 291.017 377.522 288.604 377.685C287.721 377.743 286.869 378.022 286.197 378.574C284.882 379.651 284.609 381.123 284.178 382.632C284.11 382.874 284.041 383.116 283.978 383.352C283.91 383.489 283.841 383.626 283.768 383.757C283.694 383.899 283.61 384.036 283.526 384.172C283.51 384.199 283.447 384.293 283.447 384.293C283.384 384.383 283.321 384.467 283.274 384.561C282.979 385.092 282.911 385.707 282.932 386.291C282.943 386.633 282.985 386.974 283.032 387.316C283 387.463 282.969 387.61 282.943 387.758C282.527 389.829 282.212 391.916 281.991 394.013C281.765 396.216 281.192 398.508 281.954 400.653C282.606 402.488 284.761 405.731 287.222 405.431C287.952 405.342 288.452 404.78 288.426 404.091C288.415 403.865 288.326 403.649 288.178 403.471L288.173 403.418C288.147 403.118 287.842 402.861 287.516 402.903C287.185 402.945 286.927 403.208 286.954 403.523L286.98 403.828C286.985 403.912 285.871 403.423 285.755 403.344C285.208 402.982 284.74 402.467 284.372 401.946C282.664 399.549 283.389 396.127 284.493 393.582C284.998 392.421 285.928 392.168 286.938 391.458C287.9 390.775 288.52 389.566 289.498 388.972C289.85 390.05 289.829 391.364 290.076 392.494C290.124 392.704 290.171 392.92 290.292 393.099C290.486 393.393 290.928 393.535 291.18 393.22C291.427 392.909 291.69 392.615 291.958 392.321C292.006 392.268 292.053 392.215 292.1 392.158C292.82 391.332 293.893 390.596 294.776 389.913C295.722 389.187 296.495 388.504 297.289 387.6C297.73 387.1 298.182 386.696 298.577 386.238C298.403 387.001 297.725 387.889 297.136 388.346C295.27 389.803 293.888 390.954 292.904 391.784C292.899 391.79 292.894 391.79 292.889 391.795C292.836 391.837 292.789 391.879 292.741 391.921C292.736 391.926 292.726 391.932 292.72 391.937C292.61 392.032 292.505 392.121 292.405 392.205C292.342 392.258 292.284 392.305 292.226 392.357C292.195 392.384 292.163 392.41 292.132 392.436C292.121 392.447 292.111 392.457 292.095 392.468C292.063 392.494 292.037 392.52 292.006 392.541C291.995 392.552 291.979 392.562 291.969 392.573C291.885 392.641 291.811 392.71 291.737 392.767C291.68 394.303 291.511 395.864 291.212 397.378C291.022 398.34 290.775 399.291 290.476 400.222C290.181 401.137 289.766 401.951 289.882 402.94C289.913 403.203 289.982 403.46 289.992 403.728C290.024 404.78 289.314 405.684 288.93 406.614C288.878 406.735 288.951 406.882 289.051 406.951C289.798 407.461 290.791 407.676 291.685 407.723C291.937 407.734 292.19 407.734 292.437 407.681C292.678 407.629 292.904 407.534 293.141 407.461C293.42 407.371 293.777 407.366 293.935 407.082C294.024 406.919 294.029 406.719 294.024 406.541C294.019 406.257 293.987 405.973 293.956 405.694C293.767 404.012 294.345 402.414 295.312 401.047C296.043 400.017 296.574 399.47 296.395 398.166C296.321 397.635 296.364 397.078 296.526 396.563C296.069 395.391 295.139 394.392 295.139 394.392C295.139 394.392 297.042 395.375 296.721 397.215C296.721 397.204 296.716 397.189 296.71 397.178C296.721 397.677 296.679 398.182 296.7 398.687C296.774 400.448 297.215 402.146 297.326 403.896C297.352 404.306 297.347 404.727 297.341 405.137C297.326 405.163 297.31 405.19 297.294 405.216C296.742 406.11 295.953 406.835 295.717 407.902C295.67 408.107 295.649 408.323 295.706 408.523C295.917 409.269 297.178 409.09 297.767 409.106C298.708 409.127 300.054 409.264 300.937 408.891C301.552 408.633 301.568 407.907 301.368 407.361C301.263 407.082 300.99 406.856 300.916 406.588C300.816 406.225 301.026 405.6 301.063 405.221C301.216 403.712 301.221 402.23 301.563 400.753C301.589 400.648 301.61 400.543 301.636 400.443C301.752 400.243 301.873 400.043 301.983 399.843C302.272 399.318 302.462 398.781 302.519 398.187C302.546 397.898 302.54 397.599 302.546 397.304C302.546 397.152 302.483 396.999 302.414 396.847C302.414 396.794 302.414 396.736 302.42 396.684C302.483 396.347 302.593 396.016 302.714 395.696L303.303 393.94C303.303 393.94 303.092 394.918 303.403 395.964C303.786 396.116 304.175 396.274 304.575 396.384C305.9 396.752 307.298 396.705 308.66 396.589C309.332 396.531 310.016 396.479 310.689 396.395C311.004 396.353 311.32 396.29 311.624 396.274C311.624 396.274 311.63 396.274 311.635 396.274C311.872 396.263 312.103 396.284 312.324 396.374C312.471 396.426 312.607 396.505 312.713 396.621C313.117 396.989 313.296 397.493 313.622 397.914C314.027 398.434 314.437 398.95 314.857 399.46C315.357 400.059 315.867 400.648 316.392 401.226C316.508 401.352 316.634 401.483 316.76 401.61C316.808 401.652 316.855 401.699 316.902 401.741C316.892 401.736 316.881 401.731 316.871 401.72C317.202 402.057 317.533 402.409 317.744 402.813C317.917 403.145 317.87 403.77 317.912 404.138C317.964 404.617 318.075 405.311 317.807 405.726C317.517 406.173 317.076 406.388 316.887 406.94C316.766 407.292 316.782 407.76 317.05 408.039C317.523 408.538 318.485 408.391 319.1 408.365C319.81 408.328 320.54 408.349 321.229 408.149C321.634 408.034 322.007 407.839 322.117 407.408C322.159 407.256 322.165 407.03 322.133 406.804C322.091 406.514 321.991 406.231 321.828 406.099C321.833 405.731 321.802 405.358 321.77 404.99C321.728 404.511 321.707 404.028 321.686 403.544C321.676 403.313 321.67 403.087 321.676 402.856C321.681 402.656 321.676 402.435 321.728 402.24C321.776 402.062 321.86 401.894 321.912 401.715C321.965 401.526 321.96 401.336 321.897 401.152C321.828 400.953 321.723 400.763 321.628 400.574C321.539 400.406 321.476 400.238 321.402 400.064C321.076 399.281 320.619 398.277 320.33 397.478C320.015 396.61 320.03 395.68 320.041 394.77C320.057 393.808 320.114 392.841 320.162 391.879C320.209 390.975 320.335 390.044 320.346 389.124C320.814 390.181 321.182 391.275 322.002 392.147C322.243 392.405 322.517 392.641 322.843 392.783C323.19 392.936 323.747 393.051 323.984 392.699C323.006 392.1 322.123 391.543 321.691 390.486Z" fill="black"/>
<path d="M362.337 546.642C362.326 546.51 362.316 546.384 362.3 546.252C361.87 542.495 359.388 539.995 355.915 538.808C353.674 538.043 351.303 537.737 349.068 536.951C348.637 536.798 348.165 536.613 347.709 536.376C345.94 535.663 345.227 534.366 345.678 533.622C345.573 534.102 345.794 534.603 345.794 534.603C346.03 534.978 346.554 535.431 346.964 535.584C347.278 535.7 347.625 535.679 347.95 535.616C348.296 535.547 348.637 535.426 348.926 535.22C349.655 534.687 349.87 533.595 349.477 532.778C348.312 530.335 345.022 531.617 344.031 533.469C343.422 534.603 343.322 535.964 343.543 537.23C343.879 539.177 344.723 540.992 346.177 542.332C347.263 543.334 348.653 543.788 349.834 544.685C351.114 545.661 352.258 546.843 353.05 548.257C354.204 550.319 354.519 552.878 353.454 555.046C353.412 555.136 353.365 555.226 353.317 555.315C353.354 555.236 353.396 555.152 353.428 555.068C354.057 553.622 354.115 552.097 353.763 550.652C353.454 549.391 352.829 548.188 351.985 547.154C350.799 545.698 349.073 544.637 347.194 544.416C345.038 544.163 342.651 544.959 340.799 543.841C339.849 543.266 339.272 542.311 338.574 541.488C338.238 541.092 337.887 540.765 337.451 540.475C336.895 540.095 336.161 539.847 335.709 539.325C335.358 538.919 335.237 537.705 334.497 537.906C334.555 537.811 334.613 537.716 334.676 537.626C334.875 537.331 335.111 537.056 335.363 536.803C335.458 536.708 335.41 536.587 335.321 536.529L334.823 536.861L335.195 536.017C335.164 535.969 335.101 535.932 335.043 535.932L334.581 536.566L334.712 535.69C334.623 535.658 334.518 535.685 334.492 535.801C334.382 536.323 334.188 536.819 334.057 537.336C333.915 537.895 333.884 538.512 333.847 539.087C333.821 539.298 333.81 539.509 333.81 539.72C333.784 539.657 332.477 540.448 332.346 540.549C331.549 541.166 331.029 542.021 330.767 542.991C330.473 544.078 330.368 545.429 330.52 546.552C330.557 546.822 330.788 547.075 330.987 547.228C331.223 547.412 331.47 547.492 331.774 547.507C332.472 547.544 333.196 547.587 333.904 547.534C333.904 547.534 334.377 547.423 335.048 547.196C335.059 547.27 335.08 547.344 335.101 547.428C334.849 547.587 334.65 547.708 334.492 547.792C334.97 548.251 335.179 549.175 334.445 549.238C333.291 549.333 332.247 548.415 331.071 548.921C330.767 549.053 330.4 549.291 330.295 549.628C330.206 549.913 330.384 550.151 330.641 550.267C330.861 550.367 331.097 550.393 331.339 550.404C331.449 550.425 331.559 550.441 331.669 550.451C331.905 550.478 332.142 550.478 332.378 550.483C332.687 550.562 332.965 550.704 333.243 550.879C334.015 551.364 334.712 551.955 335.447 552.493C336.176 553.026 336.948 553.59 337.792 553.928C337.944 553.986 338.102 554.033 338.254 554.07C339.466 554.06 341.124 550.9 341.124 550.9C341.124 550.9 340.814 552.176 339.844 553.379C340.961 552.73 343.039 553.026 343.039 553.026C340.814 553.121 339.676 554.023 339.125 554.73C339.02 555.384 339.031 556.065 339.109 556.714C339.167 557.167 339.256 557.621 339.403 558.059C339.571 558.544 339.807 559.008 340.106 559.431C340.258 559.642 340.421 559.842 340.605 560.021C340.678 560.095 341.009 560.338 340.946 560.354C340.578 560.459 340.006 560.85 339.728 561.05C339.723 561.23 339.765 561.404 339.87 561.551C340.143 561.931 340.694 561.942 341.166 561.926C343.947 561.831 346.748 562.021 349.524 562.1C349.97 562.111 350.432 562.121 350.846 561.952C351.261 561.778 351.455 561.483 351.544 561.129C353.087 559.024 355.285 557.758 357.42 556.344C360.747 554.134 362.657 550.72 362.337 546.642Z" fill="black"/>
<path d="M238.725 263.545C238.725 263.545 238.72 263.54 238.715 263.535C238.72 263.54 238.725 263.54 238.725 263.545Z" fill="black"/>
<path d="M239.715 246.024C239.809 243.927 237.459 242.434 235.814 241.577C232.518 239.863 229.211 240.331 225.689 240.809C224.701 240.946 223.686 241.025 222.693 240.92C221.615 240.804 220.747 240.305 219.654 240.588C219.244 240.694 217.867 241.119 217.441 241.046C217.162 240.998 216.983 240.736 216.836 240.494C215.454 238.186 214.797 235.237 214.797 232.472C215.233 232.519 216.027 233.039 216.347 233.018C217.252 232.955 218.844 232.167 218.681 231.079C217.404 230.853 215.953 231.42 214.712 231.299C214.555 231.284 214.402 231.257 214.255 231.221C214.245 231.215 214.234 231.21 214.224 231.21C214.26 231.094 214.339 230.952 214.376 230.879C214.476 230.679 214.597 230.495 214.712 230.301C214.839 230.09 214.97 229.891 215.112 229.696C215.301 229.47 215.527 229.281 215.785 229.128C216.069 228.96 216.389 228.855 216.684 228.718C217.793 228.203 218.787 227.451 219.17 226.242C219.438 225.396 219.354 224.549 219.081 223.719C218.997 223.467 218.613 223.619 218.697 223.871C218.823 224.266 218.802 224.691 218.739 225.096C218.708 225.296 218.666 225.496 218.624 225.695C218.603 225.79 218.582 225.89 218.55 225.985C218.529 226.048 218.471 226.132 218.461 226.195C218.461 226.195 218.461 226.2 218.455 226.2C218.45 226.195 218.445 226.195 218.44 226.19C218.366 226.116 218.308 226.027 218.256 225.937C218.124 225.722 218.03 225.485 217.919 225.259C217.804 225.017 217.457 225.159 217.535 225.412C217.62 225.68 217.709 225.948 217.777 226.221C217.84 226.474 217.903 226.763 217.814 227.02C217.62 227.593 216.999 227.819 216.51 228.066C216.032 228.308 215.58 228.592 215.191 228.965C215.033 229.118 214.902 229.275 214.776 229.449C214.755 229.475 214.734 229.496 214.712 229.523C214.507 229.791 214.334 230.085 214.129 230.353C214.003 230.521 213.871 230.7 213.771 230.889C213.729 230.847 213.682 230.805 213.635 230.763C213.729 230.663 213.819 230.558 213.866 230.427C213.971 230.148 214.003 229.827 213.977 229.533C213.955 229.302 213.598 229.296 213.566 229.528C213.535 229.78 213.472 230.011 213.304 230.211C213.225 230.301 213.135 230.385 213.041 230.458C212.904 230.427 212.757 230.406 212.562 230.406C212 230.416 211.458 230.143 210.901 230.169C210.843 230.174 210.78 230.18 210.722 230.185C210.691 230.127 210.659 230.069 210.644 230.001C210.581 229.743 210.549 229.454 210.581 229.186C210.586 229.149 210.591 229.118 210.596 229.081C210.638 228.818 210.234 228.755 210.186 229.018C210.176 229.065 210.17 229.113 210.165 229.16C210.139 229.354 210.118 229.559 210.118 229.759C210.118 229.754 210.113 229.749 210.113 229.743C209.997 229.423 209.918 229.091 209.802 228.776C209.792 228.745 209.781 228.713 209.766 228.687C209.697 228.487 209.619 228.292 209.513 228.103C209.256 227.63 208.904 227.225 208.52 226.852C208.126 226.468 207.6 226.069 207.584 225.464C207.579 225.196 207.726 224.938 207.857 224.712C207.999 224.471 208.168 224.239 208.325 224.008C208.478 223.787 208.183 223.551 208.005 223.745C207.836 223.929 207.673 224.129 207.484 224.297C207.405 224.365 207.326 224.434 207.232 224.481C207.227 224.486 207.221 224.486 207.216 224.486V224.481C207.227 224.418 207.195 224.323 207.19 224.255C207.19 224.155 207.2 224.055 207.206 223.955C207.221 223.75 207.242 223.551 207.274 223.346C207.337 222.941 207.442 222.531 207.679 222.189C207.831 221.968 207.51 221.711 207.358 221.926C206.848 222.641 206.517 223.424 206.527 224.313C206.538 225.58 207.263 226.594 208.173 227.415C208.415 227.635 208.688 227.83 208.909 228.072C209.109 228.292 209.266 228.539 209.382 228.813C209.461 229.039 209.524 229.27 209.582 229.507C209.634 229.722 209.692 229.938 209.729 230.153C209.734 230.195 209.745 230.253 209.76 230.316C209.177 230.411 208.593 230.479 208.057 230.29C207.142 229.969 206.385 229.181 205.523 228.902C205.418 229.034 205.423 229.165 205.471 229.323C205.776 230.369 206.449 231.384 207.537 231.715C208.141 231.899 208.635 231.173 208.883 231.725C208.835 232.056 208.819 232.377 208.819 232.714C208.819 233.034 208.72 233.434 208.862 233.733C208.977 233.98 209.187 234.149 209.371 234.343C209.387 234.359 209.403 234.38 209.424 234.396C209.76 235.19 209.876 235.789 209.834 236.84C209.829 237.003 209.818 237.166 209.813 237.329C209.792 237.986 209.555 239.185 210.523 239.237C210.896 239.29 211.327 239.416 211.658 239.18C211.716 239.138 211.769 239.09 211.811 239.038C211.779 239.689 211.706 240.357 211.732 240.977C211.784 242.208 211.995 243.427 212.363 244.605C212.631 245.462 213.02 246.345 213.656 246.997C214.161 247.517 214.739 247.78 215.238 248.342C215.627 248.779 216.205 249.126 216.505 249.609C215.685 250.261 214.712 250.624 213.829 251.155C212.783 251.78 213.151 253.174 213.33 254.146C213.519 255.182 213.356 256.238 213.509 257.274C213.619 258.031 213.987 258.63 214.686 258.904C214.686 258.904 215.454 259.256 216.589 259.308C216.51 258.593 216.642 257.905 215.906 257.5C215.58 257.511 215.133 257.505 215.023 257.453C214.66 257.29 214.807 256.612 214.823 256.317C214.865 255.681 214.707 255.056 214.712 254.425C214.718 254.088 214.734 253.584 214.755 253.247C214.781 252.779 214.923 252.764 215.359 252.601C216.048 252.343 216.742 252.175 217.451 251.996C218.172 251.812 218.871 251.554 219.601 251.418C219.212 250.529 218.829 250.345 218.829 250.345C218.829 250.345 219.502 250.429 219.854 251.617C219.875 251.681 219.896 251.765 219.917 251.859C219.985 252.154 220.033 252.506 220.054 252.921C220.222 254.851 220.248 258.036 220.248 258.462C220.253 259.061 220.122 260.433 220.185 261.685C220.195 261.884 220.19 262.079 220.195 262.273C220.211 263.051 220.332 263.814 220.443 264.581C220.91 264.718 221.426 264.66 221.851 264.429C221.799 264.418 221.268 262.531 221.289 262.394C221.394 261.506 221.436 260.602 221.625 259.729C221.736 259.23 221.673 258.72 221.652 258.204C221.61 257.053 222.056 256.117 222.288 255.024C222.43 254.356 222.703 253.683 222.845 253C222.934 252.564 222.808 251.922 222.95 251.465C222.934 251.15 222.877 249.898 222.756 249.441C223.008 250.103 223.239 250.582 223.618 250.913C223.765 250.96 223.923 251.044 224.017 251.081C224.275 251.171 224.538 251.244 224.806 251.297C225.342 251.402 225.889 251.434 226.435 251.418C226.998 251.402 227.56 251.334 228.118 251.25C228.449 251.197 228.78 251.139 229.117 251.097C229.253 251.081 229.458 251.029 229.595 251.055C229.584 251.039 229.574 251.029 229.569 251.013C229.085 250.361 228.691 249.315 228.691 249.315C228.691 249.315 229.043 249.956 229.174 250.161C231.366 253.468 231.445 253.4 234.836 255.644C236.839 256.959 236.76 259.545 236.939 261.842C236.939 261.842 237.065 263.419 237.354 264.208C238.017 264.119 238.542 264.071 238.816 263.903C238.632 263.388 238.469 262.873 238.279 262.357C238.274 262.347 238.274 262.336 238.269 262.326C238.022 261.774 238.069 261.164 238.164 260.549C238.269 259.881 238.237 259.209 238.222 258.53C238.137 257.621 238.132 255.954 238.211 255.045C237.964 254.745 237.722 254.446 237.475 254.146C237.554 254.214 236.986 253.384 236.776 252.874C236.571 252.38 236.56 251.828 236.56 251.292C236.56 250.992 236.56 250.682 236.676 250.408C236.923 249.82 237.564 249.378 237.88 248.795C238.227 248.153 238.442 247.433 238.495 246.702C238.49 246.786 239.094 247.228 239.215 247.212C239.946 247.097 239.683 246.66 239.715 246.024Z" fill="black"/>
<path d="M230.331 252.39C230.346 253.605 230.467 255.092 230.877 256.391C229.737 260.376 229.263 261.89 229.453 263.572C230.625 263.761 230.762 263.53 230.762 263.53L230.635 262.016C230.635 262.016 231.208 257.264 232.949 257.011C232.67 256.349 232.801 255.534 233.111 254.745C231.619 253.862 230.809 253.042 230.331 252.39Z" fill="black"/>
</svg>
