<svg width="689" height="693" viewBox="0 0 689 693" fill="none" xmlns="http://www.w3.org/2000/svg">
<path d="M146.624 400.359C146.279 400.771 145.858 401.12 145.377 401.41C144.211 402.093 142.796 402.228 141.445 402.45C137.486 403.121 133.782 404.766 130.673 407.221C128.909 408.613 127.265 410.306 125.078 410.914C116.737 413.22 116.313 399.082 114.593 393.98C111.867 385.896 109.164 377.785 105.626 369.921C98.2139 353.467 88.7703 337.96 81.106 321.619C78.2088 315.428 75.5701 309.134 73.1963 302.751C68.1122 289.026 75.1907 273.721 80.8628 263.131C86.6909 252.282 92.5653 241.469 98.486 230.69C101.39 225.409 104.347 220.083 108.412 215.84C114.337 209.658 122.167 206.203 129.524 202.222C140.917 196.069 151.443 189.553 158.427 177.797C161.178 173.171 163.314 168.07 166.333 163.659C170.556 157.501 176.386 152.86 182.696 149.218C186.477 147.038 197.37 141.324 201.635 147.254C202.968 149.098 202.514 151.534 202.912 153.729C203.479 156.747 205.671 159.263 207.748 161.554C208.281 162.139 208.82 162.735 209.462 163.165C210.213 163.67 211.084 163.923 211.915 164.152C219.02 166.187 225.488 168.403 232.562 168.263C236.619 168.179 240.683 167.923 244.766 168.023C249.423 168.133 262.391 166.045 266.039 170.228C267.196 171.558 269.146 174.688 268.333 176.335C268.041 176.931 267.471 177.273 266.908 177.58C258.911 181.988 250.188 184.943 243.481 191.419C238.938 195.797 232.715 201.874 233.948 209.677C234.599 213.812 239.007 216.44 242.835 217.131C246.662 217.823 250.63 217.422 254.288 219.177C257.631 220.774 260.263 223.989 262.177 227.401C264.906 232.263 266.433 238.319 264.331 242.879C263.488 244.727 262.122 246.168 260.785 247.592C257.659 250.915 254.525 254.226 251.398 257.549C246.696 262.525 243.683 267.592 245.194 275.65C245.816 278.928 247.7 282.311 250.603 283.762C254.32 285.62 258.21 283.838 261.725 282.439C269.177 279.477 277.424 278.344 285.752 279.126C290.484 279.576 295.378 280.7 299.561 283.626C304.054 286.772 312.868 296.936 311.725 302.895C311.326 304.963 310.231 306.694 309.496 308.616C306.025 317.702 312.187 321.595 315.245 329.243C317.487 334.844 320.135 344.98 319.459 350.671C318.091 362.094 300.259 357.553 292.634 355.877C289.522 355.19 286.287 354.45 283.601 352.385C280.467 349.978 278.561 346.163 276.836 342.505C274.544 337.623 272.327 332.714 270.193 327.787C269.619 326.46 269.047 325.116 268.82 323.728C268.534 321.96 268.815 320.236 269.197 318.576C270.682 312.13 282.311 299.678 271.501 294.306C269.121 293.123 266.547 293.861 264.244 294.611C253.265 298.213 246.805 299.841 234.677 294.702C221.575 289.154 208.63 282.981 195.908 276.204C188.253 272.123 168.493 265.021 164.566 256.107C163.238 253.096 163.229 249.713 164.057 246.801C165.058 243.269 167.217 240.332 169.832 238.098C174.208 234.352 179.768 232.442 185.122 230.359C187.58 229.396 190.069 228.37 192.005 226.541C195.539 223.215 195.599 217.094 189.361 215.697C187.216 215.224 185.109 215.694 183.085 216.193C174.502 218.285 165.836 220.716 158.858 226.029C157.758 226.873 156.677 227.798 155.904 229.007C153.578 232.623 154.397 237.812 154.302 242.466C154.137 250.041 149.468 264.09 141.165 264.596C138.731 264.748 136.275 263.409 133.912 262.278C129.913 260.366 125.305 258.956 121.716 260.781C118.548 262.395 116.941 266.274 116.797 270.22C116.534 277.346 119.869 279.668 115.842 285.132C112.34 289.896 118.394 295.216 122.189 298.087C126.292 301.197 120.011 303.228 117.512 302.068C115.556 301.164 113.878 299.548 111.949 298.552C109.192 297.125 106.152 297.072 103.29 297.284C100.617 297.48 97.6159 298.186 96.6955 300.798C95.8283 303.272 97.3414 306.377 99.4057 308.323C104.242 312.898 111.36 314.727 116.92 317.983C124.218 322.269 131.525 326.549 138.829 330.847C142.569 333.045 147.542 340.026 147.758 344.532C147.998 349.378 145.146 355.579 144.163 360.204C143.973 361.095 143.767 362.025 143.187 362.649C140.504 365.595 134.479 366.483 131.065 368.683C128.238 370.5 125.107 371.924 122.667 374.303C121.675 375.269 116.818 383.247 121.464 383.454C122.272 383.482 122.928 382.968 123.548 382.506C126.704 380.133 131.708 377.161 135.95 377.4C143.692 377.783 151.455 394.665 146.624 400.359Z" fill="#EB5C37" stroke="white" stroke-width="3" stroke-miterlimit="10"/>
<path d="M148.345 323.609C142.941 326.135 132.745 319.691 127.996 316.353C126.524 315.326 124.883 313.658 125.276 311.992C125.439 311.286 125.943 310.783 126.453 310.337C127.465 309.452 128.532 308.641 129.669 307.929C131.478 306.802 133.499 305.859 134.74 304.061C136.667 301.271 135.007 296.917 132.731 294.279C131.762 293.163 130.455 292.24 130.01 290.839C129.597 289.542 130.069 288.245 130.345 286.998C131.308 282.66 128.121 277.462 129.884 273.51C130.811 271.415 133.276 270.51 135.537 271.117C136.302 271.323 137.046 271.679 137.774 272.075C139.264 272.878 140.72 273.854 142.292 274.364C144.878 275.214 147.867 273.887 150.156 273.021C153.655 271.708 156.192 268.508 160.11 268.09C163.578 267.715 169.928 269.446 171.454 273.218C172.477 275.744 171.7 281.096 170.849 283.391C169.314 287.536 167.081 291.313 164.229 294.448C162.601 296.238 160.781 297.832 159.461 299.906C155.403 306.261 154.817 314.83 150.557 321.362C149.979 322.244 149.346 323.143 148.418 323.598C148.405 323.575 148.375 323.592 148.345 323.609Z" fill="#20BDEF"/>
<path d="M213.351 365.544C211.281 365.549 209.218 365.518 207.128 365.442C206.32 365.414 205.472 365.363 204.724 364.932C201.031 362.769 203.096 355.792 199.314 352.897C196.385 350.664 192.489 352.204 189.554 352.565C186.756 352.91 183.778 352.99 180.998 351.775C177.923 350.439 177.475 348.319 175.633 345.862C173.609 343.157 171.601 341.286 168.978 339.078C164.961 335.704 163.501 330.04 162.536 324.873C162.342 323.865 162.168 322.845 162.209 321.856C162.253 320.62 162.635 319.466 163.034 318.363C165.652 311.039 169.567 305.057 173.32 298.539C176.446 293.116 178.555 285.041 184.79 282.882C189.432 281.283 194.767 284.377 199.443 287.174C215.332 296.691 234.095 306.802 251.437 310.904C252.079 311.057 252.731 311.205 253.29 311.606C253.777 311.971 254.144 312.497 254.484 313.023C261.913 324.409 263.756 336.922 265.135 349.731C265.391 352.161 265.56 354.762 264.428 356.683C263.111 358.924 260.428 359.632 257.947 360.163C243.381 363.288 228.535 365.484 213.351 365.544Z" fill="#EB5C37" stroke="white" stroke-width="3" stroke-miterlimit="10"/>
<path d="M190.842 399.138C186.982 400.627 183.261 402.451 178.998 403.005C175.632 403.444 172.006 403.22 168.723 401.542C165.046 399.661 162.182 396.18 159.59 392.712C155.556 387.324 153.304 381.545 156.026 375.556C158.467 370.204 159.606 367.053 156.888 360.529C153.79 353.088 160.269 352.139 166.087 353.24C170.623 354.108 173.12 356.833 176.478 360.093L181.462 368.8C185.757 371.6 188.768 373.909 193.53 374.526C202.106 375.627 210.995 375.153 219.464 375.028C241.172 374.698 262.242 371.361 283.862 370.898C297.268 370.614 308.851 366.268 322.348 373.797C326.131 375.91 329.784 378.326 333.265 381.04C334.026 381.632 334.777 382.229 335.409 382.987C336.384 384.161 336.999 385.603 337.583 387.016C340.902 394.959 342.684 411.585 334.196 414.742C328.309 416.932 321.523 416.538 315.632 418.699C312.786 419.746 310.191 421.369 307.253 422.162C298.921 424.417 295.854 416.314 289.155 412.958C288.284 412.521 287.348 412.337 286.417 412.164C262.449 407.624 238.546 400.778 214.539 397.394C208.41 396.533 202.161 396.292 196.292 397.475C194.407 397.849 192.608 398.465 190.842 399.138Z" fill="#EB5C37" stroke="white" stroke-width="3" stroke-miterlimit="10"/>
<path d="M132.278 444.022C132.339 445.766 132.469 447.515 132.636 449.26C134.693 471.877 141.538 494.604 152.334 515.332C163.945 537.6 179.973 553.079 200.172 566.323C204.074 568.873 208.393 571.368 212.622 570.94C215.408 570.664 217.787 569.149 220.431 568.372C224.937 567.065 230.224 568.07 234.526 571.066C240.701 575.351 244.242 582.829 248.875 589.008C261.595 605.951 282.177 612.644 301.185 616.819C303.39 617.305 305.681 617.802 307.643 619.178C311.912 622.162 314.686 629.083 319.429 628.837C323.83 628.617 324.678 622.443 324.459 617.632C324.21 612.24 323.978 606.854 323.729 601.461C323.542 597.214 323.269 592.679 320.972 588.92C318.503 584.86 314.24 582.578 310.55 579.799C303.949 574.838 298.695 567.85 292.051 562.975C282.392 555.902 270.055 553.995 260.237 558.035C256.105 559.741 251.883 562.465 247.321 560.906C242.154 559.142 239.366 552.934 236.842 547.648C233.31 540.256 228.871 533.261 223.688 526.952C220.798 523.424 217.556 520.021 213.638 518.109C209.719 516.198 205.006 516.059 202.109 518.791C198.952 521.763 197.369 527.989 192.892 527.087C190.72 526.659 189.024 524.548 187.711 522.509C184.713 517.848 182.737 510.822 186.619 508.033C189.022 506.305 192.521 507.23 195.393 506.414C200.104 505.097 202.27 499.197 201.538 493.744C200.816 488.285 197.891 483.198 194.959 478.376C193.865 476.58 192.672 474.703 190.938 473.656C188.657 472.278 185.994 472.699 183.761 473.548C178.844 475.427 174.902 479.125 170.501 481.997C166.106 484.88 160.742 486.97 155.349 485.273C150.451 482.757 161.16 478.084 165.411 476.355C169.672 474.622 174.313 473.115 177.056 469.306C179.8 465.497 179.381 458.424 174.966 455.831C171.345 453.702 167.369 455.61 163.471 455.603C158.742 455.596 153.768 452.372 151.26 447.691C148.752 443.009 148.855 437.124 151.502 433.263C152.424 431.923 153.641 430.751 154.05 429.091C154.629 426.69 153.212 423.822 151.121 422.29C149.026 420.775 146.453 420.454 144.168 420.888C138.924 421.897 135.153 426.539 133.514 431.908C132.36 435.726 132.12 439.85 132.278 444.022Z" fill="#3D3D3D"/>
<path d="M368.675 577.396C367.919 577.69 367.154 577.99 366.405 578.296C364.076 579.277 361.74 580.246 359.249 580.783C353.462 582.041 345.276 581.437 339.321 578.989C333.588 576.629 329.101 570.52 324.625 566.137C321.264 562.848 317.352 560.349 313.839 557.255C310.325 554.161 307.104 550.194 306.196 545.609C305.238 540.776 306.992 536.23 308.705 532.03C310.416 527.846 312.126 523.663 313.837 519.48C317.324 510.952 328.044 519.534 333.317 512.836C334.538 511.279 335.775 509.728 336.996 508.17C337.321 507.77 337.649 507.352 338.113 507.148C338.577 506.943 339.126 506.981 339.666 507.025C342.481 507.238 345.296 507.452 348.11 507.665C350.289 507.828 352.574 508.038 354.537 509.322C358.154 511.697 358.767 514.152 358.239 517.658C357.732 521.015 356.963 524.077 360.501 526.498C362.39 527.793 364.615 528.497 366.203 530.21C367.539 531.668 368.232 533.663 368.478 535.592C368.688 537.25 368.703 539.097 369.794 540.404C370.254 540.953 370.853 541.331 371.415 541.76C380.948 549.029 372.461 556.892 374.852 565.059C375.354 566.765 376.577 568.349 376.578 570.081C376.584 571.243 376.02 572.241 375.363 573.077C373.595 575.361 371.18 576.422 368.675 577.396Z" fill="#3D3D3D"/>
<path d="M171.876 422.143C171.736 422.591 171.653 423.068 171.635 423.568C171.544 425.184 172.142 426.851 172.802 428.42C176.656 437.528 184.12 444.249 189.843 452.057C197.624 462.674 204.957 462.065 215.08 459.735C218.273 458.995 224.291 458.648 227.315 461.394C231.95 465.594 225.598 468.632 221.548 468.313C219.962 468.194 218.343 467.649 216.789 467.817C209.37 468.599 213.876 486.456 216.461 491.156C216.461 491.156 223.992 504.89 224.415 505.675C230.344 516.493 239.049 526.121 248.177 533.974C250.407 535.887 252.73 537.731 255.295 538.915C264.474 543.12 282.866 540.963 290.135 535.56C294.163 532.565 297.026 528.044 298.741 523.015C300.495 517.917 301.483 511.756 305.903 509.241C307.812 508.148 310.144 507.933 312.046 506.828C318.545 503.078 310.373 495.766 307.132 491.857C301.18 484.685 297.219 475.76 295.72 466.73C294.96 462.151 294.651 457.208 295.421 452.811C296.201 448.363 299.01 445.084 299.79 440.682C301.604 430.43 285.351 426.916 279.034 425.381C263.502 421.607 247.895 417.862 232.293 415.095C220.436 412.989 208.183 409.823 196.518 411.303C189.516 412.168 174.296 414.058 171.876 422.143Z" fill="#3D3D3D"/>
<path d="M426.644 587.946C417.074 590.573 412.872 580.927 407.537 572.851C400.336 561.932 389.776 555.054 385.754 542.608C384.107 537.494 381.246 531.08 377.329 527.649C373.277 524.097 372.674 521.802 369.773 516.779C367.168 512.275 368.624 501.336 366.019 496.832C361.508 489.02 358.102 480.743 366.409 480.778C374.717 480.813 376.953 498.737 377.969 502.126C377.969 502.126 387.461 518.709 387.534 518.836C395.076 532.012 400.094 542.646 414.457 548.622C415.708 549.147 417.032 549.616 418.281 549.468C419.503 549.321 420.54 548.62 421.551 547.964C426.168 545.03 431.37 543.049 436.852 542.135C439.601 541.68 442.694 541.688 445.278 540.715C448.595 539.475 448.965 537.286 451.64 535.249C454.544 533.035 457.943 532.193 461.556 531.612C468.565 530.482 477.314 531.147 482.041 525.038C487.268 518.259 484.062 507.307 484.433 498.018C484.734 490.334 487.649 483.437 490.535 476.741C494.271 468.118 496.414 459.225 490.202 449.826C482.704 438.479 468.551 434.392 460.212 423.697C458.049 420.933 456.274 417.717 453.554 415.641C451.92 414.399 450.043 413.634 448.355 412.484C441.211 407.589 443.271 399.174 438.111 393.25C435.462 390.213 432.143 387.989 428.761 386.092C427.804 385.551 426.639 384.715 426.727 383.623C426.76 383.22 426.966 382.888 427.185 382.579C428.718 380.368 431.685 377.182 434.365 376.445C438.599 375.263 443.297 376.207 447.681 377.593C458.662 381.073 470.032 376.91 480.89 381.028C481.738 381.356 482.595 381.724 483.3 382.378C484.067 383.073 484.593 384.014 485.105 384.932C491.744 396.923 495.438 407.32 496.015 420.757C496.154 423.974 496.031 427.172 496.62 430.391C497.166 433.375 498.322 436.27 499.64 439.057C506.386 453.287 517.351 464.948 524.349 479.019C526.896 484.138 530.49 491.984 530.308 497.639C530.177 501.976 527.315 505.531 525.883 509.278C523.684 515.029 521.124 520.588 518.224 525.897C517.115 527.927 515.941 529.933 514.422 531.615C512.747 533.463 510.706 534.877 508.723 536.349C497.169 544.941 487.797 555.916 475.835 564.097C460.897 574.319 444.505 582.322 427.151 587.794C426.999 587.851 426.813 587.896 426.644 587.946Z" fill="#3D3D3D"/>
<path d="M452.222 513.426C450.754 515.52 448.901 517.315 447.629 518.419C442.853 522.563 438.068 526.715 433.3 530.869C432.604 531.465 431.908 532.079 431.026 532.378C429.946 532.746 428.711 532.611 427.503 532.471C423.095 531.96 418.388 531.162 414.727 527.827C407.466 521.208 400.739 511.422 394.663 503.635C389 496.387 382.014 486.652 382.087 477.662C382.112 474.019 382.145 470.335 383.076 466.958C384.348 462.357 387.202 458.579 390.303 455.203C394.424 450.697 398.547 454.14 404.147 454.912C405.14 455.171 406.151 455.451 407.035 456.037C410.642 458.48 412.342 470.448 413.795 474.277C415.517 478.808 419.001 488.937 424.945 489.388C426.44 489.506 427.841 489.051 429.225 488.681C432.168 487.895 435.245 487.486 438.387 487.446C440.436 487.413 442.547 487.555 444.571 488.342C449.787 490.358 451.256 496.143 452.901 500.813C454.647 505.821 454.996 509.488 452.222 513.426Z" fill="#20BDEF" fill-opacity="0.3"/>
<path d="M469.973 479.834C469.973 479.834 460.723 482.722 460.687 482.727C457.357 483.759 453.243 481.806 449.82 480.945C445.317 479.812 440.824 479.318 436.379 479.761C435.206 479.881 433.997 480.051 432.799 479.71C428.747 478.534 427.101 472.73 425.277 469.221C423.073 464.979 421.121 460.623 419.453 456.165C417.664 451.379 414.88 447.392 410.93 444.041C404.746 438.796 398.662 433.77 390.883 436.368C389.816 436.718 388.845 437.258 387.881 437.81C382.963 440.61 378.2 443.704 373.626 447.058C372.635 447.794 371.578 448.553 370.306 448.591C368.69 448.627 367.081 447.431 366.06 445.946C363.094 441.665 362.944 433.931 358.175 431.065L352.05 427.397C352.05 427.397 346.269 419.789 346.088 419.541C342.606 414.956 350.918 403.698 350.017 398.296C349.543 395.439 347.861 392.707 347.824 389.877C347.702 381.499 356.351 384.873 361.182 385.588C363.864 385.984 366.371 386.558 368.982 387.639C374.573 389.958 379.775 393.788 385.605 395.096C387.453 395.51 389.307 395.614 391.145 395.62C396.706 395.626 402.145 394.705 407.24 392.907C411.521 391.392 416.021 389.246 420.619 390.937C432.228 395.193 433.27 413.27 442.701 420.336C444.09 421.381 445.666 422.104 447.049 423.183C448.908 424.633 450.333 426.638 451.858 428.494C461.471 440.285 479.88 444.727 483.116 461.334C483.491 463.235 483.717 465.221 483.189 466.949C482.57 469.005 480.982 470.405 479.461 471.736C476.295 474.437 473.116 477.115 469.973 479.834Z" fill="#3D3D3D"/>
<path d="M353.771 329.915C351.681 331.914 348.118 330.624 345.109 330.394C330.78 329.32 329.934 358.949 340.701 365.86C346.117 369.327 354.35 367.338 359.977 367.598C367.669 367.962 375.419 369.049 383.091 370.876C390.497 372.63 393.611 378.625 401.232 379.256C409.141 379.905 416.502 376.901 422.707 372.683C428.687 368.625 433.955 362.886 441.205 361.762C447.745 360.758 454.603 363.747 461.302 365.603C467.657 367.367 474.168 368.134 480.514 367.876C482.991 367.775 485.551 367.475 487.479 366.023C489.861 364.236 490.867 361.012 491.707 357.959C496.406 340.757 499.345 323.64 498.627 305.091C498.001 289.031 496.808 272.236 506.143 259.72C508.595 256.44 511.651 253.616 513.256 249.732C515.068 245.381 514.862 240.202 514.711 235.234C514.104 215.38 514.81 195.653 516.785 176.227C518.303 161.24 525.791 140.4 505.731 133.511C499.207 131.269 492.466 131.344 485.823 131.107C479.189 130.863 472.275 130.221 466.116 126.771C452.541 119.152 456.643 100.491 442.755 92.9003C432.826 87.4766 422.293 93.657 413.597 99.1492C396.659 109.843 380.471 114.192 360.151 103.896C350.447 98.9798 341.398 92.3717 331.744 87.29C326.751 84.655 320.312 82.6059 316.747 86.3865C314.48 88.7892 314.29 92.8167 315.038 96.429C317.786 109.761 334.588 109.299 345.814 116.597C354.181 122.037 358.202 137.017 366.569 142.457C372.202 146.117 386.475 154.911 384.644 163.449C383.931 166.747 380.735 168.335 377.897 169.672C371.151 172.852 323.671 201.604 345.252 210.436C347.092 211.183 349.015 211.429 350.922 211.67C352.485 211.864 354.075 212.059 355.582 211.786C357.125 211.508 358.517 210.757 359.872 210.012C363.083 208.265 366.287 206.506 369.497 204.759C373.331 202.671 375.842 200.372 379.88 196.864C382.556 193.168 401.522 181.826 404.019 191.456C404.153 198.355 392.891 202.369 388.212 206.531C381.915 212.133 371.933 214.064 369.227 222.528C367.298 228.519 369.901 235.534 372.462 241.83C376.998 253.005 382.252 262.299 388.228 272.74C391.873 278.946 402.296 289.776 399.865 297.22C399.076 299.67 397.268 301.492 395.32 302.954C388.999 307.708 380.973 309.412 373.521 312.073C366.059 314.741 358.573 318.935 355.517 326.646C355.07 327.78 354.705 328.987 353.894 329.83C353.847 329.841 353.804 329.881 353.771 329.915Z" fill="#3D3D3D"/>
<path d="M339.748 175.08C338.244 175.358 336.635 175.36 335.062 175.31C322.444 174.943 312.818 165.873 309.114 152.094C306.661 142.965 307.663 124.792 318.427 123.812C321.497 123.526 324.695 124.64 327.754 125.832C331.835 127.406 335.956 129.186 339.517 132.039C346.432 137.571 352.114 152.133 350.72 160.628C350.203 163.806 348.713 166.576 347.077 169.137C345.76 171.194 344.271 173.227 342.147 174.29C341.401 174.67 340.593 174.918 339.748 175.08Z" fill="#20BDEF" fill-opacity="0.3"/>
<path d="M213.26 141.093C212.993 142.749 213.024 144.463 213.519 146.204C214.819 150.78 219.087 154.132 223.334 155.442C227.598 156.757 231.921 156.445 236.176 156.293C250.04 155.793 265.057 157.469 277.25 166.619C279.033 167.959 280.826 169.569 281.662 171.698C282.91 174.893 281.664 178.228 280.141 180.893C276.295 187.572 270.583 192.834 263.79 195.91C260.503 197.408 256.324 199.724 257.383 203.717C258.124 206.512 261.057 207.992 263.473 209.399C276.138 216.791 283.045 234.991 278.109 247.997C276.348 252.623 267.874 263.392 272.743 268.485C276.987 272.924 292.511 268.454 297.934 269.581C305.646 271.177 312.753 276.997 317.47 284.201C322.188 291.405 324.721 299.843 325.924 308.17C326.42 311.642 327.491 316.119 330.699 316.905C332.017 317.224 333.276 316.748 334.448 316.261C348.401 310.497 361.604 303.078 373.755 294.145C376.095 292.422 378.588 290.32 378.833 287.129C379.109 283.598 376.583 280.245 374.387 277.24C368.092 268.64 363.172 258.961 359.971 248.85C357.863 242.192 356.265 234.95 351.525 229.829C346.17 224.048 338.29 222.594 331.95 218.205C323.528 212.37 321.661 203.09 320.702 193.689C319.451 181.358 317.004 184.231 308.869 176.5C296.603 164.847 289.952 145.55 294.646 130.23C296.518 124.114 299.869 118.762 301.406 112.5C302.943 106.239 302.171 98.295 297.199 93.5519C284.701 81.6335 266.359 97.5296 256.8 103.476C248.17 108.83 239.805 114.646 231.757 120.878C224.865 126.202 214.864 131.329 213.26 141.093Z" fill="#3D3D3D"/>
<path d="M191.088 201.743C191.074 201.726 191.059 201.71 191.045 201.693C190.302 200.831 189.239 199.574 187.962 198C185.406 194.852 182.002 190.444 178.6 185.402C175.195 180.356 171.812 174.702 169.285 169.061C166.749 163.4 165.125 157.861 165.125 153.015C165.125 138.661 176.733 127.052 191.088 127.052C205.443 127.052 217.051 138.661 217.051 153.015C217.051 157.861 215.427 163.4 212.891 169.061C210.364 174.702 206.981 180.356 203.576 185.402C200.175 190.444 196.77 194.852 194.215 198C192.938 199.574 191.874 200.831 191.132 201.693C191.117 201.71 191.103 201.726 191.088 201.743ZM179.78 153.015C179.78 159.258 184.846 164.324 191.088 164.324C197.331 164.324 202.396 159.258 202.396 153.015C202.396 146.773 197.331 141.707 191.088 141.707C184.846 141.707 179.78 146.773 179.78 153.015Z" fill="#F9B112" stroke="white" stroke-width="3"/>
<path d="M214.355 314.858C214.355 314.858 214.804 314.125 215.404 313.387C215.449 313.333 215.404 313.249 215.338 313.258C214.262 313.351 213.377 314.178 213.377 314.178L214.355 314.858Z" fill="black"/>
<path d="M215.973 313.786C215.622 313.817 215.297 313.95 215.044 314.093L215.035 314.115C215.035 314.115 215.302 314.315 215.515 314.564C215.649 314.368 215.827 314.128 216.022 313.888C216.058 313.844 216.027 313.781 215.973 313.786Z" fill="black"/>
<path d="M218.976 318.143C218.376 316.943 216.873 316.329 216.037 315.324C215.859 315.111 215.713 314.862 215.49 314.689C213.53 313.155 210.591 313.59 208.879 315.293C207.781 316.387 206.981 317.787 206.016 319.014H206.883L205.842 319.232C205.376 319.801 204.86 320.326 204.255 320.753L205.344 320.811C205.344 320.811 204.526 321.153 203.717 321.091C203.597 321.157 203.477 321.22 203.353 321.277C200.903 322.398 197.884 321.655 195.666 320.384C194.905 319.948 194.132 319.499 193.282 319.286C190.73 318.641 187.423 320.695 187.022 323.332C186.92 324.007 186.934 324.674 187.089 325.341C187.076 326.884 187.049 328.391 186.676 329.916C186.516 330.561 185.991 331.076 185.862 331.694C185.76 332.175 186.009 332.708 186 333.193C185.978 334.455 185.133 336.238 184.826 337.47C184.542 337.914 184.364 338.332 184.808 338.688C184.853 339.355 184.693 339.422 184.577 340.071C184.528 340.337 184.506 340.52 184.768 340.684C184.955 340.8 185.204 340.844 185.422 340.867C185.92 340.915 186.894 341.049 186.88 340.342C186.871 339.866 186.711 339.39 186.422 338.999C186.267 338.79 186.147 338.715 186.147 338.452C186.147 338.186 186.204 337.923 186.236 337.661C186.329 336.843 186.48 336.012 186.645 335.207C186.836 334.269 187.307 333.353 187.734 332.49C188.027 331.899 188.405 331.348 188.801 330.805C188.73 329.996 188.476 329.174 188.298 328.164C188.734 328.729 189.05 329.783 189.183 330.29C189.188 330.281 189.192 330.276 189.197 330.267C189.241 330.472 189.272 330.685 189.29 330.894C189.299 331.21 189.303 331.53 189.294 331.855C189.259 332.21 189.188 332.561 189.068 332.895C188.685 333.957 188.41 334.393 188.974 335.465C189.708 336.856 189.588 338.435 189.735 339.995C189.757 340.222 189.895 340.431 190.121 340.422C190.348 340.413 189.988 341.636 190.259 341.867C190.588 342.143 191.38 342.258 191.771 342.169C193.078 341.871 191.886 340.324 191.402 339.826C190.891 339.297 190.553 339.079 190.468 338.195C190.406 337.572 190.499 336.919 190.508 336.292C190.513 335.74 190.415 335.162 190.468 334.615C190.539 333.882 190.944 333.451 191.313 332.882C191.371 332.793 191.428 332.695 191.486 332.601C191.882 332.246 192.678 331.872 192.989 331.432C193.474 330.739 193.865 329.947 194.141 329.134C194.141 329.134 194.141 329.134 194.141 329.129C194.203 328.951 194.256 328.773 194.309 328.596C194.318 328.6 194.323 328.6 194.327 328.604C194.518 328.053 194.816 327.137 195.079 326.146C194.985 327.168 194.852 328.044 194.714 328.765C194.959 328.867 195.199 328.974 195.439 329.085C196.706 329.685 197.826 330.534 199.209 330.876C200.516 331.201 201.801 331.103 203.05 330.783C204.184 330.632 205.211 330.085 206.291 329.72C206.5 329.649 206.705 329.574 206.909 329.494C206.901 329.689 206.887 329.885 206.865 330.081C206.798 330.739 206.349 331.325 206.309 331.957C206.274 332.45 206.594 332.939 206.656 333.424C206.812 334.678 206.225 336.558 206.091 337.826C205.874 338.306 205.753 338.746 206.243 339.035C206.38 339.688 206.229 339.777 206.207 340.44C206.198 340.711 206.198 340.893 206.483 341.018C206.683 341.107 206.936 341.111 207.154 341.102C207.652 341.08 208.47 341.16 208.359 340.462C208.283 339.991 208.225 339.631 207.883 339.284C207.701 339.097 207.567 338.87 207.532 338.612C207.496 338.35 207.514 338.083 207.51 337.817C207.487 336.994 207.523 336.149 207.572 335.331C207.63 334.375 207.968 333.406 208.27 332.486C208.55 331.637 208.999 330.841 209.43 330.041C208.852 329.814 208.097 329.498 207.514 329.169C207.505 329.165 207.501 329.16 207.492 329.156C207.474 329.147 207.456 329.138 207.439 329.125C207.43 329.12 207.421 329.116 207.416 329.111C207.398 329.102 207.385 329.094 207.372 329.085C207.363 329.08 207.354 329.076 207.35 329.071C207.336 329.062 207.318 329.054 207.305 329.045C207.296 329.04 207.292 329.036 207.283 329.031C207.27 329.022 207.252 329.014 207.238 329.005C207.23 329 207.225 328.996 207.216 328.991C207.203 328.982 207.185 328.969 207.172 328.96C207.167 328.956 207.163 328.951 207.154 328.951C207.136 328.938 207.118 328.929 207.105 328.916C207.101 328.916 207.101 328.911 207.096 328.911C207.034 328.867 206.981 328.827 206.932 328.787C206.856 328.725 206.794 328.667 206.745 328.604C206.216 327.978 205.687 327.831 205.651 327.818L206.149 327.951C206.407 328.08 206.652 328.227 206.874 328.382C208.177 329.294 209.919 329.974 211.529 329.876C212.987 329.787 213.716 330.636 213.752 332.05C213.77 332.873 213.085 333.757 213.245 334.522C213.307 334.824 213.525 335.216 213.049 335.345C213.045 335.345 213.04 335.349 213.032 335.349C213.014 335.362 212.992 335.376 212.965 335.389C212.849 335.438 212.387 335.447 212.049 335.438C211.524 335.727 210.92 337.31 211.596 337.594C212.618 338.026 213.983 336.745 214.361 335.896C214.912 334.656 214.49 333.251 214.726 331.961C214.912 330.948 215.295 329.507 214.205 328.858C213.49 328.431 212.716 328.107 212.009 327.662C212.285 326.831 212.04 325.937 212.302 324.977C212.454 324.416 212.872 323.914 213.018 323.332C213.281 322.296 213.414 321.229 213.409 320.162C213.409 319.708 213.329 319.179 213.467 318.806C213.298 318.574 213.116 318.259 213.138 317.974C213.138 317.974 213.254 318.299 213.556 318.637C213.556 318.637 213.556 318.632 213.561 318.632C213.721 318.757 213.903 318.872 214.125 318.957C215.117 319.348 215.477 318.859 216.219 318.841C216.397 318.877 216.579 318.903 216.757 318.908C217.913 319.21 218.162 319.108 218.162 319.108C218.162 319.108 219.118 318.423 218.976 318.143Z" fill="black"/>
<path d="M189.348 320.975C189.148 320.371 188.583 320.002 188.054 319.708C187.445 319.375 186.823 319.033 186.16 318.819C184.408 318.254 182.532 318.908 181.363 320.304C180.149 321.749 179.856 323.639 179.055 325.297C178.522 326.395 177.762 327.378 176.69 327.991C175.881 328.449 174.974 328.689 174.054 328.769C174.036 328.934 174.098 329.098 174.267 329.183C175.752 329.912 177.682 330.361 179.291 329.778C179.362 329.738 181.021 328.765 181.719 327.8C181.274 328.618 180.767 329.236 180.3 329.694C181.265 329.712 182.163 329.027 182.826 328.396C183.559 327.693 184.213 326.849 184.502 325.862C184.942 324.363 184.177 321.931 185.56 320.86C186.311 320.277 187.614 320.251 188.245 321.033C188.303 321.109 188.392 321.149 188.485 321.158C188.499 321.18 188.503 321.202 188.512 321.215C188.672 321.749 189.526 321.518 189.348 320.975Z" fill="black"/>
<path d="M306.367 233.157C306.367 233.157 306.362 233.157 306.367 233.157C306.362 233.157 306.362 233.157 306.367 233.157C306.409 233.157 306.435 233.152 306.43 233.152C306.409 233.157 306.388 233.157 306.367 233.157Z" fill="black"/>
<path d="M338.078 250.063C338.068 249.989 338.052 249.921 338.025 249.858C337.873 249.474 337.468 249.169 337.253 248.827C336.659 247.865 336.349 246.719 336.101 245.584C334.782 245.789 333.468 246.357 332.947 246.598C332.963 246.619 332.979 246.635 332.989 246.656C333.142 246.987 333.263 247.261 333.31 247.329C333.867 248.233 334.698 248.901 335.239 249.779C335.786 250.672 335.676 251.861 335.592 252.88C335.549 253.38 335.455 253.9 335.455 254.405C335.46 254.957 335.623 255.493 335.581 256.056C335.539 256.592 335.434 257.112 335.271 257.622C335.181 257.911 335.076 258.195 334.966 258.479C334.919 258.605 334.651 259.01 334.708 259.141C334.85 259.473 336.285 259.283 336.533 259.131C337.074 258.8 336.606 257.633 336.701 257.128C336.743 256.897 336.785 256.671 336.827 256.439C336.974 255.651 336.869 254.825 336.974 254.011C337.069 253.296 337.226 252.591 337.452 251.918C337.626 251.393 338.146 250.63 338.078 250.063Z" fill="black"/>
<path d="M343.593 246.756C343.093 246.535 342.862 246.025 342.699 245.478C342.52 244.884 342.452 244.264 342.294 243.665C342.115 242.981 341.805 242.361 341.322 241.846C340.354 240.815 339.045 240.264 338.004 239.354C337.836 239.107 337.668 238.87 337.5 238.65C336.585 237.441 335.181 237.115 334.44 235.774C333.142 233.424 330.692 230.175 327.816 229.823C324.994 229.471 324.11 232.625 322.617 234.318C321.377 235.727 318.985 235.722 317.907 237.236C317.697 237.53 317.565 237.887 317.292 238.124C316.709 238.623 315.915 237.851 315.473 237.488C314.969 237.073 314.606 236.599 314.306 236.021C313.959 235.348 313.675 234.644 313.339 233.96C313.123 233.529 312.887 233.109 312.608 232.715C312.471 232.515 312.324 232.326 312.167 232.142C312.04 231.994 311.914 231.763 311.72 231.705C311.546 231.658 311.247 231.59 311.073 231.553C311.304 231.579 311.536 231.547 311.714 231.505C312.14 231.411 312.745 231.269 312.987 230.859C313.108 230.654 312.976 230.496 312.703 230.38C311.725 229.97 310.558 229.855 309.517 230.055C308.986 230.16 308.455 230.344 308.029 230.691C307.393 231.206 307.183 231.211 306.363 231.395C305.664 231.553 304.092 231.952 303.913 232.762C303.803 233.251 303.987 233.582 304.292 233.792C304.376 234.129 304.675 234.47 305.054 234.423C305.495 234.365 305.932 234.271 306.373 234.202C306.368 234.202 306.368 234.202 306.363 234.202C306.368 234.202 306.373 234.202 306.379 234.202C306.421 234.197 306.442 234.197 306.442 234.197C306.473 234.192 306.5 234.186 306.531 234.186C306.547 234.186 306.568 234.186 306.584 234.181C306.789 234.286 306.978 234.444 307.251 234.681C308.04 235.364 309.238 235.921 310.158 235.254C310.542 236.768 310.968 238.261 311.746 239.638C312.035 240.153 312.377 240.663 312.776 241.115C313.076 241.536 313.428 241.919 313.854 242.235C314.674 242.845 315.699 243.123 316.688 243.313C317.387 243.449 318.112 243.523 318.822 243.428C318.964 243.565 319.111 243.702 319.253 243.833C319.358 243.933 319.468 244.027 319.574 244.122C319.637 245.347 319.8 246.556 320.036 247.765C320.273 248.964 320.525 250.173 320.588 251.392C320.588 251.477 320.583 251.561 320.583 251.65C320.583 251.797 320.588 251.939 320.604 252.086C320.604 252.171 320.604 252.26 320.599 252.344C320.593 252.454 320.625 252.544 320.678 252.607C320.709 252.791 320.746 252.975 320.777 253.154C320.961 254.142 320.925 255.146 320.904 256.145C320.893 256.686 320.893 257.207 320.751 257.732C320.63 258.174 320.262 258.568 320.21 259.031C320.147 259.62 322.228 259.546 322.433 259.183C322.596 258.894 322.581 258.379 322.491 258.064C322.297 257.375 322.281 256.618 322.318 255.913C322.36 255.125 322.47 254.336 322.586 253.558C322.602 253.464 322.612 253.369 322.628 253.274C322.633 253.253 322.638 253.19 322.649 253.138C322.649 253.127 322.654 253.117 322.654 253.111C322.659 253.064 322.665 253.012 322.67 252.964C322.675 252.859 322.68 252.754 322.675 252.654C322.675 252.602 322.67 252.554 322.665 252.502C322.649 252.428 322.638 252.354 322.623 252.281C322.586 252.123 322.539 251.965 322.491 251.813C322.36 251.371 322.244 250.946 322.186 250.488C322.123 249.999 322.171 249.516 322.244 249.032C322.318 248.548 322.391 248.128 322.539 247.66C322.386 247.35 322.26 246.961 322.081 246.714C321.666 246.136 320.956 245.205 320.956 245.205C320.956 245.205 321.866 245.652 322.244 246.582C322.381 246.914 322.507 247.239 322.617 247.523C322.617 247.518 322.617 247.518 322.623 247.513C322.733 247.797 322.843 248.091 322.949 248.385C322.954 248.396 322.954 248.401 322.954 248.401C322.954 248.401 322.954 248.401 322.954 248.396C323.227 249.158 323.464 249.936 323.616 250.651C323.737 251.203 323.48 251.703 323.637 252.255C323.816 252.88 324.252 253.39 324.447 253.995C324.615 254.51 324.578 255.13 324.62 255.682C324.678 256.387 324.731 257.096 324.62 257.801C324.541 258.3 324.279 258.726 324.068 259.173C323.832 259.677 323.837 259.93 324.457 259.951C324.431 259.94 324.405 259.935 324.378 259.924C324.62 259.977 324.867 260.03 325.109 260.014C325.803 259.967 325.94 259.373 325.945 258.778C325.956 258.736 325.966 258.7 325.971 258.658C326.024 258.363 325.966 258.058 325.95 257.764C325.919 257.133 325.919 256.502 325.966 255.871C326.055 254.683 326.602 253.637 326.224 252.423C325.829 251.161 325.866 249.821 325.992 248.517C326.034 248.086 326.082 247.66 326.119 247.229C326.119 247.213 326.119 247.203 326.124 247.187C326.161 246.756 326.192 246.325 326.203 245.894C326.208 245.894 326.213 245.894 326.218 245.894C326.26 245.168 326.276 244.553 326.276 244.553C326.402 245.179 326.55 245.615 326.56 245.894C326.665 245.894 326.665 245.899 326.77 245.904C327.196 245.925 327.606 246.03 328.011 246.172C328.81 246.451 329.567 246.787 330.424 246.84C331.859 246.924 333.152 246.246 334.456 245.757C335.024 245.541 335.607 245.373 336.207 245.326C336.391 245.31 337.41 247.471 337.568 247.697C338.194 248.601 339.129 249.269 339.734 250.147C340.349 251.04 340.223 252.228 340.134 253.248C340.086 253.748 339.976 254.268 339.981 254.773C339.986 255.325 340.17 255.861 340.123 256.423C340.076 256.96 339.955 257.48 339.776 257.99C339.692 258.227 338.961 259.488 339.24 259.609C339.292 259.635 339.355 259.63 339.413 259.63C339.96 259.609 341.28 259.793 341.427 259.125C341.542 258.584 341.274 258.027 341.385 257.496C341.432 257.264 341.479 257.038 341.527 256.807C341.69 256.019 341.574 255.193 341.69 254.378C341.795 253.663 341.973 252.959 342.226 252.286C342.426 251.76 343.004 250.998 342.925 250.43C342.914 250.357 342.893 250.289 342.867 250.225C342.699 249.842 342.236 249.537 342 249.195C341.248 248.112 340.901 246.798 340.607 245.531C340.354 244.427 340.123 243.307 339.666 242.266C339.508 241.904 339.319 241.525 339.119 241.147C339.214 241.215 339.308 241.289 339.403 241.357C339.771 241.63 340.144 241.904 340.48 242.209C340.733 242.44 340.938 242.682 341.101 242.955C341.174 243.055 341.243 243.16 341.306 243.26C341.637 243.801 341.868 244.401 342.11 244.984C342.168 245.126 342.226 245.268 342.284 245.41C342.31 245.468 342.331 245.526 342.357 245.589C342.362 245.599 342.362 245.605 342.368 245.615C342.483 245.888 342.61 246.162 342.746 246.43C342.867 246.666 343.004 246.898 343.162 247.119C343.167 247.129 343.177 247.134 343.183 247.145C343.214 247.182 343.251 247.218 343.282 247.255C343.319 247.297 343.361 247.334 343.403 247.371C343.445 247.397 343.487 247.423 343.53 247.45C343.556 247.46 343.582 247.466 343.608 247.476C343.629 247.476 343.645 247.476 343.666 247.476C343.708 247.445 343.75 247.402 343.777 247.35C343.855 247.166 343.808 246.85 343.593 246.756Z" fill="black"/>
<path d="M527.593 501.642C527.357 501.085 526.663 500.927 526.205 500.454C526 500.239 525.948 499.008 525.764 498.583C524.702 496.096 522.005 494.335 519.398 493.883C515.676 493.236 514.409 492.721 510.645 493.11C510.645 493.11 509.22 493.273 508.274 493.499C508.873 493.11 509.483 492.831 510.072 492.632C509.961 492.5 509.872 492.39 509.851 492.369C509.178 491.654 508.326 491.312 507.38 491.123C506.019 490.85 504.626 490.834 503.243 490.934C502.864 490.96 502.46 490.876 502.092 490.986C501.55 491.144 501.424 491.538 502.055 491.675C503.043 491.885 504.01 492.411 504.715 493.147C504.904 493.347 505.141 493.646 505.13 493.935C505.109 494.356 504.767 494.445 504.426 494.582C502.675 495.286 500.841 496.233 499.384 497.442C497.413 499.077 495.81 501.153 494.753 503.487C493.476 506.3 492.997 509.464 493.37 512.524C493.391 512.64 493.723 514.353 494.127 515.126C493.707 514.616 493.386 514.133 493.134 513.686C492.345 513.933 490.747 515.095 490.589 515.252C489.785 516.057 489.097 517.045 488.692 518.117C488.571 518.433 488.592 519.716 489.049 519.821C489.365 519.889 490.432 518.732 490.773 518.538C490.773 518.538 490.773 518.538 490.779 518.538C492.119 517.765 493.88 517.418 495.363 517.975C495.994 518.217 496.488 518.906 497.082 518.506C498.596 517.487 496.377 514.637 495.61 513.959C495.258 513.649 496.609 511.662 496.808 511.341C497.45 510.311 498.207 509.349 499.064 508.487C501.992 505.522 506.103 503.535 510.235 503.098C510.382 502.578 510.608 502.005 510.955 501.442C510.776 502.11 510.771 503.051 510.771 503.051L510.718 503.172C510.618 503.687 510.65 505.658 510.829 505.842C511.996 507.036 514.53 503.661 514.556 502.588C514.566 502.205 517.237 501.994 517.6 501.973C520.728 501.795 523.819 502.126 526.899 502.62C527.088 502.651 527.288 502.678 527.467 502.599C527.809 502.431 527.714 501.916 527.593 501.642Z" fill="black"/>
<path d="M118.001 235.166C116.203 238.162 113.69 239.55 112.518 240.065C112.071 240.486 111.645 240.933 111.65 241.464C111.656 242.32 111.955 243.135 111.982 243.987C112.008 244.891 111.461 245.732 111.771 246.636C112.008 247.325 112.702 247.746 113.364 247.614C113.716 247.541 114.216 247.315 114.347 246.915C114.552 246.289 113.706 246.174 113.538 245.68C113.038 244.224 114.032 242.305 114.72 241.127C115.567 239.682 117.444 238.882 118.505 237.658C119.305 236.732 119.878 235.723 120.435 234.687C119.857 234.34 118.747 233.915 118.001 235.166Z" fill="black"/>
<path d="M141.503 215.796C141.503 215.796 140.919 216.679 141.019 216.889C141.046 216.942 141.508 217.089 141.981 217.225C142.081 216.768 142.355 216.369 142.565 215.943C142.691 215.69 142.801 215.228 142.702 214.954C142.47 214.329 142.218 215.17 141.981 215.401C141.839 215.538 141.676 215.654 141.513 215.764L141.503 215.796Z" fill="black"/>
<path d="M130.258 238.91C130.279 238.837 130.295 238.758 130.316 238.684C130.153 238.09 130.059 237.449 130.006 237.033C129.585 237.023 128.839 237.002 128.198 236.923C128.219 237.091 128.24 237.265 128.261 237.433C128.319 237.859 128.418 238.179 128.292 238.558C128.192 238.868 128.108 239.22 127.982 239.52C127.693 240.182 127.945 240.734 127.924 241.402C127.898 242.122 127.682 242.832 127.583 243.547C127.493 244.172 127.425 244.798 127.388 245.429C127.362 245.865 127.257 246.47 127.525 246.832C127.667 247.022 127.882 247.127 128.098 247.169C128.476 247.237 128.986 247.227 129.359 247.121C129.401 247.111 129.444 247.09 129.48 247.064H129.486C129.764 247.064 130.017 246.796 130.001 246.464C129.985 246.107 129.596 245.812 129.365 245.597C129.123 245.376 128.876 245.213 128.855 244.85C128.834 244.419 129.039 243.873 129.139 243.463C129.517 241.943 129.89 240.429 130.258 238.91Z" fill="black"/>
<path d="M147.701 221.389C147.68 221.331 147.644 221.279 147.58 221.216C147.365 221.005 146.818 220.89 146.54 220.774C145.84 220.475 145.178 220.143 144.568 219.691C144.631 219.739 144.715 219.024 144.684 218.924C144.437 218.077 142.423 217.452 141.672 217.305C141.346 217.241 140.994 217.147 140.636 217.058C140.778 216.542 141.088 216.08 141.33 215.591C141.493 215.265 141.614 214.713 141.488 214.361C141.267 213.735 140.962 214.434 140.778 214.681C140.3 215.338 139.522 215.649 138.985 216.243C138.754 216.495 138.549 216.774 138.37 217.068C137.629 217.331 137.003 217.809 136.341 218.251C135.447 218.845 134.449 219.502 133.665 220.301C132.793 221.189 132.094 222.225 131.11 223.003C130.385 223.576 129.523 223.981 128.592 224.044C127.557 224.118 126.584 223.965 125.648 224.564C123.625 225.852 121.637 226.142 119.288 226.294C116.612 226.473 113.763 227.445 111.965 229.538C111.56 229.39 111.134 229.29 110.698 229.322C110.372 229.343 110.093 229.585 110.093 229.927C110.093 230.237 110.372 230.552 110.698 230.531C110.992 230.51 111.276 230.573 111.544 230.668C111.523 230.731 111.513 230.799 111.513 230.873C111.502 232.876 111.071 234.942 110.251 236.776C109.825 237.728 109.284 238.643 108.558 239.394C107.943 240.03 106.508 240.482 106.355 241.381C106.214 242.228 106.398 243.085 106.277 243.926C106.15 244.825 105.42 245.571 105.604 246.512C105.74 247.232 106.408 247.753 107.139 247.727C107.528 247.711 108.101 247.564 108.306 247.19C108.632 246.607 107.749 246.36 107.649 245.845C107.36 244.331 108.747 242.59 109.688 241.534C110.834 240.241 112.979 239.746 114.32 238.7C116.055 237.344 117.137 235.63 118.594 234.053C118.956 233.664 122.121 235.231 122.536 235.383C124.019 235.93 125.538 236.393 127.11 236.582C128.025 236.692 128.992 236.703 129.949 236.582C129.985 236.04 130.091 235.346 130.359 234.595C130.359 234.595 130.285 235.636 130.311 236.592C130.348 237.065 130.406 237.544 130.48 238.012C130.548 238.448 130.658 238.774 130.516 239.158C130.401 239.473 130.306 239.836 130.154 240.135C129.823 240.814 130.112 241.371 130.085 242.054C130.054 242.79 129.807 243.516 129.691 244.241C129.586 244.877 129.512 245.519 129.465 246.16C129.433 246.602 129.313 247.222 129.623 247.59C129.786 247.784 130.038 247.89 130.285 247.932C130.721 248.005 131.31 247.989 131.747 247.884C131.799 247.874 131.846 247.853 131.888 247.826C131.894 247.826 131.894 247.826 131.899 247.826C132.225 247.826 132.509 247.553 132.493 247.217C132.472 246.854 132.03 246.554 131.762 246.333C131.484 246.107 131.195 245.944 131.174 245.571C131.147 245.13 131.384 244.578 131.505 244.157C131.936 242.612 132.362 241.066 132.793 239.52C133.029 238.674 133.234 237.896 133.602 237.097C134.028 236.172 134.612 235.273 134.938 234.311C135.001 234.127 135.053 233.948 135.111 233.764C136.346 231.961 136.383 229.806 137.161 227.792C137.387 227.209 137.587 226.63 137.881 226.078C138.281 225.332 138.77 224.585 139.411 224.028C140.284 223.276 141.025 223.471 142.076 223.66C142.886 223.807 143.69 223.902 144.516 223.876C144.715 223.871 144.915 223.86 145.104 223.792C145.236 223.744 145.383 223.66 145.467 223.539C145.546 223.418 145.493 223.187 145.593 223.092C145.693 222.998 145.988 223.014 146.124 222.982C146.881 222.824 147.449 222.63 147.654 221.826C147.701 221.626 147.738 221.505 147.701 221.389Z" fill="black"/>
<path d="M216.385 536.591C216.627 535.397 216.716 534.419 217.3 533.289C218.283 531.376 218.993 529.509 218.425 527.375C218.167 526.403 217.82 525.456 217.741 524.447C217.689 523.748 216.748 523.396 216.364 524.074C215.397 525.766 214.987 527.685 214.729 529.599C214.687 529.909 214.219 533.494 214.02 534.593C214.598 534.914 215.633 535.581 216.385 536.591Z" fill="black"/>
<path d="M218.104 540.009C218.062 539.903 218.014 539.798 217.967 539.698C217.73 539.173 217.457 538.658 217.152 538.169C217.094 538.095 217.042 538.016 216.984 537.948C216.826 537.753 216.605 537.506 216.463 537.301C215.097 535.693 213.877 534.915 213.877 534.915L213.872 534.904C213.872 534.904 213.872 534.904 213.867 534.904C212.957 533.9 212.384 532.628 211.9 531.377C211.291 529.789 210.775 528.123 209.845 526.682C209.304 525.846 208.641 525.131 207.826 524.564C207.395 524.264 206.901 524.6 206.738 525.005C206.412 525.815 206.654 526.772 206.764 527.597C206.88 528.459 206.665 529.416 206.764 530.315C206.875 531.298 207.343 532.086 208.063 532.749C208.673 533.306 209.372 533.742 209.961 534.321C210.334 534.678 210.697 535.051 211.044 535.435C210.959 535.34 210.844 535.414 210.712 535.587C210.392 535.777 210.171 536.061 209.924 536.329C209.677 536.597 209.488 536.875 209.335 537.207C209.009 537.911 208.794 538.642 208.752 539.409C208.073 539.577 207.217 538.878 206.675 538.584C204.83 537.58 202.811 536.613 200.724 536.266C198.59 535.908 196.293 536.061 194.342 537.065C190.599 538.994 189.821 543.1 189.637 546.911C188.807 547.042 188.817 545.549 188.901 544.666C187.061 545.318 185.758 547.663 186.215 549.571C186.315 550.002 186.515 550.391 186.767 550.738C186.851 551.632 187.119 552.483 187.945 552.967C188.297 553.172 188.696 553.209 189.085 553.151C189.117 553.203 189.154 553.251 189.196 553.293C189.448 553.566 189.795 553.666 190.158 553.677C190.652 553.687 191.141 553.477 191.44 553.114C191.477 553.918 191.956 554.349 192.723 554.644C193.811 555.064 195.062 555.028 196.208 555.038C197.796 555.054 201.691 555.401 202.575 553.745C202.711 553.493 202.764 553.214 202.738 552.941C202.506 551.789 199.668 552.851 199.668 552.851C201.728 551.348 203.269 552.252 203.269 552.904C203.668 552.867 204.057 552.809 204.451 552.751C204.047 551.737 204.415 549.424 205.713 549.161C205.713 549.161 204.457 550.512 204.856 552.699C204.867 552.699 204.877 552.699 204.882 552.694C204.909 552.688 205.014 553.603 205.093 553.729C205.361 554.171 205.881 554.381 206.349 554.528C207.863 555.007 209.535 555.243 211.117 555.28C211.753 555.296 212.552 555.338 213.131 555.012C213.719 554.681 213.709 553.918 213.225 553.503C212.831 553.161 212.326 552.967 211.848 552.772C211.427 552.599 211.002 552.446 210.581 552.278C210.565 552.273 210.534 552.257 210.502 552.247C210.397 552.194 210.292 552.136 210.197 552.078C210.197 552.078 211.522 551.222 212.516 550.307C212.826 550.007 213.12 549.692 213.404 549.366C214.382 548.251 215.186 547.021 215.538 545.623C215.444 545.386 215.565 545.05 215.896 545.034C216.032 545.029 216.164 545.013 216.295 544.987C216.521 545.018 216.758 545.018 217 545.013C217.305 545.003 217.61 544.966 217.878 544.819C219.507 543.92 218.635 541.275 218.104 540.009Z" fill="black"/>
<path d="M213.471 551.095C213.187 550.958 212.888 550.827 212.583 550.722C211.947 551.431 211.121 551.805 210.664 551.968C211.106 552.152 211.574 552.283 212.036 552.409C212.614 552.567 213.203 552.719 213.661 553.119C214.307 553.697 215.169 552.982 214.822 552.22C214.575 551.689 213.976 551.337 213.471 551.095Z" fill="black"/>
<path d="M284.338 495.653C284.333 495.659 284.328 495.659 284.322 495.664C284.328 495.664 284.333 495.659 284.338 495.653Z" fill="black"/>
<path d="M289.879 491.095C289.795 490.527 289.596 489.954 289.511 489.428C289.469 489.444 289.433 489.46 289.396 489.481C289.327 489.523 289.243 490.18 289.196 490.301C289.07 490.606 288.886 490.921 288.639 491.142C288.145 491.578 287.566 491.605 286.972 491.584C286.957 491.521 286.936 491.458 286.92 491.389C286.315 489.281 283.986 488.251 283.487 486.153C283.093 486.095 282.583 485.99 281.941 485.806C282.53 485.975 283.429 485.848 283.429 485.848C283.429 485.848 283.429 485.848 283.429 485.843C283.729 485.838 284.028 485.817 284.323 485.775C285.069 485.675 285.847 485.444 286.389 484.913C286.347 484.723 286.215 484.566 286.005 484.529C285.59 484.461 285.164 484.424 284.754 484.329C284.381 484.24 284.05 484.077 283.697 483.924C283.04 483.635 282.383 483.456 281.673 483.42C281.416 483.393 281.153 483.399 280.89 483.404C280.885 483.357 280.874 483.304 280.864 483.257C280.838 483.152 280.811 483.057 280.78 482.973C280.438 482.111 278.735 481.795 277.962 481.427C276.001 480.492 273.925 478.715 271.648 479.619C269.956 480.292 268.268 481.091 266.449 481.327C264.788 481.548 263.011 481.322 261.308 481.27C261.608 481.706 261.986 482.2 262.428 482.705C261.55 482.558 260.33 481.028 260.33 481.028C259.705 480.602 259.205 479.961 258.532 479.582C257.623 479.072 256.592 478.778 255.552 478.751C252.944 478.683 251.357 480.649 248.938 481.096C248.339 481.206 247.766 481.401 247.209 481.653C246.163 482.137 245.243 482.894 244.454 483.756C244.023 484.224 243.639 484.729 243.214 485.197C242.457 486.022 241.573 486.916 241.232 488.014C240.958 488.892 241.032 490.722 242.446 490.212C242.514 490.185 242.593 490.164 242.662 490.133C242.767 490.89 243.014 491.61 243.398 492.288C243.913 493.198 244.607 493.955 245.237 494.78C245.485 495.106 245.705 495.463 245.774 495.868C245.874 496.446 245.816 497.077 245.8 497.661C245.784 498.16 245.669 498.654 245.726 499.154C245.784 499.669 246.026 500.1 246.399 500.447C246.699 500.731 247.077 500.941 247.335 501.267C247.34 501.272 247.382 501.335 247.419 501.404C247.403 501.377 247.445 501.477 247.456 501.519C247.466 501.556 247.477 501.593 247.487 501.63C247.472 501.677 247.461 501.724 247.451 501.772C247.314 502.413 247.761 502.76 248.329 502.849C249.149 502.976 249.979 502.981 250.81 502.965C250.831 502.965 250.847 502.97 250.868 502.976C251.467 503.054 252.066 503.107 252.671 503.112C253.081 503.117 253.564 503.138 253.927 502.912C255.052 502.203 253.827 500.81 253.165 500.284C252.928 500.095 252.645 499.937 252.418 499.764C252.266 499.648 252.098 499.474 252.019 499.353C251.756 498.97 251.656 498.628 251.577 498.144C251.504 497.698 251.488 497.182 251.477 496.657C251.488 496.662 251.498 496.662 251.504 496.667C251.477 496.341 251.451 495.968 251.43 495.553C252.734 495.022 253.57 493.928 253.633 493.844L253.638 493.839C253.638 493.839 253.638 493.839 253.633 493.844L252.166 495.816L252.035 496.856C253.675 497.414 255.347 497.829 256.861 498.123C260.115 498.759 263.752 498.991 267.127 498.407C267.259 498.376 269.025 497.976 269.724 497.766C269.761 497.755 269.798 497.74 269.84 497.729C270.445 497.503 270.155 497.025 270.36 496.378C270.786 497.876 270.155 500.594 269.777 501.961C269.808 502.14 269.887 502.313 270.019 502.455C270.245 502.702 270.586 502.802 270.907 502.849C271.932 503.002 272.989 503.007 274.025 503.012C274.739 503.018 275.949 503.165 276.227 502.276C276.353 501.882 276.227 501.398 276.001 501.062C275.78 500.741 275.439 500.51 275.213 500.321C275.155 500.273 275.102 500.221 275.05 500.168C275.034 500.147 275.013 500.131 274.997 500.11C274.992 500.1 274.96 500.053 274.955 500.042C274.939 500.011 274.939 500.011 274.944 500.021C274.944 500.021 274.944 500.021 274.944 500.016C274.929 499.979 274.923 499.937 274.913 499.9C274.887 499.79 274.881 499.679 274.876 499.569C274.855 499.096 274.923 498.633 275.044 498.176C275.197 497.598 275.397 497.03 275.539 496.446C275.686 495.847 275.812 495.243 275.954 494.643C275.964 494.596 275.975 494.549 275.991 494.501C276.495 494.086 276.963 493.634 277.389 493.145C276.663 492.251 276.884 490.832 276.884 490.832C276.884 490.832 276.737 492.53 278.772 493.834C279.019 493.944 279.281 494.023 279.565 494.065C280.301 494.175 281.037 494.102 281.779 494.091C281.779 494.112 281.784 494.139 281.779 494.165C281.726 495.016 282.562 495.689 283.245 496.042C283.818 496.336 284.465 496.378 285.101 496.478C285.117 496.462 285.138 496.446 285.153 496.431C285.164 496.431 285.18 496.431 285.19 496.431C286.158 496.394 286.999 495.695 287.53 494.932C287.787 494.559 287.871 494.259 287.824 493.934C289.028 493.471 290.079 492.414 289.879 491.095Z" fill="black"/>
<path d="M269.902 498.176C269.503 498.365 268.93 498.434 268.409 498.455C268.393 498.723 268.383 498.986 268.362 499.254C268.336 499.606 268.183 499.927 268.089 500.284C267.994 500.642 268.015 501.031 268.278 501.309C268.483 501.53 268.788 501.625 269.082 501.667C269.266 501.693 269.455 501.719 269.645 501.735C269.755 500.731 269.902 499.222 269.902 498.176Z" fill="black"/>
<path d="M404.608 411.557C404.614 411.472 404.629 411.394 404.64 411.309L404.656 411.189L404.682 411.068C404.703 410.989 404.713 410.905 404.74 410.826C404.766 410.747 404.787 410.668 404.813 410.589C404.824 410.552 404.84 410.51 404.855 410.474C404.871 410.437 404.887 410.395 404.903 410.358C404.919 410.321 404.934 410.279 404.95 410.242C404.966 410.206 404.987 410.174 405.003 410.137C405.018 410.1 405.039 410.069 405.055 410.032L405.081 409.979L405.092 409.953L405.097 409.943L405.103 409.932L405.108 409.927C405.15 409.853 405.187 409.795 405.223 409.732C405.255 409.669 405.286 409.606 405.297 409.554C405.302 409.527 405.308 409.501 405.302 409.485C405.302 409.48 405.302 409.475 405.302 409.475C405.302 409.47 405.297 409.47 405.297 409.464V409.459L405.292 409.454L405.286 409.449C405.286 409.449 405.292 409.449 405.281 409.443L405.26 409.428L405.255 409.422C405.26 409.422 405.239 409.422 405.218 409.422C405.171 409.427 405.108 409.449 405.05 409.475C404.929 409.522 404.813 409.585 404.698 409.648C404.64 409.68 404.582 409.711 404.524 409.743L404.477 409.764C404.461 409.769 404.44 409.78 404.424 409.785C404.393 409.795 404.361 409.806 404.324 409.817C404.072 409.895 403.825 409.916 403.615 409.901C403.399 409.885 403.221 409.843 403.079 409.795C403.031 409.78 402.984 409.764 402.942 409.748C402.937 409.811 402.937 409.874 402.937 409.943C402.737 410.116 402.658 410.358 402.705 410.668C402.842 411.515 402.096 412.387 401.638 413.018C401.428 413.307 401.186 413.596 401.013 413.912C400.813 414.28 400.855 414.748 401.165 414.995C401.586 415.326 402.642 414.253 402.905 414.012C403.541 413.439 404.114 412.76 404.556 412.03C404.561 412.019 404.566 412.014 404.572 412.003C404.587 411.856 404.593 411.709 404.608 411.557Z" fill="black"/>
<path d="M435.661 425.272C435.629 424.951 435.551 424.615 435.419 424.305C435.188 423.763 434.794 423.322 434.173 423.248C434.247 423.259 433.616 424.51 433.558 424.599C433.211 425.109 432.57 425.835 431.923 425.934C431.771 425.961 431.497 425.772 431.387 425.829C431.261 425.892 431.156 426.334 431.098 426.465C430.877 426.954 430.646 427.433 430.378 427.895C429.983 428.573 429.4 429.593 428.554 429.767C429.337 428.842 430.43 426.36 430.43 426.36C430.683 425.682 430.919 425.015 431.024 424.305C430.972 424.268 430.924 424.231 430.877 424.179C430.036 423.227 428.848 422.623 427.681 422.16C426.388 421.645 425.147 421.345 423.749 421.319C422.203 421.287 420.652 421.34 419.107 421.429C419.06 421.429 419.017 421.435 418.97 421.435C418.56 421.45 418.171 421.477 417.808 421.513C421.614 420.32 423.596 421.093 423.596 421.093C423.475 420.572 423.044 420.115 422.529 419.921C421.015 419.353 419.343 419.421 417.772 419.658C416.289 419.884 414.828 420.346 413.487 421.019C412.031 421.75 410.885 422.964 409.718 424.074C409.534 424.252 409.339 424.436 409.155 424.631C409.219 424.447 409.287 424.268 409.36 424.089C409.424 423.932 409.387 424.037 409.371 424.068C409.403 423.995 409.439 423.921 409.471 423.847C409.55 423.674 409.634 423.506 409.723 423.338C410.359 422.128 411.248 421.093 411.999 419.957C413.608 417.523 414.807 414.664 414.302 411.699C413.86 409.096 411.91 406.557 409.439 405.601C406.537 404.476 403.373 406.415 402.979 409.396C403.031 409.422 403.105 409.454 403.184 409.48C403.31 409.522 403.462 409.564 403.641 409.585C403.82 409.601 404.025 409.596 404.24 409.538C404.266 409.533 404.293 409.522 404.319 409.517C404.335 409.512 404.34 409.507 404.356 409.501L404.393 409.485C404.445 409.459 404.503 409.433 404.561 409.401C404.682 409.344 404.803 409.28 404.945 409.228C405.013 409.202 405.087 409.175 405.181 409.165C405.228 409.16 405.281 409.16 405.355 409.186L405.36 409.191C405.36 409.191 405.386 409.207 405.376 409.202L405.381 409.207L405.391 409.212L405.412 409.228C405.412 409.228 405.423 409.238 405.428 409.244L405.449 409.259C405.46 409.27 405.476 409.286 405.486 409.296C405.497 409.312 405.502 409.323 405.507 409.338L405.518 409.359L405.523 409.38C405.528 409.396 405.533 409.412 405.533 409.422C405.533 409.438 405.539 409.449 405.539 409.464C405.544 409.522 405.533 409.57 405.518 409.612C405.491 409.701 405.455 409.775 405.412 409.843C405.37 409.911 405.328 409.98 405.286 410.037C405.25 410.106 405.213 410.169 405.176 410.237C405.16 410.274 405.134 410.306 405.123 410.342C405.108 410.379 405.092 410.411 405.076 410.448C405.06 410.484 405.045 410.516 405.029 410.553C405.013 410.589 404.997 410.621 404.987 410.658C404.96 410.731 404.934 410.805 404.913 410.879C404.887 410.952 404.871 411.031 404.85 411.105L404.818 411.22L404.797 411.336C404.787 411.415 404.766 411.494 404.755 411.573C404.745 411.662 404.734 411.746 404.729 411.835C405.649 411.767 406.548 411.436 407.321 410.942C407.741 410.674 408.136 410.353 408.477 409.99C408.724 409.733 409.229 409.175 409.229 408.792C409.229 408.792 409.229 408.786 409.229 408.776C409.455 408.981 409.707 409.16 409.933 409.37C409.933 409.375 409.933 409.38 409.933 409.386C410.711 410.2 411.221 411.357 411.4 412.403C411.679 414.038 411.148 415.457 410.401 416.877C409.807 418.002 409.082 419.043 408.32 420.062C406.7 422.228 405.749 424.836 405.602 427.538C405.518 429.062 405.633 430.792 406.327 432.174C407.515 434.545 410.743 436.254 413.209 437.127C415.932 438.089 418.649 437.715 421.441 437.368C426.135 436.785 431.907 435.034 434.52 430.75C435.561 429.089 435.855 427.186 435.661 425.272Z" fill="black"/>
<path d="M416.477 144.447C416.477 144.447 416.477 141.656 415.83 140.846C415.783 141.351 415.441 141.582 415.22 141.687C415.241 140.783 415.446 139.821 415.336 138.917C415.289 138.538 415.189 138.165 415.052 137.807C415.031 137.755 414.826 137.387 414.847 137.34C414.847 137.34 414.847 137.34 414.243 138.317C414.616 136.646 413.033 133.959 413.033 133.959C413.033 133.959 413.033 133.959 412.697 135.31C412.997 134.101 411.872 132.703 411.183 131.815C410.578 131.026 409.333 129.617 408.202 130.29C408.297 130.232 409.154 131.441 409.443 132.782C409.753 134.217 409.254 135.373 408.896 136.719C408.181 139.4 407.882 142.712 408.307 145.462C408.618 147.491 409.858 149.12 411.199 150.613C412.024 151.528 412.734 152.59 413.254 153.725L413.995 153.941C413.995 153.941 414.132 153.71 413.811 152.984C413.396 152.038 412.529 150.477 412.487 149.825C412.345 147.238 415.609 145.199 416.477 144.447Z" fill="black"/>
<path d="M429.861 144.673C431.001 142.691 433.625 138.911 432.005 136.577C431.753 138.138 430.938 139.279 430.534 139.768C430.455 139.857 430.376 139.941 430.302 140.031C430.781 138.758 431.054 137.418 431.133 136.046C431.201 134.895 431.075 133.738 430.823 132.613C430.702 132.082 430.56 131.541 430.371 131.031C430.318 130.899 429.798 130.121 429.803 130.053C429.756 131.74 429.146 133.328 428.489 134.858C428.084 135.804 427.127 136.929 426.906 137.896C429.261 127.603 426.097 125.653 426.097 125.653C426.055 125.732 426.028 125.826 426.028 125.937C426.023 127.666 425.829 129.38 425.639 131.099C425.192 130.342 424.609 130.006 424.604 130.006C424.719 130.074 424.604 131.388 424.604 131.514C424.588 132.518 424.383 133.475 424.115 134.453C423.421 136.997 422.301 139.573 420.693 141.676C419.731 142.932 418.506 143.663 417.233 144.557C415.262 145.939 412.665 147.753 413.149 150.518C413.301 151.396 413.969 152.043 414.326 152.831C414.5 153.215 414.616 153.63 414.521 154.051C414.342 154.839 413.264 154.361 412.818 154.146C411.877 153.699 410.962 153.231 409.995 152.826C409.385 152.574 408.754 152.374 408.118 152.211C407.524 152.059 406.872 151.848 406.257 151.869C405.889 151.88 405.016 151.969 405.111 152.463C405.106 152.469 405.095 152.469 405.09 152.474C404.517 152.689 403.939 153.01 403.744 153.641C404.317 153.683 404.832 153.346 405.337 153.688C405.705 153.935 405.91 154.44 406.141 154.803C406.562 155.465 407.04 156.001 407.703 156.438C409.08 157.342 410.736 157.689 412.302 158.13C414.121 158.645 415.951 159.187 417.628 160.07C419.189 160.895 420.304 162.168 421.607 163.277C421.833 163.025 422.091 162.793 422.348 162.599C422.107 162.289 421.881 161.989 421.97 162.041C422.17 162.168 422.433 162.289 422.659 162.383C422.727 162.415 423.1 162.089 423.169 162.041C423.484 161.842 423.836 161.71 424.199 161.631C424.378 161.589 425.261 161.384 425.392 161.521C425.135 161.258 424.809 160.969 424.404 160.675C425.192 160.848 425.902 161.19 426.459 161.532C426.491 161.532 426.528 161.532 426.559 161.532C427.516 161.537 428.473 161.542 429.424 161.547C429.456 161.547 429.482 161.547 429.514 161.547C428.778 160.081 426.028 159.05 424.583 158.614C423.479 158.278 422.254 158.036 421.092 158.094C421.812 158.057 422.459 157.489 423 157.068C423.347 156.8 423.705 156.537 424.057 156.275L423.484 155.449L424.593 155.865C424.672 155.801 424.751 155.738 424.824 155.675C425.303 155.281 425.76 154.86 426.197 154.419L425.25 154.03L426.67 153.914C427.143 153.383 427.579 152.821 427.973 152.232C428.284 151.764 428.604 151.286 428.92 150.797L427.605 150.502L429.424 149.993C430.16 148.778 430.812 147.511 431.128 146.208C431.17 146.029 431.201 145.514 431.333 145.387C430.933 145.782 429.424 146.281 428.594 146.765C429.025 146.076 429.451 145.382 429.861 144.673Z" fill="black"/>
<path d="M424.491 326.139C424.307 325.687 424.076 325.293 423.819 324.909C423.819 324.372 423.74 323.878 423.514 323.368C423.393 323.095 423.246 322.832 423.068 322.59C423.068 322.585 423.068 322.579 423.073 322.574C423.157 322.637 423.236 322.695 423.299 322.742C423.498 322.9 423.798 322.858 423.876 322.59C424.071 321.938 423.892 321.202 423.724 320.565C423.698 320.46 423.661 320.355 423.619 320.255C423.834 320.397 424.123 320.202 424.144 319.95C424.249 318.525 423.488 316.932 422.416 315.933C423.204 315.575 423.745 315.459 424.092 315.433C424.044 315.317 423.934 315.207 423.787 315.149C423.698 315.112 423.587 315.096 423.472 315.112C422.973 315.175 422.485 315.265 421.996 315.359C422.112 315.144 421.944 314.87 421.686 314.855C421.045 314.812 420.457 314.434 419.843 314.281C419.239 314.129 418.609 313.976 417.984 313.971C416.734 313.971 415.562 314.497 414.333 314.649C414.06 314.681 413.845 315.07 414.092 315.254C413.96 315.238 413.834 315.228 413.703 315.212C413.23 315.165 412.191 314.918 411.755 315.117C411.655 315.16 411.587 315.244 411.55 315.333C411.823 315.338 412.301 315.47 413.12 315.933C412.999 316.048 412.884 316.174 412.779 316.316C411.728 317.668 411.203 319.571 411.665 321.249C411.734 321.491 412.007 321.554 412.191 321.443C412.096 321.612 412.017 321.796 411.949 321.959C411.718 322.527 411.597 323.147 411.629 323.757C410.447 324.209 409.486 325.161 408.724 326.139C406.665 328.779 405.71 332.06 403.882 334.853C403.351 335.663 402.763 336.446 402.049 337.103C401.403 337.703 400.636 338.145 399.864 338.56C399.465 338.776 399.391 339.175 399.528 339.507C399.607 339.538 399.685 339.564 399.769 339.585C400.568 339.806 401.403 339.869 402.217 340.011C402.311 340.027 402.411 340.048 402.511 340.064C402.999 340.096 403.483 340.164 403.966 340.211C404.155 340.232 404.344 340.243 404.538 340.259C404.953 340.238 405.347 340.164 405.699 340.001C406.592 338.066 407.054 336.525 407.054 336.525C407.054 336.525 406.56 339.617 406.345 340.054C408.015 339.806 410.079 338.954 411.266 337.992C411.739 336.036 411.797 335.636 411.797 335.636L411.76 337.792C411.76 337.792 413.188 336.788 413.85 335.931C412.978 337.251 411.692 338.202 410.31 338.939C408.871 339.706 407.275 340.422 405.626 340.511C405.216 340.532 404.806 340.532 404.397 340.516C403.651 341.742 402.921 342.977 401.813 343.913C401.671 344.029 401.681 344.287 401.813 344.402C402.185 344.744 402.642 344.902 403.147 344.855C403.388 344.828 403.551 344.707 403.772 344.623C403.772 344.623 404.144 344.35 404.481 343.866C404.349 344.166 404.218 344.418 404.092 344.628C404.202 344.665 404.307 344.728 404.412 344.781C404.859 345.007 405.268 345.123 405.752 344.923C405.878 344.87 405.993 344.823 406.109 344.786V344.781C406.109 344.781 406.482 344.507 406.818 344.024C406.697 344.297 406.576 344.534 406.461 344.734C406.644 344.728 406.828 344.718 407.012 344.692C407.852 344.565 408.178 343.819 408.483 343.109C408.561 342.93 408.63 342.751 408.698 342.572C408.167 342.578 407.711 342.53 407.38 342.43C407.38 342.43 410.92 342.131 414.339 341.205C414.354 341.2 414.37 341.195 414.386 341.189C414.402 341.184 414.423 341.179 414.438 341.174C414.438 341.174 414.444 341.174 414.444 341.168C414.612 341.121 414.775 341.074 414.943 341.026C414.958 341.021 414.974 341.016 414.99 341.011C415.006 341.005 415.027 341 415.042 340.995C415 341.016 414.964 341.042 414.922 341.063C414.743 341.168 414.554 341.252 414.365 341.326C414.454 341.642 414.554 341.957 414.617 342.283C414.727 342.841 414.67 343.356 414.129 343.619C413.787 343.787 413.399 343.866 413.089 344.092C412.721 344.36 412.579 344.765 412.637 345.207C412.653 345.317 412.7 345.407 412.768 345.465C412.374 345.128 414.901 344.586 414.958 344.581C415.772 344.523 416.986 344.287 417.511 345.102C417.658 345.328 417.726 345.596 417.889 345.812C418.094 346.085 418.761 346.253 418.766 345.733C418.766 345.559 418.756 345.391 418.729 345.223C418.918 345.438 419.113 345.764 419.276 345.806C419.486 345.864 419.738 345.749 419.717 345.486C419.669 344.781 419.365 344.208 418.698 343.919C418.099 343.656 417.432 343.666 416.818 343.451C416.539 343.351 416.324 343.193 416.161 342.998C416.586 342.877 416.991 342.793 417.007 342.793C417.674 342.746 418.666 342.551 419.097 343.219C419.218 343.403 419.276 343.624 419.407 343.798C419.575 344.018 420.121 344.155 420.126 343.734C420.126 343.593 420.116 343.456 420.1 343.319C420.252 343.498 420.415 343.761 420.547 343.798C420.715 343.845 420.925 343.75 420.909 343.535C420.867 342.956 420.62 342.488 420.074 342.252C419.585 342.036 419.034 342.046 418.535 341.868C417.779 341.6 417.605 340.821 417.5 340.027C417.963 339.764 418.419 339.48 418.855 339.181C419.438 338.776 419.948 338.281 420.336 337.692C420.431 337.424 420.573 336.951 420.799 336.125C420.851 336.593 420.835 336.998 420.783 337.34C421.003 337.366 421.235 337.303 421.424 337.114C421.98 336.567 422.348 335.926 422.605 335.237C422.611 335.237 422.611 335.242 422.616 335.242C422.642 335.231 422.763 335.047 423.23 333.328C423.346 334.306 423.152 335 422.973 335.41C423.209 335.463 423.461 335.405 423.645 335.179C424.706 333.875 425.011 332.255 425.116 330.62C425.216 329.116 425.069 327.549 424.491 326.139ZM416.34 342.015C416.156 342.104 415.956 342.167 415.772 342.246C415.636 341.82 415.578 341.337 415.52 340.869C415.904 340.8 416.282 340.658 416.634 340.495C416.671 340.637 416.707 340.774 416.739 340.916C416.833 341.379 416.781 341.805 416.34 342.015Z" fill="black"/>
<path d="M480.081 239.834C480.087 239.828 480.092 239.818 480.102 239.813C480.081 239.818 480.061 239.839 480.045 239.86C480.05 239.86 480.055 239.86 480.061 239.86C480.066 239.849 480.076 239.844 480.081 239.834Z" fill="black"/>
<path d="M489.454 233.757C489.444 233.741 489.433 233.736 489.428 233.726C489.423 233.715 489.418 233.705 489.407 233.689C489.302 233.531 489.207 233.373 489.123 233.205C489.076 233.111 489.034 233.016 488.992 232.927C488.981 232.906 488.976 232.89 488.971 232.879C488.966 232.869 488.96 232.853 488.955 232.832C488.881 232.632 488.813 232.432 488.755 232.233C488.524 231.449 488.424 230.635 488.261 229.836C488.072 228.916 487.825 228.017 487.494 227.139C487.367 226.808 487.241 226.482 487.131 226.145C486.984 226.592 486.731 227.081 486.637 227.281C486.379 227.838 486.048 228.369 485.627 228.816C484.907 229.588 484.587 229.767 484.492 230.871C484.481 231.018 484.466 231.166 484.455 231.318C484.718 231.549 484.997 231.76 485.296 231.938C485.543 232.085 485.801 232.217 486.048 232.364C486.09 232.39 486.137 232.417 486.179 232.448C486.363 232.716 486.542 232.995 486.731 233.258C486.868 233.442 487.01 233.621 487.147 233.805C487.141 233.799 487.183 233.852 487.194 233.878C487.247 233.957 487.294 234.031 487.341 234.109C487.478 234.335 487.593 234.567 487.714 234.803C487.704 234.866 487.693 234.935 487.693 235.003C487.683 236.049 487.431 236.99 487.178 238.073C487.152 238.178 487.131 238.283 487.099 238.383C487.089 238.425 487.02 238.567 487.026 238.562C486.994 238.62 486.963 238.678 486.931 238.736C486.926 238.741 486.926 238.751 486.921 238.757C486.915 238.762 486.915 238.762 486.91 238.767C486.863 238.814 486.821 238.862 486.773 238.904C486.752 238.92 486.695 238.972 486.663 238.988C486.6 239.03 486.532 239.067 486.463 239.104C486.5 239.082 486.274 239.172 486.242 239.182C485.764 239.335 485.407 239.887 485.57 240.413C485.727 240.917 486.237 241.275 486.752 241.112C487.83 240.77 488.64 240.008 488.966 238.872C489.276 237.789 489.533 236.622 489.602 235.481C489.633 235.455 489.659 235.429 489.686 235.397C490.027 235.008 490.075 234.367 489.686 233.983C489.602 233.92 489.528 233.836 489.454 233.757Z" fill="black"/>
<path d="M500.689 232.316C500.925 232.432 501.283 232.552 501.766 232.542C501.341 232.09 501.157 231.664 501.157 231.664C501.157 231.664 501.309 231.449 501.556 231.664C501.514 230.634 499.695 230.444 498.97 230.397C498.681 230.381 498.123 229.903 497.813 229.793C497.377 229.635 496.919 229.535 496.457 229.456C495.511 229.298 494.549 229.256 493.608 229.104C492.719 228.957 491.768 228.715 491.053 228.142C490.254 227.501 489.77 226.481 489.297 225.592C488.992 225.025 488.698 224.452 488.398 223.879C487.998 223.116 487.394 222.449 486.868 221.76C486.858 221.749 486.852 221.739 486.842 221.728C486.511 221.124 485.943 220.698 485.338 220.414C484.834 220.178 484.298 219.899 483.746 219.731C483.64 219.668 483.535 219.615 483.425 219.563C482.536 219.158 481.569 219.021 480.597 219.047C479.666 219.074 478.736 219.226 477.816 219.368C477.222 219.463 477.001 219.499 476.444 219.557C475.76 219.626 475.072 219.662 474.383 219.683C474.173 219.689 473.962 219.694 473.747 219.699C473.7 219.694 473.657 219.689 473.61 219.683C472.911 219.605 472.217 219.563 471.518 219.51C471.523 219.51 471.386 219.494 471.334 219.489C471.276 219.478 471.208 219.463 471.213 219.468C471.087 219.442 470.966 219.41 470.845 219.379C470.53 219.289 470.219 219.174 469.915 219.058C469.762 219 469.61 218.942 469.457 218.89C468.28 219.011 467.202 219.153 466.471 219.342C466.471 219.342 467.134 218.832 469.415 218.622C469.42 218.548 469.399 218.469 469.331 218.38C469.158 218.154 468.537 217.733 468.39 217.607C467.596 216.929 466.434 216.582 465.861 215.699C465.851 215.683 465.846 215.667 465.835 215.657C465.168 214.947 464.694 214.111 463.964 213.454C462.581 212.203 460.909 211.661 459.09 211.593L459.916 212.156L458.617 211.583C458.496 211.572 458.376 211.546 458.265 211.504C457.96 211.42 457.498 211.267 457.408 211.257C457.04 211.23 456.656 211.362 456.425 211.646L457.771 212.276L456.294 211.861C455.61 211.819 454.874 211.782 454.191 211.851C453.933 211.877 452.666 212.313 452.645 212.739C453.203 212.955 454.322 213.554 454.412 214.921C453.681 215.105 452.956 215.515 452.73 216.245C452.687 216.382 452.688 216.503 452.719 216.608C452.304 216.992 451.888 217.376 451.473 217.759C451.273 217.943 451.068 218.138 450.942 218.38C450.664 218.921 450.911 219.605 451.347 219.988C451.415 220.046 451.484 220.094 451.563 220.136C451.573 220.383 451.668 220.619 451.867 220.803C452.13 221.045 452.603 221.208 452.956 221.087C453.182 221.008 453.371 220.851 453.592 220.761C453.849 220.661 454.123 220.688 454.391 220.661C454.338 220.819 454.291 220.977 454.249 221.134C453.96 222.223 453.855 223.516 454.102 224.625C454.343 225.713 455.022 226.733 455.721 227.579C455.863 227.748 456.015 227.905 456.173 228.058C456.415 228.363 456.672 228.657 456.925 228.951C457.003 229.041 457.088 229.13 457.177 229.225C457.624 230.129 458.391 231.811 458.391 232.684C458.722 232.437 459.006 232.127 459.253 231.78C459.259 231.801 459.259 231.816 459.264 231.838C459.264 231.922 459.269 232 459.269 232.085C459.364 232.526 459.432 232.978 459.511 233.404C459.774 234.808 460.284 236.175 460.342 237.615C460.363 238.093 460.405 239.124 459.979 239.471C459.753 239.655 459.295 239.607 459.022 239.802C458.754 239.991 458.06 240.843 458.581 241.142C458.775 241.773 459.448 241.82 460.021 241.721C460.604 241.621 461.288 241.416 461.714 240.985C462.245 240.454 462.402 239.676 462.465 238.955C462.544 238.062 462.486 237.158 462.55 236.259C462.644 235.028 462.828 233.804 463.065 232.595C462.749 232.237 462.26 231.795 461.519 231.322C461.519 231.322 462.35 231.259 463.286 232.326C463.296 232.332 463.312 232.337 463.328 232.342C463.38 232.421 463.433 232.5 463.491 232.574C463.59 232.705 463.69 232.847 463.79 233.005C463.853 233.104 463.916 233.199 463.969 233.294C464.321 233.925 464.637 234.566 464.884 235.244C465.446 236.769 465.42 238.672 464.29 239.938C463.659 239.991 462.844 240.349 462.702 240.943C462.67 240.985 462.655 241.042 462.655 241.111C462.691 242.068 464.227 241.962 464.852 241.894C465.309 241.841 465.835 241.768 466.256 241.573C467.049 241.195 467.575 239.791 467.796 238.997C468.054 238.093 468.048 237.252 467.922 236.416C467.806 235.612 467.58 234.813 467.375 233.977C467.244 233.43 467.149 232.878 467.076 232.326C467.076 232.326 466.65 230.623 466.939 229.635C467.028 230.529 467.438 231.664 467.722 232.363C469.205 232.442 470.682 232.447 472.138 232.074C473.363 231.764 474.53 231.175 475.65 230.602C476.181 230.334 476.706 230.055 477.232 229.787C477.49 229.656 477.747 229.53 478.01 229.409C478.131 229.351 478.257 229.293 478.378 229.235C478.447 229.204 478.515 229.172 478.583 229.146C478.599 229.141 478.615 229.13 478.625 229.13C478.636 229.125 478.646 229.12 478.662 229.114C478.841 229.041 479.014 228.972 479.193 228.909C478.704 228.237 478.052 227.148 478.299 226.454C478.473 227.49 479.477 228.442 479.777 228.71C479.787 228.704 479.798 228.704 479.808 228.699C480.102 229.146 480.407 229.588 480.654 230.061C481.001 230.707 481.196 231.165 481.396 231.801C481.496 232.116 481.58 232.442 481.648 232.768C481.68 232.92 481.706 233.078 481.732 233.231C481.737 233.257 481.748 233.367 481.753 233.383C481.764 233.467 481.769 233.551 481.774 233.63C481.8 234.014 481.806 234.398 481.774 234.781C481.748 235.107 481.706 235.302 481.622 235.728C481.543 236.122 481.469 236.521 481.38 236.91C481.301 237.257 481.164 237.752 481.07 237.993C480.886 238.467 480.67 238.94 480.423 239.376C480.371 239.471 480.307 239.56 480.25 239.655C480.239 239.665 480.234 239.681 480.223 239.686C480.181 239.733 480.139 239.781 480.097 239.823C480.102 239.823 480.108 239.823 480.113 239.823C480.108 239.818 480.092 239.828 480.076 239.844C480.071 239.849 480.066 239.854 480.06 239.86C480.06 239.86 480.06 239.86 480.055 239.865H480.05C480.045 239.87 480.045 239.87 480.039 239.875C480.034 239.875 480.034 239.875 480.029 239.875C480.029 239.875 480.029 239.87 480.034 239.87C479.945 239.886 479.855 239.896 479.766 239.912C479.293 239.981 479.02 240.596 479.077 241.042C479.146 241.568 479.54 241.899 480.024 241.936C480.26 241.952 480.476 241.915 480.681 241.836C481.816 241.642 483.052 241.242 483.314 239.886C483.456 239.15 483.546 238.377 483.593 237.625C483.598 237.536 483.604 237.452 483.609 237.363C483.609 237.352 483.609 237.336 483.609 237.326C483.63 237.215 483.651 237.116 483.682 237.005C483.709 236.947 483.735 236.895 483.767 236.837C483.788 236.805 483.84 236.737 483.851 236.7C483.935 236.637 483.998 236.606 484.092 236.427C484.203 236.211 484.25 235.991 484.271 235.749C484.298 235.396 484.187 235.097 484.108 234.766C484.103 234.745 484.098 234.729 484.092 234.713C484.092 234.708 484.092 234.692 484.092 234.661C484.082 234.571 484.077 234.477 484.071 234.387C484.061 234.219 484.061 234.051 484.061 233.888C484.056 233.483 484.061 233.078 484.066 232.673C484.087 231.375 483.951 230.097 484.849 229.057C485.948 227.795 486.805 226.454 487.089 224.767C487.147 224.42 487.194 224.068 487.21 223.721C488.035 225.004 488.577 226.486 489.491 227.711C489.986 228.373 490.627 228.883 491.347 229.267C492.299 229.777 493.387 229.992 494.454 230.092C495.001 230.145 495.547 230.129 496.099 230.161C496.636 230.187 497.035 230.392 497.529 230.555C497.839 230.655 498.144 230.818 498.349 231.075C498.612 231.406 498.702 231.838 499.022 232.137C499.127 232.232 499.238 232.316 499.353 232.39C499.353 232.39 500.289 232.994 501.33 232.779C501.093 232.689 500.836 232.516 500.647 232.363C500.668 232.337 500.678 232.326 500.689 232.316ZM483.693 236.853C483.761 236.774 483.814 236.726 483.856 236.695C483.824 236.748 483.609 236.953 483.693 236.853Z" fill="black"/>
<path d="M325.046 391.637C325.046 391.632 325.041 391.632 325.041 391.626C325.046 391.626 325.046 391.632 325.046 391.637Z" fill="black"/>
<path d="M325.294 391.891C325.299 391.896 325.299 391.896 325.305 391.901C325.31 391.906 325.32 391.912 325.325 391.917C325.331 391.922 325.336 391.922 325.341 391.927C325.299 391.891 325.289 391.886 325.294 391.891Z" fill="black"/>
<path d="M286.544 393.372C286.544 393.377 286.544 393.377 286.539 393.382C286.544 393.382 286.544 393.377 286.544 393.372Z" fill="black"/>
<path d="M316.545 401.62C313.912 399.922 312.75 397.33 312.382 397.099C312.208 396.989 312.035 396.915 311.883 396.862C312.098 397.299 312.245 397.756 312.214 398.271C312.156 399.349 312.203 400.458 312.245 401.541C312.293 402.766 312.65 404.191 311.919 405.284C311.788 405.479 311.635 405.657 311.457 405.804C311.457 405.82 311.457 405.836 311.457 405.857C311.157 406.13 311.073 406.661 311.288 407.008C311.667 407.613 312.466 407.655 313.092 407.613C313.743 407.566 314.401 407.508 315.052 407.445C315.589 407.397 316.267 407.481 316.477 406.835C316.624 406.377 316.43 406.12 316.325 405.71C316.204 405.231 316.325 404.785 316.33 404.306C316.335 403.886 316.246 403.47 316.309 403.045C316.367 402.566 316.456 402.093 316.545 401.62Z" fill="black"/>
<path d="M321.692 390.591C321.072 389.056 320.531 387.563 319.805 386.102C319.8 386.06 319.789 386.018 319.768 385.976C319.49 385.482 319.285 384.956 319.069 384.436C319.001 384.273 318.933 384.11 318.859 383.947C318.58 383.311 318.223 382.722 317.802 382.17C316.993 381.103 315.989 380.13 314.78 379.526C313.544 378.91 312.067 378.721 310.705 378.868C310.49 378.889 310.274 378.921 310.059 378.958C309.596 379.042 309.139 379.158 308.687 379.3C308.114 379.483 307.536 379.694 306.984 379.951C306.437 380.083 305.895 380.23 305.343 380.34C304.707 380.461 304.061 380.514 303.419 380.556C302.741 380.598 302.074 380.619 301.395 380.556C301.164 380.535 300.928 380.514 300.696 380.488C300.696 381.108 300.607 382.049 300.134 382.753C300.386 381.954 300.249 380.451 300.249 380.451C300.239 380.293 300.228 380.141 300.207 379.988C300.113 379.2 299.387 378.769 298.709 378.511C297.863 378.196 297.111 377.649 296.238 377.386C293.867 376.682 291.018 377.628 288.605 377.791C287.722 377.849 286.87 378.127 286.198 378.679C284.883 379.757 284.61 381.229 284.179 382.738C284.111 382.979 284.042 383.221 283.979 383.458C283.911 383.594 283.842 383.731 283.769 383.863C283.695 384.004 283.611 384.141 283.527 384.278C283.511 384.304 283.448 384.399 283.448 384.399C283.385 384.488 283.322 384.572 283.275 384.667C282.98 385.198 282.912 385.813 282.933 386.396C282.944 386.738 282.986 387.08 283.033 387.421C283.001 387.569 282.97 387.716 282.944 387.863C282.528 389.934 282.213 392.021 281.992 394.119C281.766 396.322 281.193 398.614 281.955 400.758C282.607 402.593 284.762 405.837 287.223 405.537C287.953 405.448 288.453 404.885 288.427 404.196C288.416 403.97 288.327 403.755 288.179 403.576L288.174 403.524C288.148 403.224 287.843 402.966 287.517 403.008C287.186 403.05 286.928 403.313 286.955 403.629L286.981 403.934C286.986 404.018 285.872 403.529 285.756 403.45C285.209 403.087 284.741 402.572 284.373 402.052C282.665 399.654 283.39 396.232 284.494 393.688C284.999 392.526 285.929 392.274 286.939 391.564C287.901 390.881 288.521 389.671 289.499 389.077C289.851 390.155 289.83 391.469 290.077 392.6C290.125 392.81 290.172 393.025 290.293 393.204C290.487 393.499 290.929 393.64 291.181 393.325C291.428 393.015 291.691 392.72 291.959 392.426C292.006 392.374 292.054 392.321 292.101 392.263C292.821 391.438 293.894 390.702 294.777 390.018C295.723 389.293 296.496 388.61 297.29 387.705C297.731 387.206 298.183 386.801 298.578 386.344C298.404 387.106 297.726 387.994 297.137 388.452C295.271 389.908 293.888 391.059 292.905 391.89C292.9 391.895 292.895 391.895 292.89 391.9C292.837 391.942 292.79 391.985 292.742 392.027C292.737 392.032 292.727 392.037 292.721 392.042C292.611 392.137 292.506 392.226 292.406 392.31C292.343 392.363 292.285 392.41 292.227 392.463C292.196 392.489 292.164 392.515 292.133 392.542C292.122 392.552 292.112 392.563 292.096 392.573C292.064 392.6 292.038 392.626 292.006 392.647C291.996 392.657 291.98 392.668 291.97 392.678C291.886 392.747 291.812 392.815 291.738 392.873C291.681 394.408 291.512 395.969 291.213 397.483C291.023 398.445 290.776 399.397 290.477 400.327C290.182 401.242 289.767 402.057 289.883 403.045C289.914 403.308 289.983 403.566 289.993 403.834C290.025 404.885 289.315 405.789 288.931 406.72C288.879 406.841 288.952 406.988 289.052 407.056C289.799 407.566 290.792 407.782 291.686 407.829C291.938 407.839 292.19 407.839 292.438 407.787C292.679 407.734 292.905 407.64 293.142 407.566C293.421 407.477 293.778 407.471 293.936 407.188C294.025 407.025 294.03 406.825 294.025 406.646C294.02 406.362 293.988 406.078 293.957 405.8C293.768 404.118 294.346 402.519 295.313 401.153C296.044 400.122 296.575 399.576 296.396 398.272C296.322 397.741 296.364 397.184 296.527 396.668C296.07 395.496 295.14 394.497 295.14 394.497C295.14 394.497 297.043 395.48 296.722 397.32C296.722 397.31 296.717 397.294 296.711 397.284C296.722 397.783 296.68 398.288 296.701 398.792C296.775 400.553 297.216 402.251 297.327 404.002C297.353 404.412 297.348 404.833 297.342 405.243C297.327 405.269 297.311 405.295 297.295 405.321C296.743 406.215 295.954 406.941 295.718 408.008C295.671 408.213 295.65 408.428 295.707 408.628C295.918 409.375 297.179 409.196 297.768 409.212C298.709 409.233 300.055 409.369 300.938 408.996C301.553 408.738 301.569 408.013 301.369 407.466C301.264 407.188 300.991 406.962 300.917 406.693C300.817 406.331 301.027 405.705 301.064 405.327C301.217 403.818 301.222 402.335 301.564 400.858C301.59 400.753 301.611 400.648 301.637 400.548C301.753 400.348 301.874 400.149 301.984 399.949C302.273 399.423 302.463 398.887 302.52 398.293C302.547 398.004 302.541 397.704 302.547 397.41C302.547 397.257 302.484 397.105 302.415 396.952C302.415 396.9 302.415 396.842 302.421 396.789C302.484 396.453 302.594 396.122 302.715 395.801L303.304 394.045C303.304 394.045 303.093 395.023 303.404 396.069C303.787 396.222 304.176 396.379 304.576 396.49C305.901 396.858 307.299 396.81 308.661 396.695C309.333 396.637 310.017 396.584 310.69 396.5C311.005 396.458 311.321 396.395 311.625 396.379C311.625 396.379 311.631 396.379 311.636 396.379C311.873 396.369 312.104 396.39 312.325 396.479C312.472 396.532 312.608 396.611 312.714 396.726C313.118 397.094 313.297 397.599 313.623 398.019C314.028 398.54 314.438 399.055 314.858 399.565C315.358 400.164 315.868 400.753 316.393 401.331C316.509 401.458 316.635 401.589 316.761 401.715C316.809 401.757 316.856 401.804 316.903 401.847C316.893 401.841 316.882 401.836 316.872 401.826C317.203 402.162 317.534 402.514 317.745 402.919C317.918 403.25 317.871 403.876 317.913 404.244C317.965 404.722 318.076 405.416 317.808 405.831C317.518 406.278 317.077 406.494 316.888 407.046C316.767 407.398 316.782 407.866 317.051 408.144C317.524 408.644 318.486 408.497 319.101 408.47C319.81 408.434 320.541 408.455 321.23 408.255C321.635 408.139 322.008 407.945 322.118 407.514C322.16 407.361 322.166 407.135 322.134 406.909C322.092 406.62 321.992 406.336 321.829 406.205C321.834 405.837 321.803 405.463 321.771 405.095C321.729 404.617 321.708 404.133 321.687 403.65C321.677 403.418 321.671 403.192 321.677 402.961C321.682 402.761 321.677 402.54 321.729 402.346C321.777 402.167 321.861 401.999 321.913 401.82C321.966 401.631 321.961 401.442 321.897 401.258C321.829 401.058 321.724 400.869 321.629 400.68C321.54 400.511 321.477 400.343 321.403 400.17C321.077 399.386 320.62 398.382 320.331 397.583C320.015 396.716 320.031 395.785 320.042 394.876C320.058 393.914 320.115 392.947 320.163 391.985C320.21 391.08 320.336 390.15 320.347 389.23C320.815 390.287 321.183 391.38 322.003 392.253C322.244 392.51 322.518 392.747 322.844 392.889C323.191 393.041 323.748 393.157 323.985 392.805C323.007 392.205 322.124 391.648 321.692 390.591Z" fill="black"/>
<path d="M362.337 546.748C362.326 546.616 362.316 546.489 362.3 546.357C361.87 542.601 359.388 540.1 355.915 538.913C353.674 538.148 351.303 537.842 349.068 537.056C348.637 536.903 348.165 536.719 347.709 536.481C345.94 535.769 345.227 534.471 345.678 533.727C345.573 534.207 345.794 534.708 345.794 534.708C346.03 535.083 346.554 535.537 346.964 535.69C347.278 535.806 347.625 535.785 347.95 535.721C348.296 535.653 348.637 535.531 348.926 535.326C349.655 534.793 349.87 533.701 349.477 532.883C348.312 530.44 345.022 531.722 344.031 533.574C343.422 534.708 343.322 536.07 343.543 537.336C343.879 539.283 344.723 541.097 346.177 542.437C347.263 543.44 348.653 543.893 349.834 544.79C351.114 545.766 352.258 546.948 353.05 548.362C354.204 550.425 354.519 552.984 353.454 555.152C353.412 555.242 353.365 555.331 353.317 555.421C353.354 555.342 353.396 555.257 353.428 555.173C354.057 553.727 354.115 552.203 353.763 550.757C353.454 549.496 352.829 548.293 351.985 547.259C350.799 545.803 349.073 544.743 347.194 544.521C345.038 544.268 342.651 545.065 340.799 543.946C339.849 543.371 339.272 542.416 338.574 541.593C338.238 541.198 337.887 540.87 337.451 540.58C336.895 540.2 336.161 539.953 335.709 539.43C335.358 539.024 335.237 537.811 334.497 538.011C334.555 537.916 334.613 537.821 334.676 537.731C334.875 537.436 335.111 537.162 335.363 536.908C335.458 536.813 335.41 536.692 335.321 536.634L334.823 536.966L335.195 536.122C335.164 536.075 335.101 536.038 335.043 536.038L334.581 536.671L334.712 535.795C334.623 535.764 334.518 535.79 334.492 535.906C334.382 536.428 334.188 536.924 334.057 537.441C333.915 538.001 333.884 538.618 333.847 539.193C333.821 539.404 333.81 539.615 333.81 539.826C333.784 539.763 332.477 540.554 332.346 540.654C331.549 541.271 331.029 542.126 330.767 543.097C330.473 544.184 330.368 545.534 330.52 546.658C330.557 546.927 330.788 547.18 330.987 547.333C331.223 547.518 331.47 547.597 331.774 547.613C332.472 547.65 333.196 547.692 333.904 547.639C333.904 547.639 334.377 547.528 335.048 547.302C335.059 547.375 335.08 547.449 335.101 547.534C334.849 547.692 334.65 547.813 334.492 547.898C334.97 548.357 335.179 549.28 334.445 549.343C333.291 549.438 332.247 548.52 331.071 549.027C330.767 549.159 330.4 549.396 330.295 549.734C330.206 550.019 330.384 550.256 330.641 550.372C330.861 550.472 331.097 550.499 331.339 550.509C331.449 550.53 331.559 550.546 331.669 550.557C331.905 550.583 332.142 550.583 332.378 550.588C332.687 550.668 332.965 550.81 333.243 550.984C334.015 551.469 334.712 552.06 335.447 552.598C336.176 553.131 336.948 553.696 337.792 554.033C337.944 554.091 338.102 554.139 338.254 554.176C339.466 554.165 341.124 551.005 341.124 551.005C341.124 551.005 340.814 552.282 339.844 553.485C340.961 552.836 343.039 553.131 343.039 553.131C340.814 553.226 339.676 554.128 339.125 554.835C339.02 555.49 339.031 556.17 339.109 556.819C339.167 557.273 339.256 557.726 339.403 558.164C339.571 558.65 339.807 559.114 340.106 559.536C340.258 559.747 340.421 559.947 340.605 560.127C340.678 560.201 341.009 560.443 340.946 560.459C340.578 560.565 340.006 560.955 339.728 561.156C339.723 561.335 339.765 561.509 339.87 561.657C340.143 562.037 340.694 562.047 341.166 562.031C343.947 561.936 346.748 562.126 349.524 562.206C349.97 562.216 350.432 562.227 350.846 562.058C351.261 561.884 351.455 561.588 351.544 561.235C353.087 559.13 355.285 557.864 357.42 556.45C360.747 554.239 362.657 550.826 362.337 546.748Z" fill="black"/>
<path d="M238.727 263.651C238.727 263.651 238.722 263.646 238.717 263.641C238.722 263.646 238.727 263.646 238.727 263.651Z" fill="black"/>
<path d="M239.716 246.13C239.81 244.032 237.46 242.539 235.815 241.682C232.519 239.968 229.212 240.436 225.69 240.915C224.702 241.051 223.687 241.13 222.694 241.025C221.616 240.909 220.748 240.41 219.655 240.694C219.245 240.799 217.868 241.225 217.442 241.151C217.163 241.104 216.984 240.841 216.837 240.599C215.455 238.291 214.798 235.342 214.798 232.577C215.234 232.624 216.028 233.145 216.348 233.124C217.253 233.061 218.845 232.272 218.682 231.184C217.405 230.958 215.954 231.526 214.713 231.405C214.556 231.389 214.403 231.363 214.256 231.326C214.246 231.321 214.235 231.315 214.225 231.315C214.261 231.2 214.34 231.058 214.377 230.984C214.477 230.785 214.598 230.601 214.713 230.406C214.84 230.196 214.971 229.996 215.113 229.801C215.302 229.575 215.528 229.386 215.786 229.234C216.07 229.066 216.39 228.96 216.685 228.824C217.794 228.309 218.788 227.557 219.171 226.348C219.439 225.501 219.355 224.655 219.082 223.824C218.998 223.572 218.614 223.724 218.698 223.977C218.824 224.371 218.803 224.797 218.74 225.202C218.709 225.401 218.667 225.601 218.625 225.801C218.604 225.896 218.583 225.995 218.551 226.09C218.53 226.153 218.472 226.237 218.462 226.3C218.462 226.3 218.462 226.306 218.456 226.306C218.451 226.3 218.446 226.3 218.441 226.295C218.367 226.222 218.309 226.132 218.257 226.043C218.125 225.827 218.031 225.591 217.92 225.365C217.805 225.123 217.458 225.265 217.536 225.517C217.621 225.785 217.71 226.053 217.778 226.327C217.841 226.579 217.904 226.868 217.815 227.126C217.621 227.699 217 227.925 216.511 228.172C216.033 228.414 215.581 228.698 215.192 229.071C215.034 229.223 214.903 229.381 214.777 229.554C214.756 229.581 214.734 229.602 214.713 229.628C214.508 229.896 214.335 230.191 214.13 230.459C214.004 230.627 213.872 230.806 213.772 230.995C213.73 230.953 213.683 230.911 213.636 230.869C213.73 230.769 213.82 230.664 213.867 230.532C213.972 230.254 214.004 229.933 213.977 229.639C213.956 229.407 213.599 229.402 213.567 229.633C213.536 229.886 213.473 230.117 213.305 230.317C213.226 230.406 213.136 230.49 213.042 230.564C212.905 230.532 212.758 230.511 212.563 230.511C212.001 230.522 211.459 230.248 210.902 230.275C210.844 230.28 210.781 230.285 210.723 230.29C210.692 230.233 210.66 230.175 210.645 230.106C210.582 229.849 210.55 229.56 210.582 229.292C210.587 229.255 210.592 229.223 210.597 229.186C210.639 228.924 210.235 228.861 210.187 229.123C210.177 229.171 210.171 229.218 210.166 229.265C210.14 229.46 210.119 229.665 210.119 229.865C210.119 229.859 210.114 229.854 210.114 229.849C209.998 229.528 209.919 229.197 209.803 228.882C209.793 228.85 209.782 228.818 209.767 228.792C209.698 228.592 209.619 228.398 209.514 228.209C209.257 227.736 208.905 227.331 208.521 226.957C208.127 226.574 207.601 226.174 207.585 225.57C207.58 225.302 207.727 225.044 207.858 224.818C208 224.576 208.169 224.345 208.326 224.113C208.479 223.893 208.184 223.656 208.006 223.851C207.837 224.035 207.674 224.234 207.485 224.403C207.406 224.471 207.327 224.539 207.233 224.587C207.228 224.592 207.222 224.592 207.217 224.592V224.587C207.228 224.524 207.196 224.429 207.191 224.361C207.191 224.261 207.201 224.161 207.207 224.061C207.222 223.856 207.243 223.656 207.275 223.451C207.338 223.046 207.443 222.636 207.68 222.295C207.832 222.074 207.511 221.816 207.359 222.032C206.849 222.747 206.518 223.53 206.528 224.418C206.539 225.685 207.264 226.7 208.174 227.52C208.416 227.741 208.689 227.935 208.91 228.177C209.11 228.398 209.267 228.645 209.383 228.918C209.462 229.144 209.525 229.376 209.583 229.612C209.635 229.828 209.693 230.043 209.73 230.259C209.735 230.301 209.746 230.359 209.761 230.422C209.178 230.516 208.594 230.585 208.058 230.396C207.143 230.075 206.386 229.286 205.524 229.008C205.419 229.139 205.424 229.271 205.472 229.428C205.777 230.474 206.45 231.489 207.538 231.82C208.142 232.004 208.636 231.279 208.884 231.831C208.836 232.162 208.82 232.483 208.82 232.819C208.82 233.14 208.721 233.539 208.862 233.839C208.978 234.086 209.188 234.254 209.372 234.449C209.388 234.464 209.404 234.485 209.425 234.501C209.761 235.295 209.877 235.894 209.835 236.946C209.83 237.109 209.819 237.272 209.814 237.435C209.793 238.092 209.556 239.29 210.524 239.343C210.897 239.395 211.328 239.522 211.659 239.285C211.717 239.243 211.77 239.196 211.812 239.143C211.78 239.795 211.706 240.463 211.733 241.083C211.785 242.313 211.996 243.533 212.364 244.71C212.632 245.567 213.021 246.45 213.657 247.102C214.161 247.623 214.74 247.885 215.239 248.448C215.628 248.884 216.206 249.231 216.506 249.715C215.686 250.367 214.713 250.729 213.83 251.26C212.784 251.886 213.152 253.279 213.331 254.252C213.52 255.287 213.357 256.344 213.51 257.379C213.62 258.136 213.988 258.736 214.687 259.009C214.687 259.009 215.455 259.361 216.59 259.414C216.511 258.699 216.643 258.01 215.907 257.605C215.581 257.616 215.134 257.611 215.024 257.558C214.661 257.395 214.808 256.717 214.824 256.423C214.866 255.787 214.708 255.161 214.713 254.53C214.719 254.194 214.734 253.689 214.756 253.353C214.782 252.885 214.924 252.869 215.36 252.706C216.049 252.448 216.743 252.28 217.452 252.101C218.173 251.917 218.872 251.66 219.602 251.523C219.213 250.635 218.83 250.451 218.83 250.451C218.83 250.451 219.503 250.535 219.855 251.723C219.876 251.786 219.897 251.87 219.918 251.965C219.986 252.259 220.033 252.611 220.055 253.027C220.223 254.956 220.249 258.142 220.249 258.568C220.254 259.167 220.123 260.539 220.186 261.79C220.196 261.99 220.191 262.184 220.196 262.379C220.212 263.157 220.333 263.919 220.444 264.687C220.911 264.823 221.427 264.765 221.852 264.534C221.8 264.524 221.269 262.636 221.29 262.5C221.395 261.611 221.437 260.707 221.626 259.834C221.737 259.335 221.674 258.825 221.653 258.31C221.611 257.159 222.057 256.223 222.289 255.129C222.431 254.462 222.704 253.789 222.846 253.106C222.935 252.669 222.809 252.028 222.951 251.571C222.935 251.255 222.878 250.004 222.757 249.547C223.009 250.209 223.24 250.687 223.619 251.019C223.766 251.066 223.924 251.15 224.018 251.187C224.276 251.276 224.539 251.35 224.807 251.402C225.343 251.507 225.89 251.539 226.436 251.523C226.999 251.507 227.561 251.439 228.119 251.355C228.45 251.302 228.781 251.245 229.117 251.203C229.254 251.187 229.459 251.134 229.596 251.16C229.585 251.145 229.575 251.134 229.57 251.118C229.086 250.467 228.692 249.42 228.692 249.42C228.692 249.42 229.044 250.062 229.175 250.267C231.367 253.573 231.446 253.505 234.837 255.75C236.84 257.064 236.761 259.65 236.94 261.948C236.94 261.948 237.066 263.525 237.355 264.313C238.018 264.224 238.543 264.177 238.817 264.008C238.633 263.493 238.47 262.978 238.28 262.463C238.275 262.452 238.275 262.442 238.27 262.431C238.023 261.879 238.07 261.27 238.165 260.655C238.27 259.987 238.238 259.314 238.223 258.636C238.138 257.726 238.133 256.06 238.212 255.15C237.965 254.851 237.723 254.551 237.476 254.252C237.555 254.32 236.987 253.489 236.777 252.979C236.572 252.485 236.561 251.933 236.561 251.397C236.561 251.097 236.561 250.787 236.677 250.514C236.924 249.925 237.565 249.484 237.881 248.9C238.228 248.259 238.443 247.538 238.496 246.808C238.491 246.892 239.095 247.333 239.216 247.318C239.947 247.202 239.684 246.766 239.716 246.13Z" fill="black"/>
<path d="M230.333 252.496C230.348 253.71 230.469 255.198 230.879 256.496C229.738 260.481 229.265 261.995 229.455 263.677C230.627 263.867 230.764 263.635 230.764 263.635L230.637 262.121C230.637 262.121 231.21 257.369 232.95 257.117C232.672 256.454 232.803 255.64 233.113 254.851C231.62 253.968 230.811 253.148 230.333 252.496Z" fill="black"/>
</svg>
