<svg width="355" height="221" viewBox="0 0 355 221" fill="none" xmlns="http://www.w3.org/2000/svg">
<path fill-rule="evenodd" clip-rule="evenodd" d="M8.46473 59.9476C11.1461 59.9963 13.829 60.0452 16.5109 60.0936C16.644 60.4193 16.7774 60.7451 16.9106 61.0708C16.6811 60.9744 16.4513 60.8778 16.2218 60.7814C13.6365 60.5033 11.0498 60.2255 8.46473 59.9476ZM0.888576 94.3735C1.52184 93.8312 2.15574 93.2884 2.789 92.7461C2.97036 92.957 3.15206 93.168 3.33328 93.3792C2.51865 93.7106 1.70354 94.0422 0.888576 94.3735ZM86.0332 30.6713C87.2787 28.4561 88.0848 28.6052 89.6889 27.7591C95.7938 27.8982 103.501 26.4819 111.55 31.6886C118.23 35.8448 125.258 43.8351 133.222 42.8181C132.822 41.8412 132.421 40.8637 132.022 39.8872C132.722 39.5073 133.422 39.1273 134.122 38.7475C135.451 39.4413 136.782 40.1351 138.112 40.8287C139.883 39.268 140.998 39.1568 142.801 38.3511C153.042 44.1438 176.17 61.9508 183.844 48.7243C183.511 47.91 183.177 47.0956 182.843 46.2817C177.166 40.6953 165.173 44.5764 157.226 38.7512C157.208 38.4741 157.189 38.1966 157.171 37.9193C158.595 36.7767 158.64 37.0622 158.671 35.3145C144.527 30.3493 125.188 37.7277 117.162 27.9809C117.536 27.7336 117.91 27.4861 118.284 27.2393C120.321 27.5289 121.167 27.4232 122.596 26.6249C122.511 26.1847 122.425 25.744 122.34 25.3039C119.814 24.7467 114.714 23.8209 112.549 21.594C117.23 23.5053 120.45 23.1767 124.352 25.3403C124.063 26.0277 123.774 26.7154 123.485 27.4029C121.903 27.9511 120.321 28.5 118.74 29.0482C132.788 34.5566 147.722 24.089 160.738 36.1833C160.009 36.9549 159.278 37.7266 158.549 38.4985C168.206 42.4022 180.062 39.2915 185.656 48.272C180.334 60.7138 162.142 52.3547 151.292 45.1548C148.5 43.4417 145.705 41.7284 142.913 40.0154C141.992 40.0551 138.681 41.5687 136.412 42.945C135.685 42.1007 134.959 41.2564 134.233 40.4121C134.307 41.5216 134.381 42.6312 134.456 43.7411C133.755 44.1205 133.055 44.5005 132.355 44.88C118.123 39.7631 100.25 23.2336 87.8447 30.2193C89.4227 31.2865 91.0011 32.3546 92.5793 33.4222C92.2906 34.1093 92.0016 34.797 91.7127 35.4845C83.0817 41.4559 66.186 21.7544 54.7047 32.8732C58.053 33.4841 59.59 34.8813 59.5507 37.7405C58.6067 43.0621 53.5666 42.5924 49.8822 43.3832C46.2118 44.4014 42.5401 45.4204 38.8693 46.4384C32.1891 50.0608 25.2879 57.6554 16.977 57.0543C26.211 52.4435 35.5102 47.7768 44.6816 43.2193C48.9401 41.8747 53.0101 42.0318 56.8726 40.2548C57.3169 38.5541 57.7612 36.8534 58.2058 35.1529C54.7823 34.0179 52.4464 35.3022 50.9374 34.1209C50.9857 34.0061 51.0338 33.8916 51.0819 33.7772C57.3285 30.688 62.6672 26.2924 70.6073 27.828C78.6052 29.4315 84.2285 37.7034 91.0236 35.1949C91.0346 34.5254 91.0456 33.8558 91.0569 33.1865C89.3823 32.3481 87.7074 31.5095 86.0332 30.6713ZM3.47772 93.0355C6.8223 91.9507 10.5604 92.4317 13.1132 89.4006C12.1088 88.5745 11.1047 87.7478 10.101 86.922C19.8052 76.3634 25.8463 85.3678 38.5843 84.7372C38.5658 84.4601 38.5474 84.1826 38.529 83.9051C36.6755 83.2253 35.2915 82.5858 34.6833 81.4806C37.0586 79.9185 39.5077 78.6726 42.3624 78.6416C40.4733 79.5996 38.5838 80.5586 36.6947 81.5167C37.6986 82.3429 38.703 83.1698 39.7069 83.9961C39.3512 84.5204 38.9957 85.0451 38.6401 85.5699C28.9506 82.7172 17.1016 80.0777 11.2791 87.0126C12.8029 87.7399 13.034 88.036 13.7464 88.8583C13.5058 89.4309 13.265 90.0039 13.0244 90.5765C10.5835 92.7443 6.33328 94.2845 3.47772 93.0355ZM15.6106 64.1642C18.4377 63.3856 22.9414 63.7504 25.924 65.6674C25.587 66.4693 25.2501 67.2712 24.9129 68.0734C29.1692 66.6268 33.426 65.18 37.6818 63.7336C48.3456 61.9625 65.2592 67.7761 77.1695 75.8791C76.4085 77.0544 75.071 77.458 73.3129 78.3028C73.6574 78.4476 74.0023 78.5926 74.3469 78.7373C80.9889 79.1483 93.1734 78.2414 97.6413 84.0777C97.593 84.1925 97.5449 84.307 97.4968 84.4214C97.3041 84.8799 97.1116 85.3381 96.9189 85.7966C93.2104 86.2116 89.588 87.4571 85.4497 87.0428C76.5858 84.6658 67.7189 82.2874 58.855 79.9104C53.5053 78.8018 48.757 78.7241 43.6849 78.3885C43.896 78.2075 44.107 78.0265 44.3185 77.8456C49.2386 78.3643 54.4822 78.1374 59.9769 79.169C72.6145 81.541 86.6419 89.7159 95.9743 84.186C95.9554 83.9087 95.937 83.6312 95.9186 83.3538C86.8417 80.1621 79.4458 84.3811 70.9572 78.1217C71.5276 77.1947 71.7149 77.0219 73.2021 76.6382C73.1832 76.361 73.1648 76.0835 73.1463 75.8064C63.7133 70.7613 51.6995 63.896 41.761 64.6387C35.2145 65.128 30.3138 68.596 23.1016 68.525C23.035 68.3623 22.9684 68.1997 22.9019 68.0367C23.5645 67.1023 24.2278 66.1674 24.8908 65.2332C24.7757 65.1849 24.661 65.1367 24.5459 65.0883C21.5585 65.2798 19.4025 65.6602 15.6106 64.1642ZM7.59215 117.007C10.3631 115.88 13.1341 114.752 15.9051 113.625C13.8721 115.551 10.4561 117.049 7.59215 117.007ZM17.7149 100.636C30.0384 91.3801 54.9093 99.1774 72.4265 102.599C80.47 104.17 85.7938 107.651 92.5312 107.812C100.825 108.011 107.498 102.579 114.591 99.6935C130.888 93.0633 147.19 86.4309 163.487 79.8009C156.702 79.6456 149.847 79.461 143.027 79.2913C143.287 78.9959 143.546 78.7001 143.805 78.4046C140.842 77.9072 135.07 77.3224 132.692 74.9479C144.182 76.5412 155.778 78.1788 167.166 79.7295C151.454 85.9313 135.737 92.1353 120.025 98.3375C112.197 102.594 104.471 108.616 94.9433 108.826C80.6448 108.947 62.7746 102.59 47.3764 98.5421C47.3282 98.6569 47.2801 98.7714 47.2318 98.8862C49.8546 99.7186 52.4781 100.551 55.1009 101.384C40.4017 96.6751 30.0302 101.46 17.7149 100.636ZM35.4809 58.3599C41.086 55.5471 56.2821 52.8351 62.9639 53.7331C63.012 53.6187 63.0601 53.5042 63.1084 53.3894C60.2859 52.0686 57.4623 50.7474 54.6398 49.4265C67.2844 54.9708 76.4161 52.2529 87.5029 55.1484C87.4546 55.2632 87.4065 55.3777 87.3583 55.4925C86.3432 55.3352 85.328 55.1783 84.3132 55.0216C84.513 55.5096 84.7133 55.9986 84.9136 56.4867C76.3876 53.2237 59.205 53.6433 50.0283 55.5767C45.5076 56.5288 40.7617 59.5175 35.4809 58.3599ZM23.4041 88.0636C29.3975 87.4396 37.2333 94.5182 42.5533 96.5153C42.3419 96.6962 42.1309 96.8772 41.9198 97.0582C35.7483 94.0603 29.5752 91.0613 23.4041 88.0636ZM16.7383 113.571C17.6653 113.28 18.3831 113.376 19.5835 113.554C19.3798 114.681 19.1761 115.809 18.9724 116.936C18.8577 116.888 18.743 116.84 18.6279 116.791C18.2837 116.647 17.9388 116.502 17.5943 116.357C18.0464 115.603 18.4981 114.85 18.9502 114.096C18.2129 113.921 17.4754 113.746 16.7383 113.571ZM7.54969 136.4C10.5324 132.954 16.9405 129.088 21.5301 130.143C16.8848 132.195 12.2096 134.315 7.54969 136.4ZM21.4176 115.942C21.858 115.857 22.2992 115.773 22.7397 115.688C22.8732 116.014 23.0067 116.34 23.1403 116.666C22.5659 116.424 21.9916 116.183 21.4176 115.942ZM51.2502 48.8105C52.1502 48.9194 53.0504 49.028 53.9507 49.137C53.9026 49.2514 53.8545 49.3659 53.8064 49.4803C52.954 49.2572 52.1021 49.0339 51.2502 48.8105ZM23.4292 115.978C27.7661 115.59 31.2401 119.457 36.4652 120.648C41.9257 121.892 46.4726 121.107 51.2355 121.193C51.1872 121.308 51.1391 121.422 51.091 121.537C49.0388 122.562 46.9862 123.586 44.9345 124.611C45.9417 123.822 46.9495 123.031 47.957 122.242C40.6358 121.631 32.1139 121.038 23.4292 115.978ZM59.417 33.2355C67.8694 31.2698 79.2736 43.5171 81.8565 48.3272C74.1908 43.3635 70.7619 38.0682 59.417 33.2355ZM22.6526 129.402C27.172 126.972 35.3313 126.016 40.6779 126.058C39.9778 126.437 39.2778 126.817 38.5774 127.197C33.1844 127.374 28.827 130.49 22.6526 129.402ZM45.2301 81.4639C47.6268 80.8098 56.1241 83.3588 58.4109 85.7902C54.0175 84.348 49.6232 82.9061 45.2301 81.4639ZM15.0644 156.139C19.8686 153.71 24.6883 151.246 29.4777 148.851C26.4089 152.485 19.7717 156.407 15.0644 156.139ZM11.8766 168.549C13.9429 165.239 16.01 161.928 18.0769 158.618C18.1916 158.666 18.3063 158.714 18.4214 158.763C16.2398 162.025 14.0577 165.287 11.8766 168.549ZM4.62152 187.742C4.92878 187.332 5.23605 186.922 5.54331 186.512C5.67692 186.838 5.81038 187.164 5.94399 187.489C5.50311 187.574 5.0619 187.658 4.62152 187.742ZM6.17721 185.97C10.4579 178.902 17.4929 167.052 24.4121 165.729C25.0419 166.802 25.6717 167.876 26.3019 168.949C25.1201 170.475 23.9385 172 22.7571 173.526C24.1801 174.287 24.0572 174.205 24.535 175.082C20.9792 178.4 17.3932 181.787 13.8228 185.139C11.308 188.847 12.3388 194.412 9.60114 197.115C9.04534 197.15 8.48974 197.187 7.93414 197.223C7.91541 196.945 7.89702 196.668 7.87814 196.391C12.4908 193.33 9.48744 188.905 13.2224 183.673C16.3894 180.96 19.5714 178.213 22.7237 175.534C22.3237 174.557 21.9233 173.58 21.5235 172.603C23.8225 170.807 24.9476 169.76 24.5232 167.393C24.2271 167.134 23.9303 166.874 23.6341 166.615C17.4219 169.668 13.2135 184.899 6.17721 185.97ZM44.1867 98.4153C44.9721 98.4756 45.7579 98.5361 46.5431 98.5967C45.806 98.4216 45.0685 98.2464 44.3312 98.0716C44.2831 98.186 44.235 98.3005 44.1867 98.4153ZM45.3543 103.354C48.4736 101.657 53.1894 101.7 57.3682 102.741C57.3199 102.856 57.2718 102.97 57.2236 103.085C56.9938 102.989 56.764 102.892 56.5342 102.795C52.808 102.981 49.0808 103.168 45.3543 103.354ZM63.3762 62.3993C65.0695 60.3957 68.8147 58.9644 71.1441 58.3844C69.1008 60.477 66.0439 61.7705 63.3762 62.3993ZM30.0556 147.476C30.9853 147.193 31.9155 146.909 32.8452 146.626C31.8034 147.919 31.1853 147.802 30.0556 147.476ZM31.1121 150.75C36.4685 145.2 63.3482 129.433 70.4174 127.637C68.9661 130.127 67.5135 132.618 66.0622 135.107C66.7173 133.226 67.3731 131.345 68.0283 129.463C67.4246 129.614 66.8208 129.765 66.2167 129.915C62.7201 132.449 59.1936 135.052 55.6824 137.621C50.7004 142.309 46.819 150.192 42.4258 154.696C42.3107 154.648 42.196 154.6 42.0813 154.552C46.2886 149.041 50.5112 143.495 54.7041 138.018C54.1005 138.169 53.4967 138.32 52.8928 138.47C48.2215 143.973 37.7024 149.15 31.1121 150.75ZM38.9236 139.879C41.3571 139.554 43.7913 139.228 46.2248 138.903C51.9992 135.13 57.7752 131.355 63.5494 127.581C62.4865 127.539 61.423 127.497 60.3597 127.454C60.5711 127.273 60.7822 127.092 60.9931 126.912C65.77 126.915 69.6025 123.491 73.9066 122.228C68.5112 127.726 50.8038 139.068 43.6911 141.074C43.5764 141.025 43.4617 140.977 43.347 140.929C43.7207 140.682 44.0951 140.435 44.4692 140.188C42.6206 140.085 40.7719 139.982 38.9236 139.879ZM61.1672 86.9485C66.7923 86.9454 75.109 95.5198 76.8605 98.8008C71.6638 94.8646 66.3978 90.8985 61.1672 86.9485ZM55.5895 101.185C55.9821 101.215 56.3751 101.246 56.7679 101.276C56.7196 101.39 56.6715 101.505 56.6235 101.619C56.2789 101.474 55.934 101.33 55.5895 101.185ZM28.5465 167.466C35.0614 160.623 47.0385 162.736 54.7178 158.244C59.4166 155.496 60.0954 150.23 63.9403 145.943C63.2332 149.555 62.526 153.168 61.8189 156.78C58.8517 169.201 50.7042 178.024 45.5184 185.922C45.6334 185.97 45.7482 186.018 45.8629 186.066C47.6297 184.114 49.3968 182.159 51.1632 180.206C51.2783 180.255 51.393 180.303 51.5081 180.351C51.3156 180.809 51.123 181.267 50.9305 181.726C47.6038 185.373 42.5367 193.522 38.0848 194.93C39.9957 192.633 41.9072 190.335 43.8186 188.038C38.0532 191.739 33.7642 196.686 26.2713 196.032C37.3024 189.611 42.7897 188.365 52.0075 175.303C45.2354 177.229 39.6278 181.112 31.1928 179.497C31.4038 179.316 31.6148 179.135 31.8261 178.955C43.5506 181.257 52.8645 175.58 58.33 162.188C59.626 159.103 61.5413 155.494 60.7626 153.505C53.2905 163.307 38.7897 163.939 28.5465 167.466ZM39.4904 143.353C39.5867 143.123 39.683 142.894 39.7794 142.665C39.8638 143.407 40.062 142.873 39.4904 143.353ZM40.4688 142.955C41.0055 142.641 41.5429 142.328 42.08 142.015C41.0721 143.139 41.8142 142.744 40.4688 142.955ZM97.334 14.3909C99.5784 12.4555 104 11.7211 106.824 11.1002C105.213 12.0403 103.601 12.981 101.99 13.9215C104.917 15.9598 107.844 17.9991 110.77 20.0374C110.722 20.1522 110.674 20.2666 110.626 20.3811C107.08 18.6477 99.8258 16.0135 97.334 14.3909ZM16.415 208.875C20.5188 206.825 24.6238 204.775 28.7276 202.726C25.72 205.779 20.4714 208.182 16.415 208.875ZM93.2457 30.871C106.017 32.119 113.083 61.0991 123.711 68.343C123.663 68.4575 123.615 68.5719 123.567 68.6867C112.309 62.6716 110.809 51.7703 105.461 43.2835C102.724 38.7406 97.4919 34.4874 93.2457 30.871ZM16.7383 218.716C17.2084 218.24 17.679 217.764 18.1491 217.287C18.2827 217.613 18.4162 217.939 18.5498 218.264C17.9457 218.415 17.3419 218.566 16.7383 218.716ZM87.0465 53.3394C89.2568 53.2706 93.591 55.5858 94.8264 57.0129C92.3857 56.3916 89.9435 55.77 87.5029 55.1484C88.1155 54.1073 88.4434 54.58 87.0465 53.3394ZM19.1275 216.889C20.6197 215.376 22.0224 215.073 23.8168 214.412C24.6874 214.912 25.5582 215.413 26.4286 215.914C26.0915 216.716 25.7545 217.518 25.4175 218.319C33.8047 216.082 41.4809 209.228 47.5539 201.336C48.5207 201.607 49.4876 201.879 50.4546 202.151C52.9029 199.54 55.3516 196.929 57.7995 194.318C62.7542 187.244 63.6607 173.231 70.7555 170.241C71.2036 171.103 71.6522 171.966 72.1002 172.828C72.2152 172.877 72.33 172.925 72.445 172.973C77.1653 163.817 85.6387 152.171 93.5026 149.875C93.9618 150.068 94.4211 150.261 94.8807 150.454C95.1177 151.497 95.3551 152.54 95.5924 153.583C94.9398 158.572 90.4368 161.698 88.0366 165.775C90.2636 166.217 91.1433 166.897 92.2266 168.345C91.6011 171.985 88.6043 176.27 88.4154 176.45C84.1432 177.334 71.1187 192.977 69.6584 198.897C71.7008 199.355 72.0094 199.542 72.8145 201.032C71.6036 202.95 70.392 204.867 69.1812 206.785C69.2959 206.833 69.4106 206.882 69.5257 206.93C71.0742 205.433 73.1981 204.912 75.249 204.886C69.6035 208.318 64.1548 212.511 58.8135 216.986C69.0196 218.606 82.6122 218.919 90.0864 213.952C92.764 211.438 95.4425 208.924 98.1205 206.41C99.6099 207.201 99.3741 207.547 100.676 207.08C101.31 206.537 101.944 205.994 102.577 205.452C102.499 205.958 102.421 206.465 102.343 206.971C103.273 206.688 104.203 206.405 105.133 206.122C107.907 203.378 110.682 200.634 113.456 197.891C116.852 193.17 118.057 187.626 121.79 184.813C121.905 184.861 122.019 184.91 122.134 184.958C122.66 185.314 123.186 185.669 123.712 186.025C123.413 187.382 123.113 188.739 122.813 190.096C136.348 184.71 137.781 157.165 149.347 146.248C152.169 143.583 154.67 146.508 157.827 145.362C172.581 133.576 170.571 109.588 193.586 114.287C198.572 108.958 203.981 95.2729 210.788 93.6122C211.762 94.8305 212.737 96.0492 213.711 97.2674C211.992 99.106 210.273 100.946 208.555 102.784C206.485 107.71 204.414 112.638 202.344 117.564C197.912 123.057 191.133 122.814 186.742 129.61C187.564 130.225 188.387 130.84 189.21 131.455C187.924 132.263 186.639 133.071 185.353 133.879C196.03 136.354 207.527 130.947 214.514 124.295C217.203 121.112 219.892 117.928 222.581 114.745C221.311 117.446 220.04 120.148 218.77 122.849C219.048 122.831 219.326 122.813 219.604 122.795C224.207 115.698 228.812 108.6 233.416 101.504C227.001 115.899 232.841 123.348 232.019 135.696C231.37 134.345 230.722 132.994 230.073 131.643C228.693 136.736 228.622 142.619 225.152 148.178C221.582 153.876 211.554 166.165 213.774 173.322C219.794 163.378 231.002 162.444 233.742 148.957C233.991 149.331 234.239 149.705 234.487 150.079C240.808 134.197 242.602 112.898 253.964 100.838C257.277 97.3033 264.143 92.4009 268.4 96.3896C268.437 96.9447 268.474 97.4994 268.511 98.0545C268.952 97.9699 269.393 97.8856 269.833 97.8013C274.009 92.0625 281.26 83.5292 287.169 81.6304C288.967 82.6238 289.206 83.2165 290.037 84.4536C288.302 92.0424 284.773 96.4387 280.458 101.457C284.207 99.9326 287.957 98.407 291.705 96.8823C288.037 100.555 282.661 101.024 278.414 103.429C279.006 103.948 279.6 104.467 280.192 104.985C277.479 111.411 273.325 112.424 269.446 117.05C271.469 116.417 273.492 115.784 275.515 115.151C273.108 116.761 270.772 117.507 268.636 119.945C273.638 122.384 264.637 129.435 262.258 132.228C268.248 130.763 275.654 129.859 281.55 127.798C277.765 131.019 273.949 134.31 270.149 137.565C266.21 141.614 265.382 146.904 263.594 152.2C263.871 152.182 264.149 152.164 264.427 152.146C267.654 147.285 268.71 149.779 273.228 148.565C275.158 146.546 277.088 144.525 279.018 142.506C279.133 142.554 279.248 142.602 279.362 142.651C277.251 145.625 274.733 147.175 272.562 151.116C272.581 151.393 272.599 151.671 272.618 151.948C273.058 151.864 273.499 151.78 273.94 151.695C277.523 146.826 283.618 145.688 287.898 142.598C290.02 140.12 292.143 137.641 294.265 135.163C295.135 135.664 296.006 136.165 296.877 136.665C296.361 131.461 295.845 126.256 295.33 121.053C295.826 117.621 296.323 114.19 296.819 110.759C295.359 112.302 293.899 113.846 292.44 115.389C292.325 115.341 292.211 115.293 292.096 115.244C293.499 112.869 294.903 110.493 296.307 108.117C295.54 108.335 294.773 108.551 294.006 108.769C303.578 98.7652 307.905 87.9201 316.73 73.0243C316.452 73.0423 316.174 73.0602 315.896 73.0786C310.784 80.5332 302.574 91.3752 295.216 94.3136C299.094 90.5522 302.973 86.7886 306.851 83.0268C316.487 71.92 324.678 60.0665 334.709 51.4627C330.638 51.504 326.566 51.5459 322.495 51.587C322.707 51.4065 322.918 51.2254 323.129 51.0448C328.283 51.4808 332.723 49.8527 338.332 50.5588C336.384 52.3009 334.435 54.0438 332.487 55.7859C332.602 55.8342 332.717 55.8824 332.831 55.9306C332.927 55.7017 333.024 55.4724 333.12 55.2435C338.332 53.3251 342.686 50.2579 348.278 49.0771C360.435 48.1202 372.678 47.1577 384.752 46.2062C392.728 44.9772 399.339 40.4219 407.412 39.5524C396.589 50.9532 364.752 48.2168 349.079 51.0311C342.456 51.9682 330.601 53.3871 328.387 64.5777C326.324 75.5647 333.785 82.5155 331.368 94.1387C331.483 94.187 331.598 94.2352 331.713 94.2834C332.783 91.094 333.853 87.9037 334.924 84.7143C336.968 82.7426 339.013 80.7708 341.058 78.799C341.313 75.9412 341.568 73.0823 341.823 70.2243C343.047 61.21 351.651 54.2516 357.236 52.8414C352.737 57.9019 339.636 66.0825 342.758 76.6828C342.854 76.4539 342.951 76.2247 343.047 75.9954C349.355 74.2031 355.1 68.0246 360.716 64.818C372.383 59.8819 384.054 54.9436 395.722 50.0076C401.489 46.724 406.561 40.6001 412.646 37.7083C407.153 50.9364 376.332 60.7665 365.228 64.6923C355.422 67.9798 343.166 75.9588 336.158 85.6368C333.402 89.442 333.245 94.0638 330.902 97.178C330.368 95.8756 329.835 94.5728 329.301 93.2701C329.005 93.0109 328.708 92.7515 328.412 92.492C326.503 107.255 318.632 127.041 305.656 130.244C305.322 129.43 304.989 128.616 304.655 127.802C304.377 127.82 304.099 127.838 303.822 127.856C302.15 132.191 299.426 137.622 296.354 138.872C295.829 138.516 295.302 138.161 294.777 137.805C289.053 146.732 279.757 149.423 272.296 154.644C271.951 154.499 271.606 154.354 271.262 154.209C271.151 152.545 271.039 150.88 270.928 149.216C270.161 149.433 269.395 149.65 268.628 149.867C264.798 155.221 259.379 161.656 253.971 163.524C252.549 161.084 253.759 157.988 253.558 154.858C253.7 139.721 259.225 132.579 269.147 122.586C267.364 121.729 267.453 121.967 267.169 120.541C266.903 113.081 275.745 110.335 279.014 104.895C278.258 104.442 277.503 103.99 276.747 103.537C280.85 96.2299 288.392 92.7613 287.969 83.5847C287.625 83.4401 287.28 83.2952 286.936 83.1504C281.648 87.7093 274.993 98.8443 267.878 98.5967C267.485 98.5668 267.092 98.5363 266.7 98.5062C266.596 97.7888 266.492 97.0709 266.388 96.3535C261.58 98.8388 256.651 99.8246 252.72 104.763C244.749 114.778 243.384 130.244 240.743 140.98C237.401 154.7 220.67 171.959 212.763 175.728C211.697 174.078 212.2 173.973 210.296 173.883C206.481 177.723 200.94 183.458 195.761 184.355C195.12 183.951 194.479 183.546 193.838 183.142C194.268 181.474 194.103 181.484 193.815 180.302C193.7 180.254 193.586 180.206 193.471 180.157C187.627 186.233 179.524 192.116 170.345 189.85C170.26 189.41 170.174 188.97 170.089 188.53C170.867 187.643 171.645 186.757 172.423 185.87C163.042 188.105 151.615 189.788 140.549 187.439C140.349 186.951 140.149 186.462 139.949 185.974C146.49 170.746 158.789 169.531 164.318 159.818C163.014 160.348 161.71 160.879 160.407 161.409C160.292 161.361 160.177 161.313 160.062 161.264C159.517 160.632 158.973 159.998 158.428 159.365C161.697 153.808 165.959 147.926 170.529 145.039C174.739 142.379 179.447 141.718 183.075 137.37C182.531 136.737 181.986 136.103 181.441 135.47C183.245 134.072 185.05 132.673 186.853 131.274C186.29 130.363 185.727 129.453 185.164 128.542C189.818 122.831 196.06 122.064 200.477 117.183C202.354 112.716 204.247 108.212 206.11 103.779C207.939 101.001 210.33 99.4155 211.243 95.4217C211.129 95.3735 211.014 95.3253 210.899 95.2771C210.506 95.2467 210.114 95.2163 209.721 95.1863C202.8 99.463 202.195 109.952 196.72 113.583C189.748 118.512 180.729 115.203 174.083 123.076C168.032 130.352 164.226 145.338 156.182 148.311C155.734 147.449 155.285 146.586 154.837 145.723C142.692 147.734 136.878 187.323 122.435 191.959C122.091 191.814 121.746 191.669 121.401 191.525C121.357 190.023 121.312 188.521 121.268 187.02C114.527 196.899 108.675 208.22 98.7431 210.715C97.639 208.817 98.6338 208.721 96.9091 208.327C88.4549 219.511 71.7864 222.652 56.6571 217.294C56.7053 217.179 56.7534 217.065 56.8015 216.95C61.7717 211.36 67.5222 208.385 71.2919 200.797C71.1772 200.749 71.0624 200.7 70.9477 200.652C69.2631 200.468 68.7721 200.357 68.4803 198.806C67.2192 188.505 87.9457 178.147 90.3593 167.965C89.8997 167.772 89.4405 167.579 88.9812 167.386C88.3291 167.651 87.6773 167.916 87.0255 168.181C86.7102 167.645 86.3955 167.108 86.0805 166.571C86.0618 166.294 86.0434 166.016 86.0247 165.739C88.3475 160.426 93.808 157.01 93.9586 151.683C93.6324 151.816 93.3063 151.949 92.9806 152.081C83.1894 153.163 79.465 171.818 70.4005 174.945C70.0187 174.245 69.6369 173.546 69.2555 172.846C69.0923 172.912 68.9295 172.979 68.7663 173.045C63.3614 185.085 57.8924 200.987 48.5545 203.778C48.1911 203.356 47.8282 202.934 47.4653 202.512C42.1499 213.935 31.5898 216.064 23.2284 220.635C23.0471 220.424 22.8654 220.213 22.6841 220.002C23.5875 218.494 24.4914 216.987 25.395 215.479C25.0508 215.335 24.7059 215.19 24.3618 215.045C24.2467 214.997 24.132 214.948 24.0169 214.9C22.3871 215.563 20.7571 216.227 19.1275 216.889ZM62.1929 117.305C66.527 112.536 72.9498 112.257 78.0727 109.42C76.6284 108.678 75.183 107.936 73.7382 107.194C78.8984 108.419 84.094 109.659 89.2199 110.87C89.1718 110.984 89.1237 111.098 89.0755 111.213C78.158 108.002 71.0297 115.039 62.1929 117.305ZM87.614 56.8132C89.7202 56.5858 93.4375 57.9267 94.6491 59.3652C92.304 58.5143 89.9589 57.6635 87.614 56.8132ZM109.758 9.90619C116.025 5.43159 124.398 0.756501 132.851 2.22178C138.706 3.23648 143.349 5.58581 148.132 5.40834C148.325 4.94983 148.518 4.49168 148.71 4.03318C147.84 3.53258 146.969 3.03199 146.098 2.53119C146.358 2.23604 146.617 1.94018 146.876 1.64503C149.777 0.98322 155.692 -0.441699 159.201 3.18482C155.355 1.69409 152.475 2.15514 149.088 2.17019C149.162 3.27951 149.236 4.38918 149.31 5.49899C148.888 5.86059 148.466 6.22217 148.043 6.58376C137.846 7.24204 124.893 0.850228 116.948 7.26623C119.356 7.62509 123.997 8.22397 125.85 10.1983C119.201 7.62442 114.973 9.62094 109.758 9.90619ZM82.5372 78.5392C84.693 78.2324 86.8495 77.925 89.0055 77.6178C95.5867 75.8901 100.969 70.2759 108.475 70.837C108.264 71.0177 108.053 71.1988 107.842 71.3797C98.9493 71.6246 92.2658 80.2051 82.5372 78.5392ZM35.2622 197.788C35.6176 197.263 35.9731 196.739 36.3285 196.214C36.4436 196.263 36.5583 196.311 36.673 196.359C36.2029 196.835 35.7323 197.312 35.2622 197.788ZM30.6291 213.635C31.6477 212.176 32.6667 210.717 33.6853 209.257C32.8141 211.449 31.9648 212.722 30.6291 213.635ZM80.8171 102.889C81.6213 103.227 82.4251 103.565 83.2289 103.903C83.1806 104.018 83.1325 104.132 83.0843 104.247C82.3287 103.794 81.573 103.342 80.8171 102.889ZM66.8289 139.07C68.9508 133.844 70.9431 128.929 73.9846 125.901C79.1006 120.808 86.4308 119.156 92.0543 115.7C105.135 108.381 132.544 91.127 146.796 90.5809C146.748 90.6953 146.7 90.8098 146.652 90.9246C136.341 103.177 135.761 122.819 134.054 135.372C132.778 145.431 126.462 156.955 120.743 164.153C115.009 171.749 108.67 175.834 98.8507 174.769C99.0618 174.588 99.2728 174.407 99.4843 174.226C114.56 175.209 126.507 158.982 131.576 138.375C132.765 133.539 135.441 129.737 134.419 125.82C134.149 124.727 134.516 125.575 133.675 124.698C130.697 136.307 112.643 151.302 104.617 153.331C110.516 148.937 116.467 144.521 122.318 140.146C130.155 132.403 133.272 119.676 137.908 107.874C137.63 107.892 137.352 107.91 137.074 107.929C129.545 117.833 117.632 118.467 110.015 128.91C109.9 128.861 109.785 128.813 109.67 128.765C115.672 117.812 127.637 117.219 134.974 109.068C138.31 105.36 140.399 98.993 142.796 93.3478C141.214 93.8964 139.632 94.445 138.05 94.9932C130.685 101.858 117.962 101.598 109.546 106.875C102.346 111.388 101.326 118.924 94.8778 125.379C97.4639 118.816 100.937 113.383 104.567 110.039C101.026 110.593 97.9907 113.973 94.8994 115.683C86.2938 120.44 71.8936 122.866 70.2521 137.677C70.0039 137.303 69.7553 136.929 69.5071 136.555C66.4987 145.276 66.2033 153.506 61.375 162.66C63.1928 154.797 65.0113 146.932 66.8289 139.07ZM101.884 62.4057C106.413 62.4127 111.974 66.9279 115.376 68.884C115.328 68.9988 115.28 69.1133 115.232 69.2277C110.783 66.9541 106.333 64.6793 101.884 62.4057ZM121.528 15.6612C124.698 15.511 127.87 15.361 131.041 15.2105C130.83 15.3914 130.619 15.5725 130.408 15.7532C127.552 16.4403 124.695 17.1272 121.839 17.8141C122.865 17.3017 123.892 16.7895 124.917 16.2768C123.788 16.0718 122.658 15.8665 121.528 15.6612ZM56.6418 171.994C56.9788 171.192 57.3158 170.39 57.6529 169.588C58.0129 170.641 57.8254 171.086 56.6418 171.994ZM57.7973 169.244C58.6044 167.966 59.4121 166.687 60.2195 165.409C59.8416 167.272 59.4642 169.136 59.0865 170.999C58.6566 170.414 58.2269 169.829 57.7973 169.244ZM106.052 62.1346C115.583 66.1398 125.117 70.1465 134.648 74.1518C124.938 70.7425 115.978 66.4539 106.052 62.1346ZM58.6979 177.711C58.8906 177.252 59.0831 176.794 59.2758 176.336C59.2945 176.613 59.3129 176.891 59.3316 177.168C60.4061 183.629 55.5397 193.087 51.8102 199.89C52.3367 193.032 59.1059 184.651 58.6979 177.711ZM87.1423 114.849C89.6655 111.985 91.3213 110.247 94.4208 111.033C91.9947 112.305 89.5682 113.577 87.1423 114.849ZM89.2199 110.87C89.6123 110.899 90.0053 110.93 90.3979 110.96C90.3498 111.075 90.3017 111.189 90.2535 111.304C89.909 111.159 89.5641 111.014 89.2199 110.87ZM73.0982 150.196C73.1944 149.967 73.2907 149.738 73.3871 149.509C73.4724 149.949 73.5576 150.39 73.6432 150.83C73.4615 150.619 73.2797 150.408 73.0982 150.196ZM73.3541 151.518C73.4505 151.288 73.5468 151.059 73.6432 150.83C75.6318 154.039 77.5725 162.29 73.3221 166.062C74.9801 161.288 74.9569 155.163 73.3541 151.518ZM125.408 28.6151C128.534 26.9636 131.661 25.3114 134.787 23.6595C132.55 26.0154 128.604 28.5138 125.408 28.6151ZM69.3999 172.503C69.7441 172.647 70.089 172.792 70.4332 172.937C70.5776 172.593 70.7222 172.249 70.8666 171.905C70.4742 171.875 70.0812 171.845 69.6888 171.815C69.5926 172.044 69.4963 172.273 69.3999 172.503ZM136.475 13.8549C137.72 14.1083 138.965 14.3616 140.209 14.6152C140.161 14.7297 140.113 14.8441 140.065 14.9589C138.418 14.5984 137.357 15.2664 137.164 14.1444C136.935 14.0479 136.705 13.9514 136.475 13.8549ZM113.821 70.6572C115.468 70.1378 118.715 70.2888 120.456 72.2317C118.244 71.7068 116.032 71.182 113.821 70.6572ZM90.2786 139.218C90.4713 138.76 90.6638 138.302 90.8565 137.843C90.9712 137.891 91.086 137.94 91.2007 137.988C90.8933 138.398 90.586 138.808 90.2786 139.218ZM88.7452 143.831C89.4379 142.505 90.1305 141.178 90.8229 139.852C89.7638 142.372 88.7044 144.893 87.6452 147.413C88.0119 146.219 88.3789 145.025 88.7452 143.831ZM150.322 3.09304C156.133 4.09469 157.434 13.9995 162.503 17.5135C162.455 17.6279 162.407 17.7424 162.359 17.8572C161.392 17.5857 160.425 17.314 159.458 17.0426C160.187 15.6056 153.202 5.29671 150.322 3.09304ZM136.467 43.7772C138.955 42.2641 145.545 58.7406 147.005 61.1464C146.211 55.9609 145.432 50.7394 144.624 45.5879C145.006 46.2874 145.388 46.9869 145.77 47.6864C145.643 54.2093 148.181 60.676 150.039 66.4659C142.997 60.3947 140.812 51.1688 136.467 43.7772ZM147.067 19.5189C150.317 18.1901 155.169 18.3837 159.08 18.9059C159.128 18.7911 159.176 18.6767 159.225 18.5619C156.928 17.5969 154.631 16.6315 152.334 15.6662C154.594 16.0767 156.854 16.4874 159.114 16.898C159.066 17.0124 159.017 17.1269 158.969 17.2414C158.413 17.2775 157.858 17.3137 157.302 17.3496C160.718 19.1892 164.134 21.0297 167.549 22.8694C159.294 19.1973 153.615 19.9389 147.067 19.5189ZM75.4144 194.846C84.2402 190.105 94.7337 195.104 103.308 186.348C103.423 186.396 103.538 186.444 103.653 186.493C102.894 187.656 102.134 188.82 101.375 189.983C101.816 189.899 102.257 189.815 102.697 189.731C105.501 186.596 108.306 183.459 111.109 180.325C111.224 180.373 111.339 180.421 111.454 180.469C106.166 188.945 108.144 196.402 103.266 205.741C103.973 198.923 109.241 191.888 106.787 185.787C101.363 195.53 91.8074 197.071 85.0508 203.748C80.8566 207.893 78.4619 214.029 73.1271 215.722C73.0605 215.56 72.9939 215.397 72.9269 215.234C75.9473 212.744 78.6019 210.409 81.5947 207.148C79.7354 207.715 77.8753 208.282 76.0159 208.848C75.3159 209.228 74.6158 209.608 73.9156 209.987C77.9344 207.498 81.9543 205.008 85.9732 202.518C84.747 202.542 83.5205 202.566 82.2946 202.59C82.6685 202.343 83.0428 202.095 83.4167 201.848C88.5319 201.628 94.4719 197.023 97.8636 192.552C90.7425 193.633 83.0335 195.414 75.4144 194.846ZM160.09 3.96288C162.779 4.95801 165.47 5.95392 168.159 6.94939C167.649 4.66913 167.26 5.58655 169.314 4.19973C175.063 5.10015 180.326 8.73995 186.196 11.2941C191.111 5.02539 201.266 15.6814 205.6 8.52918C204.663 7.86592 203.725 7.20213 202.788 6.53887C203.114 6.40617 203.44 6.27351 203.766 6.14119C214.384 -3.34721 237.616 19.5767 250.455 23.3354C250.504 23.2206 250.552 23.1062 250.6 22.9917C250.689 21.8158 250.777 20.6394 250.866 19.4638C251.259 19.4938 251.652 19.5243 252.044 19.5543C256.073 18.0891 261.238 23.4783 265.281 24.7123C265.492 24.5318 265.703 24.3507 265.914 24.1698C265.023 21.1728 262.445 20.1472 260.613 17.4937C260.872 17.1982 261.131 16.9024 261.391 16.607C263.631 16.7403 265.873 16.873 268.114 17.0063C267.414 17.3859 266.714 17.7659 266.014 18.1454C278.197 21.3135 287.016 32.3663 295.222 39.3171C298.082 41.1928 300.942 43.069 303.802 44.945C285.332 37.2897 281.552 22.9582 263.313 17.8193C263.217 18.0485 263.12 18.2778 263.024 18.507C265.613 19.8975 266.095 21.2053 267.181 23.0848C266.633 24.0673 266.085 25.0506 265.537 26.0335C261.191 25.3202 255.814 19.634 251.611 20.5858C251.83 21.3514 252.048 22.1173 252.267 22.8831C251.246 23.7492 251.025 24.055 249.678 24.2214C242.563 24.2255 236.251 17.1133 231.74 13.8523C223.532 7.91966 212.679 6.07216 205.289 6.37627C205.307 6.65375 205.326 6.93117 205.344 7.20865C205.937 7.72712 206.53 8.24611 207.123 8.76495C202.524 17.6371 197.182 9.23655 189.474 10.2453C189.491 10.3029 186.739 12.6061 184.93 12.3792C179.844 10.1074 174.689 7.80637 169.57 5.52028C169.07 6.38838 168.57 7.25684 168.07 8.12515C165.41 6.73776 162.75 5.35008 160.09 3.96288ZM129.025 82.7082C130.136 82.6358 131.248 82.5638 132.359 82.4913C132.148 82.6723 131.937 82.8534 131.726 83.0339C130.826 82.9254 129.925 82.8169 129.025 82.7082ZM135.481 74.0976C135.874 74.1279 136.267 74.1584 136.659 74.1887C136.611 74.3031 136.563 74.4176 136.515 74.5321C136.17 74.3873 135.826 74.2423 135.481 74.0976ZM140.738 75.0939C141.13 75.1238 141.523 75.1542 141.916 75.1844C141.868 75.2989 141.82 75.4133 141.771 75.5281C141.427 75.3835 141.082 75.2386 140.738 75.0939ZM171.149 6.58773C172.629 7.52532 173.571 10.1148 173.55 12.45C172.749 10.496 171.949 8.54155 171.149 6.58773ZM143.438 75.4195C149.491 75.8067 155.546 76.1936 161.598 76.5804C171.614 76.2168 190.714 72.3199 199.494 67.4325C192.994 67.2474 185.18 66.9871 178.267 62.961C178.315 62.8462 178.363 62.7318 178.411 62.6173C206.351 74.8138 226.091 56.3879 249.492 56.4959C249.54 56.3814 249.588 56.2669 249.637 56.1521C244.647 55.8076 239.656 55.4632 234.666 55.1187C230.521 54.0506 226.375 52.9824 222.23 51.9146C215.404 51.5178 208.999 53.4337 200.737 50.97C200.785 50.8556 200.833 50.7411 200.881 50.6266C208.021 52.4916 213.839 50.8364 220.708 51.6792C220.756 51.5644 220.804 51.45 220.852 51.3355C219.293 50.545 217.733 49.7548 216.173 48.9643C233.899 55.8641 249.054 53.6412 263.95 54.8885C263.087 55.3342 262.224 55.7806 261.361 56.2266C252.562 55.2009 245.279 59.0381 237.557 60.7815C223.85 63.783 209.935 66.699 196.127 69.6577C179.363 73.6823 164.802 81.7863 143.438 75.4195ZM164.693 27.7353C167.223 26.2196 170.809 25.1567 174.095 25.6204C174.162 25.783 174.229 25.9457 174.296 26.1088C174.084 26.2894 173.873 26.4704 173.662 26.6511C170.673 27.0125 167.683 27.374 164.693 27.7353ZM168.071 20.6623C170.764 20.6259 174.091 23.133 175.851 24.3357C175.803 24.4505 175.755 24.565 175.707 24.6794C173.162 23.3407 170.616 22.0011 168.071 20.6623ZM173.461 13.6259C173.557 13.3966 173.653 13.1674 173.75 12.9384C178.062 19.8086 181.266 26.7231 189.255 31.9909C189.207 32.1054 189.159 32.2198 189.11 32.3346C187.684 31.8699 186.258 31.4051 184.832 30.9409C190.466 34.2521 196.102 37.5641 201.736 40.8757C201.784 40.7609 201.832 40.6464 201.881 40.532C200.829 39.8202 199.776 39.1082 198.724 38.3962C214.509 46.1149 230.218 50.6324 244.557 52.8048C244.606 52.69 244.654 52.5755 244.702 52.4611C244.061 52.0567 243.42 51.6526 242.779 51.2485C258.232 57.4344 273.464 48.2649 287.955 50.8218C287.907 50.9363 287.858 51.0507 287.81 51.1655C287.581 51.0691 287.351 50.9725 287.121 50.876C273.857 54.7119 246.219 55.2742 229.787 52.2595C222.412 50.8341 207.406 41.815 201.936 41.364C203.218 42.1721 204.5 42.9806 205.781 43.7885C196.761 39.5286 186.565 34.667 178.786 35.6793C174.542 36.4566 170.295 37.2341 166.051 38.0114C167.24 37.4325 168.429 36.8536 169.618 36.2753C173.652 35.6786 177.686 35.0824 181.72 34.4859C185.176 35.2644 188.633 36.043 192.089 36.8217C191.859 36.7251 191.63 36.6286 191.4 36.532C186.158 33.2508 180.915 29.9688 175.674 26.688C178.832 28.1268 182.073 30.0621 184.431 29.9638C182.738 28.8481 181.045 27.7316 179.352 26.6157C180.041 26.9053 180.73 27.195 181.419 27.4846C181.334 27.0447 181.249 26.604 181.163 26.1641C176.832 23.0642 175.751 17.6749 173.461 13.6259ZM105.986 183.834C108.494 180.439 111.016 177.009 113.509 173.649C113.624 173.697 113.739 173.746 113.854 173.794C112.032 177.399 108.85 182.131 105.986 183.834ZM141.219 104.818C150.389 82.2464 168.353 81.0433 185.103 77.5615C180.221 81.799 174.489 83.5126 169.846 89.7521C157.628 106.17 164.547 122.146 159.826 137.71C160.033 134.966 160.241 132.222 160.448 129.478C160.61 112.495 163.209 97.7881 175.468 81.1962C167.285 82.7539 156.004 84.871 149.842 91.0518C139.128 101.797 139.738 121.363 137.132 133.835C135.743 140.486 131.34 148.969 130.533 155.326C130.218 154.789 129.903 154.252 129.588 153.716C127.352 159.269 123.835 166.356 120.099 169.544C124.203 161.29 131.465 153.008 134.01 142.229C136.195 133.117 137.289 124.351 138.608 115.853C139.478 112.174 140.363 108.461 141.219 104.818ZM155.974 72.5999C156.367 72.6297 156.76 72.6602 157.152 72.6904C157.104 72.8048 157.056 72.9193 157.008 73.0341C156.663 72.8894 156.318 72.7445 155.974 72.5999ZM177.974 26.0366C178.366 26.0669 178.759 26.0974 179.152 26.1274C179.104 26.2422 179.056 26.3567 179.008 26.4711C178.663 26.3263 178.318 26.1814 177.974 26.0366ZM118.254 172.004C118.447 171.545 118.639 171.087 118.832 170.629C118.947 170.677 119.062 170.726 119.176 170.774C118.869 171.184 118.562 171.594 118.254 172.004ZM119.176 170.774C119.369 170.315 119.562 169.857 119.754 169.399C119.869 169.447 119.984 169.495 120.099 169.544C119.791 169.954 119.484 170.364 119.176 170.774ZM189.786 12.3981C197.351 12.9388 205.817 31.966 209.159 36.7158C211.567 39.345 213.976 41.9753 216.384 44.6044C205.503 37.9168 200.731 21.7919 189.786 12.3981ZM130.555 158.166C130.652 157.937 130.748 157.708 130.844 157.479C131.071 159.191 131.297 160.904 131.523 162.617C131.2 161.133 130.878 159.649 130.555 158.166ZM122.368 183.438C124.073 180.652 129.102 170.995 130.934 168.84C131.049 168.888 131.164 168.937 131.279 168.985C129.552 174.576 126.65 181.735 122.368 183.438ZM209.278 8.4576C215.382 9.30671 230.741 39.1568 232.965 44.6979C221.761 35.0731 222.124 19.5631 209.278 8.4576ZM141.127 186.064C145.122 185.416 152.943 187.47 157.63 182.485C157.745 182.533 157.86 182.581 157.975 182.63C156.938 183.811 155.901 184.994 154.863 186.175C160.846 187.217 169.303 187.815 173.289 183.809C173.537 184.182 173.786 184.556 174.034 184.93C174.01 185.87 173.35 186.785 174.49 186.739C177.907 178.924 179.182 172.648 180.8 165.935C180.359 166.02 179.918 166.104 179.478 166.189C176.085 171.502 156.287 180.513 151.051 181.742C157.448 178.095 163.88 174.462 170.243 170.8C157.636 170.45 148.583 174.282 141.127 186.064ZM150.695 173.909C153.628 172.715 156.562 171.522 159.496 170.328C163.73 170.22 167.965 170.113 172.199 170.004C178.432 168.637 186.122 159.623 190.367 153.78C189.371 153.9 188.375 154.021 187.378 154.141C193.79 150.415 212.471 138.144 214.047 127.334C206.425 134.277 194.844 134.434 184.431 135.109C184.764 136.822 185.478 138.281 183.531 139.179C177.194 145.069 167.978 147.662 162.228 156.109C163.388 155.922 164.548 155.736 165.707 155.549C163.411 156.788 161.887 156.444 160.295 159.745C161.762 159.148 163.229 158.551 164.696 157.955C165.107 158.262 165.518 158.57 165.929 158.878C165.967 159.432 166.004 159.987 166.041 160.542C161.823 167.404 155.058 168.011 150.695 173.909ZM204.34 72.3C207.081 71.5648 209.822 70.8296 212.563 70.0944C206.77 74.4631 200.92 79.6585 198.84 90.2094C197.871 95.719 198.355 106.246 193.564 111.447C196.88 103.46 196.428 97.0795 197.662 90.1188C198.974 82.8645 203.93 76.8123 207.329 71.939C206.333 72.0592 205.336 72.1796 204.34 72.3ZM178.209 154.737C178.602 154.767 178.995 154.797 179.388 154.828C179.339 154.942 179.291 155.057 179.243 155.171C178.899 155.027 178.554 154.882 178.209 154.737ZM221.62 67.8345C226.588 65.3649 260.765 57.3175 266.185 58.2538C266.136 58.3682 266.088 58.4827 266.04 58.5975C260.564 62.6317 254.598 66.3556 249.66 71.5296C240.879 80.7302 232.81 98.0807 226.27 109.824C228.059 106.533 229.848 103.24 231.637 99.9475C241.956 83.8205 248.603 70.5372 260.317 60.6405C253.001 61.974 245.654 63.3763 238.324 64.7434C232.282 69.123 230.162 80.1628 223.167 83.4471C227.615 77.3641 232.064 71.2788 236.512 65.1957C236.397 65.1475 236.283 65.0993 236.168 65.0511C235.775 65.0207 235.382 64.9903 234.99 64.9603C231.589 66.9315 225.81 68.0783 221.62 67.8345ZM180.678 169.119C181.565 174.525 177.518 184.193 173.423 188.313C181.555 189.184 191.516 177.075 195.771 179.506C195.894 180.501 196.016 181.496 196.138 182.491C202.218 168.421 198.33 158.567 204.125 144.194C203.847 144.212 203.569 144.23 203.291 144.248C196.308 153.995 186.38 156.303 180.678 169.119ZM203.514 147.577C202.847 150.127 202.181 152.679 201.514 155.229C200.399 163.984 200.804 171.791 196.827 182.781C197.92 182.432 199.013 182.082 200.106 181.732C204.108 176.25 207.387 173.512 213.029 172.201C213.506 164.819 219.185 156.445 222.818 150.837C230.629 138.778 232.679 120.032 227.904 111.725C221.365 126.957 210.394 134.871 203.514 147.577ZM255.479 25.8509C257.753 26.3271 267.177 39.9036 268.661 42.7138C261.429 38.1364 260.052 31.1787 255.479 25.8509ZM211.447 133.522C212.863 132.787 214.881 130.643 214.992 128.945C213.811 130.47 212.629 131.996 211.447 133.522ZM219.159 116.137C219.255 115.908 219.351 115.679 219.447 115.45C219.532 116.191 219.73 115.658 219.159 116.137ZM243.827 84.446C244.02 83.9875 244.212 83.5293 244.405 83.0708C244.52 83.119 244.634 83.1672 244.749 83.2156C244.442 83.6257 244.134 84.0357 243.827 84.446ZM244.749 83.2156C256.471 57.9743 286.64 49.7658 309.648 52.2543C309.437 52.4353 309.226 52.6163 309.015 52.7969C290.489 51.3798 279.339 78.2693 269.289 97.168C271.089 93.2067 272.889 89.2442 274.689 85.2828C277.085 80.2244 279.496 75.1303 281.878 70.1057C286.397 63.455 291.716 59.6113 296.912 54.5862C281.304 55.952 268.501 57.5591 256.851 68.8895C252.831 73.6305 248.783 78.4407 244.749 83.2156ZM276.705 17.7858C294.334 16.644 304.737 34.6375 321.405 37.7837C335.973 40.5332 350.347 40.9378 363.358 39.238C371.329 38.2743 379.303 37.3106 387.274 36.3473C387.063 36.528 386.852 36.709 386.641 36.8897C379.718 38.0247 372.726 39.1307 365.77 40.2514C353.589 42.0796 340.807 42.3453 326.917 40.1002C309.392 37.3277 294.158 24.3461 276.705 17.7858ZM268.516 43.0575C268.909 43.0875 269.302 43.118 269.695 43.1482C269.646 43.2626 269.598 43.3771 269.55 43.4919C269.206 43.3473 268.861 43.2023 268.516 43.0575ZM232.608 142.01C232.705 141.781 232.801 141.551 232.897 141.322C233.001 142.04 233.105 142.758 233.209 143.475C233.009 142.987 232.808 142.498 232.608 142.01ZM291.778 50.4065C292.496 50.304 293.215 50.2013 293.934 50.0992C293.723 50.2799 293.512 50.4609 293.301 50.6419C292.793 50.5632 292.285 50.4847 291.778 50.4065ZM293.934 50.0992C298.828 47.9863 306.323 47.317 312.215 48.0756C312.263 47.9612 312.311 47.8467 312.36 47.7319C311.834 47.3763 311.307 47.0205 310.782 46.6645C319.333 49.2594 328.252 46.1051 335.986 45.5291C349.762 44.5783 363.644 43.6707 377.317 42.6772C384.503 41.6537 391.691 40.6295 398.877 39.6053C398.177 39.9852 397.477 40.3652 396.776 40.745C389.38 42.0443 381.884 43.384 374.439 44.7029C347.607 46.5018 320.766 48.3004 293.934 50.0992ZM255.536 144.365C255.87 147.949 254.224 153.123 254.014 156.667C254.244 156.763 254.474 156.86 254.704 156.956C255.636 152.351 259.305 148.833 261.481 145.651C261.596 145.699 261.711 145.747 261.826 145.796C259.704 149.8 254.809 155.886 255.126 160.774C255.337 160.593 255.548 160.412 255.759 160.231C264.603 156.718 260.744 145.293 265.804 140.188C269.125 136.838 273.985 134.135 277.35 130.077C267.702 130.556 260.481 131.954 255.536 144.365ZM258.469 143.172C259.914 141.848 261.438 141.215 263.359 141.182C261.73 141.845 260.099 142.509 258.469 143.172ZM284.862 124.741C285.477 123.921 286.092 123.101 286.706 122.281C286.821 122.329 286.936 122.378 287.051 122.426C286.358 123.752 285.666 125.079 284.973 126.406C284.936 125.851 284.899 125.296 284.862 124.741ZM284.795 128.758C284.94 128.414 285.084 128.07 285.229 127.726C285.344 127.775 285.459 127.823 285.573 127.871C285.19 132.41 284.755 136.097 281.752 140.824C281.637 140.776 281.522 140.727 281.407 140.679C283.738 136.67 285.496 132.835 284.795 128.758ZM279.996 142.108C280.352 141.583 280.707 141.059 281.063 140.534C281.178 140.583 281.292 140.631 281.407 140.679C280.937 141.155 280.466 141.632 279.996 142.108ZM298.229 109.33C299.217 117.834 294.022 128.678 297.999 135.924C300.522 130.779 302.053 127.946 305.922 126.717C307.922 124.242 308.227 119.492 310.655 117.383C309.065 120.542 305.923 125.438 306.867 128.327C311.041 122.912 317.205 120.401 321.613 113.495C326.064 106.52 322.187 94.2731 329.478 90.9185C330.023 91.5514 330.568 92.1852 331.113 92.8181C332.135 85.3332 327.847 79.561 326.932 72.863C327.102 69.5649 327.272 66.2656 327.442 62.9671C324.55 67.2782 321.656 71.5902 318.764 75.9008C320.89 71.807 323.016 67.7123 325.141 63.6183C320.733 71.6565 314.644 76.4602 310.552 85.7957C310.83 85.7773 311.108 85.7595 311.385 85.7411C312 84.9214 312.615 84.1013 313.23 83.2812C313.345 83.3294 313.46 83.3776 313.575 83.4258C308.46 92.06 303.344 100.696 298.229 109.33ZM314.352 82.5395C314.967 81.7197 315.582 80.8996 316.197 80.0799C316.101 80.3088 316.005 80.538 315.908 80.767C318.901 87.6981 322.832 105.165 312.933 113.891C317.642 104.205 320.758 86.5139 314.352 82.5395ZM317.553 77.8182C317.745 77.3601 317.938 76.9019 318.13 76.4438C318.245 76.4921 318.36 76.5403 318.475 76.5885C318.167 76.9985 317.86 77.4084 317.553 77.8182ZM391.852 32.2053C396.069 31.3027 402.654 32.8722 407.767 34.8491C405.576 37.104 403.891 38.7269 400.832 38.8099C402.588 37.5257 404.344 36.2414 406.1 34.9574C402.537 35.0773 398.972 35.1973 395.409 35.3172C396.435 34.8048 397.461 34.2926 398.487 33.7802C396.276 33.255 394.064 32.7302 391.852 32.2053ZM409.167 38.2686C410.072 36.8618 409.912 37.0793 411.068 36.6408C410.435 37.1831 409.801 37.7259 409.167 38.2686Z" fill="#EB5C37" fill-opacity="0.15"/>
</svg>
