<svg width="558" height="401" viewBox="0 0 558 401" fill="none" xmlns="http://www.w3.org/2000/svg">
<path opacity="0.15" fill-rule="evenodd" clip-rule="evenodd" d="M183.783 399.895C183.359 399.932 182.935 399.969 182.511 400.007C182.769 399.7 183.027 399.393 183.285 399.085C183.451 399.355 183.617 399.625 183.783 399.895ZM181.515 398.388C180.568 397.333 179.621 396.279 178.674 395.224C178.637 394.801 178.6 394.377 178.563 393.954C179.012 394.199 179.461 394.444 179.909 394.689C180.444 395.922 180.98 397.155 181.515 398.388ZM185.679 397.169C185.825 396.76 185.315 396.913 186.029 396.285C185.912 396.58 185.796 396.875 185.679 397.169ZM187.227 395.327C186.944 395.352 186.661 395.377 186.378 395.402C187.953 389.007 189.528 382.61 191.102 376.215C191.244 376.203 191.385 376.191 191.526 376.178C191.581 383.342 189.433 389.9 187.227 395.327ZM177.678 393.605C175.681 391.932 173.682 390.258 171.685 388.585C171.943 388.278 172.2 387.971 172.458 387.664C172.907 387.909 173.356 388.154 173.804 388.399C175.095 390.134 176.387 391.87 177.678 393.605ZM171.573 387.315C165.064 385.358 162.438 373.816 164.592 366.17C163.137 367.435 161.682 368.701 160.227 369.966C160.232 368.401 160.237 366.836 160.242 365.271C160.611 366.235 160.981 367.198 161.35 368.161C162.547 367.203 163.745 366.244 164.942 365.286C164.991 365.85 165.041 366.415 165.09 366.98C162.791 375.786 168.402 381.284 171.573 387.315ZM192.151 373.564C192.065 372.576 191.978 371.588 191.891 370.6C192.033 370.588 192.174 370.575 192.315 370.563C192.26 371.564 192.206 372.564 192.151 373.564ZM193.163 370.489C192.88 370.513 192.598 370.538 192.315 370.563C192.466 366.083 193.96 362.681 196.547 360.379C195.512 363.899 193.829 366.297 193.163 370.489ZM179.54 366.138C179.361 365.727 179.183 365.316 179.004 364.905C179.146 364.893 179.287 364.88 179.428 364.868C179.465 365.291 179.503 365.715 179.54 366.138ZM297.766 355.338C283.721 356.603 273.751 350.22 260.055 353.954C263.956 343.594 269.589 339.392 277.845 332.769C277.372 330.304 277.066 331.088 277.548 329.382C281.466 327.56 282.979 325.161 285.468 322.287C282.05 335.338 268.471 339.018 263.223 351.116C263.377 351.245 263.531 351.374 263.684 351.503C266.269 350.193 271.341 347.474 274.059 348.032C271.756 349.372 269.453 350.712 267.15 352.051C279.103 351.148 288.291 356.975 301.008 353.347C311.04 350.485 313.803 337.614 325.401 339.262C325.616 340.095 325.832 340.93 326.047 341.764C325.594 343.084 325.14 344.404 324.686 345.723C334.147 342.809 340.206 338.31 346.186 332.745C344.296 338.079 330.791 349.576 323.065 346.719C322.475 346.486 321.885 346.253 321.295 346.021C321.541 345.573 321.786 345.124 322.032 344.677C322.971 344.025 323.911 343.374 324.85 342.723C324.382 340.212 323.977 340.101 322.397 339.099C322.139 339.405 321.881 339.713 321.623 340.019C317.246 343.674 312.825 347.333 308.489 350.984C304.915 352.435 301.34 353.887 297.766 355.338ZM203.166 362.785C202.152 362.59 201.138 362.394 200.124 362.199C200.357 361.61 200.59 361.02 200.823 360.431C203.252 361.434 203.999 360.489 205.947 360.408C205.02 361.2 204.093 361.993 203.166 362.785ZM293.653 352.286C293.088 352.336 292.523 352.385 291.958 352.435C292.639 352.09 293.321 351.746 294.003 351.402C293.886 351.697 293.77 351.991 293.653 352.286ZM210.959 359.115C209.547 358.702 210.453 359.167 209.613 358.38C210.062 358.625 210.511 358.87 210.959 359.115ZM202.057 359.896C201.983 359.05 201.909 358.203 201.835 357.356C202.13 357.472 202.425 357.589 202.72 357.705C202.732 357.846 202.745 357.987 202.757 358.128C202.524 358.718 202.291 359.307 202.057 359.896ZM296.122 351.216C295.557 351.265 294.992 351.315 294.427 351.365C294.697 351.199 294.967 351.033 295.237 350.867C296.563 349.755 297.89 348.643 299.216 347.531C298.185 348.76 297.154 349.988 296.122 351.216ZM197.745 359.421C197.609 358.398 197.798 358.057 198.37 356.807C200.295 356.662 200.813 356.677 201.835 357.356C199.679 357.733 198.778 358.193 197.745 359.421ZM226.048 350.965C225.771 349.425 225.494 347.885 225.216 346.345C225.075 346.358 224.934 346.37 224.792 346.382C219.357 348.783 218.078 354.267 212.893 356.812C215.987 353.128 219.081 349.443 222.175 345.759C225.906 345.451 226.542 346.186 227.596 349.123C247.388 347.444 245.713 333.349 254.986 325.389C255.368 326.493 255.749 327.597 256.131 328.702C256.788 328.075 257.445 327.448 258.102 326.822C259.238 324.07 263.49 319.958 266.372 318.844C268.632 318.645 270.893 318.447 273.154 318.248C275.615 315.473 278.078 312.697 280.539 309.921C287.14 305.646 293.743 301.368 300.344 297.092C295.927 303.57 290.017 305.437 282.659 309.735C279.669 312.984 276.678 316.233 273.689 319.481C271.017 319.858 268.344 320.235 265.672 320.611C262.671 323.719 259.668 326.827 256.666 329.934C255.37 329.764 254.073 329.593 252.777 329.422C251.397 340.275 239.296 349.879 226.048 350.965ZM281.524 350.364C281.242 350.388 280.959 350.413 280.677 350.438C282.224 348.596 283.771 346.753 285.318 344.911C285.152 344.642 284.986 344.372 284.82 344.102C279.839 344.415 277.717 342.964 273.962 342.068C273.95 341.927 273.937 341.786 273.925 341.645C278.432 341.77 285.337 342.193 288.671 344.191C285.427 345.473 283.125 347.7 281.524 350.364ZM448.599 185.535C447.057 185.812 445.515 186.09 443.973 186.367C444.709 177.6 450.743 171.814 452.713 164.27C452.463 158.177 452.213 152.083 451.964 145.991C453.776 137.442 455.589 128.891 457.401 120.343C457.26 120.356 457.119 120.368 456.977 120.381C449.322 127.388 446.795 138.823 439.136 145.837C441.962 137.319 450.215 123.375 457.677 118.613C457.972 118.729 458.267 118.845 458.562 118.962C458.74 119.372 458.919 119.784 459.097 120.195C456.575 128.861 454.333 138.487 453.458 148.419C452.886 154.909 455.106 160.928 453.747 166.312C451.155 172.469 448.569 178.712 445.981 184.911C447.265 184.941 448.549 184.97 449.833 185C451.13 203.27 428.515 207.477 423.631 222.281C423.798 222.551 423.963 222.821 424.13 223.091C425.106 222.863 426.083 222.635 427.06 222.407C427.761 234.815 412.686 240.222 407.559 248.435C403.893 254.013 403.044 263.47 399.942 268.728C391.98 282.119 384.239 290.401 386.315 313.012C389.005 311.212 391.694 309.412 394.384 307.611C400.445 315.857 401.82 326.064 408.869 331.511C408.219 326.535 407.756 320.963 409.836 318.201C412.373 319.106 411.973 320.035 413.8 319.559C413.854 318.559 413.909 317.559 413.964 316.559C414.05 317.547 414.137 318.535 414.224 319.522C414.752 319.05 415.28 318.576 415.808 318.103C416.46 308.706 415.609 283.249 429.463 288.749C430.115 289.687 430.767 290.625 431.419 291.563C430.886 293.601 430.353 295.639 429.82 297.677C429.973 297.805 430.127 297.934 430.281 298.062C430.692 297.884 431.104 297.706 431.515 297.528C433.699 293.213 435.884 288.896 438.068 284.581C438.105 285.004 438.142 285.428 438.18 285.851C436.733 290.589 433.939 293.603 432.4 297.876C441.558 292.911 439.536 280.082 448.844 275.956C448.475 274.993 448.105 274.03 447.736 273.067C448.185 273.312 448.634 273.557 449.082 273.802C449.605 274.894 450.128 275.986 450.651 277.077C450.921 276.911 451.192 276.746 451.461 276.58C452.675 263.203 454.192 248.06 460.983 239.055C463.738 238.764 465.183 239.002 467.029 239.804C467.436 241.191 467.842 242.578 468.248 243.963C468.365 243.669 468.481 243.374 468.598 243.08C469.243 242.312 469.887 241.544 470.532 240.777C470.44 241.354 470.348 241.931 470.257 242.508C482.125 234.824 484.726 224.457 481.199 206.565C481.34 206.552 481.481 206.54 481.623 206.527C482.831 210.5 485.935 214.054 485.354 219.852C484.223 231.157 476.639 241.314 468.047 246.541C467.316 246.321 466.585 246.1 465.854 245.88C465.834 244.034 465.814 242.186 465.795 240.339C463.069 240.339 462.035 240.097 460.322 241.246C458.525 248.088 455.022 276.165 450.413 279.231C449.632 278.447 448.851 277.662 448.071 276.877C447.542 277.35 447.015 277.823 446.486 278.296C445.105 283.424 436.106 303.533 428.235 299.095C428.941 296.801 429.94 293.301 428.764 290.517C428.432 289.977 428.1 289.437 427.768 288.898C426.92 288.972 426.072 289.046 425.225 289.121C417.858 299.798 420.569 310.181 415.22 321.141C414.243 321.369 413.267 321.597 412.29 321.825C411.497 320.899 410.704 319.974 409.911 319.048C409.982 324.729 410.053 330.412 410.125 336.093C399.013 328.907 399.986 319.807 393.224 308.993C391.677 310.835 390.13 312.678 388.583 314.52C388.442 314.532 388.301 314.544 388.159 314.557C387.299 314.49 386.439 314.424 385.579 314.357C383.248 304.574 385.153 296.191 386.667 287.811C386.525 287.823 386.384 287.836 386.243 287.848C380.729 292.942 380.205 301.675 374.201 306.396C372.727 305.814 371.252 305.233 369.777 304.651C365.759 308.442 365.641 317.227 361.328 320.324C357.904 322.783 354.368 322.224 351.065 325.064C351.311 324.616 351.556 324.168 351.802 323.72C353.195 319.826 358.849 318.98 361.878 316.863C362.078 300.838 373.938 307.049 377.957 300.521C379.73 296.384 381.503 292.246 383.275 288.108C390.871 276.187 400.619 265.753 405.238 251.199C407.976 241.803 405.838 225.43 411.741 218.205C412.921 218.671 414.101 219.136 415.28 219.601C415.551 219.435 415.821 219.27 416.091 219.104C414.184 201.893 411.518 185.603 411.745 169.571C411.886 169.558 412.027 169.546 412.169 169.534C412.416 185.331 415.376 201.897 416.44 218.219C416.711 218.054 416.981 217.888 417.252 217.722C418.432 210.082 419.613 202.44 420.793 194.801C421.849 206.474 419.599 216.001 415.154 223.025C414.859 222.909 414.564 222.793 414.269 222.677C413.9 221.713 413.53 220.75 413.161 219.787C412.75 219.966 412.338 220.144 411.927 220.322C409.797 228.292 407.609 237.621 407.835 246.705C413.837 241.062 423.893 232.412 425.9 223.789C423.685 223.684 423.905 224.241 422.397 222.816C427.266 207.632 448.715 200.529 448.599 185.535ZM160.659 355.423C160.364 355.306 160.069 355.19 159.775 355.074C159.821 350.633 160.532 346.524 163.084 344.118C162.276 347.886 161.468 351.655 160.659 355.423ZM122.934 358.733C122.651 358.758 122.369 358.783 122.086 358.808C122.485 358.488 122.884 358.168 123.284 357.849C123.167 358.144 123.05 358.438 122.934 358.733ZM111.452 359.314C111.597 358.905 111.087 359.058 111.801 358.43C111.685 358.725 111.568 359.019 111.452 359.314ZM304.705 341.93C304.624 340.498 305.858 338.002 307.226 336.59C306.386 338.37 305.545 340.151 304.705 341.93ZM185.981 351.921C186.02 351.292 185.757 351.386 186.293 350.614C186.189 351.049 186.085 351.486 185.981 351.921ZM127.061 357.091C126.754 356.834 126.446 356.576 126.139 356.319C126.268 356.165 126.397 356.012 126.526 355.858C126.821 355.975 127.116 356.091 127.411 356.207C127.294 356.502 127.178 356.796 127.061 357.091ZM112.649 358.355C112.367 358.38 112.084 358.405 111.801 358.43C112.2 358.111 112.6 357.791 112.999 357.472C112.882 357.766 112.766 358.061 112.649 358.355ZM295.231 341.055C294.807 341.092 294.383 341.13 293.959 341.167C294.5 340.835 295.04 340.503 295.58 340.171C295.464 340.466 295.347 340.761 295.231 341.055ZM186.717 350.577C186.756 349.947 186.493 350.042 187.029 349.27C186.925 349.705 186.821 350.141 186.717 350.577ZM139.555 353.435C139.106 353.19 138.657 352.945 138.209 352.7C138.491 352.675 138.774 352.65 139.056 352.625C141.421 351.992 143.786 351.357 146.151 350.723C143.953 351.627 141.753 352.531 139.555 353.435ZM131.04 353.755C130.757 353.78 130.475 353.805 130.192 353.83C130.591 353.511 130.991 353.191 131.389 352.871C131.273 353.166 131.157 353.461 131.04 353.755ZM148.307 350.961C147.859 350.716 147.41 350.47 146.962 350.225C147.244 350.2 147.527 350.176 147.81 350.151C151.101 348.725 154.394 347.298 157.686 345.871C155.578 348.438 150.803 348.981 148.307 350.961ZM304.148 335.58C303.582 335.63 303.017 335.68 302.452 335.729C303.263 335.231 304.074 334.733 304.884 334.236C304.639 334.684 304.393 335.132 304.148 335.58ZM308.736 334.324C308.815 333.606 308.895 332.888 308.974 332.17C308.01 332.539 307.046 332.908 306.081 333.278C306.198 332.983 306.314 332.688 306.431 332.393C310.072 330.083 313.714 327.773 317.355 325.463C314.483 328.416 311.609 331.371 308.736 334.324ZM196.259 342.487C195.976 342.512 195.693 342.536 195.411 342.561C195.644 341.972 195.877 341.383 196.11 340.793C197.602 339.952 199.095 339.11 200.587 338.268C199.144 339.674 197.701 341.081 196.259 342.487ZM159.768 345.262C159.344 345.299 158.92 345.336 158.496 345.374C158.987 344.478 159.478 343.581 159.969 342.685C164.567 338.3 169.166 333.914 173.764 329.529C171.601 337.883 163.73 339.813 159.768 345.262ZM303.553 328.806C300.279 328.809 297.004 328.812 293.729 328.815C300.214 328.032 308.481 323.413 314.775 325.262C311.035 326.443 307.294 327.625 303.553 328.806ZM198.669 335.877C198.103 335.926 197.538 335.976 196.973 336.025C196.961 335.884 196.949 335.743 196.936 335.602C197.514 335.693 198.091 335.785 198.669 335.877ZM317.244 324.192C316.679 324.242 316.114 324.291 315.549 324.341C316.23 323.997 316.912 323.652 317.594 323.309C317.477 323.603 317.361 323.898 317.244 324.192ZM320.524 322.624C319.959 322.674 319.394 322.724 318.828 322.773C318.816 322.632 318.803 322.491 318.791 322.35C319.369 322.442 319.946 322.533 320.524 322.624ZM322.182 322.052C321.875 321.795 321.567 321.538 321.26 321.28C322.482 320.604 323.705 319.928 324.926 319.252C324.012 320.185 323.097 321.119 322.182 322.052ZM211.125 331.797C210.701 331.834 210.277 331.871 209.853 331.908C210.394 331.577 210.934 331.245 211.475 330.913C211.358 331.208 211.242 331.502 211.125 331.797ZM413.629 312.749C412.495 311.697 412.237 310.894 411.986 308.627C412.127 308.614 412.269 308.602 412.41 308.589C412.816 309.976 413.223 311.363 413.629 312.749ZM174.909 332.842C174.332 332.75 173.754 332.659 173.177 332.567C174.411 332.032 175.646 331.497 176.88 330.962C176.223 331.589 175.566 332.215 174.909 332.842ZM285.892 322.25C285.246 317.381 293.998 306.287 301.347 308.522C293.711 310.161 288.479 315.923 285.892 322.25ZM217.223 328.275C216.941 328.3 216.658 328.325 216.375 328.35C216.762 327.89 217.149 327.429 217.536 326.969C218.101 326.919 218.666 326.869 219.232 326.82C218.562 327.305 217.893 327.79 217.223 328.275ZM402.423 311.599C400.244 308.001 401.913 300.642 403.39 298.289C403.068 302.725 402.745 307.163 402.423 311.599ZM178.538 330.39C178.256 330.415 177.973 330.44 177.691 330.465C179.765 328.15 181.841 325.834 183.916 323.519C183.977 324.225 184.039 324.93 184.101 325.636C191.874 320.34 209.023 318.847 214.005 311.067C213.402 310.693 212.8 310.319 212.198 309.946C212.314 309.651 212.431 309.356 212.548 309.061C213.37 308.705 214.194 308.348 215.016 307.992C214.005 310.363 215.146 311.026 214.614 313.147C211.771 314.818 208.927 316.489 206.085 318.161C197.592 322.399 185.066 323.998 178.538 330.39ZM129.792 334.668C128.226 334.662 126.659 334.658 125.093 334.653C125.08 334.512 125.068 334.371 125.055 334.229C128.163 333.957 131.272 333.684 134.38 333.411C132.851 333.83 131.322 334.249 129.792 334.668ZM124.705 335.114C123.563 335.072 122.42 335.03 121.278 334.988C121.265 334.847 121.253 334.706 121.24 334.564C122.395 334.747 123.551 334.931 124.705 335.114ZM119.195 335.597C118.771 335.635 118.347 335.672 117.923 335.709C118.181 335.402 118.439 335.095 118.697 334.787C118.863 335.057 119.029 335.327 119.195 335.597ZM221.277 325.787C220.994 325.811 220.711 325.836 220.429 325.861C221.151 324.335 221.695 324.298 223.21 323.484C223.517 323.742 223.825 323.999 224.132 324.256C223.18 324.766 222.228 325.277 221.277 325.787ZM109.758 335.145C109.335 335.182 108.91 335.219 108.487 335.257C108.744 334.95 109.002 334.643 109.26 334.336C109.426 334.606 109.592 334.876 109.758 335.145ZM107.215 335.368C104.788 335.297 102.361 335.225 99.9349 335.154C102.661 334.794 105.533 334.565 107.215 335.368ZM330.987 315.307C329.533 314.943 331.422 313.675 332.036 312.655C328.866 313.727 323.001 315.027 319.744 313.734C325.976 313.355 330.78 312.083 334.818 310.278C334.585 310.868 334.352 311.457 334.118 312.046C337.452 309.479 340.787 306.91 344.121 304.342C344.134 304.484 344.146 304.625 344.159 304.766C341.066 310.171 335.493 309.954 330.987 315.307ZM411.912 307.78C411.506 306.394 411.099 305.007 410.692 303.621C410.834 303.608 410.975 303.596 411.116 303.583C411.382 304.983 411.647 306.382 411.912 307.78ZM120.705 333.331C119.857 333.406 119.009 333.48 118.161 333.555C118.278 333.26 118.395 332.965 118.511 332.671C120.233 332.767 119.427 332.398 120.705 333.331ZM128.297 332.239C126.037 332.437 123.776 332.635 121.515 332.834C121.632 332.539 121.749 332.244 121.865 331.95C128.468 330.944 135.073 329.938 141.676 328.932C137.217 330.034 132.757 331.137 128.297 332.239ZM144.183 328.285C143.464 328.206 142.745 328.127 142.026 328.048C142.296 327.882 142.566 327.716 142.836 327.55C144.224 327.144 145.613 326.738 147.001 326.332C146.061 326.983 145.122 327.634 144.183 328.285ZM149.968 326.071C149.249 325.992 148.53 325.913 147.811 325.834C148.72 324.843 149.369 324.071 150.705 324.726C152.197 323.885 153.689 323.043 155.181 322.201C153.444 323.491 151.705 324.781 149.968 326.071ZM161.964 321.605C161.681 321.63 161.398 321.655 161.115 321.68C163.847 318.739 166.58 315.796 169.312 312.855C166.352 314.821 163.391 316.788 160.432 318.754C160.548 318.459 160.665 318.164 160.781 317.87C165.441 314.191 170.103 310.51 174.763 306.831C173.615 308.353 172.467 309.877 171.319 311.399C175.181 308.359 179.044 305.317 182.906 302.277C177.782 310.242 167.375 313.945 161.964 321.605ZM360.727 303.739C359.927 302.798 359.846 302.969 360.117 301.659C360.259 301.647 360.4 301.634 360.541 301.622C360.603 302.328 360.665 303.033 360.727 303.739ZM187.248 317.68C186.919 311.755 202.368 294.794 210.623 296.858C199.719 299.761 192.114 309.486 187.248 317.68ZM237.229 312.869C236.805 312.906 236.381 312.943 235.957 312.98C235.944 312.839 235.932 312.698 235.92 312.557C239.303 310.554 242.688 308.55 246.071 306.547C246.059 306.405 246.046 306.264 246.034 306.123C240.528 307.302 234.383 308.762 228.692 308.072C228.679 307.93 228.667 307.789 228.655 307.648C250.206 306.839 255.642 297.457 269.007 290.456C262.467 302.197 247.164 303.927 237.229 312.869ZM309.951 304.355C308.655 303.709 309.682 303.473 310.189 302.2C309.482 302.262 308.776 302.324 308.069 302.386C313.355 285.425 339.211 288.378 345.574 272.219C345.396 271.808 345.217 271.397 345.039 270.986C342.619 271.225 341.549 271.095 340.265 270.125C347.891 258.482 367.444 258.217 362.562 237.025C361.419 236.983 360.276 236.942 359.133 236.899C355.978 241.088 330.794 265.507 325.444 266.732C325.37 265.886 325.295 265.039 325.221 264.193C327.24 264.961 326.697 265.504 328.151 263.509C338.344 254.083 348.704 244.598 358.985 235.206C360.755 235.904 362.525 236.602 364.295 237.3C368.142 248.079 360.601 259.664 352.536 263.929C348.343 266.146 344.476 266.138 341.923 269.553C341.936 269.694 341.948 269.835 341.96 269.976C344.623 269.692 345.24 269.724 346.348 271.298C346.538 271.85 346.729 272.402 346.92 272.954C339.785 286.675 320.255 289.537 309.579 300.121C310.885 301.905 311.26 302.009 310.761 303.857C310.491 304.023 310.221 304.189 309.951 304.355ZM360.355 299.505C356.893 295.739 359.926 286.646 362.06 284.85C360.967 289.535 359.574 292.696 360.355 299.505ZM397.047 294.152C396.163 293.132 396.641 293.512 397.784 292.808C397.538 293.256 397.293 293.705 397.047 294.152ZM348.688 297.969C340.999 295.357 328.552 300.36 320.488 297.884C320.771 297.859 321.054 297.834 321.336 297.809C329.352 293.719 342.964 297.725 350.971 294.782C350.21 295.845 349.449 296.907 348.688 297.969ZM375.779 295.166C375.601 294.755 375.422 294.343 375.244 293.933C375.385 293.921 375.526 293.908 375.668 293.896C375.705 294.319 375.742 294.742 375.779 295.166ZM170.159 312.781C170.405 312.333 170.65 311.884 170.895 311.437C170.509 311.897 170.122 312.358 169.735 312.818C169.877 312.805 170.018 312.793 170.159 312.781ZM407.035 291.143C405.772 288.889 409.21 283.999 409.958 280.648C406.287 284.24 402.615 287.834 398.944 291.427C400.296 287.928 403.523 286.533 405.98 283.984C413.174 273.968 420.446 263.857 427.689 253.922C421.234 256.621 414.778 259.321 408.324 262.02C408.44 261.726 408.557 261.431 408.674 261.136C416.221 257.915 423.771 254.692 431.318 251.47C437.051 246.852 440.728 239.423 444.668 233.234C459.117 210.538 476.681 186.161 479.135 153.845C479.277 153.833 479.418 153.82 479.559 153.808C480.725 173.856 470.506 186.888 467.65 203.061C466.304 201.717 467.728 201.912 465.88 202.363C464.711 211.355 458.535 218.577 454.21 225.144C439.372 247.675 415.545 263.346 407.035 291.143ZM118.795 316.435C115.073 316.915 112.077 316.682 110.132 315.062C114.807 315.675 120.405 316.491 123.161 312.638C123.149 312.497 123.136 312.356 123.124 312.215C122.251 312.007 121.378 311.799 120.506 311.591C120.493 311.45 120.481 311.309 120.469 311.168C121.624 311.351 122.779 311.534 123.934 311.717C123.984 312.282 124.033 312.846 124.083 313.411C122.321 314.418 120.557 315.427 118.795 316.435ZM92.0904 318.778C91.8081 318.803 91.5254 318.827 91.2427 318.852C91.6418 318.533 92.0412 318.213 92.4404 317.893C92.3236 318.188 92.2073 318.483 92.0904 318.778ZM376.404 292.551C375.308 289.456 379.176 280.885 381.113 278.059C379.539 282.848 377.973 287.721 376.404 292.551ZM108.473 315.633C107.472 315.579 106.471 315.525 105.469 315.471C107.588 315.235 107.163 314.941 108.473 315.633ZM158.618 307.821C153.288 308.396 148.985 308.034 144.905 307.317C144.893 307.176 144.88 307.035 144.868 306.894C151.184 306.34 157.585 305.779 163.943 305.221C162.168 306.087 160.393 306.954 158.618 307.821ZM119.584 310.819C119.509 309.973 119.435 309.126 119.361 308.279C119.656 308.395 119.951 308.512 120.246 308.628C120.258 308.769 120.271 308.91 120.283 309.052C120.05 309.641 119.817 310.23 119.584 310.819ZM229.332 300.763C228.909 300.8 228.484 300.837 228.06 300.875C228.048 300.733 228.036 300.592 228.023 300.451C231.11 299.261 234.436 297.128 236.055 294.627C231.347 293.917 220.574 295.353 216.371 294.221C223.344 293.131 230.687 292.746 236.405 293.743C236.455 294.308 236.504 294.872 236.554 295.437C235.676 299.127 232.165 298.86 229.332 300.763ZM439.54 281.892C439.747 277.75 439.953 273.607 440.159 269.465C440.3 269.453 440.441 269.441 440.582 269.428C440.235 273.582 439.888 277.738 439.54 281.892ZM143.634 307.429C143.056 307.338 142.479 307.246 141.901 307.155C142.159 306.848 142.417 306.54 142.675 306.233C142.994 306.632 143.314 307.031 143.634 307.429ZM178.779 303.919C178.496 303.944 178.214 303.969 177.931 303.993C181.411 299.848 184.892 295.703 188.373 291.558C166.184 293.753 144.456 294.779 124.456 293.327C116.188 293.199 107.917 293.072 99.6481 292.944C102.05 292.733 104.452 292.523 106.854 292.312C98.6023 292.681 92.0059 290.851 85.2888 289.938C85.2764 289.797 85.264 289.656 85.2516 289.514C92.7094 290.14 100.17 290.765 107.627 291.39C122.61 292.668 140.736 286.492 153.704 290.76C147.912 291.269 142.117 291.777 136.325 292.285C154.481 291.83 172.979 291.345 191.303 290.874C190.155 292.397 189.007 293.92 187.859 295.443C184.833 298.268 181.805 301.094 178.779 303.919ZM141.477 307.192C135.321 306.759 127.253 307.672 120.67 308.591C120.786 308.296 120.903 308.001 121.019 307.707C125.907 306.241 137.973 303.144 141.477 307.192ZM93.854 309.664C92.4284 309.647 91.0028 309.63 89.5776 309.613C89.5652 309.471 89.5529 309.33 89.5404 309.189C97.9722 307.703 105.124 298.733 113.606 301.105C113.618 301.246 113.63 301.387 113.643 301.528C107.047 304.24 100.408 306.956 93.854 309.664ZM306.568 290.146C306.434 286.062 319.376 266.752 323.986 264.727C318.181 273.199 312.374 281.674 306.568 290.146ZM271.386 293.233C270.935 287.849 287.364 274.787 290.463 267.242C290.77 267.5 291.078 267.757 291.385 268.014C286.827 278.516 277.223 284.021 271.386 293.233ZM185.338 300.783C185.055 300.808 184.773 300.833 184.49 300.858C186.62 296.917 194.606 288.793 201.089 290.442C193.968 291.665 188.25 295.925 185.338 300.783ZM362.484 284.813C362.522 284.184 362.26 284.278 362.796 283.506C362.692 283.942 362.588 284.378 362.484 284.813ZM170.004 301.276C169.722 301.301 169.439 301.326 169.156 301.35C169.86 300.872 169.216 300.956 170.004 301.276ZM212.281 296.286C211.715 296.336 211.15 296.385 210.585 296.435C210.573 296.294 210.561 296.153 210.548 296.012C211.126 296.103 211.703 296.195 212.281 296.286ZM170.74 299.931C170.304 298.978 170.715 298.354 171.365 297.317C171.157 298.188 170.949 299.06 170.74 299.931ZM216.021 295.105C215.456 295.155 214.891 295.204 214.326 295.254C214.313 295.113 214.301 294.972 214.289 294.83C214.866 294.922 215.444 295.013 216.021 295.105ZM87.9346 305.49C87.3572 305.399 86.7797 305.307 86.2023 305.216C86.1899 305.075 86.1775 304.934 86.1652 304.793C86.7549 305.025 87.3448 305.258 87.9346 305.49ZM166.666 297.303C157.671 298.216 147.92 299.055 141.084 297.841C141.072 297.699 141.059 297.558 141.047 297.417C149.544 297.383 158.126 297.341 166.666 297.303ZM116.997 300.807C116.432 300.857 115.867 300.906 115.301 300.956C115.418 300.662 115.534 300.367 115.651 300.072C116.899 300.189 117.697 299.554 116.997 300.807ZM119.927 300.124C119.349 300.032 118.772 299.941 118.194 299.849C118.182 299.708 118.17 299.567 118.157 299.425C119.474 299.438 120.684 298.799 119.927 300.124ZM137.693 298.138C137.41 298.163 137.128 298.188 136.845 298.213C137.549 297.734 136.905 297.818 137.693 298.138ZM382.235 276.254C382.173 275.549 382.111 274.843 382.05 274.138C382.191 274.125 382.332 274.113 382.473 274.1C382.394 274.818 382.315 275.537 382.235 276.254ZM203.172 289.833C202.606 289.883 202.041 289.932 201.476 289.982C201.464 289.841 201.451 289.7 201.439 289.559C202.017 289.65 202.594 289.742 203.172 289.833ZM440.932 268.545C437.279 261.616 440.749 250.378 441.396 244.613C441.537 244.601 441.678 244.588 441.819 244.576C441.731 252.342 440.287 259.575 440.932 268.545ZM214.579 288.406C212.448 288.45 210.316 288.495 208.184 288.54C208.466 288.516 208.749 288.491 209.032 288.466C211.562 288.101 214.094 287.737 216.625 287.373C215.943 287.717 215.261 288.061 214.579 288.406ZM220.863 287.001C220.144 286.922 219.425 286.843 218.706 286.763C218.694 286.622 218.682 286.481 218.669 286.34C232.599 282.843 246.534 279.344 260.464 275.847C247.265 279.565 234.062 283.283 220.863 287.001ZM383.597 272.295C383.535 271.59 383.473 270.884 383.411 270.179C383.552 270.166 383.694 270.154 383.835 270.141C383.755 270.859 383.676 271.578 383.597 272.295ZM202.175 288.214C196.628 288.274 191.037 288.338 185.533 288.394C194.055 287.855 209.233 288.126 213.286 283.399C207.218 285.841 194.683 284.351 190.449 281.138C210.164 282.476 221.862 282.517 240.467 276.749C245.171 275.29 256.054 274.864 257.898 270.953C256.486 270.539 257.392 271.005 256.552 270.218C256.694 270.206 256.835 270.193 256.976 270.181C259.274 270.405 261.572 270.631 263.869 270.855C261.282 273.129 256.49 273.157 252.648 274.4C241.132 277.828 229.613 281.256 218.097 284.684C212.79 285.861 207.482 287.038 202.175 288.214ZM278.824 280.636C278.422 279.471 278.754 279.125 279.873 277.984C279.523 278.867 279.173 279.752 278.824 280.636ZM368.189 271.941C368.227 271.312 367.965 271.406 368.501 270.634C368.397 271.069 368.293 271.506 368.189 271.941ZM384.259 270.104C384.718 267.22 385.177 264.336 385.635 261.451C385.777 261.439 385.918 261.426 386.059 261.414C386.121 262.12 386.183 262.825 386.245 263.531C385.583 265.722 384.921 267.913 384.259 270.104ZM167.194 288.724C166.629 288.774 166.064 288.823 165.499 288.873C165.486 288.731 165.474 288.59 165.462 288.449C166.039 288.541 166.616 288.632 167.194 288.724ZM372.316 270.299C376.739 260.669 381.162 251.035 385.585 241.405C384.847 253.252 377.673 261.087 372.316 270.299ZM369.311 270.136C369.35 269.507 369.088 269.601 369.624 268.829C369.52 269.264 369.416 269.7 369.311 270.136ZM162.881 288.249C155.364 288.645 148.291 286.363 142.475 284.493C112.894 274.986 114.453 251.666 95.9573 231.408C89.9893 224.871 83.3092 223.26 75.731 219.958C70.8958 217.85 67.8633 214.714 60.7618 214.872C61.0198 214.565 61.2778 214.258 61.5353 213.951C78.9533 215.994 94.8799 225.877 104.903 240.862C110.733 249.676 114.531 269.051 124.755 272.396C124.742 272.108 124.421 270.853 125.105 271.512C131.066 285.127 149.314 283.306 162.881 288.249ZM281.493 276.988C280.032 276.741 281.328 276.39 281.806 275.681C281.702 276.117 281.598 276.553 281.493 276.988ZM370.048 268.792C371.562 264.962 373.078 261.131 374.592 257.301C374.052 257.633 373.512 257.964 372.971 258.296C384.407 239.082 392.638 215.766 393.843 189.486C393.702 189.498 393.561 189.51 393.42 189.523C391.744 191.518 390.068 193.515 388.392 195.51C386.434 197.53 384.475 199.552 382.517 201.572C384.362 195.472 389.993 189.271 395.205 185.527C395.646 218.824 382.323 245.454 370.048 268.792ZM147.049 287.931C135.508 287.432 124.537 280.572 119.632 272.419C122.269 274.89 124.906 277.361 127.544 279.831C134.045 282.531 140.548 285.232 147.049 287.931ZM283.003 274.723C282.721 274.748 282.438 274.773 282.155 274.797C282.859 274.319 282.215 274.403 283.003 274.723ZM155.415 285.918C147.893 284.159 142.012 275.61 140.878 266.289C141.02 266.277 141.161 266.264 141.302 266.252C143.135 276.573 149.893 280.023 155.415 285.918ZM82.0832 292.352C81.0962 291.439 81.9004 292.416 81.5478 291.119C81.8181 290.953 82.0886 290.787 82.3585 290.622C82.7948 290.726 83.2314 290.829 83.6677 290.933C83.68 291.074 83.6924 291.215 83.7048 291.356C83.1641 291.688 82.6238 292.02 82.0832 292.352ZM285.287 271.536C285.004 271.561 284.721 271.586 284.439 271.611C285.408 269.677 286.378 267.743 287.347 265.809C287.206 265.822 287.065 265.834 286.923 265.847C283.756 267.272 278.557 267.86 278.557 267.86C282.401 266.243 286.247 264.626 290.092 263.009C290.104 263.15 290.116 263.291 290.129 263.432C288.515 266.133 286.9 268.835 285.287 271.536ZM83.0948 289.277C80.7975 289.052 78.4989 288.827 76.2012 288.602C76.1888 288.461 76.1765 288.32 76.1641 288.179C78.4742 288.545 80.7851 288.911 83.0948 289.277ZM270.413 272.415C269.848 272.464 269.283 272.514 268.718 272.563C268.706 272.422 268.693 272.281 268.681 272.14C270.824 271.162 272.875 270.188 274.965 270.735C273.448 271.295 271.931 271.855 270.413 272.415ZM309.3 267.723C306.914 262.583 313.355 256.945 314.856 253.156C306.34 256.776 300.266 262.639 292.01 265.4C297.026 257.586 311.861 251.621 322.151 248.677C316.744 254.185 310.208 258.461 309.3 267.723ZM276.586 269.74C276.021 269.789 275.456 269.839 274.89 269.888C275.161 269.723 275.431 269.557 275.701 269.391C276.395 269.188 277.089 268.985 277.784 268.781C277.385 269.101 276.985 269.42 276.586 269.74ZM271.002 269.376C229.899 273.651 211.442 244.339 191.331 223.04C185.518 216.884 172.172 209.638 163.728 205.411C158.052 202.586 151.781 199.061 144.334 198.58C144.322 198.439 144.309 198.298 144.297 198.157C162.774 198.192 173.215 209.773 185.687 217.136C183.417 212.358 181.146 207.579 178.877 202.802C179.018 202.789 179.159 202.777 179.3 202.764C179.325 203.047 179.35 203.329 179.374 203.612C183.31 209.523 187.247 215.435 191.183 221.346C203.837 238.004 221.641 255.875 241.472 263.862C246.804 266.01 260.447 269.997 268.309 267.906C280.188 264.747 289.132 259.11 298.711 254.147C314.266 246.087 329.713 238.93 343.094 229.348C350.392 224.122 361.198 219.004 365.881 211.564C360.641 211.881 355.4 212.199 350.16 212.517C356.862 211.502 363.651 210.479 370.395 209.461C370.021 210.063 369.646 210.665 369.272 211.266C365.164 214.755 361.056 218.245 356.949 221.733C347.8 227.797 338.648 233.863 329.499 239.926C309.998 249.7 290.498 259.561 271.002 269.376ZM203.567 274.867C180.356 277.254 162.38 275.609 148.619 266.89C145.318 263.34 142.016 259.79 138.715 256.24C138.415 257.688 138.115 259.137 137.815 260.585C126.474 255.787 133.312 238.441 127.213 227.386C125.13 223.61 117.505 222.117 113.955 217.457C111.454 217.888 110.614 217.806 108.831 217.48C104.464 209.5 92.8925 202.327 82.6489 201.433C82.6365 201.292 82.6241 201.151 82.6117 201.009C89.4713 201.146 99.6239 204.167 103.738 208.115C105.668 210.647 107.6 213.18 109.531 215.713C111.392 215.833 113.254 215.955 115.115 216.075C115.203 216.119 127.949 226.042 127.949 226.042C132.798 236.015 128.796 252.575 137.168 258.082C137.776 256.891 138.383 255.7 138.991 254.509C143.453 257.342 145.42 263.181 149.817 265.931C164.92 275.376 189.805 276.883 212.669 271.508C212.645 271.226 212.62 270.944 212.595 270.662C200.687 271.741 187.386 265.377 182.821 257.489C180.053 253.108 184.153 247.851 180.933 245.71C177.585 244.866 174.235 244.022 170.886 243.178C166.073 240.85 154.756 227.793 159.741 223.252C159.575 222.982 159.409 222.712 159.242 222.442C157.024 221.5 154.805 220.557 152.587 219.613C152.575 219.472 152.562 219.331 152.55 219.19C154.719 219.569 156.888 219.947 159.057 220.326C159.555 221.135 160.053 221.945 160.552 222.754C153.541 236.376 180.354 241.943 184.621 248.799C176.683 262.852 206.524 267.911 214.752 270.899C214.506 271.347 214.261 271.796 214.015 272.244C210.533 273.118 207.049 273.992 203.567 274.867ZM113.168 281.519C110.165 281.356 107.16 281.193 104.156 281.03C107.251 280.616 110.348 280.202 113.444 279.788C110.05 275.879 107.032 272.044 104.313 268.217C101.978 267.569 99.6426 266.921 97.3078 266.273C92.0905 264.611 87.5416 258.187 86.2212 251.887C86.804 250.414 87.3867 248.94 87.9696 247.468C88.1108 247.455 88.2518 247.443 88.3934 247.43C89.6238 264.631 99.0046 264.094 109.162 269.925C108.133 270.959 108.646 270.773 107.154 271.381C108.383 272.411 109.612 273.441 110.842 274.47C112.133 276.206 113.424 277.942 114.716 279.676C114.2 280.291 113.684 280.905 113.168 281.519ZM248.35 269.231C222.934 268.1 212.134 247.27 197.272 232.331C194.912 231.4 192.552 230.47 190.192 229.539C191.489 229.71 192.786 229.88 194.082 230.051C194.07 229.91 194.057 229.769 194.045 229.628C192.446 227.635 190.847 225.642 189.248 223.649C189.851 224.023 190.453 224.397 191.056 224.77C193.693 227.241 196.33 229.712 198.968 232.182C208.995 242.966 217.831 254.571 230.651 262.251C236.55 264.578 242.451 266.905 248.35 269.231ZM96.8014 279.968C84.757 278.978 78.3899 270.599 72.9761 261.582C71.0574 263.091 70.5341 263.792 68.4252 263.261C66.5819 259.846 64.0904 257.51 62.8339 253.086C62.975 253.074 63.1161 253.061 63.2577 253.049C63.2824 253.331 63.3072 253.613 63.332 253.895C65.6321 257.01 66.8299 260.264 70.0464 262.265C71.434 261.859 72.8229 261.453 74.2106 261.047C78.7673 271.196 87.964 274.797 96.8014 279.968ZM60.2728 282.321C55.1156 280.926 49.725 275.589 48.1003 270.163C48.3954 270.28 48.6906 270.396 48.9853 270.513C51.346 275.74 56.6738 278.427 60.2728 282.321ZM330.635 257.745C330.457 257.334 330.279 256.923 330.1 256.512C330.241 256.5 330.383 256.487 330.524 256.475C330.561 256.898 330.598 257.322 330.635 257.745ZM249.525 263.155C247.25 261.543 245.454 258.724 244.581 255.484C244.722 255.471 244.863 255.459 245.005 255.446C245.03 255.728 245.054 256.011 245.079 256.293C246.561 258.58 248.043 260.868 249.525 263.155ZM119.17 272.033C114.911 269.195 110.151 262.854 107.698 258.109C108.441 258.47 109.185 258.831 109.928 259.192C109.854 258.346 109.779 257.499 109.705 256.653C109.73 256.935 109.755 257.217 109.779 257.499C112.906 262.301 116.041 267.189 119.17 272.033ZM331.885 252.516C331.026 250.624 331.961 247.541 333.024 246.017C332.644 248.183 332.265 250.35 331.885 252.516ZM123.685 269.931C123.34 269.25 122.996 268.569 122.651 267.889C122.793 267.876 122.934 267.864 123.075 267.851C123.1 268.133 123.125 268.416 123.149 268.698C123.328 269.109 123.506 269.52 123.685 269.931ZM45.907 269.502C43.18 267.214 40.9076 262.574 39.8171 258.519C40.4197 258.892 41.0219 259.266 41.6241 259.639C43.4509 262.608 45.2776 265.577 47.1039 268.544C46.9752 268.698 46.8464 268.851 46.7172 269.005C46.4473 269.171 46.1769 269.337 45.907 269.502ZM231.309 225.932C232.593 225.961 233.877 225.99 235.161 226.02C244.099 229.099 247.101 240.138 254.747 244.779C270.436 254.301 299.049 241.765 307.027 232.086C307.015 231.945 307.002 231.804 306.99 231.663C295.451 232.632 279.783 232.113 274.032 226.022C274.24 225.151 274.448 224.279 274.657 223.408C270.853 223.171 267.798 220.93 267.243 216.806C267.912 216.321 268.582 215.835 269.251 215.35C265.979 212.041 260.754 213.063 256.512 211.348C248.726 208.2 243.46 201.074 239.544 193.213C239.918 192.611 240.293 192.009 240.667 191.408C241.669 191.462 242.67 191.516 243.671 191.571C239.957 186.084 226.93 178.384 228.138 170.322C230.51 171.394 232.883 172.466 235.255 173.538C235.666 173.359 236.078 173.181 236.489 173.003C236.507 171.579 236.524 170.156 236.542 168.732C233.015 167.477 229.487 166.223 225.96 164.968C217.415 160.026 222.741 156.721 207.964 154.601C208.056 154.025 208.148 153.448 208.24 152.871C210.002 151.863 211.765 150.855 213.527 149.847C213.141 150.308 212.754 150.769 212.367 151.229C222.679 150.026 233.063 151.164 239.205 155.273C230.944 154.341 224.119 151.979 213.363 152.848C213.53 153.118 213.696 153.388 213.862 153.657C219.985 154.131 222.932 158.002 225.351 162.888C240.606 159.758 252.616 165.92 263.157 170.237C260.898 165.851 256.765 164.282 253.401 161.28C254.12 161.359 254.839 161.438 255.558 161.518C252.154 155.955 247.421 152.585 243.274 148.091C260.234 154.372 266.044 179.88 283.294 185.534C283.244 184.97 283.195 184.405 283.145 183.841C283.17 184.123 283.195 184.405 283.219 184.687C286.128 188.338 289.166 190.873 292.165 194.142C290.063 192.904 287.96 191.666 285.858 190.428C286.381 191.52 286.905 192.612 287.427 193.704C286.825 193.33 286.223 192.956 285.621 192.583C283.317 187.898 279.199 186.993 275.478 184.087C277.151 181.713 269.828 176.993 267.878 175.368C257.152 166.424 243.017 166.735 227.507 163.125C231.396 166.041 235.532 165.42 238.349 169.854C237.779 171.468 237.208 173.082 236.638 174.696C234.918 174.563 233.197 174.429 231.477 174.296C231.49 174.437 231.502 174.578 231.514 174.719C234.715 181.849 240.777 187.434 247.063 191.273C246.817 191.721 246.572 192.169 246.326 192.618C244.784 192.895 243.242 193.172 241.7 193.45C243.942 201.671 251.876 207.932 259.018 210.701C261.953 211.498 268.189 210.409 269.913 213.158C271.65 215.633 269.541 217.378 270.894 219.472C272.701 220.593 274.508 221.715 276.315 222.835C275.681 224.738 275.558 225.411 276.686 227.069C285.166 228.234 303.327 227.315 309.607 232.286C298.383 238.896 276.524 257.246 256.703 247.594C247.173 242.953 242.794 231.625 233.503 226.592C233.233 226.758 232.962 226.924 232.692 227.09C232.699 228.795 232.707 230.502 232.714 232.207C232.444 232.373 232.174 232.539 231.904 232.705C225.696 231.727 222.827 215.074 219.263 210.35C214.743 204.358 212.977 208.36 207.06 207.581C205.088 207.281 202.65 203.956 200.68 203.022C200.318 203.764 199.956 204.507 199.594 205.25C198.722 205.042 197.849 204.834 196.977 204.626C191.406 193.285 165.814 171.956 148.359 181.162C150.11 183.166 150.99 183.357 149.154 185.359C145.112 184.718 141.068 184.077 137.026 183.436C140.89 183.666 144.755 183.896 148.619 184.126C148.748 183.972 148.877 183.819 149.006 183.666C148.084 182.893 147.161 182.12 146.239 181.348C146.202 180.925 146.165 180.501 146.128 180.078C146.398 179.912 146.669 179.746 146.939 179.58C164.022 174.446 181.854 182.951 189.891 192.023C192.639 195.763 195.388 199.505 198.137 203.245C198.91 202.324 199.684 201.403 200.457 200.482C202.762 202.412 205.068 204.344 207.373 206.274C211.494 207.387 213.855 204.64 217.234 206.689C224.914 211.346 226.258 222.787 230.521 231.547C231.049 231.074 231.576 230.6 232.105 230.128C231.839 228.729 231.574 227.33 231.309 225.932ZM332.377 243.513C331.953 243.551 331.529 243.588 331.105 243.625C331.093 243.484 331.08 243.343 331.068 243.202C343.3 238.169 356.057 227.385 365.24 218.872C369.753 214.69 372.242 207.948 379.037 205.717C377.115 208.16 375.194 210.605 373.273 213.048C367.452 218.109 361.631 223.172 355.811 228.232C348 233.326 340.187 238.42 332.377 243.513ZM35.1239 268.316C28.9243 267.799 22.2552 261.437 18.0137 258.298C18.5787 258.249 19.1438 258.199 19.7093 258.149C24.37 260.064 32.561 263.959 35.1239 268.316ZM119.254 258.374C119.075 257.963 118.897 257.552 118.719 257.142C118.86 257.129 119.001 257.117 119.142 257.104C119.18 257.527 119.217 257.951 119.254 258.374ZM473.046 225.625C472.752 225.508 472.457 225.392 472.161 225.276C472.167 223.711 472.172 222.146 472.177 220.582C472.467 222.262 472.757 223.944 473.046 225.625ZM118.681 256.718C118.287 255.473 117.893 254.227 117.499 252.982C117.794 253.099 118.089 253.215 118.384 253.331C118.483 254.46 118.582 255.589 118.681 256.718ZM109.281 256.69C109.103 256.279 108.925 255.867 108.746 255.456C108.888 255.444 109.029 255.432 109.17 255.419C109.207 255.843 109.244 256.266 109.281 256.69ZM17.5742 263.03C16.7144 262.963 15.8539 262.896 14.9938 262.83C14.9814 262.688 14.969 262.547 14.9566 262.406C16.7771 262.158 16.993 262.116 17.8499 261.299C17.6712 260.888 17.4929 260.477 17.3141 260.066C17.6092 260.183 17.9043 260.299 18.1995 260.415C17.991 261.287 17.7826 262.158 17.5742 263.03ZM14.9566 262.406C14.0969 262.339 13.2363 262.273 12.3766 262.206C12.6341 261.899 12.8921 261.592 13.1501 261.285C13.4571 261.542 13.7646 261.8 14.0717 262.057C14.3668 262.174 14.662 262.29 14.9566 262.406ZM39.0064 259.016C38.4962 258.065 37.9854 257.115 37.4752 256.164C30.5827 253.538 27.1862 245.28 21.2274 241.379C21.4853 241.071 21.7433 240.764 22.0008 240.457C23.218 241.346 24.4351 242.234 25.6519 243.123C30.3064 247.976 35.0463 252.823 39.7428 257.671C39.4976 258.12 39.252 258.568 39.0064 259.016ZM239.466 241.001C238.166 238.833 236.344 232.055 237.191 229.681C237.949 233.454 238.708 237.228 239.466 241.001ZM25.755 258.899C24.575 258.434 23.3951 257.969 22.215 257.503C22.3319 257.209 22.4482 256.914 22.5647 256.619C23.0257 257.005 23.4871 257.392 23.9481 257.777C24.5503 258.151 25.1524 258.525 25.755 258.899ZM62.8339 253.086C62.6551 252.675 62.4769 252.264 62.2986 251.853C62.4397 251.841 62.5808 251.828 62.7224 251.816C62.7595 252.239 62.7967 252.663 62.8339 253.086ZM470.995 216.846C468.898 213.863 468.128 209.203 467.761 204.331C467.902 204.318 468.043 204.306 468.185 204.294C468.21 204.576 468.235 204.858 468.259 205.141C469.171 209.042 470.083 212.944 470.995 216.846ZM22.4904 255.772C21.913 255.681 21.3355 255.59 20.7577 255.498C20.8745 255.203 20.9908 254.909 21.1072 254.614C21.6479 254.282 22.1882 253.95 22.7285 253.619C22.4462 253.644 22.1635 253.668 21.8807 253.693C19.5557 252.719 17.7283 252.518 16.0731 250.789C18.5619 251.567 21.0507 252.344 23.5395 253.121C23.1899 254.004 22.84 254.889 22.4904 255.772ZM62.2986 251.853C62.1198 251.442 61.9415 251.031 61.7632 250.62C61.9044 250.608 62.0455 250.595 62.1871 250.583C62.2242 251.006 62.2614 251.43 62.2986 251.853ZM384.411 223.163C384.352 220.983 386.737 218.704 387.632 216.055C387.773 216.042 387.915 216.03 388.056 216.018C387.573 219.098 385.815 220.71 384.411 223.163ZM391.58 222.107C393.343 212.995 395.099 203.795 396.87 194.766C397.011 194.754 397.152 194.741 397.294 194.729C397.872 205.133 393.09 213.175 391.58 222.107ZM211.006 237.951C208.751 235.037 207.42 230.89 206.962 225.934C207.103 225.922 207.245 225.91 207.386 225.897C207.527 225.885 207.669 225.872 207.81 225.86C208.875 229.89 209.941 233.922 211.006 237.951ZM61.7632 250.62C61.5845 250.209 61.4062 249.798 61.2278 249.387C61.369 249.375 61.5101 249.362 61.6517 249.35C61.6889 249.773 61.7261 250.197 61.7632 250.62ZM434.556 215.35C433.991 215.4 433.426 215.45 432.861 215.499C433.954 214.977 435.047 214.454 436.14 213.931C435.612 214.404 435.084 214.877 434.556 215.35ZM87.3972 245.811C85.4614 244.843 83.5247 243.876 81.5894 242.908C82.2332 241.477 82.1662 240.577 81.6786 239.061C82.1149 239.164 82.5514 239.268 82.9873 239.372C83.2528 240.771 83.5177 242.17 83.7827 243.568C85.9938 243.82 86.4234 244.123 87.3972 245.811ZM59.6586 246.112C55.9263 241.815 48.0578 236.619 45.6792 232.833C52.2593 234.771 57.5107 238.681 59.6586 246.112ZM14.3033 250.092C13.1236 249.626 11.9436 249.161 10.764 248.696C11.0215 248.389 11.2795 248.082 11.5375 247.774C12.4591 248.547 13.3816 249.319 14.3033 250.092ZM309.913 221.168C309.348 221.217 308.783 221.267 308.217 221.316C308.205 221.175 308.193 221.034 308.18 220.893C308.758 220.984 309.335 221.076 309.913 221.168ZM481.437 204.411C481.313 203 481.189 201.588 481.065 200.177C482.736 199.746 484.407 199.315 486.078 198.884C485.867 196.485 485.657 194.086 485.446 191.687C485.587 191.675 485.729 191.663 485.87 191.65C486.013 194.908 486.157 198.167 486.301 201.424C483.036 201.095 481.737 201.099 481.437 204.411ZM314.003 219.102C312.437 219.097 310.87 219.093 309.303 219.088C309.42 218.793 309.536 218.499 309.653 218.204C311.913 218.005 314.175 217.807 316.435 217.609C315.625 218.106 314.814 218.605 314.003 219.102ZM99.5192 237.922C94.7475 234.075 91.4589 231.179 84.2896 229.873C84.2772 229.731 84.2648 229.59 84.2524 229.449C87.0111 230.06 89.7708 230.672 92.5295 231.283C90.212 229.211 87.894 227.138 85.577 225.067C91.3626 226.508 97.1172 232.483 99.5192 237.922ZM299.517 219.52C299.093 219.557 298.669 219.594 298.246 219.631C298.503 219.325 298.761 219.017 299.019 218.711C299.185 218.98 299.351 219.25 299.517 219.52ZM291.887 220.189C287.47 220.151 283.052 220.111 278.635 220.073C278.623 219.931 278.61 219.79 278.598 219.649C284.004 219.601 289.411 219.554 294.817 219.506C293.84 219.734 292.864 219.961 291.887 220.189ZM455.855 204.949C455.432 204.986 455.007 205.024 454.584 205.061C454.7 204.766 454.816 204.471 454.933 204.176C461.718 201.285 463.686 195.316 467.844 190.672C466.243 198.514 461.079 200.276 455.855 204.949ZM320.176 216.428C319.457 216.348 318.738 216.269 318.019 216.19C318.302 216.165 318.584 216.14 318.867 216.115C321.207 215.199 323.547 214.283 325.887 213.366C325.862 213.084 325.837 212.802 325.813 212.52C318.027 212.681 313.029 207.958 306.88 206.075C303.71 205.643 300.539 205.21 297.369 204.777C298.628 204.524 299.888 204.271 301.147 204.019C300.827 203.62 300.507 203.221 300.187 202.823C307.819 205.424 315.453 208.026 323.084 210.626C330.284 211.559 337.487 212.491 344.686 213.423C336.517 214.425 328.345 215.426 320.176 216.428ZM6.46571 243.527C6.04222 243.564 5.61801 243.601 5.19453 243.638C5.45209 243.331 5.70998 243.024 5.96797 242.717C6.13389 242.987 6.29979 243.257 6.46571 243.527ZM77.9904 235.971C77.3882 235.598 76.7859 235.223 76.1833 234.85C76.9024 234.929 77.6214 235.008 78.34 235.087C78.2236 235.382 78.1072 235.677 77.9904 235.971ZM21.1902 240.955C17.1415 239.209 14.1473 236.928 9.22529 236.032C9.21292 235.891 9.20055 235.75 9.18815 235.609C14.1443 235.857 17.8675 237.781 21.5026 239.648C21.3986 240.083 21.2947 240.519 21.1902 240.955ZM363.575 209.633C339.942 212.209 313.943 212.299 302.121 200.52C305.955 202.032 309.791 203.545 313.625 205.057C312.156 202.911 310.685 200.764 309.216 198.618C309.511 198.734 309.806 198.85 310.101 198.967C314.939 207.14 331.507 210.327 343.892 209.227C343.725 208.957 343.559 208.687 343.393 208.417C341.162 207.334 338.931 206.249 336.701 205.165C336.688 205.024 336.676 204.883 336.664 204.742C336.805 204.73 336.946 204.717 337.087 204.705C345.411 208.245 362.973 210.556 372.991 204.968C379.365 201.251 398.613 176.211 402.308 169.119C397.433 171.964 392.513 174.813 387.68 177.655C387.667 177.514 387.655 177.373 387.642 177.231C387.925 177.206 388.208 177.182 388.491 177.157C394.947 171.134 403.415 166.559 409.693 160.792C405.492 172.183 390.303 186.221 382.421 195.607C379.597 199.126 376.773 202.645 373.95 206.163C370.492 207.319 367.033 208.477 363.575 209.633ZM2.77754 240.438C2.18774 240.205 1.59787 239.972 1.00764 239.739C0.995269 239.598 0.9829 239.457 0.97053 239.316C1.11214 239.304 1.25326 239.292 1.39444 239.279C1.85546 239.665 2.31691 240.052 2.77754 240.438ZM206.628 222.124C205.43 221.03 204.485 218.292 205.26 216.272C205.716 218.223 206.172 220.174 206.628 222.124ZM71.796 233.528C68.1736 232.922 66.1101 231.146 64.1071 228.657C64.9055 227.236 65.799 226.982 66.8518 225.857C66.5319 225.458 66.212 225.059 65.8926 224.661C58.1323 222.213 50.3694 219.765 42.6092 217.318C42.7132 215.549 42.4874 215.78 41.5014 214.429C38.9674 213.853 36.123 213.823 34.4968 212.484C34.8708 211.882 35.2455 211.281 35.6195 210.679C39.4022 208.356 43.1858 206.033 46.9681 203.71C54.8288 200.774 64.5787 202.37 72.4381 201.902C72.1979 200.786 71.9578 199.669 71.7171 198.552C74.8997 199.126 78.0832 199.701 81.2654 200.275C81.2778 200.416 81.2901 200.557 81.3025 200.698C78.569 200.369 75.8341 200.04 73.1001 199.711C73.4453 201.4 73.4863 201.59 72.5496 203.172C54.4824 204.27 47.0766 202.889 36.1547 211.912C36.1672 212.053 36.1795 212.194 36.1919 212.335C38.8219 213.1 41.4523 213.864 44.0818 214.629C44.0759 216.547 43.6013 216.494 44.7658 217.556C52.6522 220.613 62.6821 219.426 68.0858 225.321C68.123 225.745 68.1602 226.168 68.1973 226.592C67.3995 227.23 66.6008 227.869 65.803 228.508C65.9813 228.919 66.1596 229.33 66.3384 229.741C68.1572 231.003 69.9771 232.266 71.796 233.528ZM480.731 196.367C478.077 194.639 476.218 191.234 475.288 187.886C475.583 188.002 475.878 188.118 476.173 188.235C477.692 190.945 479.212 193.657 480.731 196.367ZM42.7867 233.941C42.2088 233.849 41.6314 233.758 41.054 233.666C41.4032 232.782 41.7532 231.898 42.1028 231.014C43.012 231.645 43.9221 232.277 44.8313 232.908C42.8945 232.662 43.6026 231.814 42.7867 233.941ZM38.3617 232.196C36.2972 231.381 34.2323 230.567 32.1674 229.753C26.5844 228.641 26.7653 233.518 23.4148 232.228C21.6388 229.225 19.3063 227.546 15.6888 226.933C15.8052 226.638 15.9215 226.343 16.0383 226.049C16.4742 226.153 16.9109 226.257 17.3467 226.36C20.8929 226.745 22.5834 228.648 24.1878 231.306C28.9307 228.428 34.7114 228.896 38.3617 232.196ZM336.203 204.356C332.994 203.414 329.543 200.797 328.365 197.791C330.977 199.979 333.59 202.168 336.203 204.356ZM94.9762 225.095C91.0894 221.801 86.7694 215.048 85.0873 209.751C89.7268 212.991 92.9159 218.833 94.9762 225.095ZM151.665 218.841C141.226 218.104 125.198 214.852 121.854 205.246C122.984 205.147 124.114 205.047 125.244 204.948C125.078 204.678 124.913 204.408 124.746 204.138C118.332 202.426 111.916 200.713 105.501 199.001C105.489 198.86 105.476 198.719 105.464 198.578C105.747 198.553 106.029 198.528 106.312 198.503C111.774 194.099 124.894 180.019 136.602 183.474C125.6 184.3 115.988 190.087 111.711 196.75C112.853 196.792 113.996 196.834 115.139 196.876C112.993 197.269 110.544 197.875 109.353 199.09C115.026 199.775 122.183 200.977 126.055 204.45C124.876 206.202 124.028 206.346 125.08 207.949C129.409 215.118 142.743 213.521 150.594 216.375C150.951 217.197 151.308 218.02 151.665 218.841ZM421.217 194.763C417.004 186.471 428.021 162.428 431.698 158.434C428.92 170.32 420.482 179.592 421.217 194.763ZM485.997 188.226C485.24 186.437 486.07 184.988 486.86 183.457C489.308 183.319 490.969 182.931 492.296 182.127C492.816 179.949 493.337 177.769 493.858 175.591C498.052 175.322 501.085 173.813 502.924 171.809C501.488 157.715 490.293 134.631 502.451 127.483C503.348 127.973 504.246 128.462 505.143 128.953C505.421 130.492 505.698 132.033 505.976 133.572C507.298 132.389 506.924 131.73 507.797 129.999C507.897 131.128 507.996 132.258 508.095 133.386C515.484 126.521 508.831 111.01 513.898 102.161C513.325 112.236 516.733 132.82 506.124 135.266C505.522 134.892 504.919 134.518 504.317 134.145C503.804 131.041 504.951 130.037 502.138 128.789C501.881 129.097 501.623 129.404 501.365 129.711C491.749 135.494 504.992 162.672 503.533 173.889C500.474 174.726 497.415 175.563 494.356 176.401C494.599 179.677 493.726 181.681 492.868 183.784C488.508 184.236 487.179 185.207 485.997 188.226ZM281.574 204.883C273.502 203.743 265.426 202.602 257.353 201.462C257.341 201.321 257.329 201.18 257.316 201.039C265.401 202.32 273.489 203.601 281.574 204.883ZM203.93 210.843C203.56 209.879 203.191 208.916 202.822 207.953C202.963 207.941 203.104 207.928 203.246 207.916C203.473 208.892 203.701 209.867 203.93 210.843ZM470.09 187.062C467.91 183.205 471.443 175.197 473.564 173.106C472.406 177.757 471.248 182.41 470.09 187.062ZM15.2277 226.546C12.9053 226.039 10.5819 225.532 8.25947 225.025C8.2471 224.884 8.23473 224.743 8.22236 224.602C9.07012 224.527 9.9183 224.453 10.7656 224.379C12.5789 224.875 14.0975 225.203 15.2277 226.546ZM309.216 198.618C303.89 194.147 300.147 183.933 300.666 174.197C300.832 174.467 300.998 174.737 301.164 175.007C302.088 179.05 303.013 183.093 303.937 187.136C305.697 190.963 307.457 194.791 309.216 198.618ZM403.755 127.184C400.683 127.879 397.611 128.576 394.54 129.272C391.413 129.045 390.438 124.878 385.729 126.205C376.694 128.649 371.002 137.333 359.857 133.168C359.146 129.655 358.025 128.228 356.257 126.232C357.749 124.487 358.364 123.977 357.619 122.273C357.477 122.285 357.336 122.298 357.195 122.31C344.459 126.866 330.971 139.643 318.049 124.038C319.351 122.644 320.652 121.25 321.954 119.856C311.484 121.011 298.418 127.74 290.512 121.761C290.862 120.878 291.212 119.993 291.561 119.11C293.864 117.77 296.167 116.43 298.47 115.091C297.31 116.472 296.149 117.854 294.989 119.236C295.849 119.302 296.71 119.369 297.57 119.435C296.194 119.983 294.818 120.531 293.442 121.078C302.846 127.632 317.692 114.85 322.876 120.628C320.336 124.73 321.216 124.519 324.355 127.751C337.581 131.738 345.1 123.223 358.854 121.737C359.173 122.136 359.493 122.535 359.813 122.933C359.309 123.688 358.806 124.444 358.303 125.199C359.379 126.1 360.454 127.001 361.53 127.902C360.893 130.011 360.71 130.637 361.478 132.173C372.633 134.45 377.089 127.496 386.041 124.898C390.935 123.478 392.365 126.491 396.05 127.006C397.223 125.766 398.395 124.525 399.568 123.284C398.923 124.052 398.279 124.82 397.634 125.587C397.647 125.728 397.659 125.869 397.672 126.011C397.825 126.139 397.979 126.268 398.133 126.397C401.704 125.717 402.671 125.701 405.026 127.072C405.192 127.342 405.358 127.612 405.524 127.881C406.483 138.386 401.174 143.529 397.669 150.328C387.263 170.519 361.723 203.028 327.919 192.711C320.966 190.588 311.327 186.493 307.232 180.874C302.962 175.016 304.135 168.466 297.342 165.531C296.76 167.004 296.177 168.477 295.595 169.95C293.673 170.026 293.283 169.851 292.129 169.401C288.112 161.077 281.811 149.11 273.02 146.334C267.668 145.381 262.316 144.428 256.964 143.476C256.05 144.409 255.135 145.343 254.22 146.276C248.316 145.515 242.411 144.753 236.507 143.992C236.826 144.39 237.146 144.789 237.466 145.187C230.009 144.427 222.998 145.735 216.346 147.893C216.463 147.599 216.579 147.304 216.696 147.01C226.595 142.924 236.868 143.2 248.063 144.257C252.925 144.716 253.699 141.868 256.816 141.783C264.808 141.131 276.094 146.286 281.445 149.86C287.732 154.061 287.955 164.82 295.022 168.293C295.58 166.538 296.138 164.783 296.696 163.028C303.196 166.329 303.17 172.542 307.47 178.72C311.389 184.35 319.683 189.033 326.499 191.129C358.586 200.993 387.021 168.62 395.513 150.09C398.931 142.632 405.194 138.043 403.755 127.184ZM398.12 189.537C395.012 183.123 411.606 162.023 415.479 158.578C413.117 168.848 397.554 175.36 398.12 189.537ZM449.923 181.152C449.64 181.177 449.358 181.202 449.075 181.227C449.474 180.907 449.874 180.588 450.272 180.269C450.156 180.563 450.039 180.858 449.923 181.152ZM178.877 202.802C178.532 202.121 178.187 201.44 177.843 200.76C177.984 200.747 178.126 200.735 178.267 200.722C178.292 201.004 178.317 201.287 178.341 201.569C178.52 201.98 178.698 202.391 178.877 202.802ZM62.3088 213.03C59.3846 212.149 56.4585 211.268 53.5343 210.387C56.7903 210.225 60.317 211.303 62.3088 213.03ZM177.843 200.76C177.154 199.398 176.465 198.036 175.776 196.675C176.071 196.791 176.366 196.907 176.661 197.024C177.055 198.269 177.449 199.514 177.843 200.76ZM473.951 172.645C473.644 172.387 473.336 172.13 473.029 171.872C473.696 168.117 474.363 164.36 475.03 160.605C475.171 160.593 475.313 160.58 475.454 160.568C474.953 164.593 474.452 168.619 473.951 172.645ZM459.115 173.947C458.691 173.984 458.267 174.021 457.844 174.058C458.347 173.303 458.85 172.548 459.353 171.793C459.906 171.602 460.459 171.411 461.011 171.22C460.379 172.129 459.747 173.038 459.115 173.947ZM385.672 179.111C385.107 179.161 384.542 179.21 383.977 179.26C383.964 179.118 383.952 178.977 383.939 178.836C384.517 178.928 385.094 179.019 385.672 179.111ZM497.354 166.752C494.684 165.013 492.432 161.761 491.101 158.768C493.185 161.429 495.27 164.091 497.354 166.752ZM135.671 197.207C135.106 197.257 134.541 197.307 133.976 197.356C133.963 197.215 133.951 197.074 133.939 196.933C134.516 197.024 135.093 197.116 135.671 197.207ZM282.721 183.878C282.543 183.467 282.364 183.056 282.186 182.645C282.327 182.633 282.468 182.621 282.61 182.608C282.647 183.031 282.684 183.455 282.721 183.878ZM282.186 182.645C277.799 173.219 273.404 163.706 269.026 154.363C269.32 154.48 269.615 154.596 269.91 154.712C273.431 164.331 279.699 170.708 282.186 182.645ZM124.501 196.481C123.371 196.58 122.241 196.679 121.111 196.779C121.368 196.471 121.626 196.164 121.884 195.857C122.756 196.065 123.629 196.273 124.501 196.481ZM466.114 166.08C466.155 164.984 465.907 165.373 466.812 164.312C466.579 164.902 466.346 165.491 466.114 166.08ZM268.971 182.951C259.526 183.886 248.988 183.963 242.006 182.331C241.994 182.19 241.981 182.049 241.969 181.907C250.885 182.263 259.972 182.603 268.971 182.951ZM412.868 167.766C412.69 167.355 412.511 166.943 412.332 166.533C412.474 166.52 412.615 166.508 412.757 166.495C412.794 166.919 412.831 167.342 412.868 167.766ZM413.181 166.458C413.002 166.048 412.824 165.636 412.645 165.226C412.786 165.213 412.928 165.201 413.069 165.188C413.106 165.611 413.144 166.035 413.181 166.458ZM413.493 165.151C413.314 164.74 413.136 164.329 412.958 163.918C413.099 163.906 413.24 163.894 413.382 163.881C413.419 164.304 413.456 164.728 413.493 165.151ZM476.116 158.377C475.938 157.966 475.759 157.554 475.581 157.143C475.722 157.131 475.863 157.119 476.005 157.106C476.042 157.53 476.079 157.953 476.116 158.377ZM476.667 154.915C476.432 152.234 476.196 149.552 475.961 146.871C474.838 148.676 473.714 150.482 472.591 152.286C474.24 146.738 475.89 141.189 477.538 135.641C477.643 127.1 477.741 118.473 477.853 110.016C481.629 97.8832 485.405 85.746 489.182 73.6132C489.863 73.2688 490.545 72.9245 491.226 72.5801C488.063 81.9583 484.899 91.3387 481.735 100.717C478.444 111.776 479.591 124.518 478.572 137.683C477.937 143.427 477.302 149.172 476.667 154.915ZM432.122 158.397C432.161 157.768 431.898 157.862 432.434 157.09C432.33 157.525 432.226 157.962 432.122 158.397ZM432.858 157.053C432.897 156.423 432.635 156.517 433.171 155.745C433.066 156.181 432.962 156.617 432.858 157.053ZM415.903 158.541C415.942 157.911 415.679 158.005 416.215 157.233C416.111 157.669 416.007 158.105 415.903 158.541ZM433.595 155.708C433.633 155.079 433.371 155.173 433.907 154.401C433.803 154.836 433.699 155.273 433.595 155.708ZM434.331 154.364C434.37 153.734 434.107 153.829 434.643 153.057C434.539 153.492 434.435 153.928 434.331 154.364ZM413.561 156.186C413.6 155.557 413.337 155.651 413.873 154.879C413.769 155.314 413.665 155.751 413.561 156.186ZM415.07 153.92C415.112 152.825 414.864 153.213 415.769 152.153C415.537 152.742 415.303 153.331 415.07 153.92ZM416.193 152.115C416.155 149.72 418.835 146.896 420.225 144.509C422.666 139.887 425.109 135.264 427.55 130.642C434.033 122.252 440.601 113.853 447.126 105.46C446.984 105.473 446.843 105.485 446.702 105.497C435.748 109.6 421.342 110.491 411.155 114.162C411.271 113.868 411.388 113.573 411.504 113.278C413.524 111.963 415.545 110.648 417.565 109.333C417.283 109.358 417 109.383 416.718 109.408C414.266 109.054 411.814 108.7 409.363 108.346C409.351 108.206 409.338 108.065 409.326 107.923C423.33 107.693 439.223 105.886 451.603 102.934C451.099 103.689 450.596 104.444 450.093 105.2C442.099 109.335 421.512 142.882 416.193 152.115ZM437.313 149.409C437.352 148.78 437.09 148.874 437.626 148.102C437.521 148.538 437.417 148.974 437.313 149.409ZM481.286 144.271C481.437 141.13 481.589 137.987 481.74 134.846C482.65 138.77 481.703 140.762 481.286 144.271ZM438.437 147.604C438.478 146.508 438.23 146.897 439.136 145.837C438.902 146.426 438.669 147.015 438.437 147.604ZM428.442 140.802C428.453 136.774 439.412 120.464 443.042 117.337C441.835 126.943 433.043 133.634 428.442 140.802ZM508.073 128.269C507.895 127.858 507.716 127.447 507.538 127.036C507.679 127.024 507.82 127.011 507.961 126.999C507.999 127.422 508.036 127.846 508.073 128.269ZM458.479 132.62C458.518 131.991 458.255 132.085 458.791 131.313C458.687 131.749 458.583 132.185 458.479 132.62ZM507.426 125.766C506.14 122.466 504.854 119.166 503.568 115.865C498.912 107.243 490.485 101.178 490.482 88.4304C490.623 88.418 490.764 88.4056 490.906 88.3932C492.692 105.252 505.309 110.006 507.426 125.766ZM461.149 128.973C461.19 127.701 461.612 126.714 463.432 125.787C462.671 126.849 461.91 127.911 461.149 128.973ZM365.292 131.838C364.574 131.759 363.855 131.68 363.136 131.6C364.524 131.194 365.912 130.788 367.301 130.382C366.631 130.867 365.962 131.353 365.292 131.838ZM370.617 129.238C370.194 129.275 369.769 129.312 369.345 129.349C369.333 129.208 369.321 129.067 369.308 128.926C378.569 125.04 382.061 115.237 391.746 112.026C384.8 118.402 378.1 123.415 370.617 129.238ZM444.276 116.802C442.127 115.907 454.661 99.709 460.096 97.4962C454.819 103.889 449.549 110.367 444.276 116.802ZM483.236 112.957C483.058 112.546 482.88 112.135 482.701 111.724C482.843 111.712 482.984 111.699 483.125 111.687C483.162 112.11 483.199 112.534 483.236 112.957ZM327.025 124.104C326.601 124.141 326.177 124.178 325.753 124.215C325.741 124.074 325.728 123.933 325.716 123.792C340.435 118.977 343.307 104.278 356.312 97.6436C356.3 97.5022 356.288 97.3612 356.275 97.2202C347.009 97.8814 337.484 98.5281 330.604 101.606C325.036 104.096 320.605 108.625 314.317 110.713C314.305 110.573 314.293 110.432 314.28 110.291C314.563 110.266 314.845 110.241 315.128 110.216C322.685 103.338 335.199 97.2555 348.459 95.7725C348.293 95.5029 348.127 95.2329 347.961 94.9634C342.739 93.8572 337.473 92.7549 332.293 91.645C340.699 91.0784 345.33 94.87 351.04 95.9731C355.266 95.4598 359.493 94.9468 363.719 94.4335C370.619 94.9365 377.174 95.5579 383.091 96.1467C375.68 88.7049 368.88 81.8298 362.286 73.2284C370.091 75.4488 373.235 85.8256 378.406 91.4384C389.556 103.541 411.797 105.943 434.61 103.998C434.444 103.729 434.278 103.459 434.112 103.189C426.857 102.193 418.858 98.3897 415.693 92.8599C420.294 95.6682 424.602 99.1984 430.074 100.983C457.43 109.907 470.767 73.5865 492.402 66.5047C487.343 70.5032 482.282 74.5031 477.223 78.502C469.321 85.6151 462.166 95.6165 452.265 100.743C445.171 102.645 438.033 104.551 430.981 106.45C410.694 111.952 392.072 99.0549 376.272 96.3188C370.689 95.4406 358.602 93.0882 353.233 96.6335C359.276 96.0009 369.93 95.8212 373.914 98.6584C368.779 98.5404 363.599 98.4261 358.506 98.3039C347.876 101.24 344.071 111.824 337.176 118.093C334.251 120.754 330.543 121.763 327.025 124.104ZM483.676 108.226C483.497 107.815 483.319 107.403 483.141 106.992C483.282 106.98 483.423 106.968 483.564 106.955C483.602 107.379 483.639 107.802 483.676 108.226ZM483.988 106.918C478.848 94.1934 498.947 64.9792 510.369 61.9416C506.765 64.6754 503.16 67.4094 499.556 70.1429C491.568 77.6965 485.166 94.1582 483.988 106.918ZM313.677 118.022C313.395 118.047 313.112 118.072 312.829 118.097C314.956 114.543 318.419 110.391 322.223 108.313C319.374 111.55 316.525 114.786 313.677 118.022ZM407.593 107.649C403.037 107.951 401.829 106.541 398.855 105.429C398.843 105.288 398.831 105.147 398.818 105.006C401.856 105.097 405.677 106.01 407.593 107.649ZM520.235 96.4852C519.811 96.5223 519.386 96.5596 518.962 96.5968C519.079 96.3024 519.196 96.0076 519.312 95.7133C521.136 95.0273 523.657 93.8427 524.562 92.2659C526.887 85.2701 528.626 73.0682 539.169 78.6123C539.698 80.3356 540.02 85.809 540.686 86.1584C545.159 86.7343 549.8 80.7563 552.384 78.3064C550.827 84.0368 546.493 87.7947 538.641 87.1915C538.474 86.9215 538.308 86.6515 538.142 86.3815C538.651 83.9389 539.769 81.6552 538.433 79.9572C538.101 79.4172 537.768 78.8777 537.437 78.3381C535.87 78.3331 534.303 78.3285 532.737 78.3239C529.075 83.6263 527.475 89.408 524.436 95.6903C523.036 95.9552 521.635 96.2203 520.235 96.4852ZM300.128 114.519C299.846 114.543 299.563 114.568 299.28 114.593C299.679 114.273 300.079 113.954 300.478 113.635C300.361 113.929 300.245 114.224 300.128 114.519ZM301.326 113.56C301.043 113.585 300.76 113.61 300.478 113.635C304.252 109.079 311.22 106.336 311.581 99.0083C311.415 98.7387 311.25 98.4687 311.083 98.1991C310.057 97.8626 309.031 97.5256 308.005 97.189C311.969 87.7513 321.132 85.6405 333.208 82.6057C339.772 80.9563 349.221 82.3209 352.447 77.9318C351.279 76.361 350.552 75.2418 350.38 73.8465C352.935 73.7648 355.491 73.6825 358.047 73.6004C358.558 71.3797 359.513 69.9995 361.029 68.6463C372.773 69.8104 379.4 72.6738 385.918 79.6872C376.687 76.6149 373.213 69.6575 360.33 70.4141C359.889 71.8748 359.447 73.3354 359.006 74.7961C356.579 74.7248 354.152 74.6533 351.726 74.5821C351.738 74.723 351.75 74.864 351.763 75.0054C352.892 76.4545 353.18 77.2415 353.019 79.588C338.924 86.8754 314.933 81.4695 310.087 96.5801C312.347 97.1557 312.684 97.7464 313.776 99.6694C311.064 106.836 306.535 108.662 301.326 113.56ZM522.607 89.4511C511.984 78.3151 525.581 59.5207 534.62 55.9742C526.669 68.0761 518.281 66.4905 522.607 89.4511ZM380.845 99.7567C379.112 99.4825 377.379 99.2076 375.647 98.9334C375.635 98.792 375.622 98.651 375.61 98.5096C377.355 98.9257 379.1 99.3411 380.845 99.7567ZM545.416 76.7843C544.795 75.2603 544.781 75.6319 545.654 74.6303C545.575 75.3485 545.495 76.0666 545.416 76.7843ZM555.515 75.0454C555.674 74.028 555.11 74.229 556.638 73.2404C556.264 73.8419 555.889 74.4435 555.515 75.0454ZM438.1 85.3478C417.998 87.426 409.249 82.631 398.025 76.4922C397.884 76.5046 397.742 76.517 397.601 76.5294C398.127 79.2085 398.924 80.6859 397.236 82.107C396.708 82.58 396.18 83.0533 395.652 83.5263C392.656 83.2828 389.177 82.0868 387.264 80.4227C390.102 81.2236 394.154 82.3804 397.511 80.3764C397.056 78.4258 396.6 76.4748 396.144 74.5242C396.285 74.5118 396.426 74.4994 396.567 74.487C403.77 76.7351 408.502 81.7806 415.336 83.9322C428.246 87.9957 445.81 81.8958 455.807 77.8215C451.964 83.3258 444.857 81.9861 438.1 85.3478ZM560.304 71.2122C559.88 71.2494 559.456 71.2866 559.033 71.3238C559.278 70.8756 559.523 70.4271 559.769 69.979C562.2 68.4862 564.633 66.9925 567.064 65.4993C579.024 61.5097 589.495 66.5494 601.473 63.3337C613.607 60.0758 632.758 52.8332 631.757 38.492C628.274 39.3667 624.79 40.2411 621.308 41.1153C621.295 40.9744 621.283 40.8334 621.271 40.6924C621.553 40.6676 621.836 40.6428 622.118 40.618C622.634 40.0036 623.15 39.3897 623.666 38.7758C619.261 38.8777 614.855 38.9797 610.451 39.0816C613.09 38.6367 613.578 38.6546 613.344 37.975C613.037 37.7174 612.729 37.4598 612.422 37.2026C620.799 36.9924 629.956 37.9393 636.509 34.236C629.299 52.0224 621.533 58.9691 598.617 64.8638C582.884 68.9051 571.892 60.5654 560.304 71.2122ZM461.019 73.9512C460.663 73.1292 460.306 72.3069 459.949 71.485C456.879 71.5231 455.36 71.0984 454.565 68.5444C463.188 67.0848 469.002 52.6289 482.996 56.6647C473.556 57.327 461.723 62.093 459.302 68.9824C471.66 63.5018 488.365 58.3826 502.665 61.7648C496.528 63.3267 491.734 60.1736 483.902 62.1308C476.01 64.6718 468.074 67.2175 460.224 69.7544C460.994 71.1617 461.339 72.1518 461.019 73.9512ZM595.554 59.1603C595.13 59.1975 594.706 59.2347 594.283 59.2719C594.914 58.3632 595.547 57.4541 596.179 56.5458C597.131 56.0357 598.083 55.5251 599.035 55.0154C597.875 56.3966 596.714 57.7787 595.554 59.1603ZM551.359 61.7579C551.276 60.7609 551.161 60.6626 552.021 59.5671C551.8 60.2972 551.579 61.0278 551.359 61.7579ZM436.766 21.4722C441.557 20.9093 446.35 20.3468 451.141 19.7843C455.192 17.8384 456.13 9.83337 463.226 11.4714C456.614 12.5921 455.869 17.8963 452.138 21.4033C447.887 21.6338 443.635 21.8648 439.384 22.0958C439.857 22.6229 440.331 23.15 440.804 23.6776C446.906 26.6968 453.01 29.7171 459.112 32.7362C459.124 32.8776 459.137 33.0186 459.149 33.16C451.206 32.2605 444.487 26.0771 438.15 22.6307C438.273 24.0417 438.397 25.4528 438.521 26.8639C426.836 29.303 413.871 30.4956 408.67 37.1622C410.261 37.4492 411.853 37.7366 413.444 38.0232C412.258 42.1647 404.991 43.1931 401.746 45.8759C410.225 44.9101 419.109 45.1489 425.393 47.6401C425.406 47.7815 425.418 47.9225 425.431 48.0635C411.676 50.2162 397.555 41.6938 388.114 56.031C388.126 56.172 388.138 56.3129 388.151 56.4539C395.228 56.0748 404.862 50.6707 413.048 52.9899C406.126 53.901 392.041 54.9565 387.526 59.0689C401.258 61.6434 397.758 63.0098 410.84 57.0232C408.894 60.0903 404.454 61.9875 400.265 63.0706C403.342 65.2531 410.166 65.0763 414.862 63.9228C414.384 64.9601 413.905 65.9974 413.427 67.0347C419.918 66.6161 427.126 63.0396 429.825 59.197C430.12 59.3132 430.415 59.4294 430.71 59.5455C430.963 60.8032 431.215 62.0613 431.468 63.3186C435.828 59.4027 441.202 51.3937 451.919 52.9918C455.28 53.4 458.524 56.1729 462.776 55.0254C469.342 52.4587 475.994 49.884 482.602 47.3136C482.278 48.4794 481.953 49.6458 481.628 50.812C486.184 47.568 490.741 44.3239 495.297 41.0803C499.025 39.7575 502.754 38.435 506.482 37.1122C492.117 36.0936 476.91 34.6822 460.406 37.7421C460.804 37.423 461.204 37.1034 461.603 36.7843C459.766 36.9454 457.929 37.1066 456.092 37.2678C458.598 36.6213 461.105 35.9743 463.61 35.3278C463.445 35.0583 463.279 34.7883 463.112 34.5187C461.804 34.2069 460.495 33.8947 459.186 33.5834C459.174 33.442 459.162 33.301 459.149 33.16C469.551 34.0391 481.519 34.5645 494.628 33.4599C489.595 29.6354 484.517 25.8143 479.526 21.9861C485.278 25.8896 491.032 29.7938 496.785 33.6972C504.409 34.5923 512.035 35.4876 519.659 36.383C525.662 38.2735 531.667 40.1643 537.67 42.0552C534.136 39.0948 530.6 36.1333 527.067 33.1733C523.666 28.4948 520.265 23.8151 516.864 19.1369C510.909 14.5405 504.906 9.90427 498.996 5.34653C518.021 9.88701 524.731 33.0967 539.863 42.716C549.694 48.9646 567.112 44.7589 581.962 45.4214C581.949 45.28 581.937 45.139 581.924 44.9976C581.604 44.5995 581.285 44.2005 580.965 43.8023C573.371 41.9925 566.05 32.0663 563.848 23.9734C564.143 24.0895 564.438 24.2057 564.733 24.3223C571.218 48.2816 597.859 47.7858 621.308 41.1153C613.2 48.1569 598.833 47.2464 586.736 46.2819C574.702 47.0537 562.665 47.8253 550.631 48.597C537.022 44.3876 523.282 40.1884 509.799 35.9683C513.094 38.311 521.027 39.7932 525.191 41.0166C525.204 41.158 525.216 41.299 525.229 41.4403C519.994 40.1931 514.716 38.9494 509.523 37.699C503.701 37.4987 491.545 44.0515 489.035 47.602C495.612 46.7562 498.426 47.4333 501.662 50.3336C499.603 53.5539 491.805 57.7049 485.889 55.5576C492.481 55.1617 497.092 53.1868 500.814 50.408C500.494 50.0099 500.175 49.6109 499.855 49.2127C499.572 49.2375 499.29 49.2624 499.007 49.2871C492.202 48.0895 486.34 52.3252 480.044 52.2304C479.97 51.3841 479.895 50.537 479.821 49.6908C474.319 51.8796 468.814 54.0694 463.311 56.2588C458.143 57.7387 454.781 54.7278 450.759 54.3734C441.053 53.519 436.451 61.3698 432.078 65.3982C431.654 65.4354 431.23 65.4726 430.806 65.5098C430.424 64.4059 430.043 63.3016 429.661 62.1977C427.89 63.7396 408.027 75.3139 409.151 66.9833C409.691 66.6517 410.232 66.3197 410.772 65.9882C400.89 67.0447 389.847 63.7235 384.522 58.9054C384.473 58.3411 384.423 57.7767 384.374 57.2124C392.033 50.6155 397.928 43.0283 409.741 39.6284C409.446 39.5118 409.151 39.3956 408.856 39.2794C407.934 38.5071 407.011 37.7344 406.089 36.9621C406.206 36.6677 406.322 36.3729 406.439 36.0785C410.633 33.5774 414.828 31.0758 419.022 28.5748C425.06 27.6188 431.1 26.6618 437.137 25.7054C437.254 25.411 437.371 25.1163 437.487 24.8219C437.247 23.7052 437.007 22.5884 436.766 21.4722ZM506.019 61.0438C505.3 60.9644 504.581 60.8854 503.862 60.806C503.85 60.6651 503.837 60.5241 503.825 60.3827C512.466 57.6058 529.862 44.9817 543.425 49.2293C530.8 49.989 511.941 53.9202 506.019 61.0438ZM606.405 51.382C605.839 51.4316 605.274 51.4812 604.709 51.5307C605.391 51.1868 606.072 50.8425 606.754 50.4985C606.637 50.7929 606.521 51.0876 606.405 51.382ZM557.197 55.2734C556.915 55.2982 556.632 55.323 556.349 55.3478C556.79 53.7071 557.317 53.6643 559.13 52.9707C558.486 53.738 557.842 54.5057 557.197 55.2734ZM603.326 50.3723C591.925 50.2353 580.52 50.0982 569.118 49.9612C569.376 49.6541 569.634 49.3469 569.892 49.0401C579.271 50.8639 595.772 45.9745 603.326 50.3723ZM531.579 55.3882C530.577 55.3336 529.576 55.2794 528.574 55.2252C532.01 54.4224 536.169 52.453 539.981 53.7972C537.181 54.3275 534.379 54.8579 531.579 55.3882ZM426.709 57.7639C426.427 57.7887 426.144 57.8135 425.861 57.8383C427.78 54.882 431.983 51.7718 435.477 50.5949C432.555 52.9844 429.631 55.3744 426.709 57.7639ZM538.963 47.0607C536.452 46.6624 534.864 46.0594 533.617 44.5439C535.399 45.3828 537.181 46.2217 538.963 47.0607ZM412.461 56.0273C412.178 56.0521 411.896 56.0769 411.613 56.1017C412.655 54.4698 413.229 53.588 413.398 52.106C414.4 52.1602 415.401 52.2144 416.403 52.2685C414.389 53.1717 413.478 54.3413 412.461 56.0273ZM599.356 39.2024C588.504 39.2087 575.755 34.0599 571.314 26.3042C580.631 31.7712 589.344 34.2212 599.356 39.2024ZM442.996 48.6557C443.345 47.7719 443.695 46.8875 444.044 46.0036C443.197 46.078 442.349 46.1524 441.501 46.2267C441.784 46.202 442.066 46.1772 442.349 46.1524C444.287 43.6146 448.458 42.031 452.575 40.9894C449.382 43.5443 446.188 46.1004 442.996 48.6557ZM444.907 41.2355C444.023 40.8865 443.137 40.5372 442.253 40.1886C442.241 40.0472 442.228 39.9062 442.216 39.7652C443.795 39.9108 445.374 40.0568 446.953 40.2028C446.965 40.3438 446.978 40.4848 446.99 40.6257C446.296 40.8291 445.601 41.0321 444.907 41.2355ZM456.166 38.1141C455.601 38.1637 455.036 38.2132 454.471 38.2628C454.459 38.1219 454.446 37.9809 454.434 37.8399C455.012 37.9313 455.589 38.0227 456.166 38.1141ZM432.556 36.7728C428.206 35.8751 423.855 34.9766 419.505 34.0784C417.091 34.1482 414.676 34.2179 412.262 34.2877C420.582 33.2855 427.607 33.6921 432.556 36.7728ZM565.284 20.8611C563.053 19.777 560.821 18.6925 558.591 17.6088C552.001 22.5163 543.977 14.8121 538 11.7364C525.321 5.21198 512.01 -1.16271 492.415 3.36425C493.104 4.72527 493.793 6.08716 494.482 7.44903C486.971 11.8875 479.651 11.1176 469.971 10.4529C467.698 10.5099 465.424 10.5673 463.152 10.6243C473.557 9.80518 484.532 9.83353 492.749 7.17447C491.765 5.69638 490.781 4.21838 489.797 2.74071C507.481 -2.82028 526.285 2.0046 539.086 9.5076C544.797 12.6754 548.189 16.9865 555.311 19.1764C556.508 18.2181 557.706 17.2594 558.903 16.3011C561.73 16.734 564.019 18.5855 565.284 20.8611Z" fill="#EB5C37" fill-opacity="0.5"/>
</svg>
