<svg width="306" height="274" viewBox="0 0 306 274" fill="none" xmlns="http://www.w3.org/2000/svg">
<path fill-rule="evenodd" clip-rule="evenodd" d="M255.178 67.0417C255.488 67.2229 255.798 67.4044 256.107 67.5855C255.781 67.6708 255.453 67.7562 255.126 67.8416C255.144 67.5749 255.161 67.3082 255.178 67.0417ZM256.003 69.1853C256.14 70.3725 256.276 71.5602 256.413 72.7477C256.232 73.0567 256.051 73.3663 255.87 73.6756C255.681 73.2881 255.492 72.9003 255.303 72.5129C255.536 71.404 255.77 70.2942 256.003 69.1853ZM252.544 67.9915C252.245 68.2017 252.67 68.3455 251.872 68.4289C252.096 68.2829 252.32 68.137 252.544 67.9915ZM250.581 68.5033C250.787 68.6242 250.994 68.7451 251.2 68.866C246.997 72.4963 242.792 76.1273 238.589 79.7578C238.486 79.6973 238.382 79.6369 238.279 79.5765C241.737 74.622 246.414 71.1596 250.581 68.5033ZM256.308 74.3475C256.866 76.4727 257.423 78.5994 257.981 80.7251C257.654 80.8103 257.327 80.8957 257 80.9813C256.811 80.5937 256.621 80.206 256.432 79.8189C256.391 77.9951 256.35 76.1707 256.308 74.3475ZM257.438 81.6531C260.96 86.1754 257.134 95.3958 251.921 99.604C253.54 99.4435 255.158 99.2833 256.776 99.1231C256.009 100.197 255.242 101.271 254.475 102.344C254.691 101.502 254.907 100.659 255.123 99.8166C253.832 99.8914 252.541 99.9664 251.25 100.041C251.491 99.6288 251.733 99.2164 251.974 98.8038C257.853 93.8685 256.676 87.3486 257.438 81.6531ZM236.573 81.0695C236.151 81.7914 235.729 82.5131 235.306 83.2351C235.203 83.1747 235.1 83.1144 234.996 83.0538C235.522 82.3924 236.048 81.7311 236.573 81.0695ZM234.377 82.6913C234.583 82.8122 234.79 82.9331 234.996 83.0538C232.707 86.0619 230.019 87.6726 227.116 87.9934C229.545 86.0779 231.873 85.2494 234.377 82.6913ZM241.625 92.3314C241.547 92.7012 241.469 93.0713 241.391 93.4409C241.288 93.3806 241.185 93.3202 241.081 93.2597C241.262 92.9503 241.444 92.6407 241.625 92.3314ZM155.034 42.0685C165.312 48.0521 169.055 57.3074 180.297 61.4225C172.559 66.645 166.634 66.7865 157.723 67.3133C156.845 69.2395 157.439 68.8499 156.274 69.7882C152.691 69.1289 150.479 70.0406 147.365 70.803C156.084 63.4938 167.22 67.5898 176.734 61.8286C176.691 61.6647 176.648 61.5014 176.605 61.3377C174.188 60.9773 169.373 60.3724 167.776 58.6622C170.014 58.8645 172.252 59.0667 174.489 59.2691C165.826 54.0571 162.35 45.5665 151.833 41.8559C143.536 38.9289 135.354 46.434 128.181 39.6414C128.439 38.9625 128.699 38.2832 128.957 37.6045C129.913 36.9181 130.869 36.2314 131.826 35.5456C123.896 32.9336 117.532 33.0712 110.704 33.981C114.607 31.2348 129.507 29.9168 133.426 35.6518C133.719 36.0996 134.011 36.5476 134.303 36.9957C133.916 37.1838 133.528 37.3725 133.141 37.5606C132.176 37.5504 131.213 37.5398 130.249 37.5293C129.346 39.4845 129.57 39.7586 130.168 41.2194C130.495 41.1343 130.822 41.0488 131.149 40.9636C135.943 40.586 140.77 40.2261 145.534 39.8305C148.7 40.5765 151.868 41.3229 155.034 42.0685ZM223.738 83.109C224.34 83.7381 224.942 84.3673 225.544 84.9963C225.096 85.2881 224.648 85.5795 224.2 85.8711C223.019 83.996 222.044 84.2814 220.665 83.3866C221.689 83.2942 222.713 83.2014 223.738 83.109ZM156.374 46.1747C156.786 46.4163 157.199 46.658 157.612 46.8996C156.975 46.8039 156.338 46.7081 155.702 46.6124C155.926 46.4664 156.149 46.3205 156.374 46.1747ZM216.586 81.8303C217.355 82.8036 216.96 82.0414 217.153 82.9927C216.964 82.6053 216.775 82.2176 216.586 81.8303ZM223.09 85.637C222.728 86.2553 222.366 86.8743 222.004 87.4929C221.858 87.2687 221.711 87.0448 221.565 86.8209C221.626 86.7176 221.686 86.6146 221.746 86.5116C222.194 86.2199 222.642 85.9284 223.09 85.637ZM154.153 45.7061C154.566 45.9477 154.979 46.1893 155.392 46.4312C155.125 46.4132 154.858 46.3954 154.592 46.378C153.137 46.4955 151.682 46.6128 150.227 46.7304C151.536 46.3889 152.844 46.0473 154.153 45.7061ZM225.825 88.0681C225.419 88.8379 225.123 88.9807 224.119 89.5615C222.724 88.7218 222.375 88.4584 222.004 87.4929C223.671 88.2853 224.514 88.4087 225.825 88.0681ZM202.23 80.0727C201.67 81.2674 201.109 82.4621 200.548 83.6569C200.652 83.7173 200.755 83.7776 200.858 83.8382C205.768 84.8394 209.324 81.6911 214.132 82.4708C210.206 83.495 206.28 84.5197 202.354 85.5442C199.637 83.935 199.558 83.119 200.267 80.5848C185.833 72.0817 180.107 82.5939 169.845 83.5443C170.121 82.5987 170.398 81.6528 170.674 80.7071C169.916 80.8176 169.159 80.9278 168.401 81.0379C166.277 82.3768 161.346 83.1301 158.82 82.4905C157.168 81.5238 155.516 80.5568 153.864 79.5903C150.817 80.298 147.769 81.006 144.721 81.7141C138.094 81.4342 131.465 81.1545 124.838 80.8747C131.037 78.5738 136.014 80.1737 143.172 80.8077C146.814 80.032 150.456 79.2565 154.098 78.4811C156.119 79.5255 158.142 80.5708 160.163 81.6157C163.744 80.9431 167.327 80.2703 170.907 79.5982C171.716 80.3478 172.524 81.0981 173.333 81.8477C179.578 75.0561 192.588 74.3559 202.23 80.0727ZM163.778 53.4157C163.984 53.5364 164.191 53.6573 164.398 53.7782C162.435 54.2901 160.471 54.8025 158.508 55.3148C158.491 55.5814 158.474 55.848 158.456 56.1144C162.034 58.3295 162.786 60.3629 164.932 62.8117C164.871 62.9147 164.811 63.0177 164.751 63.1208C161.712 60.8354 157.168 57.1751 155.85 54.1739C158.708 54.8751 161.377 54.467 163.778 53.4157ZM-31.5745 85.2621C-30.3785 85.8238 -29.1825 86.3855 -27.9863 86.9469C-32.7712 92.6182 -39.745 93.6534 -44.7813 97.8816C-47.5822 102.194 -50.3843 106.508 -53.1854 110.82C-58.6035 115.816 -64.0232 120.813 -69.4411 125.808C-69.338 125.868 -69.2348 125.929 -69.1314 125.989C-60.4462 124.905 -53.1283 118.273 -44.4372 117.186C-50.5375 121.666 -63.0188 127.229 -70.475 126.864C-70.6213 126.64 -70.7675 126.416 -70.9133 126.192C-70.8359 125.823 -70.7579 125.453 -70.6803 125.083C-64.7162 120.353 -58.4768 114.825 -53.0281 108.421C-49.4681 104.236 -48.0578 99.0126 -44.4957 95.9727C-39.7082 93.0022 -34.8835 89.9697 -30.0785 86.9687C-30.9468 86.3218 -31.816 85.6748 -32.6845 85.0282C-24.661 71.8283 -7.0527 79.9697 3.53063 72.1704C3.54794 71.9035 3.56557 71.6368 3.58288 71.37C2.79987 71.0504 2.017 70.7305 1.23367 70.4108C6.80628 61.5343 19.8136 65.1711 27.3481 62.0235C32.5917 59.976 37.7904 53.8854 42.4898 51.7823C54.5007 46.4572 63.867 44.5382 73.4728 27.972C70.7443 27.8975 68.0156 27.8233 65.2868 27.7491C65.1414 19.12 69.1766 11.4281 66.9867 4.2419C65.0048 7.98193 62.6048 12.0407 59.8257 12.9251C58.5226 11.0644 59.251 10.6206 57.7625 10.0564C57.237 10.7177 56.7115 11.379 56.1855 12.0404C56.6081 11.3184 57.0304 10.5968 57.4528 9.87512C56.8591 9.94252 56.265 10.0105 55.6708 10.0781C50.6364 16.2234 38.7993 34.149 31.9538 23.6056C31.963 22.6421 31.9725 21.6789 31.9817 20.7154C33.3429 19.5739 34.7041 18.4324 36.0653 17.291C36.0221 17.1274 35.9793 16.9641 35.9365 16.8007C35.5665 16.7224 35.1962 16.644 34.8262 16.5658C31.2183 18.4683 27.6093 20.3715 24.0013 22.2735C24.1821 21.9645 24.3633 21.6549 24.5442 21.3459C27.8514 18.7926 31.244 18.0826 34.3876 15.8942C25.6656 14.841 20.7962 24.6515 12.3802 22.9477C12.1644 23.7902 11.9486 24.6328 11.7325 25.4752C11.5437 25.0881 11.3544 24.7003 11.1653 24.3131C11.3387 23.307 11.5115 22.3006 11.6845 21.2946C11.4179 21.2769 11.1511 21.259 10.8845 21.2413C3.52167 29.8503 -4.91062 39.5257 -13.9763 42.406C-16.0133 41.2615 -16.8908 40.3929 -17.7691 38.9403C-17.3721 37.7881 -16.9751 36.6359 -16.5782 35.4845C-16.8022 35.63 -17.0261 35.7759 -17.2499 35.9219C-18.0678 36.1351 -18.8859 36.3486 -19.7038 36.5617C-19.359 36.2099 -19.0146 35.858 -18.6699 35.5057C-30.5832 34.9996 -37.4309 40.8607 -43.7357 54.8892C-43.8388 54.8289 -43.942 54.7685 -44.0454 54.708C-42.9385 51.3857 -43.3385 47.4265 -40.11 43.7218C-33.8151 36.4977 -23.6424 33.2122 -15.182 33.8095C-14.7868 34.3178 -14.3913 34.8263 -13.996 35.3346C-14.8834 36.6142 -15.7714 37.8948 -16.6593 39.1746C-14.7847 40.5051 -14.1909 41.1757 -12.4518 41.2213C-7.87754 37.3927 8.23311 19.7896 12.8994 19.9293C13.0538 20.8498 13.2078 21.7709 13.3619 22.6912C13.9559 22.624 14.55 22.556 15.1442 22.4885C18.596 19.6354 34.5991 10.1953 37.8471 17.0884C36.2419 18.3221 33.8476 20.2418 33.2974 22.7308C33.2621 23.2642 33.2274 23.7974 33.1926 24.3306C33.8118 24.693 34.4315 25.0557 35.0506 25.418C45.3283 21.6691 48.5298 13.2043 57.5575 8.27528C58.3409 8.59504 59.1237 8.91491 59.9068 9.23496C60.0004 10.2586 60.0944 11.2824 60.188 12.3061C62.9113 8.36339 65.6355 4.41995 68.3585 0.477078C72.4949 10.8423 67.3848 16.6273 66.7594 27.3651C68.7221 26.8527 70.6856 26.3403 72.6481 25.8282C72.7515 25.8887 72.8547 25.9491 72.9578 26.0094C73.5169 26.475 74.0764 26.9407 74.6355 27.4062C71.4648 35.2727 66.0637 40.1092 60.933 45.1346C61.0364 45.1951 61.1396 45.2555 61.2427 45.3158C67.5212 44.5024 72.1432 38.752 78.5764 38.4336C79.3066 39.5532 80.0377 40.6734 80.7681 41.7927C85.3818 41.1462 89.7499 35.1611 94.2279 35.1358C97.7825 35.1152 99.9422 37.2252 103.6 36.8832C103.213 37.0715 102.825 37.2602 102.437 37.4486C99.5787 39.4468 95.2769 37.2692 92.1602 37.2479C84.2027 48.1729 79.0763 38.1132 73.1259 40.6423C69.8877 42.6229 66.6488 44.604 63.411 46.5848C52.3691 51.0784 40.5723 53.4985 30.2929 61.2553C23.8248 66.3817 17.3061 78.687 9.72005 80.7762C9.13586 79.8803 8.5512 78.9846 7.96685 78.089C7.69998 78.0711 7.43311 78.0532 7.16656 78.0355C0.0801848 90.8042 -6.03616 103.31 -14.0149 114.227C-14.1184 114.166 -14.2215 114.106 -14.3246 114.046C-6.78555 103.059 -0.738111 90.2203 6.49459 78.4732C6.22773 78.4553 5.96086 78.4374 5.69382 78.4198C1.15429 83.0986 -3.38744 87.7789 -7.92696 92.4577C-2.95667 83.9127 3.23996 78.4579 9.72487 75.7956C9.87085 76.0194 10.0171 76.2433 10.1631 76.467C9.94716 77.3099 9.73137 78.1524 9.51509 78.9951C9.88525 79.0731 10.2556 79.1515 10.6252 79.2296C15.9793 74.7867 22.0369 69.4374 26.3142 63.0795C19.4322 64.0318 8.294 65.0745 2.70593 70.0266C4.17854 71.1792 4.29863 70.6884 4.6408 72.4048C-6.11817 80.4731 -24.3374 74.8923 -31.5745 85.2621ZM249.382 108.915C249.528 109.139 249.675 109.363 249.821 109.587C247.621 112.619 245.128 115.098 242.198 115.507C244.592 113.31 246.988 111.112 249.382 108.915ZM276.947 125.047C277.153 125.168 277.36 125.289 277.566 125.41C277.136 125.435 276.705 125.46 276.275 125.485C276.499 125.339 276.723 125.193 276.947 125.047ZM285.128 130.251C284.829 130.461 285.254 130.605 284.456 130.688C284.68 130.543 284.904 130.397 285.128 130.251ZM143.718 47.9047C143.076 48.9292 141.008 50.0437 139.378 50.348C140.825 49.5336 142.272 48.7188 143.718 47.9047ZM230.256 98.9674C229.923 99.3814 230.149 99.4446 229.404 99.7144C229.688 99.4654 229.972 99.2161 230.256 98.9674ZM273.306 124.163C273.392 124.49 273.478 124.817 273.564 125.144C273.4 125.187 273.237 125.229 273.073 125.272C272.927 125.048 272.781 124.824 272.635 124.6C272.859 124.455 273.082 124.309 273.306 124.163ZM283.837 130.326C284.043 130.447 284.249 130.568 284.456 130.688C284.026 130.713 283.595 130.738 283.165 130.763C283.389 130.617 283.613 130.471 283.837 130.326ZM149.808 53.13C150.118 53.3111 150.428 53.4925 150.737 53.6738C150.204 53.638 149.67 53.6027 149.136 53.5674C149.36 53.4214 149.584 53.2754 149.808 53.13ZM229.094 99.5331C228.76 99.9468 228.987 100.01 228.242 100.279C228.525 100.031 228.81 99.7816 229.094 99.5331ZM262.929 120.581C263.118 120.968 263.307 121.356 263.496 121.744C263.289 121.623 263.083 121.502 262.877 121.381C260.941 120.663 259.004 119.945 257.068 119.227C259.022 119.678 260.976 120.13 262.929 120.581ZM268.942 124.516C269.148 124.636 269.355 124.757 269.562 124.878C269.131 124.903 268.7 124.928 268.27 124.953C268.494 124.807 268.718 124.661 268.942 124.516ZM255.701 118.012C255.89 118.399 256.079 118.787 256.268 119.174C256.061 119.054 255.855 118.933 255.648 118.812C252.688 118.186 249.727 117.561 246.767 116.936C249.469 116.199 253.018 118.156 255.701 118.012ZM141.003 52.5443C141.416 52.7861 141.829 53.0278 142.242 53.2694C141.442 53.2164 140.641 53.1633 139.841 53.1103C140.228 52.9217 140.616 52.7329 141.003 52.5443ZM137.234 51.1694C136.829 51.6244 136.424 52.0797 136.019 52.5348C136.863 52.7515 137.706 52.9681 138.55 53.1848C138.325 53.3306 138.102 53.4766 137.878 53.6225C134.245 53.4345 130.613 53.2466 126.981 53.0587C130.398 52.4291 133.817 51.7991 137.234 51.1694ZM218.583 100.441C218.79 100.562 218.996 100.683 219.203 100.804C218.755 101.095 218.307 101.387 217.859 101.679C216.422 101.529 214.984 101.38 213.547 101.231C215.226 100.968 216.905 100.704 218.583 100.441ZM245.037 116.339C245.347 116.52 245.657 116.702 245.966 116.883C245.192 117.26 244.417 117.637 243.641 118.013C238.339 118.786 233.035 119.558 227.733 120.331C233.297 115.64 239.653 118.153 245.037 116.339ZM138.106 57.4939C140.36 59.0895 142.614 60.6859 144.868 62.2817C140.025 59.6559 132.085 58.799 128.658 54.4558C131.807 55.4685 134.957 56.4811 138.106 57.4939ZM213.7 103.812C214.113 104.054 214.526 104.295 214.939 104.537C214.878 104.64 214.818 104.743 214.757 104.847C214.405 104.502 214.052 104.157 213.7 103.812ZM126.438 53.987C126.851 54.2286 127.263 54.4703 127.676 54.7119C127.04 54.6159 126.403 54.5201 125.766 54.4241C125.99 54.2785 126.214 54.1325 126.438 53.987ZM123.417 53.4647C123.83 53.7065 124.243 53.9482 124.656 54.19C124.596 54.293 124.535 54.396 124.475 54.4993C124.122 54.1542 123.77 53.8096 123.417 53.4647ZM121.997 53.049C122.083 53.3759 122.169 53.7032 122.254 54.0299C121.084 53.8989 119.913 53.7673 118.743 53.636C119.828 53.4406 120.912 53.2445 121.997 53.049ZM203.141 100.54C203.451 100.721 203.761 100.902 204.07 101.084C203.537 101.048 203.003 101.013 202.47 100.977C202.693 100.831 202.917 100.685 203.141 100.54ZM54.5562 14.8244C54.8234 16.1012 54.6094 16.7795 53.6752 18.4616C53.5718 18.4011 53.4687 18.3407 53.3655 18.2803C53.7625 17.1281 54.1595 15.976 54.5562 14.8244ZM228.562 117.493C228.914 117.838 229.267 118.183 229.62 118.528C228.509 118.293 227.399 118.059 226.289 117.825C227.046 117.714 227.804 117.604 228.562 117.493ZM147.055 70.6218C145.123 74.2859 133.69 77.6462 129.726 72.5229C135.778 75.1219 142.188 73.7118 147.055 70.6218ZM197.228 99.9862C197.435 100.107 197.641 100.228 197.848 100.349C197.357 100.477 196.866 100.605 196.376 100.733C195.963 100.491 195.55 100.249 195.137 100.007C195.834 100.001 196.531 99.9931 197.228 99.9862ZM61.7035 21.0838C61.4463 24.6215 56.7074 28.8687 54.5432 29.7666C56.9297 26.8726 59.317 23.9778 61.7035 21.0838ZM224.869 117.409C225.075 117.529 225.282 117.65 225.488 117.771C222.932 118.351 220.374 118.931 217.817 119.511C218.119 118.996 218.421 118.48 218.723 117.965C210.792 117.815 198.267 110.473 191.045 113.393C191.277 113.944 191.508 114.496 191.74 115.046C191.516 115.192 191.293 115.338 191.068 115.484C190.329 115.328 189.588 115.171 188.848 115.015C190.701 113.877 190.24 112.865 191.64 111.666C194.411 111.903 197.183 112.141 199.954 112.379C207.864 113.608 217.26 118.62 224.869 117.409ZM260.486 138.254C261.561 139.022 262.636 139.789 263.711 140.557C263.651 140.66 263.591 140.763 263.53 140.867C261.259 139.538 258.988 138.208 256.717 136.879C257.973 137.337 259.229 137.796 260.486 138.254ZM264.202 140.429C264.968 141.016 265.733 141.602 266.499 142.189C266.438 142.292 266.378 142.395 266.318 142.498C265.613 141.808 264.907 141.119 264.202 140.429ZM268.228 142.785C268.538 142.967 268.848 143.148 269.158 143.329C268.83 143.415 268.503 143.5 268.176 143.586C268.193 143.319 268.211 143.052 268.228 142.785ZM193.226 99.7201C193.432 99.841 193.639 99.9619 193.845 100.083C192.604 100.78 192.211 100.54 190.772 100.361C190.687 100.033 190.601 99.7062 190.515 99.3794C191.419 99.493 192.322 99.6062 193.226 99.7201ZM274.499 147.702C274.808 147.883 275.118 148.064 275.428 148.245C275.101 148.33 274.774 148.416 274.447 148.501C274.464 148.235 274.481 147.968 274.499 147.702ZM276.357 148.789C277.991 150.022 279.626 151.256 281.26 152.489C279.209 151.406 277.122 150.162 276.357 148.789ZM112.649 53.3917C113.471 54.3518 111.554 54.3026 110.633 54.704C113.337 55.5139 118.006 57.4814 119.615 59.9606C115.143 57.1803 111.218 55.7106 107.56 54.982C108.008 54.6901 108.456 54.3987 108.904 54.1072C105.358 54.2461 101.811 54.3855 98.2643 54.5247C98.3248 54.4214 98.3851 54.3184 98.4454 54.2154C103.21 52.0068 106.938 54.8751 112.649 53.3917ZM53.3132 19.0803C52.9162 20.2317 52.5192 21.3839 52.1222 22.5361C52.0187 22.4755 51.9156 22.4152 51.8125 22.3548C52.3126 21.263 52.8131 20.1713 53.3132 19.0803ZM266.084 143.607C266.704 143.97 267.323 144.332 267.943 144.695C267.719 144.84 267.495 144.986 267.271 145.132C266.133 144.226 266.508 144.873 266.084 143.607ZM260.329 140.654C261.98 141.62 263.632 142.588 265.284 143.554C265.06 143.7 264.836 143.846 264.612 143.991C259.579 141.461 254.545 138.93 249.513 136.4C253.118 137.818 256.724 139.236 260.329 140.654ZM247.473 135.622C247.929 136.027 248.385 136.432 248.841 136.837C248.574 136.82 248.307 136.802 248.04 136.784C246.888 136.386 245.734 135.988 244.581 135.59C245.545 135.601 246.509 135.611 247.473 135.622ZM242.413 134.321C242.869 134.727 243.325 135.132 243.781 135.537C242.672 135.775 241.85 135.989 241.25 134.887C239.813 134.738 238.376 134.589 236.939 134.44C238.763 134.4 240.589 134.361 242.413 134.321ZM231.983 131.539C232.19 131.66 232.396 131.781 232.603 131.902C229.288 132.592 225.973 133.283 222.659 133.973C225.654 134.065 228.65 134.157 231.645 134.249C231.421 134.394 231.197 134.54 230.974 134.686C225.973 134.943 220.97 135.2 215.969 135.456C217.502 134.969 219.035 134.481 220.568 133.994C216.427 134.201 212.286 134.408 208.146 134.615C215.558 131.637 224.523 134.168 231.983 131.539ZM86.5481 46.8367C86.6394 47.8743 86.7782 47.7957 85.9525 48.5649C85.8491 48.5044 85.7459 48.444 85.6428 48.3837C85.9446 47.868 86.2464 47.3524 86.5481 46.8367ZM212.676 121.901C210.011 126.137 191.109 130.265 186.438 124.817C195.354 128.141 205.33 125.162 212.676 121.901ZM175.949 100.821C176.259 101.002 176.569 101.184 176.879 101.365C176.819 101.468 176.758 101.571 176.698 101.675C173.393 101.401 170.087 101.128 166.783 100.855C166.722 100.958 166.662 101.061 166.601 101.164C170.963 103.04 175.903 105.035 179.481 108.287C179.42 108.39 179.36 108.493 179.3 108.596C164.081 98.6362 155.764 102.437 143.155 100.731C153.382 95.8462 164.752 102.124 175.949 100.821ZM121.774 71.1909C122.35 72.2671 121.529 71.9285 120.559 72.5565C121.075 72.8585 121.592 73.1607 122.108 73.4629C110.195 82.5498 93.8519 67.9016 81.5897 75.9119C81.5119 76.2813 81.4338 76.6512 81.3564 77.0208C83.1368 78.0375 83.8098 78.6489 84.2198 79.9425C73.2927 84.23 59.7139 74.8701 52.7309 91.8293C53.4967 92.4157 54.2624 93.0021 55.0279 93.5889C59.2425 92.2474 88.4804 87.7405 92.7587 89.5085C92.3968 90.1269 92.0345 90.7458 91.6726 91.3642C90.6585 89.8503 91.2975 89.7418 89.3232 90.4048C77.7127 91.914 65.9579 93.3829 54.3037 94.8262C53.427 93.4825 52.5501 92.1383 51.6733 90.7946C54.2869 81.5028 65.1271 77.2147 72.756 78.2166C76.7217 78.7377 79.3771 80.6302 82.8 79.5268C82.8602 79.4238 82.9205 79.3208 82.981 79.2175C81.0109 78.1142 80.6015 77.7907 80.608 76.1675C80.7462 75.6948 80.8844 75.2221 81.0225 74.7489C92.6261 68.7934 107.456 76.3552 119.964 74.2845C119.936 72.42 119.729 72.1652 120.974 71.138C121.24 71.1554 121.507 71.1733 121.774 71.1909ZM84.7376 49.9303C85.2816 54.2105 78.7581 58.9848 76.414 59.1784C79.4518 56.4895 81.9522 54.9949 84.7376 49.9303ZM56.8876 35.7071C56.9978 36.8402 56.8548 36.3457 55.725 36.2726C56.1124 36.084 56.5001 35.8952 56.8876 35.7071ZM92.0134 56.6799C96.0275 62.2293 107.03 64.862 111.368 70.4996C111.162 70.3787 110.955 70.2578 110.749 70.1371C103.239 69.0388 95.8311 59.6413 88.8877 57.7579C89.9297 57.3984 90.9718 57.0395 92.0134 56.6799ZM72.0109 45.3884C71.9333 45.7583 71.8552 46.1283 71.7775 46.4977C71.6744 46.4373 71.5712 46.3769 71.4678 46.3164C71.6486 46.0074 71.8299 45.6977 72.0109 45.3884ZM222.04 133.61C221.652 133.799 221.264 133.987 220.877 134.176C221.368 134.048 221.859 133.919 222.349 133.791C222.246 133.731 222.143 133.671 222.04 133.61ZM48.5492 32.903C48.3182 35.0702 43.5666 36.756 41.417 38.696C45.6951 38.0162 49.9746 37.3361 54.2527 36.6563C51.6159 38.403 48.7153 37.7884 45.7813 38.3428C35.9456 41.7218 26.0099 45.1273 16.1791 48.4268C21.9362 49.7199 27.6944 51.0131 33.4515 52.3061C33.2273 52.4519 33.0034 52.5979 32.7793 52.7436C26.0159 51.2766 19.2503 49.809 12.4869 48.342C6.28962 48.7211 0.135655 52.0364 -5.59493 54.3711C-26.6079 62.9317 -50.5844 71.128 -68.0424 92.1585C-68.1458 92.0979 -68.249 92.0376 -68.3521 91.9772C-59.3714 77.6186 -45.9827 73.6414 -36.1261 63.911C-35.8562 65.4917 -36.7406 64.6626 -35.2488 65.2545C-30.0576 59.6399 -22.2849 57.6857 -16.1053 55.2795C5.09537 47.0226 29.1311 47.8706 48.5492 32.903ZM259.152 156.161C261.947 157.647 263.894 159.27 264.442 161.333C261.525 158.63 258.073 155.338 254.297 156.642C254.237 156.745 254.177 156.848 254.116 156.951C254.615 157.52 255.114 158.089 255.613 158.658C255.552 158.761 255.492 158.864 255.432 158.967C254.726 158.278 254.021 157.588 253.316 156.898C253.557 156.486 253.799 156.073 254.04 155.661C255.744 155.828 257.449 155.995 259.152 156.161ZM278.665 167.581C278.871 167.702 279.077 167.823 279.284 167.943C278.853 167.969 278.423 167.993 277.992 168.019C278.217 167.873 278.44 167.727 278.665 167.581ZM70.3051 46.8822C69.5488 49.5463 62.7055 53.554 59.9949 54.5523C63.4136 52.0266 66.8689 49.4384 70.3051 46.8822ZM265.862 161.749C266.524 162.275 267.186 162.801 267.848 163.327C266.276 162.456 266.425 162.865 265.862 161.749ZM227.558 142.654C231.505 144.859 234.288 147.208 236.744 149.691C236.684 149.794 236.624 149.897 236.563 150C231.949 147.3 227.271 144.562 222.626 141.844C224.27 142.114 225.914 142.384 227.558 142.654ZM255.87 159.639C255.508 160.258 255.146 160.877 254.784 161.495C254.638 161.271 254.491 161.047 254.346 160.823C254.406 160.72 254.466 160.617 254.527 160.514C254.974 160.222 255.422 159.931 255.87 159.639ZM175.474 113.001C175.783 113.182 176.093 113.364 176.403 113.545C176.343 113.648 176.282 113.751 176.222 113.855C173.518 113.167 170.189 113.011 167.855 113.941C170.747 116.727 178.858 120.997 181.196 123.826C175.869 121.173 170.63 117.855 167.183 114.379C167.425 113.966 167.666 113.554 167.908 113.141C170.312 111.031 172.597 112.928 175.474 113.001ZM21.6763 23.4049C19.5134 26.1528 17.3501 28.9021 15.1874 31.6504C15.0839 31.5899 14.9808 31.5295 14.8777 31.4692C17.1435 28.7812 19.4103 26.0924 21.6763 23.4049ZM237.673 150.235C238.026 150.58 238.378 150.925 238.731 151.269C238.404 151.355 238.077 151.44 237.749 151.526C237.724 151.096 237.699 150.665 237.673 150.235ZM211.787 135.5C211.993 135.62 212.199 135.741 212.406 135.862C207.989 137.015 203.572 138.167 199.156 139.32C215.489 148.638 230.935 158.535 243.983 169.293C249.608 173.416 255.235 177.54 260.86 181.662C259.105 180.635 257.35 179.608 255.595 178.581C261.451 182.353 265.095 186.831 269.27 190.737C269.209 190.84 269.149 190.943 269.089 191.047C264.264 186.977 259.438 182.906 254.613 178.837C244.931 170.647 229.45 166.05 222.612 156.786C226.845 159.263 231.078 161.741 235.311 164.218C222.6 155.671 209.64 146.979 196.806 138.36C198.339 137.873 199.872 137.386 201.404 136.898C204.864 136.432 208.326 135.966 211.787 135.5ZM239.041 151.451C243.064 154.753 249.059 158.062 254.036 160.642C253.812 160.788 253.588 160.934 253.364 161.079C249.287 159.703 239.476 155.945 239.041 151.451ZM273.004 172.989C273.976 173.697 274.949 174.404 275.921 175.111C275.86 175.215 275.8 175.318 275.739 175.421C269.214 172.329 259.918 175.009 255.242 169.238C255.302 169.135 255.362 169.032 255.423 168.929C261.283 170.282 267.175 171.654 273.004 172.989ZM117.167 82.6145C115.267 85.4888 96.9423 92.4558 92.7826 91.5989C100.91 88.6043 109.04 85.6088 117.167 82.6145ZM142.873 97.6594C140.556 101.583 122.882 102.55 117.069 106.227C116.983 105.901 116.897 105.574 116.811 105.247C125.071 100.247 134.363 101.147 142.873 97.6594ZM205.744 134.455C205.951 134.576 206.158 134.697 206.364 134.818C202.976 136.489 193.519 138.181 189.864 133.882C195.359 136.516 201.371 136.376 205.744 134.455ZM76.1043 58.9972C75.7706 59.4111 75.9972 59.4743 75.2515 59.7439C75.536 59.4951 75.8203 59.2458 76.1043 58.9972ZM216.532 141.599C216.739 141.72 216.945 141.841 217.152 141.962C216.434 141.948 216.918 142.204 216.532 141.599ZM185.018 124.401C185.431 124.643 185.844 124.885 186.257 125.126C186.196 125.229 186.136 125.332 186.076 125.436C185.723 125.091 185.371 124.746 185.018 124.401ZM215.37 142.165C215.204 143.034 214.617 143.262 213.664 143.658C214.232 143.161 214.801 142.663 215.37 142.165ZM181.869 123.388C182.282 123.63 182.694 123.872 183.108 124.114C183.047 124.217 182.987 124.32 182.926 124.423C182.574 124.078 182.221 123.733 181.869 123.388ZM275.039 178.749C275.392 179.093 275.744 179.438 276.097 179.783C276.036 179.886 275.976 179.989 275.916 180.092C275.623 179.644 275.331 179.196 275.039 178.749ZM216.89 145.961C223.522 149.723 230.639 153.904 234.748 158.074C234.688 158.178 234.627 158.281 234.567 158.384C228.706 154.261 222.782 150.102 216.89 145.961ZM252.764 167.788C253.177 168.03 253.59 168.271 254.003 168.513C253.779 168.659 253.555 168.805 253.331 168.95C252.529 168.261 251.671 168.308 252.764 167.788ZM250.415 166.828C250.767 167.173 251.12 167.518 251.473 167.863C251.412 167.966 251.352 168.069 251.291 168.172C250.392 167.521 249.247 167.37 250.415 166.828ZM237.226 159.525C237.432 159.645 237.639 159.766 237.845 159.887C237.128 159.873 237.612 160.13 237.226 159.525ZM58.3419 55.246C58.0403 55.7614 57.7385 56.277 57.4367 56.7927C57.3333 56.7321 57.2301 56.6718 57.127 56.6114C57.5319 56.1561 57.9368 55.7008 58.3419 55.246ZM188.134 133.285C188.547 133.527 188.96 133.769 189.373 134.01C189.313 134.113 189.253 134.216 189.193 134.319C188.84 133.975 188.487 133.63 188.134 133.285ZM14.2057 31.906C13.3381 38.4547 5.46753 44.4913 2.20916 48.1412C2.10602 48.0808 2.00289 48.0204 1.89945 47.9599C5.74991 42.6611 10.2723 38.3909 14.2057 31.906ZM179.592 128.7C181.079 129.71 182.568 130.719 184.056 131.728C183.85 131.608 183.643 131.487 183.437 131.366C181.518 130.382 179.599 129.397 177.68 128.413C178.317 128.509 178.955 128.604 179.592 128.7ZM174.584 126.6C175.039 127.005 175.495 127.41 175.951 127.816C175.891 127.919 175.831 128.022 175.77 128.125C164.482 123.733 153.19 119.34 141.902 114.948C152.795 118.832 163.691 122.716 174.584 126.6ZM55.4737 57.3049C55.1721 57.8203 54.8703 58.3359 54.5685 58.8516C54.4651 58.791 54.3619 58.7307 54.2588 58.6703C54.6637 58.215 55.0687 57.7597 55.4737 57.3049ZM188.03 134.885C191.875 137.55 195.751 140.235 199.565 142.882C193.44 139.095 183.133 131.501 178.038 132.775C183.403 134.057 191.299 141.198 192.643 145.475C179.735 134.934 171.708 129.196 156.097 124.086C152.149 122.794 144.455 117.776 141.279 119.567C142.048 120.54 141.652 119.777 141.846 120.729C141.742 120.668 141.639 120.608 141.536 120.547C140.065 119.272 138.594 117.995 137.124 116.72C140.013 116.418 143.323 118.737 146.572 119.757C156.166 123.019 165.762 126.282 175.356 129.544C179.58 131.324 183.806 133.105 188.03 134.885ZM131.61 102.695C131.318 103.692 130.921 103.768 129.594 104.007C130.266 103.57 130.939 103.132 131.61 102.695ZM65.8988 65.0675C65.5651 65.4814 65.7917 65.5447 65.0463 65.8144C65.3305 65.5654 65.6148 65.3161 65.8988 65.0675ZM53.9488 58.4889C52.226 60.2488 50.5027 62.009 48.7795 63.7691C48.6763 63.7087 48.5732 63.6484 48.4698 63.5878C48.7715 63.0722 49.0733 62.5565 49.3749 62.0412C50.8996 60.8571 52.4247 59.6728 53.9488 58.4889ZM212.34 151.604C212.753 151.846 213.166 152.088 213.579 152.329C213.518 152.432 213.458 152.535 213.397 152.639C213.045 152.294 212.692 151.949 212.34 151.604ZM62.2586 64.1828C54.5172 68.6488 46.7737 73.1164 39.0323 77.5823C45.3211 69.7932 54.0788 67.9046 62.2586 64.1828ZM64.2458 65.7612C63.9118 66.1749 64.1384 66.2382 63.3932 66.5076C63.6772 66.2589 63.9615 66.0097 64.2458 65.7612ZM215.075 154.036C220.439 157.432 224.19 162.453 227.278 166.576C242.986 187.55 230.534 202.83 233.37 225.79C234.286 233.199 238.094 237.566 241.695 243.536C243.993 247.345 244.548 250.982 249.51 254.339C249.183 254.424 248.855 254.509 248.528 254.595C237.545 244.69 231.412 230.12 231.831 214.922C232.121 206.014 238.963 190.834 233.563 183.544C233.432 183.749 233.04 184.769 232.892 183.982C235.435 171.708 221.995 164.056 215.075 154.036ZM127.994 103.901C128.878 104.784 127.816 104.393 127.141 104.648C127.425 104.399 127.71 104.15 127.994 103.901ZM63.0835 66.3263C60.1726 68.2216 57.2606 70.1174 54.3501 72.0128C54.8837 72.0481 55.4173 72.0834 55.9509 72.1187C38.7087 79.7551 21.6693 91.7759 8.01625 109.264C8.11938 109.324 8.22252 109.385 8.32596 109.445C10.4521 108.89 12.5794 108.335 14.7057 107.781C17.0384 107.346 19.372 106.912 21.7048 106.478C17.4588 109.773 10.5597 111.291 5.14804 111.323C21.0929 88.2047 43.2514 76.3888 63.0835 66.3263ZM225.81 161.98C233.504 167.955 237.703 178.027 237.099 186.028C236.49 183.042 235.882 180.056 235.273 177.069C232.119 172.04 228.964 167.009 225.81 161.98ZM125.85 104.722C126.056 104.843 126.263 104.964 126.469 105.085C125.752 105.071 126.236 105.327 125.85 104.722ZM219.073 159.282C223.388 164.162 223.262 172.913 219.493 179.877C219.39 179.817 219.287 179.756 219.184 179.696C222.959 171.703 219.994 166.032 219.073 159.282ZM272.653 190.641C272.886 191.75 272.81 190.686 272.42 191.75C272.152 191.732 271.886 191.714 271.619 191.697C271.37 191.412 271.12 191.128 270.871 190.843C270.931 190.74 270.991 190.637 271.052 190.534C271.585 190.57 272.119 190.605 272.653 190.641ZM122.724 105.8C122.931 105.921 123.137 106.042 123.344 106.162C121.734 107.02 120.123 107.877 118.513 108.734C118.616 108.794 118.719 108.855 118.822 108.915C121.697 109.48 125.559 111.612 125.559 111.612C122.126 110.849 118.692 110.085 115.258 109.321C115.319 109.218 115.379 109.115 115.439 109.011C117.867 107.941 120.296 106.871 122.724 105.8ZM270.457 192.262C271.927 193.538 273.398 194.815 274.869 196.091C274.808 196.194 274.748 196.297 274.688 196.4C273.277 195.021 271.866 193.641 270.457 192.262ZM133.383 112.454C133.796 112.695 134.209 112.937 134.622 113.179C134.562 113.282 134.501 113.385 134.441 113.488C132.49 113.115 130.604 112.784 129.433 111.388C130.75 111.743 132.067 112.098 133.383 112.454ZM104.347 96.7053C103.479 101.405 96.2979 102.14 93.4167 104.013C101.041 105.679 108.079 104.611 115.106 106.74C107.842 109.666 94.7272 106.531 86.2128 103.534C92.6196 102.384 99.2017 102.633 104.347 96.7053ZM127.832 111.282C128.245 111.523 128.658 111.765 129.071 112.007C128.804 111.989 128.537 111.971 128.271 111.953C127.694 111.754 127.118 111.555 126.541 111.356C126.971 111.331 127.402 111.306 127.832 111.282ZM131.496 114.257C161.854 131.373 160.245 160.542 163.685 185.006C164.68 192.076 170.324 203.573 174.069 210.601C176.595 215.314 179.189 220.799 184.076 224.764C184.015 224.867 183.955 224.97 183.895 225.073C171.203 216.033 169.672 202.971 164.686 191.821C163.916 196.215 163.146 200.61 162.376 205.004C162.273 204.944 162.17 204.883 162.067 204.823C162.187 204.616 162.308 204.41 162.429 204.204C162.606 198.217 162.784 192.23 162.961 186.243C162.386 168.611 158.86 147.63 149.117 132.46C146.497 128.38 139.059 118.98 132.631 116.582C122.919 112.958 114.016 112.471 105.005 111.21C90.3724 109.164 76.2548 106.549 62.3754 106.61C54.8054 106.643 44.8751 104.891 38.0237 107.723C41.7828 110.062 45.5428 112.401 49.3019 114.739C44.1968 112.166 39.0285 109.557 33.8928 106.967C34.4437 106.735 34.995 106.504 35.5458 106.273C40.0735 105.878 44.6023 105.482 49.1296 105.087C58.382 105.38 67.6365 105.674 76.8887 105.968C95.0714 108.761 113.296 111.494 131.496 114.257ZM180.559 143.386C197.69 153.071 209.252 162.974 214.462 175.687C215 179.739 215.539 183.792 216.077 187.845C216.99 186.995 217.904 186.145 218.817 185.296C224.276 194.13 211.108 202.724 209.909 213.305C209.499 216.918 214.015 221.666 214.183 226.604C216.114 227.528 216.651 227.994 217.719 229.088C216.829 236.709 221.288 247.289 227.897 252.902C227.837 253.005 227.777 253.108 227.716 253.212C223.065 249.77 217.555 242.738 216.652 238.015C216.56 235.331 216.467 232.647 216.375 229.963C215.154 228.971 213.932 227.979 212.711 226.988C212.671 226.915 208.746 213.87 208.746 213.87C210.278 204.644 221.111 195.206 218.04 187.333C217.041 187.855 216.042 188.378 215.043 188.901C213.356 184.775 214.853 179.799 213.17 175.762C207.391 161.895 191.009 148.715 172.66 141.255C172.539 141.461 172.418 141.667 172.298 141.873C181.015 146.942 187.059 157.81 186.349 165.463C186.116 169.828 180.73 171.443 181.9 174.487C183.791 176.701 185.684 178.916 187.575 181.131C189.749 185.081 191.163 199.584 185.518 200.275C185.5 200.542 185.483 200.809 185.466 201.075C186.531 202.806 187.597 204.538 188.663 206.269C188.603 206.372 188.542 206.475 188.482 206.578C187.175 205.259 185.867 203.94 184.561 202.622C184.613 201.822 184.665 201.022 184.717 200.222C196.187 194.273 180.46 177.36 180.871 170.562C193.188 164.77 175.131 146.728 170.93 140.658C171.317 140.469 171.705 140.281 172.093 140.092C174.915 141.19 177.737 142.289 180.559 143.386ZM245.985 182.924C247.972 184.501 249.959 186.08 251.945 187.658C249.614 186.432 247.282 185.205 244.951 183.98C245.378 188.324 245.582 192.435 245.585 196.394C246.875 197.979 248.165 199.565 249.455 201.15C252.232 204.839 252.227 211.477 250.06 216.455C248.941 217.184 247.821 217.913 246.701 218.642C246.598 218.581 246.495 218.521 246.392 218.46C253.939 206.029 247.224 201.821 243.083 192.853C244.296 192.644 243.852 192.522 245.175 192.832C244.832 191.524 244.489 190.215 244.146 188.907C244.104 187.083 244.063 185.259 244.021 183.436C244.676 183.265 245.33 183.094 245.985 182.924ZM147.006 125.41C163.936 138.59 161.2 158.188 164.133 175.716C165.302 177.508 166.471 179.3 167.64 181.091C166.832 180.341 166.023 179.591 165.214 178.841C165.154 178.944 165.094 179.047 165.033 179.15C165.161 181.301 165.288 183.452 165.415 185.603C165.183 185.052 164.951 184.501 164.719 183.95C164.111 180.964 163.503 177.977 162.894 174.991C161.259 162.68 160.844 150.386 155.774 138.847C152.852 134.368 149.928 129.889 147.006 125.41ZM256.486 191.977C264.288 198.535 264.578 207.405 263.902 216.25C265.958 216.148 266.66 215.921 267.851 217.316C267.453 220.564 268.027 223.386 266.732 227.043C266.629 226.982 266.526 226.922 266.423 226.861C266.543 226.655 266.664 226.449 266.784 226.243C266.722 222.978 267.486 220.156 266.25 217.21C265.098 216.812 263.944 216.413 262.792 216.015C264.61 206.811 260.041 199.846 256.486 191.977ZM282.76 208.184C285.626 211.66 286.73 217.961 285.2 222.486C285.054 222.262 284.907 222.038 284.762 221.814C285.689 217.066 283.335 212.618 282.76 208.184ZM84.802 93.1574C84.7242 93.5268 84.6462 93.8968 84.5688 94.2663C84.4653 94.2058 84.3622 94.1454 84.259 94.0851C84.4399 93.776 84.6211 93.4664 84.802 93.1574ZM143.233 129.016C144.011 131.235 143.871 134.05 142.89 136.705C142.787 136.645 142.684 136.584 142.58 136.524C142.701 136.318 142.821 136.112 142.942 135.906C143.039 133.609 143.136 131.312 143.233 129.016ZM237.228 186.519C238.772 190.55 238.953 197.234 238.324 201.696C237.989 201.085 237.654 200.473 237.319 199.862C236.957 200.48 236.595 201.099 236.233 201.717C236.353 201.511 236.474 201.305 236.595 201.099C236.788 196.27 237.017 191.378 237.228 186.519ZM81.3909 96.144C81.0584 97.8643 78.9105 99.5287 77.4361 100.059C78.7543 98.7541 80.0725 97.4488 81.3909 96.144ZM233.097 185.763C233.001 186.399 232.906 187.035 232.811 187.672C232.708 187.611 232.604 187.551 232.501 187.49C232.622 187.284 232.743 187.078 232.863 186.872C232.941 186.502 233.019 186.132 233.097 185.763ZM286.386 224.011C287.145 226.916 286.444 231.216 285.215 234.538C284.983 233.987 284.751 233.436 284.519 232.885C284.711 229.952 284.903 227.018 285.095 224.086C285.259 224.043 285.422 224 285.586 223.957C285.853 223.975 286.119 223.993 286.386 224.011ZM137.598 163.508C136.729 162.862 135.86 162.215 134.992 161.568C130.346 155.088 133.668 146.03 130.674 139.107C124.529 124.902 98.7307 119.562 88.5199 122.326C88.4595 122.43 88.3992 122.533 88.3389 122.636C96.7484 127.6 107.272 135.602 108.256 142.598C107.688 143.096 107.119 143.594 106.55 144.092C109.051 146.111 110.059 149.143 108.428 152.251C107.731 152.258 107.034 152.265 106.337 152.272C106.973 156.145 111.065 157.992 113.146 161.241C116.966 167.206 117.11 174.677 115.968 181.995C115.417 182.227 114.865 182.458 114.314 182.689C113.652 182.163 112.99 181.637 112.328 181.111C112.205 186.697 117.408 198.35 112.643 203.306C111.535 201.411 110.426 199.516 109.317 197.622C108.947 197.543 108.577 197.465 108.207 197.387C107.5 198.358 106.794 199.328 106.087 200.299C107.901 202.883 109.715 205.468 111.528 208.052C114.994 215.621 109.718 215.295 118.848 223.964C118.503 224.315 118.159 224.667 117.814 225.019C116.11 224.853 114.405 224.686 112.702 224.519C113.192 224.391 113.683 224.263 114.174 224.135C106.494 219.93 99.9065 214.08 97.6873 208.257C102.915 212.929 106.457 217.885 114.279 222.535C114.296 222.268 114.313 222.002 114.331 221.735C110.35 218.422 110.212 214.321 110.933 209.779C98.9119 204.489 93.6584 194.389 88.514 186.276C87.9276 190.395 90.0049 193.491 90.8542 197.198C90.3984 196.792 89.9424 196.387 89.4865 195.982C89.113 201.469 90.7244 206.097 91.3837 211.212C82.7832 198.615 91.2342 178.235 82.1283 165.928C81.8868 166.34 81.6454 166.753 81.4041 167.165C81.5247 166.959 81.6454 166.753 81.766 166.547C81.5467 162.616 80.6941 159.39 80.2266 155.679C81.0684 157.556 81.9103 159.433 82.7523 161.31C82.9254 160.304 83.0982 159.297 83.2715 158.292C83.5034 158.842 83.7351 159.394 83.967 159.944C83.2658 164.29 85.6563 166.922 86.798 170.738C84.4892 171.554 87.2228 178.374 87.7705 180.443C90.7841 191.829 100.658 198.513 109.565 208.564C108.313 204.661 105.165 203.07 105.391 198.646C106.571 197.814 107.751 196.982 108.931 196.15C110.049 197.081 111.167 198.012 112.285 198.943C112.346 198.84 112.406 198.737 112.466 198.634C113.744 192.168 112.3 185.369 109.85 179.66C110.237 179.472 110.625 179.283 111.012 179.095C112.208 179.657 113.404 180.218 114.6 180.78C117.07 174.031 114.668 165.853 111.107 160.463C109.476 158.483 104.656 156.189 104.812 153.457C104.825 150.907 107.127 150.735 107.218 148.635C106.522 146.982 105.826 145.329 105.131 143.676C106.495 142.677 106.908 142.274 106.941 140.583C101.676 135.644 88.7363 127.414 86.8428 120.93C97.7885 121.861 121.778 119.905 130.702 136.217C134.992 144.059 132.477 153.988 136.412 161.984C136.678 162.001 136.945 162.019 137.212 162.037C138.039 160.86 138.867 159.683 139.694 158.506C139.961 158.524 140.228 158.542 140.494 158.559C144.287 162.262 138.134 175.116 138.28 180.104C138.466 186.431 141.633 184.54 145.323 187.963C146.533 189.132 146.587 192.609 147.486 194.213C148.098 193.878 148.709 193.544 149.321 193.21C149.819 193.779 150.318 194.348 150.816 194.916C149.114 205.436 156.309 232.595 172.808 234.78C172.582 232.547 172.069 231.987 174.309 231.505C176.776 233.919 179.245 236.333 181.713 238.746C179.167 236.702 176.621 234.659 174.075 232.615C173.911 232.657 173.748 232.7 173.585 232.743C173.842 233.724 174.099 234.705 174.356 235.687C174.176 235.996 173.994 236.305 173.813 236.614C173.546 236.597 173.28 236.579 173.013 236.561C158.757 231.757 150.641 217.205 149.54 207.043C149.475 203.129 149.41 199.214 149.344 195.3C148.363 195.556 147.381 195.813 146.4 196.069C145.757 193.616 145.113 191.163 144.47 188.71C142.178 185.933 139.214 186.67 137.889 183.613C134.88 176.661 139.538 168.136 140.88 160.031C140.287 160.099 139.693 160.167 139.098 160.234C138.598 161.326 138.098 162.417 137.598 163.508ZM76.6595 102.096C76.9692 102.277 77.2792 102.459 77.5889 102.64C77.5286 102.743 77.4683 102.846 77.4078 102.949C66.5387 100.442 52.5013 101.635 42.0305 103.009C36.8854 103.683 31.8838 107.106 26.1215 105.325C28.6353 104.582 31.15 103.838 33.6635 103.095C40.1367 102.454 46.6113 101.813 53.084 101.172C60.942 101.48 68.8019 101.788 76.6595 102.096ZM293.224 230.089C297.236 233.469 298.719 241.1 300.105 245.329C299.692 245.087 299.279 244.846 298.866 244.604C296.594 241.013 292.861 234.336 293.224 230.089ZM230.505 195.874C230.427 196.243 230.349 196.613 230.272 196.983C230.168 196.922 230.065 196.862 229.962 196.801C230.143 196.492 230.324 196.183 230.505 195.874ZM-28.8274 45.7573C-28.6814 45.9811 -28.5351 46.205 -28.389 46.4292C-29.1562 47.5027 -29.9232 48.5766 -30.69 49.6502C-30.0694 48.3527 -29.4482 47.0547 -28.8274 45.7573ZM230.09 197.292C229.754 198.341 229.417 199.39 229.081 200.439C228.935 200.215 228.788 199.991 228.642 199.767C229.125 198.942 229.608 198.117 230.09 197.292ZM236.542 201.899C236.465 202.268 236.386 202.638 236.309 203.008C236.205 202.948 236.102 202.887 235.999 202.827C236.18 202.518 236.361 202.208 236.542 201.899ZM302.716 242.289C303.275 242.754 303.834 243.22 304.393 243.685C304.333 243.789 304.272 243.892 304.212 243.995C302.839 243.277 302.669 243.201 301.681 243.345C301.604 243.714 301.526 244.084 301.448 244.454C301.302 244.23 301.156 244.006 301.01 243.782C301.578 243.284 302.147 242.786 302.716 242.289ZM304.212 243.995C304.771 244.46 305.33 244.926 305.889 245.392C305.562 245.477 305.235 245.563 304.907 245.648C304.822 245.321 304.736 244.994 304.65 244.667C304.504 244.443 304.358 244.219 304.212 243.995ZM286.015 234.591C285.902 235.494 285.79 236.397 285.677 237.3C289.137 242.469 287.443 249.807 289.638 255.399C289.31 255.484 288.983 255.569 288.656 255.655C288.253 254.45 287.849 253.245 287.446 252.04C286.612 246.43 285.717 240.784 284.853 235.157C285.24 234.968 285.628 234.779 286.015 234.591ZM139.341 149.163C139.178 151.288 137.123 156.839 135.382 158.059C136.702 155.094 138.021 152.128 139.341 149.163ZM295.073 241.138C295.658 242.034 296.242 242.93 296.827 243.826C296.603 243.971 296.379 244.117 296.155 244.263C296.026 243.772 295.897 243.281 295.769 242.791C295.537 242.24 295.305 241.689 295.073 241.138ZM266.732 227.043C266.655 227.413 266.577 227.783 266.499 228.152C266.396 228.092 266.293 228.031 266.189 227.971C266.37 227.662 266.551 227.352 266.732 227.043ZM-31.7004 52.7968C-31.7137 55.8717 -33.4579 59.4522 -35.583 62.983C-35.6861 62.9226 -35.7893 62.8623 -35.8927 62.8017C-35.7719 62.5954 -35.6512 62.3891 -35.5304 62.1827C-34.2538 59.0545 -32.9767 55.9253 -31.7004 52.7968ZM295.793 244.882C296.145 245.226 296.498 245.571 296.851 245.916C296.627 246.062 296.403 246.208 296.179 246.354C295.645 246.318 295.112 246.282 294.578 246.247C294.784 246.368 294.991 246.488 295.198 246.609C296.321 248.414 297.48 249.444 297.775 251.441C296.443 249.691 295.11 247.943 293.777 246.193C294.449 245.756 295.121 245.319 295.793 244.882ZM266.499 228.152C266.421 228.522 266.343 228.892 266.265 229.261C266.162 229.201 266.059 229.141 265.956 229.08C266.137 228.771 266.318 228.461 266.499 228.152ZM30.938 90.7022C29.9148 92.2308 27.1619 92.6342 25.2537 94.0199C25.1505 93.9595 25.0474 93.8992 24.9439 93.8386C26.7799 91.9555 28.7752 91.7042 30.938 90.7022ZM25.4917 87.9304C19.8321 93.3377 14.135 98.8087 8.51119 104.155C8.40805 104.095 8.30492 104.034 8.20148 103.974C12.8807 96.5351 20.0944 93.3372 25.4917 87.9304ZM157.428 165.148C157.558 168.253 156.45 171.755 154.346 175.387C154.243 175.327 154.14 175.266 154.037 175.206C153.933 175.146 153.83 175.085 153.727 175.025C154.96 171.733 156.195 168.44 157.428 165.148ZM266.265 229.261C266.188 229.631 266.11 230.001 266.032 230.371C265.929 230.31 265.826 230.25 265.722 230.189C265.903 229.88 266.084 229.57 266.265 229.261ZM-7.36591 71.6066C-6.95306 71.8482 -6.5402 72.0898 -6.12736 72.3315C-7.1341 72.1575 -8.14133 71.9838 -9.14836 71.8097C-8.55417 71.7421 -7.9601 71.6741 -7.36591 71.6066ZM246.287 220.06C247.146 221.67 248.006 223.281 248.865 224.891C247.724 225.561 247.331 226.213 246.926 227.494C246.677 227.21 246.427 226.925 246.178 226.641C246.678 225.549 247.178 224.458 247.678 223.367C246.28 222.115 246.133 221.696 246.287 220.06ZM265.513 233.389C265.983 238.166 268.86 245.58 268.649 249.344C265.068 244.801 263.364 239.549 265.513 233.389ZM298.652 252.784C299.236 253.68 299.821 254.576 300.405 255.471C300.078 255.557 299.751 255.642 299.424 255.728C299.167 254.747 298.909 253.765 298.652 252.784ZM81.2069 128.428C81.6197 128.67 82.0326 128.912 82.4457 129.153C82.3852 129.257 82.3249 129.36 82.2647 129.463C81.9118 129.118 81.5593 128.773 81.2069 128.428ZM-44.9504 56.2543C-45.554 57.2856 -46.1576 58.3169 -46.761 59.3479C-48.1201 58.829 -49.48 58.3101 -50.8396 57.7914C-51.8654 59.544 -52.8913 61.297 -53.9171 63.0497C-54.0202 62.9893 -54.1233 62.9289 -54.2268 62.8684C-52.7357 60.5579 -51.2442 58.2461 -49.7534 55.9354C-47.6686 57.7548 -46.7736 58.3862 -44.9504 56.2543ZM77.3856 127.853C78.4605 128.621 79.536 129.389 80.6114 130.156C80.3872 130.302 80.1633 130.448 79.9394 130.594C78.2877 129.627 76.6354 128.66 74.9837 127.694C75.7842 127.747 76.5851 127.8 77.3856 127.853ZM234.099 219.572C235.504 224.546 236.353 228.143 240.647 232.54C240.586 232.643 240.526 232.746 240.465 232.849C238.866 231.083 237.266 229.316 235.667 227.549C236.25 230.105 236.833 232.662 237.416 235.217C234.14 231.403 233.097 224.485 234.099 219.572ZM87.5532 134.635C87.8629 134.816 88.173 134.997 88.4823 135.179C88.1555 135.264 87.8282 135.349 87.501 135.434C87.5185 135.168 87.5361 134.901 87.5532 134.635ZM93.128 137.897C96.1474 140.079 99.167 142.262 102.186 144.444C102.126 144.548 102.066 144.651 102.005 144.754C98.2635 142.149 94.5209 139.543 90.7793 136.938C91.5623 137.258 92.3451 137.578 93.128 137.897ZM-27.0919 68.3673C-26.7822 68.5486 -26.4722 68.73 -26.1628 68.9111C-26.3867 69.0571 -26.6106 69.203 -26.8348 69.3488C-32.9127 68.0271 -37.1793 71.1724 -42.3052 72.3374C-37.3773 67.7248 -32.9657 69.0326 -27.0919 68.3673ZM71.8348 126.681C72.2903 127.086 72.7463 127.491 73.2018 127.897C72.9955 127.776 72.789 127.655 72.5824 127.534C70.5259 127.022 68.469 126.511 66.4124 125.999C66.2918 126.205 66.1711 126.412 66.0505 126.618C71.4842 130.306 72.6172 135.994 75.9281 140.29C77.8973 142.134 79.8673 143.979 81.8363 145.824C80.8472 145.383 79.8575 144.942 78.8684 144.502C78.8936 144.932 78.9189 145.362 78.9445 145.792C74.9644 140.279 70.9833 134.765 67.0033 129.252C62.5059 125.097 58.0066 120.941 53.5093 116.787C59.617 120.084 65.7267 123.383 71.8348 126.681ZM300.839 261.124C301.149 261.305 301.459 261.487 301.768 261.668C301.441 261.753 301.114 261.839 300.787 261.924C300.804 261.657 300.822 261.391 300.839 261.124ZM247.955 231.419C248.187 231.97 248.419 232.521 248.651 233.072C248.195 232.667 247.739 232.261 247.283 231.856C247.507 231.711 247.731 231.565 247.955 231.419ZM289.457 255.708C291.39 258.884 292.336 261.915 295.284 264.933C295.224 265.036 295.164 265.139 295.103 265.242C291.815 262.653 290.193 259.512 288.604 256.455C288.888 256.206 289.172 255.957 289.457 255.708ZM38.6671 110.176C56.1805 119.937 74.1072 132.562 76.4909 146.432C74.5912 143.522 72.6911 140.609 70.7919 137.698C70.7553 139.892 70.7189 142.086 70.6822 144.279C70.5364 144.055 70.3901 143.831 70.2439 143.607C70.9042 135.625 61.0635 125.347 52.0085 120.061C51.9912 120.327 51.9736 120.594 51.9559 120.861C52.9616 122.695 53.9671 124.53 54.9722 126.364C54.912 126.467 54.8517 126.57 54.7914 126.673C54.6882 126.612 54.5851 126.552 54.4817 126.491C50.4843 119.995 39.5318 109.835 29.9143 108.791C23.7163 108.237 -1.74264 116.068 -7.74488 119.143C-3.00272 119.565 1.77136 120.005 6.48268 120.41C6.42239 120.513 6.3621 120.616 6.30164 120.719C6.09506 120.598 5.88848 120.477 5.68191 120.356C-1.69827 121.349 -9.75518 120.363 -16.8876 121.267C-8.43904 115.481 8.85833 113.237 18.8606 110.628C22.5192 109.585 26.1794 108.543 29.838 107.5C32.7807 108.392 35.7244 109.284 38.6671 110.176ZM301.869 265.049C302.161 265.497 302.453 265.945 302.746 266.393C302.685 266.496 302.625 266.599 302.565 266.702C302.461 266.641 302.358 266.581 302.255 266.521C302.126 266.03 301.997 265.539 301.869 265.049ZM152.717 178.171C153.007 179.508 152.321 181.853 150.802 182.864C151.44 181.3 152.078 179.735 152.717 178.171ZM251.024 236.122C253.22 238.306 253.772 240.535 253.936 243.224C252.693 243.812 251.954 243.551 250.681 243.811C250.707 244.242 250.732 244.672 250.757 245.102C254.901 250.572 259.046 256.044 263.19 261.514C262.254 262.681 262.523 262.632 262.542 264.042C264.004 265.675 265.945 267.083 266.41 268.798C265.86 269.03 265.308 269.26 264.757 269.492C261.022 269.244 257.286 268.995 253.551 268.747C246.711 266.931 240.784 261.076 235.149 257.562C234.77 258.447 234.39 259.333 234.011 260.218C232.102 258.27 230.192 256.322 228.284 254.374C228.344 254.271 228.404 254.168 228.464 254.065C230.184 255.625 231.905 257.186 233.625 258.746C234.212 257.416 234.276 257.265 235.693 256.634C248.656 264.695 253.075 269.26 264.991 268.383C265.051 268.279 265.112 268.176 265.172 268.073C263.736 266.264 262.3 264.454 260.864 262.645C261.804 261.329 262.105 261.597 261.822 260.299C257.889 254.347 250.411 250.269 249.571 243.577C249.752 243.268 249.933 242.958 250.114 242.649C250.975 242.599 251.836 242.55 252.697 242.499C252.774 242.13 252.852 241.76 252.93 241.39C252.295 239.634 251.659 237.878 251.024 236.122ZM-48.3903 62.1318C-47.4083 64.6157 -47.7912 67.8645 -48.785 70.6218C-48.9311 70.3976 -49.0774 70.1736 -49.2232 69.9496C-48.9457 67.3442 -48.6678 64.7373 -48.3903 62.1318ZM271.179 249.994C271.532 250.339 271.884 250.684 272.237 251.028C271.565 251.466 270.893 251.903 270.221 252.341C269.904 251.463 269.586 250.585 269.268 249.707C270.481 250.821 269.58 251.059 271.179 249.994ZM273.371 253.353C274.394 254.921 275.417 256.489 276.44 258.056C279.737 261.546 281.993 258.103 283.668 260.625C283.424 263.557 284.209 265.85 286.398 268.037C286.174 268.183 285.95 268.329 285.726 268.475C285.477 268.191 285.228 267.906 284.978 267.622C282.727 265.627 282.493 263.493 282.686 260.882C278.019 260.547 274.272 257.405 273.371 253.353ZM54.9201 127.163C56.6674 129.377 57.7644 132.861 57.1075 135.503C56.3784 132.724 55.6493 129.943 54.9201 127.163ZM230.965 230.611C232.031 234.774 231.707 241.527 230.279 245.991C228.669 241.498 229.326 235.924 230.965 230.611ZM188.92 207.25C195.741 212.851 205.179 222.909 202.791 231.149C201.966 230.665 201.14 230.182 200.314 229.699C200.296 229.965 200.279 230.232 200.261 230.499C203.838 234.806 207.415 239.116 210.992 243.424C210.932 243.527 210.871 243.63 210.811 243.733C210.604 243.612 210.398 243.491 210.192 243.371C204.285 243.734 188.39 247.017 182.023 238.928C189.993 243.727 199.429 244.438 205.622 241.942C204.857 241.355 204.091 240.769 203.325 240.182C204.994 240.959 206.974 241.737 208.386 241.483C204.818 238.244 200.482 233.924 199.513 229.646C201.179 229.016 201.832 229.331 201.891 227.715C202.412 220.671 192.461 215.263 188.453 209.469C188.609 208.729 188.765 207.989 188.92 207.25ZM-8.23667 92.2764C-9.38573 100.036 -28.6957 111.198 -33.1739 112.15C-25.4632 105.33 -15.1346 103.071 -8.23667 92.2764ZM-55.985 65.1621C-56.337 66.7617 -57.6156 67.3535 -58.9055 68.0209C-60.6567 66.9216 -61.9889 66.3774 -63.2937 66.2828C-64.7148 67.5275 -66.1365 68.7723 -67.5577 70.0169C-70.574 68.1552 -73.3965 67.7126 -75.6387 68.1939C-81.5289 78.5892 -85.0931 99.9302 -96.944 98.9141C-97.3221 98.1393 -97.7005 97.3642 -98.0784 96.5891C-97.5179 95.3947 -96.9572 94.2 -96.3969 93.0055C-97.884 93.1742 -97.9483 93.8098 -99.3935 94.574C-98.9106 93.749 -98.4278 92.924 -97.9452 92.0994C-106.378 93.216 -109.371 107.131 -117.174 110.746C-111.864 104.095 -104.163 88.2735 -95.6728 91.7682C-95.4405 92.319 -95.2089 92.8703 -94.9766 93.4211C-96.1379 95.8062 -97.4172 95.9366 -96.0914 98.1677C-95.7644 98.0821 -95.437 97.9967 -95.1097 97.9113C-85.6733 98.6255 -81.52 73.4695 -75.0432 66.466C-72.5308 67.3829 -70.0177 68.3001 -67.5051 69.2167C-66.0736 66.8448 -64.4951 65.8924 -62.8792 64.8642C-59.6594 66.681 -58.2714 66.6611 -55.985 65.1621ZM92.7528 153.459C97.749 158.182 102.747 162.907 107.743 167.631C107.683 167.734 107.623 167.837 107.562 167.94C102.626 163.113 97.6885 158.285 92.7528 153.459ZM149.068 187.248C148.852 188.091 148.636 188.933 148.42 189.776C148.316 189.716 148.213 189.655 148.11 189.595C148.429 188.812 148.749 188.03 149.068 187.248ZM-45.6114 73.7246C-45.9944 77.4411 -52.332 81.2257 -54.8114 81.6292C-51.7453 78.9947 -48.6781 76.3592 -45.6114 73.7246ZM286.527 268.528C287.877 270.01 289.227 271.493 290.577 272.975C290.517 273.078 290.457 273.181 290.396 273.284C289.777 272.922 289.157 272.559 288.538 272.197C287.533 270.97 286.649 270.004 286.527 268.528ZM70.6822 144.279C72.1643 149.953 69.7545 158.805 64.6467 165.248C64.6643 164.982 64.6819 164.715 64.6992 164.448C66.0361 161.217 67.3737 157.984 68.7103 154.753C69.3676 151.262 70.025 147.77 70.6822 144.279ZM-29.203 147.281C-26.751 148.302 -24.2981 149.322 -21.8461 150.342C-19.8055 152.024 -21.1689 155.366 -17.2815 156.751C-9.87423 159.478 -1.72211 156.283 3.91214 164.586C2.68629 167.349 2.76065 168.878 3.00276 171.114C1.12551 171.586 0.453976 171.636 0.134588 173.173C0.237729 173.233 0.340856 173.293 0.4443 173.354C11.4279 176.434 26.94 174.228 28.2135 191.267C26.6378 191.591 25.0623 191.915 23.4868 192.238C31.2519 196.553 43.5231 198.301 46.0431 206.271C45.3718 206.708 44.6995 207.146 44.0279 207.583C41.7903 207.381 39.5523 207.178 37.3148 206.976C38.7866 206.592 40.2593 206.208 41.7316 205.823C41.1724 205.358 40.613 204.892 40.0539 204.427C41.2675 204.722 42.481 205.016 43.6946 205.311C40.4243 196.214 23.9753 197.761 23.2293 191.257C26.9779 189.676 26.2701 189.391 25.6878 185.637C18.5363 176.44 9.20949 178.628 -0.976055 172.938C-1.00128 172.508 -1.02666 172.078 -1.05238 171.648C-0.337429 171.374 0.377205 171.1 1.09195 170.826C0.791643 169.681 0.491455 168.537 0.190954 167.392C1.65836 166.252 2.08969 165.911 2.31103 164.48C-4.25105 157.47 -10.709 160.079 -18.1342 157.497C-22.193 156.086 -21.7071 153.315 -23.9901 151.163C-25.4019 151.444 -26.8142 151.725 -28.2261 152.006C-27.4081 151.793 -26.59 151.579 -25.7722 151.366C-25.7119 151.263 -25.6516 151.16 -25.5912 151.056C-25.634 150.893 -25.6769 150.73 -25.7198 150.566C-28.5082 149.291 -29.1813 148.83 -30.1321 146.738C-30.1147 146.471 -30.097 146.205 -30.0799 145.938C-25.6132 138.245 -19.4515 137.298 -13.7233 134.332C3.28698 125.521 36.7181 115.624 54.9351 139.215C58.6823 144.068 63.3138 151.589 63.3883 157.452C63.4667 163.565 59.4639 167.498 62.7036 172.832C63.823 172.103 64.9429 171.374 66.062 170.645C67.4212 171.53 67.6037 171.841 68.1781 172.713C66.8794 180.399 65.3735 191.705 70.066 197.905C73.2821 201.172 76.4988 204.439 79.7153 207.705C80.7997 207.509 81.8845 207.313 82.969 207.118C86.6586 210.523 90.3487 213.929 94.0379 217.333C94.0125 216.904 93.9872 216.473 93.962 216.043C98.7199 220.205 104.18 222.726 109.809 224.488C109.585 224.633 109.361 224.779 109.137 224.925C100.335 222.904 93.4028 217.702 86.2189 211.511C83.0984 208.823 81.1768 210.405 78.9911 208.942C73.1754 205.491 67.9279 196.438 65.9918 191.368C63.7173 185.411 68.814 177.902 65.6476 172.063C64.4077 172.998 63.167 173.934 61.9271 174.869C59.067 169.426 62.1167 165.166 62.1736 158.817C62.2254 153.032 58.8058 145.764 55.1403 140.997C37.8827 118.554 2.52713 126.945 -12.3561 135.547C-18.3465 139.009 -24.894 139.11 -29.203 147.281ZM5.09987 107.142C4.10802 113.07 -17.6025 119.486 -21.9477 119.966C-15.3112 114.055 -1.42872 117.169 5.09987 107.142ZM-34.6236 87.6309C-34.4173 87.7516 -34.2107 87.8725 -34.0042 87.9934C-34.4344 88.0182 -34.8652 88.043 -35.2952 88.068C-35.0715 87.9223 -34.8476 87.7763 -34.6236 87.6309ZM162.376 205.004C162.281 205.64 162.186 206.277 162.09 206.913C161.987 206.852 161.884 206.792 161.781 206.731C161.901 206.525 162.022 206.319 162.143 206.113C162.221 205.743 162.299 205.373 162.376 205.004ZM247.547 254.851C249.128 256.884 250.711 258.918 252.292 260.951C249.974 259.473 248.074 257.011 247.547 254.851ZM162.09 206.913C161.9 208.186 161.709 209.459 161.519 210.731C161.373 210.507 161.227 210.283 161.081 210.059C161.417 209.011 161.754 207.962 162.09 206.913ZM-55.3022 81.7573C-55.2167 82.0843 -55.1309 82.4115 -55.0453 82.7386C-57.3366 84.996 -59.6286 87.2547 -61.9198 89.5121C-62.0233 89.4516 -62.1264 89.3912 -62.2298 89.3307C-59.921 86.8066 -57.6113 84.2817 -55.3022 81.7573ZM-44.4626 88.1013C-44.1529 88.2825 -43.8429 88.464 -43.5335 88.6451C-44.2481 88.9191 -44.9628 89.1931 -45.6775 89.4666C-46.1508 89.3284 -46.624 89.1897 -47.0973 89.0514C-46.2192 88.7347 -45.3407 88.4179 -44.4626 88.1013ZM8.57452 120.388C8.98736 120.629 9.40021 120.871 9.81305 121.113C9.75258 121.216 9.6923 121.319 9.63201 121.422C9.27946 121.077 8.92689 120.733 8.57452 120.388ZM-74.2757 74.3904C-73.288 76.8895 -73.3255 80.2251 -73.8702 82.9333C-74.0052 80.0864 -74.1405 77.2378 -74.2757 74.3904ZM189.365 229.935C189.778 230.177 190.19 230.418 190.603 230.66C190.543 230.763 190.483 230.866 190.422 230.969C190.07 230.625 189.717 230.28 189.365 229.935ZM81.7138 167.346C81.6362 167.716 81.5581 168.086 81.4804 168.456C81.3773 168.395 81.2741 168.335 81.1707 168.274C81.3515 167.965 81.5328 167.656 81.7138 167.346ZM81.4804 168.456C79.8977 177.08 78.2785 185.768 76.7314 194.331C76.5856 194.107 76.4393 193.883 76.2935 193.659C78.5653 185.325 77.3658 177.88 81.4804 168.456ZM196.693 235.885C197.519 236.369 198.345 236.852 199.17 237.335C198.843 237.421 198.516 237.506 198.189 237.592C197.69 237.023 197.191 236.454 196.693 235.885ZM-53.1151 90.0971C-53.6784 90.8309 -53.3183 90.6846 -54.4583 90.9721C-54.0107 90.6805 -53.5628 90.389 -53.1151 90.0971ZM90.7195 174.694C97.6719 178.66 104.958 183.749 108.964 188.278C108.904 188.382 108.843 188.485 108.783 188.588C102.824 183.993 96.7398 179.324 90.7195 174.694ZM-15.6685 114.92C-15.7461 115.29 -15.8242 115.66 -15.9018 116.03C-16.0052 115.969 -16.1084 115.909 -16.2118 115.848C-16.0308 115.539 -15.8495 115.23 -15.6685 114.92ZM-16.5215 115.667C-16.5989 116.037 -16.677 116.407 -16.7547 116.776C-16.8579 116.716 -16.961 116.655 -17.0644 116.595C-16.8836 116.286 -16.7024 115.976 -16.5215 115.667ZM-17.3741 116.414C-17.4517 116.784 -17.5298 117.154 -17.6076 117.523C-17.7107 117.463 -17.8138 117.402 -17.9173 117.342C-17.7364 117.033 -17.5552 116.723 -17.3741 116.414ZM-63.7545 90.5148C-63.8321 90.8847 -63.9101 91.2547 -63.988 91.6244C-64.0912 91.564 -64.1943 91.5036 -64.2977 91.4431C-64.1167 91.1338 -63.9355 90.8242 -63.7545 90.5148ZM-65.8222 92.6269C-66.9687 94.5859 -68.1156 96.5455 -69.2621 98.5045C-67.6088 97.8109 -65.955 97.1173 -64.3019 96.4241C-68.1433 99.4354 -71.9858 102.448 -75.827 105.46C-80.0669 111.283 -84.3439 117.169 -88.5477 122.931C-97.0656 129.434 -105.586 135.94 -114.104 142.443C-114.741 142.347 -115.378 142.251 -116.015 142.155C-109.262 137.248 -102.508 132.34 -95.756 127.433C-88.096 121.433 -82.6665 112.109 -75.5413 103.55C-72.302 99.9097 -69.0615 96.2676 -65.8222 92.6269ZM-33.4836 111.969C-33.8175 112.383 -33.5909 112.446 -34.3364 112.715C-34.0521 112.467 -33.7678 112.218 -33.4836 111.969ZM-34.6461 112.534C-34.98 112.948 -34.7534 113.012 -35.4991 113.281C-35.2146 113.032 -34.9303 112.783 -34.6461 112.534ZM-22.2574 119.785C-22.5916 120.199 -22.365 120.262 -23.1104 120.532C-22.8262 120.283 -22.5419 120.034 -22.2574 119.785ZM-35.8088 113.1C-36.1426 113.514 -35.916 113.577 -36.6617 113.847C-36.3772 113.598 -36.0928 113.349 -35.8088 113.1ZM-36.9711 113.666C-37.3051 114.079 -37.0785 114.143 -37.8237 114.412C-37.5397 114.163 -37.2554 113.914 -36.9711 113.666ZM-21.7955 122.547C-22.1293 122.961 -21.9027 123.024 -22.6482 123.294C-22.3639 123.045 -22.0795 122.796 -21.7955 122.547ZM-23.9393 123.369C-24.5028 124.102 -24.1427 123.956 -25.2829 124.244C-24.8351 123.952 -24.3872 123.661 -23.9393 123.369ZM-25.5926 124.063C-26.7352 125.729 -29.9567 126.364 -32.0774 127.327C-36.0121 129.315 -39.9485 131.303 -43.8832 133.291C-52.4362 135.898 -61.0525 138.47 -69.6359 141.059C-69.5325 141.12 -69.4293 141.18 -69.3262 141.241C-59.7896 143.764 -49.4458 150.181 -40.6473 152.627C-40.8712 152.773 -41.095 152.919 -41.3189 153.065C-43.3501 152.983 -45.3818 152.901 -47.4129 152.82C-47.2066 152.941 -47.0001 153.062 -46.7938 153.183C-45.28 154.622 -43.7662 156.062 -42.2529 157.501C-42.3131 157.604 -42.3734 157.707 -42.4339 157.811C-52.1786 151.135 -63.9919 144.623 -73.9481 140.612C-73.2332 140.339 -72.5185 140.065 -71.8036 139.791C-64.2875 140.847 -33.7566 127.819 -25.5926 124.063ZM-41.4403 115.618C-41.7742 116.032 -41.5476 116.095 -42.2933 116.365C-42.0088 116.116 -41.7245 115.867 -41.4403 115.618ZM-74.1935 97.6947C-75.8303 99.7816 -77.4682 101.869 -79.1053 103.956C-77.8164 100.812 -76.1926 99.9047 -74.1935 97.6947ZM-43.0936 116.311C-43.657 117.045 -43.2968 116.899 -44.4372 117.186C-43.9893 116.895 -43.5414 116.603 -43.0936 116.311ZM-39.5383 125.867C-41.5117 128.633 -57.0085 134.503 -61.0315 134.883C-55.5134 128.865 -46.2011 128.552 -39.5383 125.867ZM-100.427 95.6301C-100.505 95.9994 -100.583 96.3694 -100.661 96.739C-100.764 96.6785 -100.867 96.6181 -100.97 96.5577C-100.789 96.2487 -100.608 95.9391 -100.427 95.6301ZM-64.1912 116.838C-64.5252 117.251 -64.2986 117.315 -65.0438 117.584C-64.7598 117.335 -64.4755 117.086 -64.1912 116.838ZM-101.204 97.667C-101.929 100.564 -102.655 103.462 -103.381 106.36C-104.386 114.562 -101.549 122.846 -107.768 131.616C-107.871 131.556 -107.974 131.496 -108.078 131.435C-101.079 118.967 -107.438 109.541 -101.204 97.667ZM-67.8076 118.043C-68.4569 118.898 -69.2291 119.371 -70.9328 119.121C-69.8913 118.762 -68.8492 118.403 -67.8076 118.043ZM-0.476048 162.849C-0.0203545 163.254 0.435649 163.659 0.891481 164.064C-0.261674 163.666 -1.41467 163.268 -2.56782 162.87C-1.87068 162.863 -1.17319 162.856 -0.476048 162.849ZM-5.40748 162.039C-5.09808 162.22 -4.78804 162.402 -4.47833 162.583C-4.53862 162.686 -4.59891 162.789 -4.65918 162.892C-12.9252 161.046 -20.1109 166.084 -28.3396 163.567C-20.4506 162.571 -13.3961 162.393 -5.40748 162.039ZM-62.1412 134.648C-61.0992 136.313 -77.6249 141.338 -82.4432 140.208C-75.6945 138.386 -68.9081 136.502 -62.1412 134.648ZM-90.8156 118.282C-90.8935 118.651 -90.9716 119.021 -91.049 119.391C-91.1525 119.33 -91.2556 119.27 -91.3587 119.21C-91.1779 118.901 -90.9967 118.591 -90.8156 118.282ZM22.0715 186.842C22.3809 187.023 22.6909 187.205 23.0007 187.386C22.9404 187.489 22.8801 187.592 22.8198 187.695C10.346 183.825 1.1976 192.534 -10.9854 190.751C-11.0458 190.854 -11.1061 190.957 -11.1664 191.06C-4.46986 195.127 2.39677 199.33 8.63148 200.571C13.6767 201.575 18.934 200.622 24.2781 202.253C24.2178 202.356 24.1575 202.459 24.0972 202.562C23.891 202.442 23.6844 202.321 23.4778 202.2C14.9232 203.243 3.34806 201.321 -6.49666 195.87C-6.5141 196.136 -6.53174 196.403 -6.54887 196.67C-3.49682 199.979 -0.412523 203.307 2.60887 206.598C-3.44989 202.885 -4.7848 198.018 -8.17401 194.473C-11.3313 192.764 -14.4893 191.054 -17.6465 189.344C-22.1468 185.632 -26.3527 182.005 -30.1352 178.713C-28.6692 187.448 -27.3466 195.495 -27.0081 204.63C-31.2937 199.293 -28.3924 190.622 -29.2103 184.238C-30.9739 170.473 -45.1 157.967 -61.7407 148.172C-61.7578 148.439 -61.7755 148.706 -61.7929 148.972C-57.2886 153.198 -53.6425 159.717 -54.1638 165.065C-55.9583 160.888 -57.199 156.357 -60.0916 152.46C-74.5537 132.973 -101.451 151.447 -119.788 145.76C-114.357 145.479 -108.924 145.197 -103.493 144.915C-94.5864 143.879 -84.7848 140.491 -75.4727 141.797C-69.6648 143.95 -63.8248 146.122 -58.0478 148.257C-41.4092 154.372 -34.8938 172.33 -25.3607 181.922C-21.9488 185.251 -14.7831 192.767 -9.36036 192.948C-13.8255 190.435 -21.2414 185.359 -22.5971 181.464C-19.1225 184.051 -15.6157 186.657 -12.172 189.226C-3.42812 192.394 4.3545 186.971 12.1563 186.023C15.4662 185.62 18.5094 186.735 22.0715 186.842ZM-93.4268 121.322C-93.5044 121.691 -93.5825 122.061 -93.6604 122.431C-93.7635 122.371 -93.8666 122.31 -93.9701 122.25C-93.789 121.94 -93.6078 121.631 -93.4268 121.322ZM-94.2798 122.069C-96.9538 133.329 -125.034 143.616 -134.373 140.132C-130.56 140.01 -126.746 139.889 -122.933 139.767C-113.753 138.469 -101.316 130.271 -94.2798 122.069ZM28.2852 197.539C28.4914 197.66 28.698 197.78 28.9046 197.901C25.7076 199.307 21.2998 200.474 17.6694 200.047C21.2078 199.211 24.747 198.375 28.2852 197.539ZM-41.3759 158.845C-38.0945 160.86 -37.9519 162.42 -36.4488 164.636C-36.5091 164.739 -36.5694 164.842 -36.6297 164.945C-38.6746 163.4 -40.8575 160.907 -41.3759 158.845ZM-124.302 111.557C-123.993 111.739 -123.683 111.92 -123.373 112.101C-123.597 112.247 -123.821 112.393 -124.044 112.538C-125.633 112.12 -127.946 111.705 -129.338 112.348C-134.351 116.025 -141.501 123.569 -146.048 114.611C-145.57 113.168 -143.121 109.246 -143.409 108.681C-146.205 106.102 -152.314 107.949 -155.287 108.373C-151.42 105.191 -146.605 104.721 -141.498 108.968C-141.515 109.235 -141.533 109.502 -141.55 109.768C-143.092 111.2 -144.975 112.226 -144.885 114.045C-144.92 114.579 -144.955 115.112 -144.99 115.645C-143.915 116.413 -142.839 117.181 -141.764 117.948C-136.658 116.088 -132.736 112.892 -127.58 110.054C-126.488 110.555 -125.395 111.056 -124.302 111.557ZM35.895 206.56C36.1012 206.681 36.3078 206.802 36.5144 206.923C36.0839 206.948 35.6532 206.973 35.2232 206.998C35.4469 206.852 35.6708 206.706 35.895 206.56ZM34.6035 206.635C34.8101 206.756 35.0166 206.877 35.2232 206.998C30.4036 208.289 24.2727 206.776 20.4482 211.64C20.4307 211.906 20.4131 212.173 20.396 212.439C20.9375 213.172 21.4789 213.904 22.0204 214.636C14.6884 219.194 7.3558 216.174 -2.4315 212.369C-7.75163 210.3 -13.5851 204.75 -17.9453 206.196C-17.9089 207.846 -17.9544 208.971 -18.5173 210.014C-20.3148 208.823 -22.1131 207.633 -23.9108 206.442C-25.3463 207.72 -26.6763 208.204 -28.38 208.394C-35.8896 201.863 -39.0508 196.66 -40.1115 188.655C-35.2612 195.273 -36.2667 201.754 -27.0364 207.52C-26.0199 206.73 -25.0036 205.941 -23.987 205.152C-22.3528 206.385 -20.7184 207.618 -19.0839 208.852C-19.0236 208.749 -18.9633 208.646 -18.9029 208.542C-18.9724 206.995 -18.7869 206.312 -17.5308 204.777C-4.2797 206.643 9.58437 222.068 20.2913 214.039C19.0175 212.54 19.0739 211.97 19.2616 210.114C24.6233 206.508 28.6301 207.462 34.6035 206.635ZM-129.367 115.238C-127.494 128.081 -146.017 134.374 -153.965 132.403C-142.591 127.958 -137.595 133.142 -129.367 115.238ZM-26.8284 177.326C-25.7707 178.36 -24.7127 179.395 -23.6551 180.429C-23.7155 180.532 -23.7758 180.635 -23.8363 180.738C-24.8333 179.601 -25.8311 178.463 -26.8284 177.326ZM-151.237 112.82C-151.553 114.171 -151.362 113.923 -152.452 114.186C-152.046 113.731 -151.641 113.275 -151.237 112.82ZM-159.031 109.088C-159.638 109.71 -159.152 109.847 -160.685 109.782C-160.134 109.551 -159.582 109.32 -159.031 109.088ZM-73.2417 159.298C-58.401 167.678 -54.7231 175.245 -49.9981 184.945C-49.895 185.005 -49.7918 185.065 -49.6884 185.126C-48.7431 183.026 -48.57 181.622 -46.7157 181.468C-46.1218 181.4 -45.5277 181.332 -44.9338 181.264C-42.9913 182.894 -41.1822 185.414 -40.6786 187.492C-42.2397 185.556 -44.4625 182.783 -47.7495 182.524C-48.388 184.088 -49.0263 185.652 -49.6644 187.216C-49.7679 187.156 -49.871 187.096 -49.9742 187.035C-53.8312 181.974 -54.6244 176.194 -58.275 171.38C-65.1718 162.285 -80.2294 157.91 -89.0938 155.834C-83.7649 153.923 -79.5303 158.313 -73.2417 159.298ZM-164.196 109.388C-163.887 109.569 -163.577 109.75 -163.267 109.932C-163.655 110.12 -164.042 110.309 -164.43 110.497C-166.831 110.338 -169.233 110.178 -171.634 110.019C-181.807 106.927 -186.55 98.3506 -196.358 94.7174C-206.294 91.0374 -223.001 86.6736 -229.311 97.0268C-226.488 98.1246 -223.666 99.2231 -220.843 100.321C-220.904 100.424 -220.964 100.527 -221.024 100.63C-221.231 100.509 -221.437 100.388 -221.644 100.268C-222.298 100.439 -222.952 100.609 -223.607 100.78C-220.527 102.859 -217.447 104.939 -214.368 107.018C-216.401 106.036 -216.727 105.786 -216.898 106.368C-216.812 106.695 -216.726 107.022 -216.641 107.349C-222.505 103.406 -228.342 98.2855 -234.656 97.6355C-221.018 88.9194 -212.286 87.9308 -193.647 95.0587C-180.853 99.9563 -177.362 111.057 -164.196 109.388ZM-94.568 155.953C-94.7238 156.692 -94.8795 157.432 -95.035 158.171C-92.9048 159.643 -92.0672 160.677 -92.7671 162.821C-99.4105 159.617 -110.464 166.723 -118.119 157.119C-111.303 161.27 -100.838 163.766 -95.8113 160.208C-106.986 157.948 -120.974 153.317 -129.16 144.013C-124.177 145.933 -122.418 150.441 -116.076 152.917C-109.408 155.02 -102.707 157.142 -96.0689 159.227C-95.9116 157.884 -95.6662 157.034 -94.568 155.953ZM-194.324 100.476C-194.014 100.658 -193.704 100.839 -193.394 101.02C-194.273 101.337 -195.151 101.654 -196.029 101.97C-196.933 101.856 -197.837 101.743 -198.74 101.629C-197.268 101.245 -195.796 100.861 -194.324 100.476ZM-162.657 120.256C-163.087 120.982 -163.055 121.106 -164.181 121.44C-163.673 121.045 -163.165 120.651 -162.657 120.256ZM-103.494 203.885C-107.065 201.934 -110.635 199.982 -114.206 198.031C-117.942 197.392 -122.493 202.441 -126.575 197.852C-121.479 200.307 -118.379 197.022 -114.101 196.431C-111.065 198.347 -108.027 200.263 -104.991 202.178C-105.059 201.585 -105.127 200.991 -105.196 200.397C-107.919 195.343 -110.644 190.287 -113.368 185.233C-113.308 185.129 -113.247 185.026 -113.187 184.923C-108.162 189.418 -106.558 196.95 -103.881 202.413C-103.277 201.382 -102.674 200.351 -102.07 199.32C-92.8425 203.344 -83.3429 208.85 -76.5125 206.803C-77.4668 205.829 -78.4213 204.855 -79.3759 203.881C-76.5392 201.611 -71.0392 204.45 -67.4975 204.188C-73.801 200.715 -79.7956 196.215 -82.9024 191.435C-82.8419 191.332 -82.7816 191.229 -82.7213 191.126C-72.2101 196.357 -66.6557 209.11 -53.1655 203.855C-53.1052 203.752 -53.0449 203.649 -52.9846 203.546C-58.0374 200.353 -67.301 199.369 -71.8005 193.779C-66.5945 196.53 -56.3912 202.678 -51.2791 202.052C-59.4681 193.58 -56.394 194.348 -68.3132 192.083C-65.478 190.923 -61.4986 191.784 -58.0883 193.084C-59.1402 190.081 -63.9203 186.872 -67.713 185.374C-66.8777 184.894 -66.0425 184.414 -65.2073 183.934C-69.8765 181.054 -76.5793 179.997 -80.3111 181.323C-80.4571 181.1 -80.6034 180.876 -80.7497 180.652C-80.3097 179.663 -79.8696 178.675 -79.4301 177.686C-84.34 178.252 -91.9448 181.139 -98.5361 174.81C-100.648 172.889 -101.527 169.399 -105.012 168.113C-110.781 166.675 -116.613 165.199 -122.412 163.743C-121.62 163.099 -120.827 162.456 -120.035 161.812C-124.752 161.82 -129.469 161.828 -134.186 161.836C-137.395 160.926 -140.606 160.016 -143.815 159.107C-134.432 166.817 -124.66 175.209 -111.815 181.158C-112.245 181.183 -112.676 181.208 -113.106 181.233C-111.764 182.018 -110.421 182.804 -109.079 183.589C-111.119 182.811 -113.159 182.033 -115.198 181.255C-115.215 181.521 -115.233 181.788 -115.25 182.054C-114.502 182.907 -113.754 183.761 -113.006 184.614C-113.066 184.717 -113.127 184.82 -113.187 184.923C-119.913 179.242 -127.888 173.041 -137.444 167.404C-135.848 172.49 -134.221 177.596 -132.655 182.665C-134.707 177.173 -136.76 171.68 -138.812 166.188C-143.619 161.852 -148.428 157.515 -153.235 153.179C-156.442 148.949 -159.649 144.718 -162.856 140.488C-161.869 144.249 -160.883 148.011 -159.896 151.772C-159.84 156.649 -159.785 161.528 -159.728 166.405C-157.875 172.472 -156.008 178.591 -154.167 184.61C-165.038 172.203 -158.328 152.964 -164.042 138.963C-167.755 129.868 -181.787 124.261 -191.678 116.559C-191.739 116.663 -191.799 116.766 -191.86 116.869C-191.834 117.299 -191.808 117.73 -191.783 118.159C-187.443 123.11 -187.251 133.51 -189.685 140.151C-189.831 139.927 -189.978 139.703 -190.124 139.479C-182.893 119.835 -201.459 107.176 -220.843 100.321C-211.83 99.4342 -202.393 107.071 -194.542 113.638C-185.888 118.979 -177.232 124.322 -168.579 129.664C-161.272 139.2 -153.87 148.793 -146.655 158.275C-147.778 155.056 -152.512 150.165 -154.779 147.292C-154.719 147.188 -154.658 147.085 -154.598 146.982C-151.606 150.394 -148.582 153.825 -145.621 157.219C-141.714 160.198 -130.155 161.623 -126.696 160.406C-131.632 157.778 -133.238 155.939 -134.048 152.365C-131.061 151.155 -123.671 152.105 -120.65 156.469C-125.378 153.524 -129.512 152.633 -133.429 152.728C-133.403 153.157 -133.378 153.588 -133.352 154.018C-133.146 154.139 -132.939 154.259 -132.733 154.38C-128.636 158.525 -122.537 158.472 -118.253 161.609C-118.615 162.228 -118.977 162.847 -119.339 163.465C-114.486 164.645 -109.632 165.824 -104.778 167.004C-100.501 168.508 -99.6576 172.219 -97.0638 174.426C-90.8047 179.75 -83.8088 176.595 -78.8346 175.959C-78.5249 176.14 -78.2149 176.321 -77.9054 176.502C-78.1815 177.448 -78.4578 178.394 -78.7342 179.339C-76.7635 179.143 -57.4529 180.874 -62.2909 186.056C-62.8247 186.02 -63.3582 185.985 -63.892 185.949C-56.5789 190.045 -50.604 197.718 -49.2924 203.631C-49.5337 204.043 -49.775 204.455 -50.0163 204.868C-58.504 205.668 -66.2613 208.01 -76.0455 204.584C-75.8994 204.808 -75.7531 205.032 -75.6071 205.256C-75.3497 206.237 -75.0923 207.219 -74.8349 208.2C-75.059 208.345 -75.2829 208.491 -75.5066 208.637C-79.612 208.311 -83.7182 207.984 -87.8233 207.658C-92.443 205.369 -97.0645 203.08 -101.684 200.792C-101.908 200.937 -102.132 201.083 -102.356 201.229C-102.735 202.114 -103.115 202.999 -103.494 203.885ZM-131.819 142.872C-131.363 143.278 -130.907 143.683 -130.451 144.088C-130.512 144.191 -130.572 144.294 -130.632 144.397C-137.931 142.091 -156.057 142.285 -163.314 132.745C-154.259 138.383 -139.368 144.882 -131.819 142.872ZM-205.583 100.532C-205.169 100.774 -204.757 101.015 -204.344 101.257C-204.98 101.161 -205.617 101.065 -206.254 100.969C-206.03 100.823 -205.806 100.677 -205.583 100.532ZM-169.837 121.867C-169.63 121.988 -169.424 122.109 -169.218 122.23C-170.321 123.143 -170.705 122.916 -172.29 122.508C-171.473 122.294 -170.655 122.081 -169.837 121.867ZM-203.957 102.729C-196.182 108.386 -188.404 114.046 -180.629 119.704C-180.956 119.79 -181.283 119.875 -181.611 119.96C-187.172 114.129 -200.908 109.44 -203.957 102.729ZM-152.16 134.29C-151.497 134.816 -150.835 135.342 -150.172 135.868C-152.928 134.743 -156.749 134.069 -158.716 131.284C-156.531 132.285 -154.345 133.288 -152.16 134.29ZM-78.867 183.83C-78.6607 183.95 -78.4542 184.071 -78.2476 184.192C-81.0099 185.289 -85.4187 185.378 -88.3967 184.482C-85.2204 184.264 -82.0433 184.047 -78.867 183.83ZM-161.303 136.414C-159.77 137.913 -158.972 139.103 -158.853 140.754C-159.67 139.307 -160.486 137.861 -161.303 136.414ZM-69.9143 191.977C-69.7077 192.098 -69.5011 192.218 -69.2949 192.339C-70.8078 192.953 -71.6329 193.28 -72.4723 194.217C-73.1349 193.691 -73.7971 193.165 -74.4597 192.639C-72.6341 193 -71.4362 192.64 -69.9143 191.977ZM-206.678 112.349C-199.21 117.64 -192.953 127.403 -193.683 134.905C-197.424 126.598 -202.222 120.661 -206.678 112.349ZM-94.5144 182.147C-95.1859 182.584 -95.8582 183.022 -96.5297 183.459C-95.9106 183.822 -95.2908 184.185 -94.6717 184.547C-94.878 184.426 -95.0845 184.305 -95.2911 184.184C-97.8627 184.984 -101.504 184.038 -104.844 182.746C-101.401 182.547 -97.9573 182.347 -94.5144 182.147ZM-99.45 186.318C-99.012 186.99 -98.5735 187.662 -98.1352 188.333C-98.1957 188.437 -98.2559 188.54 -98.3162 188.643C-99.3311 187.772 -100.346 186.901 -101.361 186.03C-101.301 185.927 -101.24 185.824 -101.18 185.721C-100.603 185.92 -100.027 186.119 -99.45 186.318ZM-108.718 182.971C-108.305 183.212 -107.892 183.454 -107.479 183.696C-107.539 183.799 -107.6 183.902 -107.66 184.005C-108.012 183.66 -108.365 183.315 -108.718 182.971ZM-93.1318 195.415C-90.578 198.155 -88.0238 200.896 -85.4698 203.637C-83.7753 204.767 -82.0805 205.897 -80.3856 207.027C-86.5978 203.656 -91.2314 199.949 -93.1318 195.415ZM-192.191 141.591C-191.186 143.426 -190.18 145.26 -189.175 147.094C-182.247 146.935 -180.488 156.149 -177.877 161.181C-172.34 171.856 -166.295 182.736 -150.608 189.185C-150.418 187.912 -150.227 186.639 -150.036 185.366C-142.704 185.979 -138.045 190.08 -131.711 195.261C-130.12 196.331 -128.528 197.401 -126.937 198.471C-134.493 193.957 -142.029 188.581 -148.978 186.401C-149.023 187.897 -149.067 189.394 -149.112 190.891C-163.989 186.087 -174.568 173.592 -179.712 162.185C-182.095 157.219 -182.324 152.598 -186.154 147.617C-187.445 147.691 -188.737 147.766 -190.028 147.841C-191.761 146.164 -192.432 143.773 -192.191 141.591Z" fill="#EB5C37" fill-opacity="0.2"/>
</svg>
