<svg width="270" height="231" viewBox="0 0 270 231" fill="none" xmlns="http://www.w3.org/2000/svg">
<path fill-rule="evenodd" clip-rule="evenodd" d="M269.297 94.6712C266.986 94.2327 264.673 93.7942 262.361 93.3555C262.189 93.6124 262.017 93.8694 261.845 94.1263C262.059 94.0843 262.273 94.0422 262.488 94.0002C264.757 94.2237 267.028 94.4476 269.297 94.6712ZM268.97 96.4081C267.256 96.7445 265.54 97.081 263.826 97.4174C265.54 97.081 267.256 96.7445 268.97 96.4081ZM269.71 125.705C269.263 125.124 268.814 124.542 268.366 123.961C268.173 124.111 267.98 124.26 267.787 124.41C268.428 124.841 269.069 125.273 269.71 125.705ZM207.863 55.537C207.186 53.4043 206.467 53.3884 205.239 52.3717C199.972 51.3978 193.604 48.7961 185.77 51.8425C179.297 54.2283 171.847 59.857 165.189 57.5536C165.705 56.7832 166.222 56.0123 166.738 55.2422C166.204 54.7892 165.67 54.3363 165.136 53.8834C163.871 54.2433 162.606 54.603 161.341 54.9626C160.097 53.3 159.159 53.0043 157.753 51.9868C147.933 55.1455 124.919 66.352 120.669 53.5754C121.1 52.9332 121.53 52.291 121.961 51.6491C127.826 47.8506 137.438 53.345 145.293 49.7472C145.358 49.5116 145.423 49.2757 145.489 49.0401C144.467 47.7998 144.379 48.038 144.661 46.5259C157.687 44.7798 172.989 54.6049 181.607 47.6408C181.329 47.3607 181.052 47.0803 180.774 46.8005C178.973 46.6851 178.266 46.4425 177.18 45.4984C177.331 45.1341 177.482 44.7696 177.633 44.4054C179.901 44.3776 184.445 44.4934 186.698 42.9616C182.34 43.7706 179.633 42.9103 175.899 44.0764C176.026 44.7208 176.152 45.3654 176.279 46.0097C177.54 46.7656 178.801 47.5222 180.062 48.2781C167.023 50.5097 156.05 38.8107 142.732 46.9044C143.222 47.7002 143.712 48.4963 144.203 49.2924C135.218 50.9272 125.586 46.1217 119.193 52.8609C121.562 64.5396 138.664 60.5931 149.256 56.3304C151.958 55.354 154.661 54.3777 157.362 53.4013C158.146 53.6005 160.722 55.4986 162.427 57.0915C163.2 56.4938 163.973 55.8962 164.746 55.2985C164.486 56.2415 164.226 57.1848 163.965 58.1282C164.5 58.5807 165.034 59.0337 165.568 59.4863C178.696 57.6253 196.971 46.5785 206.388 54.8229C204.844 55.4601 203.299 56.098 201.755 56.7356C201.881 57.3796 202.008 58.0243 202.134 58.6686C208.489 65.3625 226.486 51.4063 234.378 63.048C231.395 62.9746 229.827 63.9038 229.355 66.3755C229.224 71.132 233.635 71.6301 236.66 72.9719C239.632 74.5072 242.604 76.0434 245.577 77.5786C250.672 81.898 255.255 89.6812 262.499 90.652C255.385 85.023 248.225 79.3341 241.155 73.7623C237.736 71.8403 234.213 71.2465 231.21 69.0226C231.129 67.477 231.049 65.9314 230.968 64.3859C234.109 64.0208 235.888 65.5464 237.393 64.7984C237.372 64.6908 237.351 64.5836 237.329 64.4763C232.512 60.6942 228.705 55.9486 221.614 55.8497C214.462 55.7991 208.169 61.9222 202.777 58.5424C202.886 57.9633 202.995 57.3842 203.104 56.8051C204.69 56.3824 206.277 55.9596 207.863 55.537ZM267.724 124.087C265.043 122.553 261.748 122.298 260.092 119.228C261.101 118.696 262.11 118.163 263.118 117.631C256.652 106.79 249.871 113.47 239.043 110.644C239.108 110.409 239.173 110.173 239.238 109.937C240.95 109.683 242.252 109.38 242.97 108.536C241.206 106.764 239.323 105.251 236.877 104.713C238.33 105.877 239.783 107.042 241.236 108.207C240.228 108.739 239.219 109.272 238.21 109.804C238.423 110.32 238.635 110.836 238.848 111.352C247.674 110.629 258.317 110.477 262.09 117.498C260.653 117.852 260.402 118.066 259.644 118.647C259.75 119.184 259.855 119.721 259.96 120.257C261.673 122.563 265.05 124.652 267.724 124.087ZM262.414 97.0257C260.124 95.8481 256.191 95.3557 253.291 96.4738C253.438 97.2255 253.586 97.9771 253.733 98.729C250.334 96.7194 246.934 94.7096 243.535 92.7003C234.691 89.263 219.137 91.2443 207.474 96.0954C207.92 97.2449 208.997 97.8325 210.357 98.8757C210.036 98.9388 209.714 99.002 209.393 99.0651C203.616 98.2293 193.312 95.2646 188.442 99.4952C188.464 99.6028 188.485 99.7101 188.506 99.8173C188.59 100.247 188.674 100.677 188.759 101.106C191.87 102.129 194.76 103.851 198.388 104.235C206.421 103.774 214.456 103.313 222.489 102.852C227.28 102.855 231.371 103.638 235.786 104.258C235.637 104.064 235.488 103.87 235.338 103.676C231.021 103.242 226.558 102.107 221.657 102.012C210.384 101.792 196.891 106.326 189.855 99.8872C189.92 99.6515 189.985 99.4157 190.05 99.1798C198.41 98.0547 204.015 103.017 212.413 99.1416C212.087 98.2403 211.956 98.0578 210.747 97.4607C210.812 97.225 210.877 96.9891 210.942 96.7536C219.936 94.0946 231.468 90.3289 239.872 92.7497C245.408 94.3444 249.002 98.2119 255.209 99.4428C255.295 99.3145 255.381 99.1862 255.467 99.0576C255.063 98.1335 254.659 97.2088 254.255 96.2847C254.362 96.2636 254.469 96.2426 254.577 96.2215C257.108 96.9218 258.893 97.636 262.414 97.0257ZM257.929 92.8872C257.694 92.8217 257.458 92.7565 257.223 92.6913C257.458 92.7565 257.694 92.8217 257.929 92.8872ZM267.199 146.94C266.964 146.875 266.728 146.81 266.493 146.744C266.728 146.81 266.964 146.875 267.199 146.94ZM255.81 92.2993C255.575 92.2337 255.339 92.1685 255.104 92.1029C255.339 92.1685 255.575 92.2337 255.81 92.2993ZM255.104 92.1029C254.869 92.0377 254.633 91.9725 254.398 91.907C254.633 91.9725 254.869 92.0377 255.104 92.1029ZM264.822 146.738C264.78 146.523 264.738 146.308 264.696 146.094C264.738 146.308 264.78 146.523 264.822 146.738ZM253.307 91.4519C253.071 91.3866 252.836 91.3214 252.6 91.2562C252.836 91.3214 253.071 91.3866 253.307 91.4519ZM256.44 115.93C256.205 115.864 255.969 115.799 255.734 115.733C255.969 115.799 256.205 115.864 256.44 115.93ZM258.705 130.875C258.085 130.551 257.465 130.227 256.845 129.902C257.465 130.227 258.085 130.551 258.705 130.875ZM259.948 144.014C257.768 142.546 255.587 141.078 253.407 139.61C254.812 141.634 257.481 143.538 259.948 144.014ZM249.328 89.8906C249.092 89.8254 248.857 89.7602 248.621 89.695C248.857 89.7602 249.092 89.8254 249.328 89.8906ZM248.621 89.695C248.258 89.5432 247.894 89.3914 247.531 89.2399C247.894 89.3914 248.258 89.5432 248.621 89.695ZM254.152 128.088C245.207 117.902 222.468 120.167 206.819 119.978C199.633 119.892 194.445 121.939 188.63 120.871C181.472 119.556 176.703 113.678 171.123 109.92C158.3 101.285 145.474 92.6466 132.651 84.0114C138.506 85.0932 144.426 86.1623 150.312 87.2378C150.142 86.9367 149.971 86.6352 149.801 86.334C152.435 86.4363 157.494 86.9661 159.957 85.3453C149.808 84.6603 139.559 83.9943 129.505 83.2909C141.901 91.452 154.3 99.6158 166.696 107.777C172.665 112.849 178.234 119.424 186.379 121.312C198.637 123.978 215.109 121.7 229.049 120.969C229.07 121.077 229.092 121.184 229.113 121.292C226.713 121.54 224.312 121.787 221.913 122.035C235.37 120.609 243.43 126.592 254.152 128.088ZM246.377 88.4623C242.061 85.0334 229.491 79.9731 223.593 79.5501C223.572 79.4428 223.551 79.3355 223.53 79.2279C226.188 78.595 228.847 77.9619 231.504 77.329C219.664 79.843 212.303 75.864 202.269 76.3737C202.29 76.4813 202.311 76.5886 202.332 76.6962C203.232 76.7425 204.132 76.7891 205.031 76.8358C204.773 77.2207 204.514 77.6063 204.256 77.9913C212.155 76.7059 226.837 80.1461 234.376 83.4569C238.09 85.0875 241.637 88.5141 246.377 88.4623ZM251.491 116.231C246.454 114.62 238.472 119.318 233.55 120.086C233.7 120.28 233.849 120.474 233.998 120.668C239.829 119.189 245.661 117.71 251.491 116.231ZM260.509 168.996C260.274 168.931 260.038 168.866 259.803 168.801C260.038 168.866 260.274 168.931 260.509 168.996ZM260.119 170.411C259.841 170.131 259.564 169.851 259.286 169.571C259.564 169.851 259.841 170.131 260.119 170.411ZM252.701 139.414C251.957 138.997 251.323 138.951 250.261 138.889C250.236 139.897 250.212 140.906 250.187 141.914C250.294 141.893 250.401 141.872 250.508 141.851C250.83 141.788 251.151 141.725 251.473 141.662C251.218 140.931 250.964 140.201 250.709 139.47C251.373 139.451 252.037 139.432 252.701 139.414ZM240.438 76.9144C240.203 76.8488 239.967 76.7836 239.731 76.7181C239.967 76.7836 240.203 76.8488 240.438 76.9144ZM256.552 160.74C254.6 157.234 249.781 152.754 245.653 152.841C249.279 155.442 252.919 158.107 256.552 160.74ZM248.263 140.619C247.9 140.467 247.536 140.316 247.172 140.164C247 140.421 246.828 140.678 246.656 140.934C247.191 140.829 247.727 140.724 248.263 140.619ZM234.524 77.4053C233.732 77.3379 232.94 77.2702 232.147 77.2029C232.168 77.3102 232.189 77.4174 232.21 77.5247C232.982 77.4851 233.753 77.4452 234.524 77.4053ZM246.529 140.29C242.873 139.178 239.205 141.89 234.507 141.98C229.598 142.074 225.832 140.583 221.726 139.804C221.748 139.911 221.769 140.018 221.79 140.126C223.371 141.377 224.952 142.628 226.533 143.879C225.807 143.018 225.082 142.156 224.356 141.295C230.752 142.08 238.175 143.095 246.529 140.29ZM230.267 62.516C223.356 59.3072 211.395 67.8215 208.325 71.5052C215.787 68.5998 219.669 64.6493 230.267 62.516ZM236.877 104.713C236.514 104.561 236.15 104.409 235.786 104.258C236.15 104.409 236.514 104.561 236.877 104.713ZM245.527 152.197C245.291 152.131 245.056 152.066 244.82 152.001C245.056 152.066 245.291 152.131 245.527 152.197ZM244.82 152.001C241.369 149.097 234.531 146.811 229.932 145.889C230.466 146.341 231 146.794 231.534 147.247C236.135 148.365 239.325 151.833 244.82 152.001ZM235.264 106.702C235.029 106.637 234.794 106.571 234.558 106.506C234.794 106.571 235.029 106.637 235.264 106.702ZM248.971 179.959C248.416 179.399 247.861 178.838 247.305 178.279C247.861 178.838 248.416 179.399 248.971 179.959ZM233.915 106.632C231.973 105.639 224.224 106.314 221.83 108C225.858 107.544 229.887 107.088 233.915 106.632ZM243.702 159.915C243.467 159.85 243.231 159.784 242.996 159.719C243.231 159.784 243.467 159.85 243.702 159.915ZM246.921 178.019C246.879 177.805 246.837 177.59 246.794 177.375C246.837 177.59 246.879 177.805 246.921 178.019ZM246.605 176.409C242.909 173.454 239.206 170.466 235.517 167.544C237.509 171.226 242.515 175.796 246.605 176.409ZM242.674 159.782C242.439 159.717 242.204 159.652 241.969 159.586C242.204 159.652 242.439 159.717 242.674 159.782ZM247.146 187.677C245.957 184.454 244.768 181.229 243.579 178.006C243.472 178.027 243.365 178.048 243.258 178.069C244.554 181.271 245.85 184.475 247.146 187.677ZM243.032 168.411C242.797 168.345 242.561 168.28 242.326 168.215C242.561 168.28 242.797 168.345 243.032 168.411ZM249.98 205.522C249.789 205.114 249.597 204.705 249.406 204.297C249.234 204.554 249.061 204.811 248.889 205.067C249.253 205.219 249.617 205.371 249.98 205.522ZM248.958 203.716C246.532 196.856 242.588 185.381 236.88 183.001C236.149 183.813 235.418 184.626 234.687 185.438C235.432 186.965 236.177 188.492 236.921 190.018C235.564 190.42 235.685 190.37 235.119 191.041C237.585 194.538 240.066 198.1 242.539 201.629C244.042 205.277 242.172 209.89 244.045 212.709C244.516 212.84 244.986 212.971 245.457 213.101C245.522 212.865 245.587 212.63 245.653 212.394C242.233 208.929 245.595 205.653 243.314 200.474C241.074 197.568 238.828 194.629 236.595 191.755C237.111 190.985 237.628 190.214 238.144 189.444C236.487 187.484 235.707 186.38 236.49 184.415C236.79 184.245 237.091 184.074 237.391 183.904C242.186 187.649 243.104 201.532 248.958 203.716ZM243.516 177.683C243.26 177.511 243.003 177.338 242.747 177.166C243.003 177.338 243.26 177.511 243.516 177.683ZM231.811 121.431C231.126 121.343 230.44 121.254 229.755 121.166C230.419 121.147 231.084 121.128 231.748 121.109C231.769 121.217 231.79 121.324 231.811 121.431ZM225.168 89.2781C224.27 88.6736 223.373 88.0692 222.475 87.4645C223.373 88.0692 224.27 88.6736 225.168 89.2781ZM239.886 167.69C239.65 167.624 239.415 167.559 239.179 167.494C239.415 167.559 239.65 167.624 239.886 167.69ZM238.242 159.314C238.007 159.248 237.771 159.183 237.536 159.118C237.771 159.183 238.007 159.248 238.242 159.314ZM230.64 125.676C230.405 125.61 230.17 125.545 229.934 125.48C230.17 125.545 230.405 125.61 230.64 125.676ZM229.934 125.48C227.556 123.458 223.498 122.65 219.725 122.799C219.747 122.906 219.768 123.014 219.789 123.121C220.003 123.079 220.218 123.037 220.432 122.995C223.599 123.823 226.767 124.652 229.934 125.48ZM236.187 159.048C235.951 158.982 235.716 158.917 235.481 158.852C235.716 158.917 235.951 158.982 236.187 159.048ZM221.706 86.9467C220.606 84.9162 217.643 83.0114 215.745 82.094C217.13 84.264 219.526 85.9267 221.706 86.9467ZM235.159 158.915C234.924 158.849 234.688 158.784 234.453 158.719C234.688 158.784 234.924 158.849 235.159 158.915ZM235.264 166.255C234.516 165.844 233.767 165.433 233.018 165.023C233.684 166.324 234.236 166.333 235.264 166.255ZM229.932 145.889C229.44 145.651 228.948 145.412 228.457 145.175C228.948 145.412 229.44 145.651 229.932 145.889ZM233.777 168.888C230.159 163.144 209.866 144.737 204.113 141.922C204.918 144.328 205.725 146.736 206.531 149.142C206.301 147.403 206.071 145.663 205.841 143.924C206.333 144.162 206.825 144.401 207.317 144.639C209.871 147.449 212.439 150.325 215 153.168C218.449 158.102 220.387 165.593 223.363 170.263C223.47 170.242 223.577 170.221 223.684 170.2C221.046 164.696 218.401 159.158 215.77 153.686C216.262 153.924 216.753 154.162 217.245 154.4C220.283 159.98 228.401 166.328 233.777 168.888ZM231.433 158.642C231.198 158.577 230.962 158.512 230.727 158.447C230.962 158.512 231.198 158.577 231.433 158.642ZM230.727 158.447C230.491 158.381 230.256 158.316 230.021 158.25C230.256 158.316 230.491 158.381 230.727 158.447ZM228.993 158.118C226.96 157.401 224.927 156.684 222.895 155.968C218.604 151.681 214.312 147.392 210.021 143.104C210.941 143.258 211.862 143.412 212.782 143.566C212.633 143.372 212.484 143.179 212.335 142.985C208.232 142.132 205.546 138.494 202.074 136.634C205.734 142.34 218.933 155.29 224.687 158.293C224.794 158.272 224.901 158.251 225.008 158.23C224.731 157.95 224.453 157.67 224.175 157.39C225.781 157.632 227.387 157.875 228.993 158.118ZM219.258 108.505C214.428 107.494 205.768 113.395 203.683 115.91C208.842 113.448 214.067 110.972 219.258 108.505ZM221.528 121.776C221.186 121.732 220.843 121.688 220.5 121.643C220.521 121.751 220.542 121.858 220.564 121.965C220.885 121.902 221.207 121.839 221.528 121.776ZM233.022 183.758C228.638 176.691 217.978 176.367 212.178 171.119C208.63 167.908 208.979 163.247 206.435 158.863C206.403 162.103 206.371 165.344 206.339 168.585C206.689 179.824 212.125 188.888 215.18 196.626C215.073 196.647 214.966 196.668 214.859 196.689C213.687 194.689 212.515 192.688 211.344 190.688C211.237 190.709 211.13 190.73 211.022 190.751C211.107 191.18 211.191 191.61 211.275 192.039C213.486 195.78 216.396 203.712 219.97 205.723C218.735 203.401 217.5 201.077 216.265 198.755C220.562 202.978 223.37 208.011 229.92 208.789C221.583 201.278 217.091 199.221 211.487 186.31C216.962 189.184 221.09 193.535 228.62 193.654C228.471 193.461 228.322 193.267 228.172 193.073C217.696 192.957 210.702 186.395 208.378 173.872C207.811 170.98 206.805 167.526 207.826 165.951C212.508 175.739 224.849 178.882 233.022 183.758ZM227.891 161.01C227.849 160.795 227.807 160.58 227.765 160.366C227.561 160.99 227.485 160.494 227.891 161.01ZM227.121 160.492C226.716 160.125 226.31 159.759 225.904 159.393C226.571 160.542 226.003 160.069 227.121 160.492ZM219.404 122.862C219.169 122.797 218.933 122.731 218.698 122.666C218.933 122.731 219.169 122.797 219.404 122.862ZM208.389 71.8273C208.153 71.7621 207.918 71.6969 207.683 71.6313C207.918 71.6969 208.153 71.7621 208.389 71.8273ZM235.185 210.098C234.95 210.033 234.715 209.968 234.479 209.902C234.715 209.968 234.95 210.033 235.185 210.098ZM201.04 39.4782C199.455 37.4077 195.787 35.9824 193.472 34.9412C194.689 36.0403 195.907 37.14 197.124 38.2394C194.25 39.4721 191.375 40.7057 188.501 41.9384C188.522 42.046 188.543 42.1532 188.565 42.2605C191.917 41.4017 198.613 40.4305 201.04 39.4782ZM236.112 221.626C232.95 219.124 229.788 216.622 226.626 214.12C228.668 217.291 232.751 220.302 236.112 221.626ZM201.634 54.417C190.446 53.2048 179.248 76.9204 168.839 81.2607C168.86 81.368 168.881 81.4753 168.902 81.5829C179.635 78.4147 182.852 69.2862 188.947 62.9285C192.101 59.5026 197.347 56.7737 201.634 54.417ZM230.627 208.985C230.391 208.92 230.156 208.855 229.92 208.789C230.156 208.855 230.391 208.92 230.627 208.985ZM234.092 230.052C233.773 229.557 233.453 229.062 233.134 228.568C232.961 228.824 232.789 229.081 232.617 229.338C233.109 229.576 233.601 229.814 234.092 230.052ZM203.55 77.7952C203.014 77.9004 202.478 78.0055 201.942 78.1107C202.478 78.0055 203.014 77.9004 203.55 77.7952ZM202.981 74.8961C201.095 74.4407 196.963 75.66 195.65 76.6688C197.856 76.5705 200.063 76.4723 202.269 76.3737C201.927 75.3665 201.562 75.7152 202.981 74.8961ZM232.364 228.049C231.35 226.477 230.199 225.965 228.775 225.073C227.939 225.349 227.102 225.624 226.266 225.9C226.414 226.652 226.561 227.403 226.709 228.155C219.902 224.723 214.523 217.44 210.704 209.549C209.826 209.609 208.947 209.67 208.069 209.731C206.428 207.042 204.788 204.353 203.147 201.663C200.144 194.678 201.846 182.435 196.282 178.588C195.745 179.25 195.207 179.914 194.669 180.577C194.562 180.598 194.455 180.619 194.348 180.64C191.914 171.901 186.699 160.344 180.352 156.955C179.923 157.04 179.495 157.124 179.066 157.208C178.678 158.064 178.289 158.921 177.901 159.778C177.578 164.196 180.892 167.697 182.232 171.642C180.241 171.624 179.365 172.052 178.179 173.106C178.072 176.356 179.887 180.587 180.017 180.775C183.53 182.303 191.946 198.121 192.153 203.486C190.318 203.515 190.02 203.621 189.064 204.761C189.765 206.631 190.466 208.501 191.166 210.371C191.059 210.392 190.952 210.413 190.845 210.434C189.78 208.866 188.048 208.037 186.292 207.647C190.533 211.617 194.47 216.208 198.265 221.023C189.213 220.591 177.485 218.425 171.945 212.804C170.09 210.157 168.235 207.51 166.38 204.863C164.961 205.278 165.102 205.618 164.067 204.983C163.619 204.401 163.17 203.82 162.723 203.239C162.7 203.689 162.677 204.14 162.654 204.59C161.906 204.18 161.157 203.769 160.409 203.358C158.512 200.497 156.615 197.634 154.718 194.772C152.637 190.094 152.584 185.1 149.875 182.006C149.768 182.027 149.661 182.048 149.554 182.069C149.039 182.281 148.524 182.493 148.01 182.706C148.027 183.929 148.045 185.153 148.062 186.376C137.391 179.308 141.036 155.307 133.035 143.824C131.083 141.022 128.418 143.095 125.91 141.542C115.325 128.738 121.296 108.419 100.699 108.347C97.3606 102.86 95.1379 90.094 89.5862 87.4429C88.5336 88.3185 87.4812 89.1945 86.4289 90.0701C87.5793 91.9629 88.7298 93.8566 89.8804 95.7493C90.7864 100.367 91.6927 104.985 92.5986 109.603C95.4322 115.132 101.297 116.137 103.865 122.782C103.05 123.165 102.235 123.548 101.42 123.931C102.381 124.857 103.341 125.784 104.302 126.711C94.6953 126.932 85.7789 120.211 80.9555 113.225C79.2101 109.999 77.4637 106.773 75.718 103.547C76.3307 106.103 76.9435 108.66 77.5566 111.215C77.3211 111.15 77.0856 111.085 76.85 111.02C74.1527 104.078 71.4544 97.1338 68.7568 90.192C71.7176 103.75 65.3841 109.125 63.905 119.917C64.7009 118.868 65.4971 117.82 66.2931 116.771C66.5767 121.409 65.5969 126.493 67.593 131.906C69.6502 137.458 76.0877 149.849 72.9141 155.62C69.5037 145.97 60.0441 143.157 60.0778 131.039C59.7984 131.317 59.5187 131.595 59.2397 131.873C56.6225 117.05 58.8512 98.3682 51.228 85.9363C49.0086 82.2958 43.9792 76.8396 39.6178 79.5154C39.4877 79.9872 39.3575 80.4587 39.2274 80.9306C38.8641 80.7787 38.5001 80.6269 38.1368 80.4754C35.5663 74.7803 30.8501 66.1254 26.1113 63.4298C24.3915 63.964 24.081 64.4321 23.1489 65.3497C23.2955 72.2023 25.548 76.6242 28.3652 81.7233C25.416 79.7375 22.4656 77.7506 19.5168 75.7648C22.0168 79.5881 26.5502 80.9556 29.7722 83.7892C29.1714 84.1302 28.5702 84.4713 27.9694 84.8124C29.1619 90.8374 32.5507 92.4552 35.0624 97.1378C33.4375 96.2298 31.8121 95.3219 30.1872 94.4138C31.969 96.2322 33.8437 97.294 35.2463 99.7783C30.5186 100.985 37.0007 108.675 38.5497 111.509C33.6644 109.173 27.465 107.067 22.7654 104.235C25.4466 107.689 28.141 111.21 30.8284 114.697C33.4947 118.892 33.2697 123.601 33.8678 128.487C33.6325 128.421 33.3971 128.356 33.1619 128.291C31.2504 123.523 29.9025 125.483 26.2369 123.627C24.937 121.54 23.6371 119.453 22.3375 117.367C22.2301 117.388 22.1231 117.409 22.016 117.43C23.3025 120.372 25.1907 122.159 26.3579 125.945C26.2927 126.181 26.2278 126.417 26.1628 126.653C25.7992 126.501 25.4352 126.349 25.0719 126.198C22.8567 121.359 17.8237 119.286 14.6951 115.855C13.3113 113.339 11.927 110.822 10.5428 108.305C9.70678 108.581 8.87037 108.857 8.03396 109.132C9.39788 104.739 10.762 100.344 12.1252 95.9507C12.3067 92.9041 12.4878 89.8571 12.669 86.8105C13.6491 88.4024 14.6297 89.9949 15.6097 91.5865C15.7168 91.5655 15.8238 91.5445 15.9312 91.5234C15.1462 89.2244 14.3608 86.9245 13.5757 84.6252C14.196 84.9498 14.8162 85.274 15.4365 85.5987C8.9871 75.2607 7.19028 65.1367 2.24809 50.715C2.48327 50.7803 2.71877 50.8455 2.954 50.9111C6.02494 58.2531 11.1566 69.0701 16.9556 72.9213C14.2909 68.9841 11.6259 65.0449 8.9612 61.1073C2.65146 49.8065 -2.2844 38.121 -9.37629 28.9072C-5.88774 29.672 -2.39834 30.4377 1.09053 31.2025C0.941054 31.009 0.791832 30.8151 0.642343 30.6216C-3.86131 30.074 -7.3862 27.875 -12.3276 27.4789C-10.9631 29.3296 -9.59786 31.1812 -8.23341 33.0319C-8.34047 33.053 -8.44753 33.074 -8.55458 33.095C-8.59669 32.8804 -8.63885 32.6655 -8.68095 32.451C-12.8176 29.8634 -16.0139 26.4393 -20.6075 24.4196C-30.8782 21.4167 -41.2218 18.3936 -51.4226 15.4101C-58.0546 12.9218 -62.9258 7.81056 -69.7048 5.61468C-62.4282 17.3815 -34.6025 20.7265 -21.6406 25.9605C-16.1192 27.9548 -6.18926 31.302 -6.26799 41.3453C-6.4409 51.186 -14.0789 55.841 -14.0603 66.2936C-14.1677 66.3146 -14.2748 66.3356 -14.3818 66.3566C-14.7366 63.4155 -15.0911 60.4736 -15.4458 57.5325C-16.8525 55.4665 -18.2599 53.4004 -19.6665 51.3344C-19.38 48.8252 -19.0936 46.3149 -18.8066 43.8056C-18.2622 35.8157 -24.4193 28.2759 -28.9662 26.0597C-25.9979 31.2281 -16.1953 40.6271 -20.7524 49.2055C-20.7945 48.991 -20.8366 48.7761 -20.8788 48.5612C-25.9789 45.886 -29.8191 39.5307 -34.0747 35.7604C-43.2207 29.415 -52.3696 23.0671 -61.5159 16.7218C-65.888 12.8579 -69.1594 6.6703 -73.8734 3.08731C-71.4973 15.4744 -46.7684 29.47 -37.9269 34.8437C-30.0874 39.4344 -20.9743 48.5083 -16.6687 58.1066C-14.9756 61.8806 -15.6584 65.8928 -14.1979 68.9971C-13.509 67.97 -12.8202 66.9425 -12.1316 65.9151C-11.8312 65.7448 -11.5304 65.5743 -11.2303 65.4037C-12.2033 78.472 -8.94534 96.9378 1.63142 102.024C2.06173 101.382 2.49231 100.74 2.92292 100.098C3.15812 100.164 3.39361 100.229 3.62884 100.294C4.29724 104.331 5.67551 109.5 8.09206 111.128C8.60663 110.916 9.12154 110.703 9.63605 110.491C12.9715 119.211 20.4789 123.197 25.9623 129.034C26.2835 128.971 26.6053 128.908 26.9268 128.845C27.3167 127.43 27.7071 126.015 28.097 124.601C28.7173 124.925 29.3375 125.249 29.9577 125.573C32.299 130.875 35.8135 137.393 40.1279 139.972C41.7802 138.123 41.2891 135.238 42.0158 132.576C44.5726 119.502 41.0923 112.355 34.3396 101.964C36.0229 101.544 35.9042 101.734 36.4004 100.555C37.9492 94.1719 30.8415 90.2205 28.9974 84.9452C29.7264 84.6904 30.4554 84.436 31.1847 84.1815C28.9537 77.147 23.091 72.8058 25.0782 64.9711C25.3994 64.9081 25.7212 64.845 26.0427 64.7819C29.7769 69.6592 33.5216 80.4502 39.6756 81.5114C40.0179 81.556 40.3608 81.6001 40.703 81.6444C40.9192 81.0446 41.1356 80.4444 41.3518 79.8446C45.041 82.8484 49.0998 84.5814 51.6015 89.5429C56.6747 99.6042 55.1097 113.181 55.4771 122.908C55.9196 135.334 67.2335 153.21 73.3566 157.875C74.5639 156.643 74.1505 156.463 75.8022 156.726C78.3982 160.721 82.142 166.657 86.4312 168.358C87.0531 168.124 87.6753 167.891 88.2973 167.657C88.2227 166.142 88.363 166.18 88.819 165.213C88.9264 165.192 89.0334 165.171 89.1408 165.15C93.0841 171.434 99.0012 177.957 107.286 177.649C107.437 177.285 107.588 176.92 107.739 176.556C107.228 175.653 106.716 174.749 106.205 173.846C113.866 177.453 123.381 180.951 133.3 180.908C133.558 180.523 133.817 180.138 134.075 179.753C131.153 165.454 120.805 162.204 117.776 152.84C118.802 153.531 119.828 154.221 120.854 154.912C120.961 154.891 121.068 154.87 121.176 154.849C121.755 154.401 122.335 153.952 122.915 153.504C121.091 148.128 118.472 142.295 115.058 138.987C111.913 135.939 107.987 134.526 105.641 130.129C106.22 129.68 106.8 129.232 107.38 128.783C106.079 127.255 104.777 125.725 103.475 124.196C104.12 123.513 104.765 122.828 105.41 122.144C102.424 116.388 97.1987 114.608 94.2693 109.609C93.4477 105.422 92.6195 101.201 91.804 97.0447C90.7247 94.3227 88.9522 92.5276 88.8746 88.9211C88.9816 88.9001 89.0887 88.8791 89.1957 88.8581C89.5383 88.9023 89.8812 88.9464 90.2238 88.991C95.4104 93.9175 94.0737 103.068 98.1325 107.178C103.248 112.677 111.579 111.44 115.893 119.418C119.802 126.774 120.418 140.374 126.8 144.378C127.338 143.715 127.876 143.051 128.413 142.388C138.487 146.297 136.474 181.466 148.057 188.05C148.378 187.987 148.7 187.924 149.021 187.861C149.325 186.574 149.629 185.288 149.933 184.002C153.974 193.725 156.996 204.533 165.084 208.463C166.368 207.025 165.53 206.763 167.081 206.733C172.362 217.888 186.121 223.582 200.062 221.674C200.041 221.566 200.02 221.459 199.999 221.352C196.72 215.643 192.308 212.048 190.414 204.831C190.521 204.81 190.628 204.789 190.735 204.768C192.214 204.911 192.656 204.903 193.18 203.619C196.087 194.965 180.12 182.322 179.849 173.113C180.278 173.029 180.707 172.945 181.135 172.861C181.649 173.206 182.161 173.551 182.674 173.897C183.04 173.491 183.405 173.084 183.771 172.678C183.836 172.442 183.901 172.206 183.966 171.971C182.912 166.974 178.826 163.052 179.64 158.433C179.897 158.606 180.153 158.779 180.409 158.951C188.627 161.638 188.524 178.386 195.755 182.706C196.206 182.171 196.658 181.636 197.109 181.102C197.238 181.188 197.366 181.274 197.494 181.36C200.005 192.708 201.887 207.396 209.413 211.475C209.799 211.176 210.186 210.877 210.572 210.578C213.115 221.378 221.807 225.105 228.179 230.543C228.372 230.394 228.566 230.244 228.759 230.095C228.249 228.634 227.74 227.172 227.231 225.711C227.552 225.648 227.874 225.584 228.195 225.521C228.302 225.5 228.41 225.479 228.517 225.458C229.799 226.322 231.082 227.186 232.364 228.049ZM228.808 215.03C228.082 214.169 227.357 213.307 226.631 212.446C227.357 213.307 228.082 214.169 228.808 215.03ZM213.004 134.489C210.126 129.601 204.66 128.21 200.763 124.847C202.134 124.466 203.507 124.085 204.879 123.705C200.231 123.836 195.549 123.974 190.933 124.099C190.954 124.207 190.975 124.314 190.996 124.421C200.94 123.609 205.816 130.953 213.004 134.489ZM201.879 77.7888C200.111 77.2155 196.681 77.7054 195.386 78.7283C197.55 78.4151 199.715 78.1018 201.879 77.7888ZM204.575 98.3374C204.34 98.2718 204.105 98.2066 203.87 98.1413C204.105 98.2066 204.34 98.2718 204.575 98.3374ZM226.626 214.12C226.348 213.84 226.071 213.559 225.793 213.279C226.071 213.559 226.348 213.84 226.626 214.12ZM203.87 98.1413C203.634 98.0758 203.398 98.0106 203.163 97.9454C203.398 98.0106 203.634 98.0758 203.87 98.1413ZM191.164 33.3864C186.574 28.4063 180.211 22.8762 172.692 22.6249C167.484 22.4506 163.081 23.644 159.004 22.634C158.92 22.2042 158.836 21.7748 158.751 21.345C159.588 21.0695 160.424 20.7939 161.26 20.5182C161.09 20.2173 160.92 19.9159 160.749 19.615C158.375 18.5248 153.548 16.2367 149.892 18.7342C153.459 18.1382 155.851 19.0516 158.757 19.6714C158.497 20.6144 158.237 21.5577 157.977 22.501C158.275 22.8884 158.574 23.2758 158.873 23.6631C167.513 26.0575 179.769 22.8683 185.456 29.8224C183.325 29.7005 179.233 29.3852 177.292 30.7551C183.458 29.7276 186.735 32.2061 191.164 33.3864ZM225.793 213.279C225.516 212.999 225.238 212.719 224.961 212.439C225.238 212.719 225.516 212.999 225.793 213.279ZM224.961 212.439C224.919 212.224 224.876 212.009 224.834 211.795C224.876 212.009 224.919 212.224 224.961 212.439ZM202.394 97.4269C200.597 96.7761 198.799 96.1248 197.002 95.4737C191.656 92.8053 188.027 87.0014 181.482 86.1404C181.631 86.3339 181.78 86.5278 181.93 86.7216C189.523 88.5259 193.744 97.12 202.394 97.4269ZM190.378 37.8902C190.143 37.8247 189.907 37.7595 189.672 37.6943C189.907 37.7595 190.143 37.8247 190.378 37.8902ZM224.128 211.599C224.086 211.384 224.043 211.169 224.001 210.954C224.043 211.169 224.086 211.384 224.128 211.599ZM223.68 211.017C223.638 210.803 223.596 210.588 223.553 210.373C223.596 210.588 223.638 210.803 223.68 211.017ZM223.232 210.436C223.19 210.221 223.148 210.007 223.106 209.792C223.148 210.007 223.19 210.221 223.232 210.436ZM222.784 209.855C222.742 209.64 222.7 209.425 222.658 209.211C222.7 209.425 222.742 209.64 222.784 209.855ZM222.336 209.274C222.294 209.059 222.252 208.844 222.21 208.629C222.252 208.844 222.294 209.059 222.336 209.274ZM221.888 208.692C221.676 208.177 221.463 207.661 221.251 207.145C221.143 207.166 221.036 207.187 220.929 207.208C221.249 207.703 221.569 208.198 221.888 208.692ZM203.746 116.232C203.511 116.167 203.275 116.101 203.04 116.036C203.275 116.101 203.511 116.167 203.746 116.232ZM220.929 207.208C220.866 206.886 220.803 206.563 220.74 206.241C220.803 206.563 220.866 206.886 220.929 207.208ZM188.628 42.583C188.092 42.6881 187.556 42.7933 187.02 42.8985C187.556 42.7933 188.092 42.6881 188.628 42.583ZM220.418 206.304C220.376 206.09 220.334 205.875 220.291 205.66C220.334 205.875 220.376 206.09 220.418 206.304ZM223.062 223.183C222.446 221.743 221.829 220.302 221.212 218.862C221.573 220.907 222.077 222.156 223.062 223.183ZM201.043 117.766C200.807 117.701 200.572 117.636 200.336 117.57C200.572 117.636 200.807 117.701 201.043 117.766ZM184.918 37.2884C184.682 37.2232 184.447 37.158 184.211 37.0925C184.447 37.158 184.682 37.2232 184.918 37.2884ZM200.141 118.277C199.906 118.212 199.67 118.147 199.435 118.081C199.67 118.147 199.906 118.212 200.141 118.277ZM199.561 118.726C198.811 118.873 198.061 119.02 197.311 119.167C197.332 119.275 197.353 119.382 197.374 119.49C198.103 119.235 198.832 118.981 199.561 118.726ZM205.171 152.42C204.274 147.535 203.433 142.941 201.357 139.786C197.864 134.479 191.862 131.742 187.644 127.756C177.706 119.103 157.221 99.3187 145.078 96.2945C145.099 96.4018 145.12 96.509 145.141 96.6166C151.827 109.026 148.849 126.062 148.094 137.189C147.409 146.088 150.793 157.154 154.431 164.383C158.011 171.959 162.732 176.616 171.353 177.457C171.204 177.263 171.055 177.069 170.905 176.875C157.784 175.022 150.396 158.893 149.69 140.221C149.524 135.839 147.899 132.083 149.47 128.889C149.896 127.996 149.43 128.66 150.308 128.055C150.81 138.596 163.662 154.757 170.195 157.944C165.907 153.099 161.578 148.226 157.327 143.407C151.967 135.328 151.543 123.798 149.651 112.794C149.886 112.86 150.122 112.925 150.357 112.991C155.07 122.878 165.188 125.558 169.881 135.925C169.989 135.904 170.096 135.883 170.203 135.862C166.987 125.344 156.816 122.69 151.959 114.349C149.75 110.555 149.083 104.692 148.023 99.3963C149.285 100.153 150.546 100.909 151.808 101.665C156.918 108.902 167.89 110.958 174.184 117.014C179.569 122.195 179.111 128.873 183.506 135.593C182.447 129.473 180.425 124.167 177.9 120.634C180.843 121.746 182.851 125.204 185.204 127.231C191.752 132.873 203.689 137.545 202.478 150.607C202.757 150.329 203.037 150.051 203.316 149.773C204.356 157.829 203.153 164.976 205.68 173.733C205.51 166.629 205.34 159.524 205.171 152.42ZM197.437 119.812C197.008 119.896 196.58 119.98 196.151 120.064C196.58 119.98 197.008 119.896 197.437 119.812ZM180.744 36.435C180.508 36.3694 180.273 36.3042 180.037 36.2387C180.273 36.3042 180.508 36.3694 180.744 36.435ZM210.069 187.592C210.026 187.377 209.984 187.162 209.942 186.948C209.984 187.162 210.026 187.377 210.069 187.592ZM188.634 80.0531C184.743 79.2477 179.169 82.1438 175.901 83.2204C175.922 83.328 175.943 83.4352 175.964 83.5425C180.187 82.3797 184.411 81.216 188.634 80.0531ZM180.037 36.2387C177.341 35.5412 174.644 34.8436 171.947 34.1458C172.097 34.3396 172.246 34.5335 172.395 34.727C174.726 35.8311 177.058 36.935 179.389 38.0387C178.599 37.4132 177.808 36.7879 177.018 36.162C178.024 36.1877 179.031 36.2133 180.037 36.2387ZM208.093 182.627C207.945 181.875 207.798 181.123 207.65 180.371C207.155 181.215 207.237 181.632 208.093 182.627ZM207.587 180.049C207.12 178.803 206.653 177.556 206.185 176.31C206.18 177.983 206.175 179.658 206.169 181.332C206.642 180.904 207.115 180.477 207.587 180.049ZM186.648 78.4351C186.412 78.3699 186.177 78.3047 185.941 78.2395C186.177 78.3047 186.412 78.3699 186.648 78.4351ZM185.103 79.0728C176.209 80.8179 167.312 82.5636 158.418 84.3087C167.361 83.1095 175.814 81.0178 185.103 79.0728ZM205.383 185.835C205.341 185.62 205.299 185.405 205.257 185.19C205.299 185.405 205.341 185.62 205.383 185.835ZM205.315 187.187C205.231 186.757 205.146 186.327 205.062 185.898C204.997 186.134 204.932 186.37 204.867 186.606C202.801 191.982 205.306 201.007 207.305 207.539C208.066 201.534 203.736 193.096 205.315 187.187ZM192.846 128.742C192.803 128.528 192.761 128.313 192.719 128.098C192.761 128.313 192.803 128.528 192.846 128.742ZM192.013 127.902C190.353 124.981 189.239 123.186 186.438 123.308C188.296 124.84 190.155 126.371 192.013 127.902ZM190.933 124.099C190.591 124.055 190.248 124.011 189.905 123.966C189.926 124.074 189.947 124.181 189.968 124.289C190.29 124.225 190.612 124.162 190.933 124.099ZM197.818 160.888C197.776 160.674 197.734 160.459 197.691 160.244C197.54 160.608 197.389 160.973 197.238 161.337C197.431 161.188 197.625 161.038 197.818 160.888ZM197.364 161.982C197.322 161.767 197.28 161.552 197.238 161.337C194.962 163.747 191.835 170.512 194.818 174.525C194.239 170.113 195.343 164.837 197.364 161.982ZM174.413 46.7101C172.02 44.7265 169.627 42.742 167.235 40.758C168.739 43.1896 171.686 46.0502 174.413 46.7101ZM171.947 34.1458C171.712 34.0805 171.477 34.0153 171.241 33.9501C171.477 34.0153 171.712 34.0805 171.947 34.1458ZM181.482 86.1404C181.246 86.0749 181.011 86.0096 180.775 85.9441C181.011 86.0096 181.246 86.0749 181.482 86.1404ZM180.775 85.9441C180.54 85.8789 180.305 85.8137 180.069 85.7481C180.305 85.8137 180.54 85.8789 180.775 85.9441ZM180.069 85.7481C179.834 85.6829 179.598 85.6177 179.363 85.5521C179.598 85.6177 179.834 85.6829 180.069 85.7481ZM197.046 180.78C196.725 180.843 196.403 180.906 196.082 180.969C196.019 180.647 195.955 180.324 195.892 180.002C196.234 180.047 196.577 180.091 196.92 180.135C196.962 180.35 197.004 180.565 197.046 180.78ZM178.335 85.4192C178.1 85.354 177.864 85.2887 177.629 85.2235C177.864 85.2887 178.1 85.354 178.335 85.4192ZM167.52 32.0037C166.407 31.999 165.293 31.9944 164.179 31.9901C164.2 32.0974 164.221 32.2047 164.242 32.3123C165.721 32.2965 166.514 33.0624 166.878 32.1298C167.092 32.0877 167.306 32.0457 167.52 32.0037ZM177.629 85.2235C177.394 85.158 177.158 85.0927 176.923 85.0276C177.158 85.0927 177.394 85.158 177.629 85.2235ZM176.923 85.0276C175.6 84.2847 172.785 83.8333 170.946 85.1962C172.938 85.1399 174.931 85.0838 176.923 85.0276ZM165.696 39.722C165.654 39.5071 165.612 39.2922 165.57 39.0774C165.612 39.2922 165.654 39.5071 165.696 39.722ZM185.006 148.347C184.922 147.917 184.838 147.488 184.754 147.058C184.646 147.079 184.539 147.1 184.432 147.121C184.624 147.53 184.815 147.938 185.006 148.347ZM185.507 152.598C185.147 151.331 184.787 150.063 184.427 148.795C184.89 151.158 185.354 153.521 185.818 155.883C185.714 154.788 185.61 153.693 185.507 152.598ZM157.534 20.2459C152.366 20.0682 149.496 28.3733 144.521 30.4943C144.542 30.6016 144.563 30.7089 144.584 30.8165C145.462 30.7556 146.341 30.6946 147.219 30.634C146.847 29.2646 154.67 21.6295 157.534 20.2459ZM159.219 35.6399C158.984 35.5743 158.748 35.5091 158.513 35.4438C158.748 35.5091 158.984 35.5743 159.219 35.6399ZM158.128 35.1845C157.893 35.1192 157.657 35.054 157.422 34.9885C157.657 35.054 157.893 35.1192 158.128 35.1845ZM162.231 57.7989C160.363 56.0488 151.788 69.0715 150.108 70.8838C151.707 66.5559 153.3 62.1944 154.906 57.8984C154.454 58.433 154.003 58.9676 153.551 59.5022C152.505 65.1478 149.181 70.2675 146.561 74.9258C153.683 70.9538 157.192 63.3923 162.231 57.7989ZM157.422 34.9885C154.866 33.2608 150.665 32.5584 147.214 32.3079C147.193 32.2003 147.172 32.093 147.15 31.9854C149.293 31.5649 151.437 31.1443 153.58 30.7237C151.567 30.6728 149.554 30.6219 147.54 30.571C147.561 30.6782 147.582 30.7855 147.603 30.8928C148.075 31.0235 148.545 31.1543 149.016 31.2848C145.757 32.2587 142.498 33.2332 139.239 34.2072C146.978 32.5207 151.724 34.1774 157.422 34.9885ZM187.927 198.962C181.186 193.295 171.29 195.724 165.475 186.64C165.368 186.661 165.261 186.682 165.154 186.703C165.6 187.842 166.046 188.981 166.493 190.12C166.129 189.968 165.765 189.817 165.401 189.665C163.549 186.46 161.695 183.254 159.842 180.05C159.735 180.071 159.628 180.092 159.521 180.113C162.562 188.367 159.544 194.441 162.08 203.365C162.679 197.361 159.401 190.353 162.587 185.533C165.521 194.903 173.455 197.944 178.075 204.91C180.944 209.235 181.914 214.953 186.196 217.368C186.282 217.24 186.368 217.112 186.454 216.984C184.301 214.296 182.435 211.807 180.442 208.461C181.938 209.282 183.435 210.104 184.932 210.925C185.466 211.378 186 211.831 186.534 212.284C183.523 209.418 180.512 206.551 177.501 203.685C178.55 203.925 179.599 204.165 180.647 204.406C180.37 204.126 180.092 203.845 179.815 203.565C175.461 202.459 171.175 197.425 169.053 192.963C174.978 195.171 181.283 198.088 187.927 198.962ZM154.993 31.116C154.564 31.2002 154.136 31.2843 153.707 31.3684C154.136 31.2843 154.564 31.2002 154.993 31.116ZM172.607 127.695C172.372 127.629 172.136 127.564 171.901 127.499C172.136 127.564 172.372 127.629 172.607 127.695ZM187.366 213.124C187.324 212.91 187.282 212.695 187.24 212.48C187.282 212.695 187.324 212.91 187.366 213.124ZM156.455 55.5866C156.413 55.3721 156.371 55.1572 156.329 54.9426C156.371 55.1572 156.413 55.3721 156.455 55.5866ZM148.991 19.2456C146.505 19.6216 144.019 19.9981 141.533 20.3744C142.374 18.5001 142.546 19.3607 141.027 17.7971C135.931 17.5434 130.767 19.7381 125.274 20.8881C122.163 14.6039 111.556 21.9703 109.099 15.0283C110.022 14.6245 110.944 14.2202 111.867 13.8164C111.61 13.6436 111.353 13.4708 111.097 13.2983C103.658 3.21682 79.6494 18.8157 67.9576 19.7554C67.9365 19.6478 67.9155 19.5406 67.8944 19.4333C68.0263 18.4037 68.1584 17.3738 68.2903 16.3445C67.9477 16.3 67.6048 16.2559 67.2622 16.2113C64.0615 14.2264 58.6728 17.9469 54.9822 18.2863C54.8327 18.0928 54.6835 17.8989 54.534 17.7051C55.8296 15.2812 58.2251 14.859 60.2688 12.8999C60.0985 12.5988 59.9281 12.2973 59.7575 11.9962C57.8095 11.7097 55.8611 11.4225 53.9131 11.1359C54.447 11.5886 54.9809 12.0415 55.5151 12.4941C44.4917 13.0424 34.9613 20.9901 26.6845 25.5118C23.8963 26.6163 21.1078 27.7211 18.3196 28.8259C35.5368 25.536 41.3188 13.859 57.8921 12.6968C57.9342 12.9117 57.9764 13.1266 58.0185 13.3415C55.5491 14.0763 54.9036 15.1173 53.6385 16.5429C53.9351 17.488 54.2319 18.4338 54.5286 19.3793C58.3866 19.543 64.0111 15.6047 67.4519 17.1781C67.1287 17.799 66.8055 18.4201 66.4819 19.041C67.2059 19.9705 67.3415 20.2738 68.4687 20.6585C74.5778 21.9366 81.2576 16.9367 85.7089 14.9338C93.8075 11.2902 103.455 11.6421 109.748 13.2282C109.683 13.4641 109.618 13.7 109.553 13.9359C108.952 14.2766 108.351 14.6177 107.75 14.9587C110.13 23.4308 116.203 17.1462 122.644 19.3968C122.62 19.4434 124.575 21.9219 126.169 22.0504C130.939 21.0032 135.773 19.9432 140.574 18.8897C140.85 19.7276 141.126 20.5658 141.401 21.404C143.931 20.6845 146.461 19.9648 148.991 19.2456ZM161.37 85.7373C160.941 85.8214 160.512 85.9055 160.084 85.9897C160.512 85.9055 160.941 85.8214 161.37 85.7373ZM179.185 179.935C178.949 179.869 178.714 179.804 178.478 179.739C178.714 179.804 178.949 179.869 179.185 179.935ZM161.733 92.6919C160.791 92.4304 159.849 92.1692 158.908 91.9076C159.057 92.1015 159.206 92.2954 159.356 92.4889C160.148 92.5566 160.94 92.6243 161.733 92.6919ZM177.388 179.284C177.152 179.218 176.917 179.153 176.681 179.088C176.917 179.153 177.152 179.218 177.388 179.284ZM157.712 84.1126C157.37 84.0684 157.027 84.0243 156.684 83.9801C156.705 84.0874 156.726 84.1947 156.747 84.3019C157.069 84.2389 157.391 84.1757 157.712 84.1126ZM158.908 91.9076C158.672 91.8424 158.437 91.7772 158.201 91.712C158.437 91.7772 158.672 91.8424 158.908 91.9076ZM155.72 84.1694C155.485 84.1038 155.249 84.0386 155.014 83.9733C155.249 84.0386 155.485 84.1038 155.72 84.1694ZM172.765 177.849C172.53 177.783 172.295 177.718 172.06 177.653C172.295 177.718 172.53 177.783 172.765 177.849ZM154.371 84.0995C154.135 84.0339 153.9 83.9687 153.665 83.9035C153.9 83.9687 154.135 84.0339 154.371 84.0995ZM172.06 177.653C171.824 177.587 171.588 177.522 171.353 177.457C171.588 177.522 171.824 177.587 172.06 177.653ZM153.021 84.0297C152.679 83.9851 152.336 83.941 151.994 83.8967C152.015 84.004 152.036 84.1113 152.057 84.2189C152.378 84.1559 152.7 84.0927 153.021 84.0297ZM151.994 83.8967C151.565 83.9809 151.137 84.065 150.708 84.1491C151.137 84.065 151.565 83.9809 151.994 83.8967ZM139.03 19.5271C137.592 20.07 136.325 22.1334 135.93 24.1503C136.963 22.6093 137.997 21.068 139.03 19.5271ZM150.645 83.8266C145.378 83.076 140.11 82.3248 134.844 81.5738C126.307 79.466 110.594 72.6848 103.919 66.8987C109.533 67.9035 116.29 69.0792 122.939 66.8471C122.918 66.7395 122.897 66.6323 122.876 66.525C96.7229 72.033 83.0322 52.6129 62.9161 48.5133C62.895 48.406 62.874 48.2987 62.8529 48.1911C67.1989 48.788 71.5461 49.3854 75.8922 49.9823C79.6407 49.8042 83.3904 49.6262 87.139 49.4483C93.0713 50.3292 98.2335 53.1284 105.764 52.4848C105.743 52.3775 105.722 52.2702 105.701 52.1629C99.2393 52.4914 94.5366 50.0223 88.4882 49.5182C88.4671 49.4106 88.4461 49.3033 88.425 49.196C89.9044 48.794 91.3838 48.3923 92.8631 47.9903C76.4195 50.7624 63.7972 46.1309 50.784 44.5373C51.4463 45.0762 52.1087 45.6157 52.7711 46.1548C60.5091 46.847 66.0848 51.4597 72.4076 54.3459C83.6472 59.3889 95.0815 64.3957 106.416 69.4201C120.1 75.8928 131.171 85.4875 150.645 83.8266ZM140.83 38.9134C138.926 37.1536 136.035 35.5949 133.13 35.4058C133.044 35.5341 132.958 35.6623 132.872 35.791C133.022 35.9845 133.171 36.1784 133.32 36.3719C135.823 37.219 138.327 38.0663 140.83 38.9134ZM139.182 32.2111C136.875 31.6973 133.575 33.2624 131.85 33.9838C131.871 34.0914 131.892 34.1987 131.913 34.306C134.336 33.6079 136.759 32.9092 139.182 32.2111ZM146.624 75.2479C146.389 75.1824 146.153 75.1172 145.918 75.052C146.153 75.1172 146.389 75.1824 146.624 75.2479ZM135.798 25.1799C135.756 24.965 135.714 24.7501 135.672 24.5356C130.753 29.6852 126.777 35.0716 118.984 38.1814C119.005 38.2887 119.026 38.396 119.047 38.5036C120.355 38.3585 121.662 38.2134 122.969 38.0688C117.544 39.9137 112.118 41.7589 106.693 43.6042C106.672 43.4966 106.651 43.3893 106.63 43.2821C107.659 42.8569 108.689 42.4317 109.719 42.0065C94.7962 45.8321 80.5063 46.912 67.8074 46.2156C67.7862 46.108 67.7652 46.0007 67.7441 45.8934C68.366 45.6597 68.9883 45.4262 69.6103 45.1927C55.2446 47.7565 43.7858 37.1231 30.8891 36.7312C30.9102 36.8384 30.9312 36.9457 30.9524 37.0533C31.1665 37.0113 31.3809 36.9692 31.5954 36.9272C42.3076 42.6103 65.9429 48.0465 80.5883 48.3917C87.1739 48.4843 101.658 43.3981 106.435 43.9894C105.191 44.4563 103.947 44.9236 102.703 45.3904C111.204 43.3343 120.82 40.9701 127.322 43.2365C130.829 44.667 134.339 46.098 137.846 47.5285C136.928 46.8165 136.009 46.1045 135.09 45.3928C131.731 44.1558 128.372 42.919 125.013 41.682C121.908 41.734 118.801 41.7859 115.695 41.8379C115.91 41.7958 116.124 41.7537 116.338 41.7117C121.42 39.8222 126.504 37.9324 131.586 36.0433C128.619 36.7178 125.494 37.8055 123.486 37.2982C125.137 36.6397 126.789 35.9806 128.44 35.3221C127.797 35.4482 127.154 35.5745 126.511 35.7006C126.662 35.3367 126.813 34.9721 126.964 34.6082C131.232 32.7119 133.115 28.2599 135.798 25.1799ZM164.132 184.896C164.069 184.574 164.006 184.251 163.942 183.929C164.006 184.251 164.069 184.574 164.132 184.896ZM163.621 183.992C162.068 180.617 160.509 177.209 158.962 173.865C158.855 173.886 158.748 173.907 158.641 173.929C159.567 177.362 161.463 182.012 163.621 183.992ZM142.502 78.0641C142.267 77.9985 142.031 77.9333 141.796 77.8677C142.031 77.9333 142.267 77.9985 142.502 78.0641ZM141.601 78.5755C141.366 78.5099 141.13 78.4448 140.895 78.3795C141.13 78.4448 141.366 78.5099 141.601 78.5755ZM147.348 109.566C143.468 88.4663 128.253 84.2107 114.485 78.2084C117.927 82.7359 122.546 85.24 125.43 91.4506C133.017 107.793 124.248 120.324 125.547 134.587C125.855 132.185 126.162 129.782 126.47 127.38C129.336 112.71 129.707 99.5667 122.116 83.0679C128.868 85.8767 138.181 89.7228 142.379 96.1548C149.678 107.337 145.692 124.094 145.722 135.312C145.738 141.295 148.018 149.396 147.586 155.02C147.951 154.614 148.317 154.208 148.682 153.802C149.619 158.989 151.386 165.729 154.03 169.146C151.966 161.295 147.196 152.855 146.918 143.107C146.654 134.861 147.265 127.109 147.637 119.546C147.54 116.22 147.438 112.86 147.348 109.566ZM140.378 79.15C140.036 79.1055 139.693 79.0613 139.351 79.0171C139.372 79.1243 139.393 79.2316 139.414 79.3392C139.735 79.2762 140.057 79.2131 140.378 79.15ZM158.578 173.606C158.536 173.392 158.493 173.177 158.451 172.962C158.493 173.177 158.536 173.392 158.578 173.606ZM159.521 180.113C159.458 179.791 159.394 179.468 159.331 179.146C159.394 179.468 159.458 179.791 159.521 180.113ZM159.01 179.209C158.947 178.887 158.883 178.565 158.82 178.243C158.883 178.565 158.947 178.887 159.01 179.209ZM158.435 177.984C158.393 177.769 158.351 177.554 158.309 177.34C158.351 177.554 158.393 177.769 158.435 177.984ZM139.155 79.7245C138.62 79.8296 138.084 79.9348 137.548 80.0399C138.084 79.9348 138.62 79.8296 139.155 79.7245ZM157.924 177.08C157.882 176.866 157.84 176.651 157.797 176.436C157.84 176.651 157.882 176.866 157.924 177.08ZM157.35 175.855C157.308 175.64 157.266 175.425 157.223 175.211C157.266 175.425 157.308 175.64 157.35 175.855ZM129.726 35.0697C129.383 35.0255 129.041 34.9814 128.698 34.9369C128.719 35.0445 128.74 35.1518 128.761 35.259C129.083 35.196 129.404 35.1328 129.726 35.0697ZM156.839 174.952C156.797 174.737 156.754 174.522 156.712 174.307C156.754 174.522 156.797 174.737 156.839 174.952ZM156.264 173.726C156.222 173.511 156.18 173.296 156.138 173.082C156.18 173.296 156.222 173.511 156.264 173.726ZM155.753 172.823C155.69 172.501 155.626 172.178 155.563 171.856C155.626 172.178 155.69 172.501 155.753 172.823ZM155.179 171.597C155.095 171.167 155.01 170.738 154.926 170.308C154.819 170.33 154.712 170.351 154.605 170.372C154.796 170.78 154.987 171.188 155.179 171.597ZM154.605 170.372C154.52 169.942 154.436 169.512 154.352 169.083C154.244 169.104 154.137 169.125 154.03 169.146C154.222 169.554 154.413 169.963 154.605 170.372ZM121.995 21.1966C115.403 20.3074 104.765 35.1927 101.054 38.6884C98.5211 40.5234 95.9869 42.3593 93.4538 44.1942C103.982 40.3787 110.934 27.3336 121.995 21.1966ZM147.259 156.757C147.216 156.543 147.174 156.328 147.132 156.113C147.174 156.328 147.216 156.543 147.259 156.757ZM147.064 157.464C147.022 157.25 146.98 157.035 146.937 156.82C146.44 158.256 145.943 159.692 145.445 161.128C145.985 159.907 146.524 158.685 147.064 157.464ZM149.623 180.717C148.651 178.009 146.042 168.784 144.849 166.598C144.742 166.619 144.635 166.64 144.528 166.661C145.021 171.79 146.246 178.481 149.623 180.717ZM145.572 161.772C145.529 161.558 145.487 161.343 145.445 161.128C145.487 161.343 145.529 161.558 145.572 161.772ZM145.377 162.479C145.335 162.265 145.292 162.05 145.25 161.835C145.292 162.05 145.335 162.265 145.377 162.479ZM145.182 163.187C145.14 162.972 145.097 162.757 145.055 162.542C145.097 162.757 145.14 162.972 145.182 163.187ZM144.137 168.076C144.095 167.861 144.053 167.646 144.011 167.432C144.053 167.646 144.095 167.861 144.137 168.076ZM144.006 169.105C143.943 168.783 143.879 168.461 143.816 168.139C143.879 168.461 143.943 168.783 144.006 169.105ZM143.937 170.457C143.874 170.135 143.811 169.813 143.748 169.491C143.811 169.813 143.874 170.135 143.937 170.457ZM143.868 171.809C143.805 171.487 143.742 171.164 143.678 170.842C143.742 171.164 143.805 171.487 143.868 171.809ZM105.953 14.3076C100.561 13.946 82.088 36.926 79.1976 41.3042C90.5231 35.0146 92.9563 21.5795 105.953 14.3076ZM108.463 52.6244C108.228 52.5592 107.992 52.494 107.757 52.4284C107.992 52.494 108.228 52.5592 108.463 52.6244ZM133.047 179.62C129.731 178.345 122.651 178.715 119.508 173.577C119.401 173.598 119.294 173.619 119.186 173.64C119.868 174.845 120.55 176.05 121.231 177.254C115.909 177.081 108.54 176.081 105.826 171.913C105.547 172.191 105.267 172.469 104.988 172.746C104.842 173.561 105.247 174.468 104.277 174.224C102.725 166.875 102.74 161.237 102.539 155.16C102.903 155.312 103.267 155.464 103.63 155.615C105.603 160.803 121.01 172.118 125.29 174.116C120.442 169.826 115.561 165.541 110.745 161.245C121.633 163.202 128.73 168.127 133.047 179.62ZM126.982 167.427C124.674 165.873 122.365 164.318 120.057 162.763C116.44 161.912 112.823 161.061 109.206 160.209C104.095 157.913 99.0855 148.765 96.4743 142.968C97.3086 143.25 98.143 143.532 98.9773 143.815C94.1301 139.454 80.2586 125.529 80.8185 115.928C86.1361 123.279 96.0539 125.489 104.877 127.937C104.288 129.354 103.416 130.483 104.929 131.606C109.329 137.819 116.784 141.705 120.227 150.017C119.265 149.648 118.302 149.279 117.339 148.911C119.092 150.391 120.462 150.366 121.244 153.498C120.09 152.72 118.936 151.943 117.782 151.166C117.374 151.357 116.967 151.549 116.559 151.74C116.429 152.212 116.299 152.683 116.169 153.155C118.577 159.826 124.279 161.561 126.982 167.427ZM126.892 175.475C126.614 175.194 126.337 174.914 126.059 174.634C126.337 174.914 126.614 175.194 126.892 175.475ZM117.339 148.911C117.104 148.845 116.868 148.78 116.633 148.715C116.868 148.78 117.104 148.845 117.339 148.911ZM99.9865 70.6817C99.6229 70.5299 99.2589 70.3781 98.8952 70.2263C99.2589 70.3781 99.6229 70.5299 99.9865 70.6817ZM119.123 173.318C119.081 173.104 119.039 172.889 118.997 172.674C119.039 172.889 119.081 173.104 119.123 173.318ZM98.8952 70.2263C96.6716 69.1016 94.4472 67.9766 92.2235 66.8518C96.4258 71.6557 100.53 77.1823 100.449 86.6501C100.306 91.5732 98.0274 100.561 101.221 105.903C99.7872 98.4235 101.305 93.0046 101.476 86.783C101.634 80.2947 98.4488 74.1895 96.3919 69.3796C97.2266 69.6618 98.0609 69.9441 98.8952 70.2263ZM110.599 146.887C110.363 146.822 110.128 146.757 109.892 146.691C110.128 146.757 110.363 146.822 110.599 146.887ZM109.892 146.691C109.657 146.626 109.421 146.561 109.186 146.495C109.421 146.561 109.657 146.626 109.892 146.691ZM108.864 146.559C108.629 146.493 108.394 146.428 108.158 146.363C108.394 146.428 108.629 146.493 108.864 146.559ZM108.158 146.363C107.923 146.297 107.687 146.232 107.452 146.167C107.687 146.232 107.923 146.297 108.158 146.363ZM107.452 146.167C107.217 146.101 106.981 146.036 106.746 145.971C106.981 146.036 107.217 146.101 107.452 146.167ZM91.8384 66.5925C91.4752 66.4409 91.1112 66.2892 90.7478 66.1373C91.1112 66.2892 91.4752 66.4409 91.8384 66.5925ZM106.746 145.971C106.403 145.926 106.061 145.882 105.718 145.838C105.739 145.945 105.76 146.053 105.781 146.16C106.103 146.097 106.425 146.034 106.746 145.971ZM105.718 145.838C105.483 145.772 105.247 145.707 105.012 145.642C105.247 145.707 105.483 145.772 105.718 145.838ZM105.012 145.642C104.777 145.576 104.541 145.511 104.306 145.446C104.541 145.511 104.777 145.576 105.012 145.642ZM104.306 145.446C104.07 145.38 103.835 145.315 103.6 145.25C103.835 145.315 104.07 145.38 104.306 145.446ZM87.0268 64.1909C86.7916 64.1257 86.5561 64.0605 86.3209 63.9949C86.5561 64.0605 86.7916 64.1257 87.0268 64.1909ZM85.9359 63.7362C85.5726 63.5843 85.2086 63.4326 84.8453 63.281C85.2086 63.4326 85.5726 63.5843 85.9359 63.7362ZM84.8453 63.281C81.0163 60.2621 53.0901 47.202 48.2697 47.0381C48.2908 47.1453 48.3118 47.2526 48.3329 47.3602C52.3216 51.8189 56.7861 56.0979 60.1109 61.4426C66.0238 70.947 69.8828 87.3494 73.4205 98.6444C72.467 95.4865 71.513 92.3274 70.5597 89.1688C64.5524 73.4181 61.1945 60.7766 52.8863 50.1467C58.9331 52.607 64.9944 55.132 71.0478 57.6238C75.4613 62.4816 75.328 72.3781 80.754 76.4624C78.0105 70.4218 75.2666 64.3789 72.5235 58.3383C72.6305 58.3173 72.7376 58.2963 72.8447 58.2753C73.1872 58.3195 73.5301 58.3636 73.8727 58.4081C76.4441 60.7166 81.2041 62.7405 84.8453 63.281ZM99.6839 144.011C99.4483 143.945 99.2128 143.88 98.9773 143.815C99.2128 143.88 99.4483 143.945 99.6839 144.011ZM102.08 157.927C100.362 162.428 102.126 171.487 104.914 175.772C97.7762 175.066 91.3646 162.843 87.2801 164.176C86.999 165.012 86.718 165.848 86.4365 166.684C83.706 153.465 88.7883 145.668 86.3557 132.239C86.5913 132.305 86.8268 132.37 87.0623 132.435C91.3343 142.089 99.4521 145.857 102.08 157.927ZM64.6165 19.7419C64.3809 19.6764 64.1454 19.6112 63.9099 19.5456C64.1454 19.6112 64.3809 19.6764 64.6165 19.7419ZM86.282 135.265C86.4029 137.583 86.5237 139.902 86.6447 142.22C86.0531 149.967 84.3235 156.624 85.7939 166.81C84.9171 166.313 84.0405 165.816 83.1637 165.319C80.6969 159.876 78.3659 156.928 73.7522 154.787C74.6494 148.338 71.2543 140.103 69.1268 134.617C64.5529 122.823 66.1106 106.295 71.6809 99.9898C74.6006 114.292 82.6219 123.079 86.282 135.265ZM63.1983 21.0238C61.1616 21.027 50.6651 31.0419 48.8934 33.1985C55.9141 30.5483 58.3278 24.7972 63.1983 21.0238ZM81.9564 121.728C80.8706 120.841 79.5171 118.631 79.7222 117.148C80.4667 118.674 81.2114 120.201 81.9564 121.728ZM78.4107 105.36C78.3686 105.146 78.3264 104.931 78.2843 104.716C78.0808 105.34 78.005 104.845 78.4107 105.36ZM75.5915 102.902C75.5284 102.58 75.4651 102.258 75.402 101.936C75.4651 102.258 75.5284 102.58 75.5915 102.902ZM74.9536 101.355C74.8905 101.033 74.8272 100.71 74.764 100.388C74.8272 100.71 74.8905 101.033 74.9536 101.355ZM74.3794 100.129C74.1669 99.6134 73.9545 99.0973 73.742 98.5813C73.9545 99.0973 74.1669 99.6134 74.3794 100.129ZM53.9131 11.1359C53.6775 11.0704 53.442 11.0052 53.2065 10.9397C53.442 11.0052 53.6775 11.0704 53.9131 11.1359ZM62.8345 73.622C62.7502 73.1922 62.6659 72.7628 62.5816 72.3331C62.4745 72.3541 62.3675 72.3751 62.2601 72.3961C62.4518 72.8048 62.6431 73.2133 62.8345 73.622ZM62.2601 72.3961C56.6612 48.5374 32.2051 36.0564 12.0053 34.0793C12.1546 34.2732 12.3038 34.4671 12.4533 34.6606C28.6137 36.7581 33.4302 61.9352 38.7166 80.0271C37.8718 76.2898 37.0271 72.5515 36.1826 68.8142C35.0201 64.0245 33.851 59.2012 32.6947 54.4431C29.9913 47.9005 26.1035 43.6341 22.53 38.3713C35.6928 42.3451 46.4034 46.0242 54.4033 57.8786C57.0159 62.6856 59.6416 67.5575 62.2601 72.3961ZM46.3972 10.2687C31.4595 6.12594 19.3413 19.7732 4.47014 19.499C-8.52785 19.2591 -20.9434 17.0327 -31.8166 13.2363C-38.4913 10.9775 -45.1686 8.7182 -51.8433 6.45972C-51.6941 6.65328 -51.5449 6.84714 -51.3957 7.0407C-45.6517 9.25929 -39.8427 11.4655 -34.0668 13.6778C-23.9299 17.436 -12.9995 19.9552 -0.673914 20.5083C14.8675 21.2582 30.248 12.797 46.3972 10.2687ZM48.9566 33.5207C48.6139 33.4761 48.2711 33.432 47.9289 33.3877C47.9499 33.495 47.971 33.6023 47.9921 33.7099C48.3132 33.6469 48.6351 33.5837 48.9566 33.5207ZM62.4761 124.546C62.434 124.331 62.3919 124.117 62.3497 123.902C62.3919 124.117 62.434 124.331 62.4761 124.546ZM62.2811 125.254C62.2389 125.039 62.1968 124.824 62.1546 124.609C61.9388 125.209 61.7224 125.809 61.5062 126.409C61.7645 126.024 62.0231 125.639 62.2811 125.254ZM44.708 35.6922C44.1724 35.7973 43.6364 35.9025 43.1008 36.0076C43.6364 35.9025 44.1724 35.7973 44.708 35.6922ZM61.6326 127.053C61.5905 126.839 61.5483 126.624 61.5062 126.409C61.5483 126.624 61.5905 126.839 61.6326 127.053ZM61.4375 127.761C61.3954 127.546 61.3533 127.331 61.3111 127.117C61.3533 127.331 61.3954 127.546 61.4375 127.761ZM61.2428 128.469C61.2007 128.254 61.1585 128.039 61.1163 127.824C61.1585 128.039 61.2007 128.254 61.2428 128.469ZM43.164 36.3297C41.4494 36.6662 39.7342 37.0027 38.0199 37.3391C39.7342 37.0027 41.4494 36.6662 43.164 36.3297ZM61.0477 129.176C61.0056 128.961 60.9634 128.746 60.9213 128.532C60.9634 128.746 61.0056 128.961 61.0477 129.176ZM60.8523 129.883C60.8102 129.669 60.768 129.454 60.7259 129.239C60.768 129.454 60.8102 129.669 60.8523 129.883ZM30.8891 36.7312C30.6536 36.6656 30.4181 36.6004 30.1829 36.5348C30.4181 36.6004 30.6536 36.6656 30.8891 36.7312ZM30.1829 36.5348C29.8193 36.3834 29.4553 36.2316 29.0916 36.0798C29.4553 36.2316 29.8193 36.3834 30.1829 36.5348ZM29.0916 36.0798C28.8564 36.0146 28.6209 35.9493 28.3858 35.8841C28.6209 35.9493 28.8564 36.0146 29.0916 36.0798ZM28.3858 35.8841C28.1502 35.8186 27.9147 35.7534 27.6792 35.6882C27.9147 35.7534 28.1502 35.8186 28.3858 35.8841ZM27.6792 35.6882C27.0804 35.4711 26.4812 35.2538 25.8824 35.037C26.0316 35.2306 26.1808 35.4244 26.33 35.6183C26.7799 35.6415 27.2296 35.6646 27.6792 35.6882ZM25.8824 35.037C22.0529 32.3387 15.7351 30.419 10.5406 30.0174C10.5195 29.9101 10.4985 29.8028 10.4773 29.6952C10.9919 29.4828 11.5068 29.2704 12.0214 29.0577C4.21793 29.7625 -2.8834 25.4455 -9.42317 23.5633C-21.0853 20.2757 -32.8464 17.0062 -44.4127 13.7001C-50.4026 11.5304 -56.3943 9.35976 -62.3843 7.18942C-61.8504 7.64236 -61.3164 8.0953 -60.7821 8.54821C-54.6601 10.9934 -48.46 13.4912 -42.2995 15.962C-19.5747 22.32 3.15728 28.6791 25.8824 35.037ZM42.1745 123.176C41.2535 126.206 41.7514 130.961 41.3041 134.053C41.0896 134.095 40.8752 134.137 40.6608 134.179C40.6753 130.042 38.1467 126.352 36.8409 123.22C36.7338 123.241 36.6267 123.262 36.5197 123.283C37.6328 127.114 40.7598 133.238 39.6222 137.395C39.473 137.201 39.3238 137.007 39.1745 136.813C32.2015 132.201 37.5374 123.043 34.0958 117.736C31.8369 114.253 28.1408 111.052 25.9696 106.952C34.1705 109.093 40.1238 111.592 42.1745 123.176ZM39.8666 121.622C38.8603 120.222 37.6631 119.404 36.019 119.031C37.3013 119.895 38.5843 120.759 39.8666 121.622ZM13.7556 29.3866C13.2197 29.4917 12.6837 29.5969 12.1478 29.702C12.6837 29.5969 13.2197 29.4917 13.7556 29.3866ZM23.389 90.3947C22.7688 90.0704 22.1486 89.7461 21.5287 89.4218C22.1486 89.7461 22.7688 90.0704 23.389 90.3947ZM12.0053 34.0793C11.7698 34.0141 11.5344 33.9489 11.2992 33.8836C11.5344 33.9489 11.7698 34.0141 12.0053 34.0793ZM19.5168 75.7648C18.8123 75.0107 18.1077 74.2567 17.4036 73.5029C18.1077 74.2567 18.8123 75.0107 19.5168 75.7648ZM11.2992 33.8836C11.0636 33.8181 10.8281 33.7529 10.593 33.6877C10.8281 33.7529 11.0636 33.8181 11.2992 33.8836ZM10.593 33.6877C10.3574 33.6221 10.1219 33.5569 9.88674 33.4917C10.1219 33.5569 10.3574 33.6221 10.593 33.6877ZM21.1437 89.1627C20.2672 88.6656 19.3906 88.1681 18.5142 87.6713C19.3906 88.1681 20.2672 88.6656 21.1437 89.1627ZM9.88674 33.4917C9.65118 33.4261 9.41569 33.3609 9.18051 33.2957C9.41569 33.3609 9.65118 33.4261 9.88674 33.4917ZM17.4036 73.5029C17.3614 73.288 17.3192 73.0731 17.2771 72.8582C17.3192 73.0731 17.3614 73.288 17.4036 73.5029ZM9.18051 33.2957C8.94497 33.2301 8.70947 33.1649 8.47424 33.0993C8.70947 33.1649 8.94497 33.2301 9.18051 33.2957ZM22.7654 104.235C22.7233 104.02 22.6811 103.805 22.639 103.59C22.6811 103.805 22.7233 104.02 22.7654 104.235ZM22.3178 103.653C22.2757 103.438 22.2335 103.223 22.1913 103.009C22.2335 103.223 22.2757 103.438 22.3178 103.653ZM8.47424 33.0993C8.23874 33.0341 8.00325 32.9689 7.76801 32.9033C8.00325 32.9689 8.23874 33.0341 8.47424 33.0993ZM7.76801 32.9033C7.53252 32.8382 7.29704 32.7729 7.06179 32.7074C7.29704 32.7729 7.53252 32.8382 7.76801 32.9033ZM20.4628 101.006C20.0799 100.189 19.6968 99.3719 19.3141 98.5547C19.2067 98.5757 19.0997 98.5967 18.9923 98.6178C19.3525 99.8854 19.7125 101.153 20.0727 102.421C20.2025 101.949 20.3327 101.478 20.4628 101.006ZM19.9405 103.45C19.8773 103.128 19.8141 102.806 19.7509 102.484C19.8141 102.806 19.8773 103.128 19.9405 103.45ZM19.809 104.48C19.7458 104.158 19.6825 103.835 19.6193 103.513C19.5119 103.534 19.4049 103.555 19.2978 103.576C18.8233 107.558 18.5447 110.814 20.2875 115.427C20.3946 115.406 20.5016 115.385 20.609 115.364C19.3163 111.49 18.4858 107.87 19.809 104.48ZM22.016 117.43C21.9738 117.215 21.9317 117 21.8895 116.785C21.9317 117 21.9738 117.215 22.016 117.43ZM21.568 116.848C21.3553 116.332 21.1429 115.816 20.9302 115.301C20.8231 115.322 20.7161 115.343 20.609 115.364C20.9284 115.858 21.2483 116.353 21.568 116.848ZM16.4421 92.4272C16.3789 92.105 16.3156 91.7826 16.2524 91.4604C16.3156 91.7826 16.3789 92.105 16.4421 92.4272ZM3.20893 31.7908C2.9737 31.7252 2.73821 31.6601 2.50296 31.5945C2.73821 31.6601 2.9737 31.7252 3.20893 31.7908ZM2.50296 31.5945C2.26748 31.5293 2.032 31.4641 1.79644 31.3985C2.032 31.4641 2.26748 31.5293 2.50296 31.5945ZM1.79644 31.3985C1.56127 31.3333 1.32576 31.2681 1.09053 31.2025C1.32576 31.2681 1.56127 31.3333 1.79644 31.3985ZM11.7103 85.3261C9.35709 92.4798 11.8991 102.759 7.20164 108.292C5.94524 103.405 5.13187 100.689 2.02669 98.9356C0.747147 96.4439 1.32575 92.2951 -0.385875 90.0415C0.420439 93.0499 2.25241 97.8331 0.930306 100.154C-1.69618 94.7389 -6.54514 91.4701 -9.10792 84.727C-11.6962 77.9169 -6.1995 68.0543 -11.8675 63.8562C-12.4474 64.3042 -13.0274 64.753 -13.6073 65.201C-13.1607 58.5656 -8.45619 54.358 -6.48521 48.7481C-6.04737 45.8746 -5.60943 43 -5.17166 40.1262C-3.4507 44.3607 -1.72919 48.5961 -0.00793074 52.8302C-1.10898 48.9204 -2.21054 45.0096 -3.31125 41.0998C-0.947599 48.8188 3.43146 54.0506 5.29286 62.8311C5.05763 62.7655 4.82213 62.7003 4.58689 62.6347C4.20393 61.8179 3.82091 61.0008 3.43787 60.1837C3.33081 60.2047 3.22374 60.2257 3.11668 60.2467C5.98088 68.6059 8.84577 76.9669 11.7103 85.3261ZM3.11668 60.2467C3.07458 60.0321 3.03242 59.8172 2.99026 59.6024C3.03242 59.8172 3.07458 60.0321 3.11668 60.2467ZM2.60554 59.3433C2.22257 58.5265 1.83954 57.7093 1.45657 56.8925C1.49867 57.1071 1.54084 57.322 1.58294 57.5365C-2.21393 62.9751 -8.68102 77.3276 -1.72461 86.6236C-4.05428 77.4305 -3.59933 61.6217 2.60554 59.3433ZM1.33015 56.2482C1.26694 55.926 1.20366 55.6036 1.14045 55.2814C1.20366 55.6036 1.26694 55.926 1.33015 56.2482ZM0.692847 54.7001C0.608587 54.2706 0.524324 53.8412 0.44006 53.4117C0.332672 53.4328 0.225613 53.4538 0.118554 53.4748C0.309876 53.8833 0.501199 54.2917 0.692847 54.7001ZM-0.385875 90.0415C-0.598638 89.5255 -0.811073 89.0094 -1.02344 88.4937C-0.811073 89.0094 -0.598638 89.5255 -0.385875 90.0415ZM-1.02344 88.4937C-1.23621 87.9778 -1.44864 87.4617 -1.6614 86.9458C-1.44864 87.4617 -1.23621 87.9778 -1.02344 88.4937ZM-51.8433 6.45972C-52.0788 6.3942 -52.3143 6.32897 -52.5495 6.26372C-52.3143 6.32897 -52.0788 6.3942 -51.8433 6.45972ZM-52.5495 6.26372C-52.785 6.1982 -53.0205 6.13297 -53.2557 6.06772C-53.0205 6.13297 -52.785 6.1982 -52.5495 6.26372ZM-55.0423 2.06892C-58.5041 0.53534 -64.4369 0.708449 -69.1773 1.49673C-67.6952 3.83293 -66.5354 5.53382 -63.9231 6.15342C-65.2037 4.73185 -66.4846 3.31003 -67.7648 1.88873C-64.7262 2.63044 -61.6862 3.37253 -58.6476 4.11425C-59.4377 3.48875 -60.2285 2.86338 -61.0187 2.23786C-59.0268 2.18129 -57.0342 2.12518 -55.0423 2.06892ZM-57.5562 4.56959C-57.7918 4.50404 -58.0273 4.43885 -58.2624 4.37359C-58.0273 4.43885 -57.7918 4.50404 -57.5562 4.56959ZM-70.9853 4.19344C-71.5135 2.81863 -71.4146 3.03478 -72.3294 2.44978C-71.8816 3.03071 -71.4332 3.61222 -70.9853 4.19344Z" fill="#EB5C37" fill-opacity="0.15"/>
</svg>
