<svg width="344" height="231" viewBox="0 0 344 231" fill="none" xmlns="http://www.w3.org/2000/svg">
<path fill-rule="evenodd" clip-rule="evenodd" d="M343.297 94.6712C340.986 94.2327 338.673 93.7942 336.361 93.3555C336.189 93.6124 336.017 93.8694 335.845 94.1263C336.059 94.0843 336.273 94.0422 336.488 94.0002C338.757 94.2237 341.028 94.4476 343.297 94.6712ZM342.97 96.4081C341.256 96.7445 339.54 97.081 337.826 97.4174C339.54 97.081 341.256 96.7445 342.97 96.4081ZM343.71 125.705C343.263 125.124 342.814 124.542 342.366 123.961C342.173 124.111 341.98 124.26 341.787 124.41C342.428 124.841 343.069 125.273 343.71 125.705ZM281.863 55.537C281.186 53.4043 280.467 53.3884 279.239 52.3717C273.972 51.3978 267.604 48.7961 259.77 51.8425C253.297 54.2283 245.847 59.857 239.189 57.5536C239.705 56.7832 240.222 56.0123 240.738 55.2422C240.204 54.7892 239.67 54.3363 239.136 53.8834C237.871 54.2433 236.606 54.603 235.341 54.9626C234.097 53.3 233.159 53.0043 231.753 51.9868C221.933 55.1455 198.919 66.352 194.669 53.5754C195.1 52.9332 195.53 52.291 195.961 51.6491C201.826 47.8506 211.438 53.345 219.293 49.7472C219.358 49.5116 219.423 49.2757 219.489 49.0401C218.467 47.7998 218.379 48.038 218.661 46.5259C231.687 44.7798 246.989 54.6049 255.607 47.6408C255.329 47.3607 255.052 47.0803 254.774 46.8005C252.973 46.6851 252.266 46.4425 251.18 45.4984C251.331 45.1341 251.482 44.7696 251.633 44.4054C253.901 44.3776 258.445 44.4934 260.698 42.9616C256.34 43.7706 253.633 42.9103 249.899 44.0764C250.026 44.7208 250.152 45.3654 250.279 46.0097C251.54 46.7656 252.801 47.5222 254.062 48.2781C241.023 50.5097 230.05 38.8107 216.732 46.9044C217.222 47.7002 217.712 48.4963 218.203 49.2924C209.218 50.9272 199.586 46.1217 193.193 52.8609C195.562 64.5396 212.664 60.5931 223.256 56.3304C225.958 55.354 228.661 54.3777 231.362 53.4013C232.146 53.6005 234.722 55.4986 236.427 57.0915C237.2 56.4938 237.973 55.8962 238.746 55.2985C238.486 56.2415 238.226 57.1848 237.965 58.1282C238.5 58.5807 239.034 59.0337 239.568 59.4863C252.696 57.6253 270.971 46.5785 280.388 54.8229C278.844 55.4601 277.299 56.098 275.755 56.7356C275.881 57.3796 276.008 58.0243 276.134 58.6686C282.489 65.3625 300.486 51.4063 308.378 63.048C305.395 62.9746 303.827 63.9038 303.355 66.3755C303.224 71.132 307.635 71.6301 310.66 72.9719C313.632 74.5072 316.604 76.0434 319.577 77.5786C324.672 81.898 329.255 89.6812 336.499 90.652C329.385 85.023 322.225 79.3341 315.155 73.7623C311.736 71.8403 308.213 71.2465 305.21 69.0226C305.129 67.477 305.049 65.9314 304.968 64.3859C308.109 64.0208 309.888 65.5464 311.393 64.7984C311.372 64.6908 311.351 64.5836 311.329 64.4763C306.512 60.6942 302.705 55.9486 295.614 55.8497C288.462 55.7991 282.169 61.9222 276.777 58.5424C276.886 57.9633 276.995 57.3842 277.104 56.8051C278.69 56.3824 280.277 55.9596 281.863 55.537ZM341.724 124.087C339.043 122.553 335.748 122.298 334.092 119.228C335.101 118.696 336.11 118.163 337.118 117.631C330.652 106.79 323.871 113.47 313.043 110.644C313.108 110.409 313.173 110.173 313.238 109.937C314.95 109.683 316.252 109.38 316.97 108.536C315.206 106.764 313.323 105.251 310.877 104.713C312.33 105.877 313.783 107.042 315.236 108.207C314.228 108.739 313.219 109.272 312.21 109.804C312.423 110.32 312.635 110.836 312.848 111.352C321.674 110.629 332.317 110.477 336.09 117.498C334.653 117.852 334.402 118.066 333.644 118.647C333.75 119.184 333.855 119.721 333.96 120.257C335.673 122.563 339.05 124.652 341.724 124.087ZM336.414 97.0257C334.124 95.8481 330.191 95.3557 327.291 96.4738C327.438 97.2255 327.586 97.9771 327.733 98.729C324.334 96.7194 320.934 94.7096 317.535 92.7003C308.691 89.263 293.137 91.2443 281.474 96.0954C281.92 97.2449 282.997 97.8325 284.357 98.8757C284.036 98.9388 283.714 99.002 283.393 99.0651C277.616 98.2293 267.312 95.2646 262.442 99.4952C262.464 99.6028 262.485 99.7101 262.506 99.8173C262.59 100.247 262.674 100.677 262.759 101.106C265.87 102.129 268.76 103.851 272.388 104.235C280.421 103.774 288.456 103.313 296.489 102.852C301.28 102.855 305.371 103.638 309.786 104.258C309.637 104.064 309.488 103.87 309.338 103.676C305.021 103.242 300.558 102.107 295.657 102.012C284.384 101.792 270.891 106.326 263.855 99.8872C263.92 99.6515 263.985 99.4157 264.05 99.1798C272.41 98.0547 278.015 103.017 286.413 99.1416C286.087 98.2403 285.956 98.0578 284.747 97.4607C284.812 97.225 284.877 96.9891 284.942 96.7536C293.936 94.0946 305.468 90.3289 313.872 92.7497C319.408 94.3444 323.002 98.2119 329.209 99.4428C329.295 99.3145 329.381 99.1862 329.467 99.0576C329.063 98.1335 328.659 97.2088 328.255 96.2847C328.362 96.2636 328.469 96.2426 328.577 96.2215C331.108 96.9218 332.893 97.636 336.414 97.0257ZM331.929 92.8872C331.694 92.8217 331.458 92.7565 331.223 92.6913C331.458 92.7565 331.694 92.8217 331.929 92.8872ZM341.199 146.94C340.964 146.875 340.728 146.81 340.493 146.744C340.728 146.81 340.964 146.875 341.199 146.94ZM329.81 92.2993C329.575 92.2337 329.339 92.1685 329.104 92.1029C329.339 92.1685 329.575 92.2337 329.81 92.2993ZM329.104 92.1029C328.869 92.0377 328.633 91.9725 328.398 91.907C328.633 91.9725 328.869 92.0377 329.104 92.1029ZM338.822 146.738C338.78 146.523 338.738 146.308 338.696 146.094C338.738 146.308 338.78 146.523 338.822 146.738ZM327.307 91.4519C327.071 91.3866 326.836 91.3214 326.6 91.2562C326.836 91.3214 327.071 91.3866 327.307 91.4519ZM330.44 115.93C330.205 115.864 329.969 115.799 329.734 115.733C329.969 115.799 330.205 115.864 330.44 115.93ZM332.705 130.875C332.085 130.551 331.465 130.227 330.845 129.902C331.465 130.227 332.085 130.551 332.705 130.875ZM333.948 144.014C331.768 142.546 329.587 141.078 327.407 139.61C328.812 141.634 331.481 143.538 333.948 144.014ZM323.328 89.8906C323.092 89.8254 322.857 89.7602 322.621 89.695C322.857 89.7602 323.092 89.8254 323.328 89.8906ZM322.621 89.695C322.258 89.5432 321.894 89.3914 321.531 89.2399C321.894 89.3914 322.258 89.5432 322.621 89.695ZM328.152 128.088C319.207 117.902 296.468 120.167 280.819 119.978C273.633 119.892 268.445 121.939 262.63 120.871C255.472 119.556 250.703 113.678 245.123 109.92C232.3 101.285 219.474 92.6466 206.651 84.0114C212.506 85.0932 218.426 86.1623 224.312 87.2378C224.142 86.9367 223.971 86.6352 223.801 86.334C226.435 86.4363 231.494 86.9661 233.957 85.3453C223.808 84.6603 213.559 83.9943 203.505 83.2909C215.901 91.452 228.3 99.6158 240.696 107.777C246.665 112.849 252.234 119.424 260.379 121.312C272.637 123.978 289.109 121.7 303.049 120.969C303.07 121.077 303.092 121.184 303.113 121.292C300.713 121.54 298.312 121.787 295.913 122.035C309.37 120.609 317.43 126.592 328.152 128.088ZM320.377 88.4623C316.061 85.0334 303.491 79.9731 297.593 79.5501C297.572 79.4428 297.551 79.3355 297.53 79.2279C300.188 78.595 302.847 77.9619 305.504 77.329C293.664 79.843 286.303 75.864 276.269 76.3737C276.29 76.4813 276.311 76.5886 276.332 76.6962C277.232 76.7425 278.132 76.7891 279.031 76.8358C278.773 77.2207 278.514 77.6063 278.256 77.9913C286.155 76.7059 300.837 80.1461 308.376 83.4569C312.09 85.0875 315.637 88.5141 320.377 88.4623ZM325.491 116.231C320.454 114.62 312.472 119.318 307.55 120.086C307.7 120.28 307.849 120.474 307.998 120.668C313.829 119.189 319.661 117.71 325.491 116.231ZM334.509 168.996C334.274 168.931 334.038 168.866 333.803 168.801C334.038 168.866 334.274 168.931 334.509 168.996ZM334.119 170.411C333.841 170.131 333.564 169.851 333.286 169.571C333.564 169.851 333.841 170.131 334.119 170.411ZM326.701 139.414C325.957 138.997 325.323 138.951 324.261 138.889C324.236 139.897 324.212 140.906 324.187 141.914C324.294 141.893 324.401 141.872 324.508 141.851C324.83 141.788 325.151 141.725 325.473 141.662C325.218 140.931 324.964 140.201 324.709 139.47C325.373 139.451 326.037 139.432 326.701 139.414ZM314.438 76.9144C314.203 76.8488 313.967 76.7836 313.731 76.7181C313.967 76.7836 314.203 76.8488 314.438 76.9144ZM330.552 160.74C328.6 157.234 323.781 152.754 319.653 152.841C323.279 155.442 326.919 158.107 330.552 160.74ZM322.263 140.619C321.9 140.467 321.536 140.316 321.172 140.164C321 140.421 320.828 140.678 320.656 140.934C321.191 140.829 321.727 140.724 322.263 140.619ZM308.524 77.4053C307.732 77.3379 306.94 77.2702 306.147 77.2029C306.168 77.3102 306.189 77.4174 306.21 77.5247C306.982 77.4851 307.753 77.4452 308.524 77.4053ZM320.529 140.29C316.873 139.178 313.205 141.89 308.507 141.98C303.598 142.074 299.832 140.583 295.726 139.804C295.748 139.911 295.769 140.018 295.79 140.126C297.371 141.377 298.952 142.628 300.533 143.879C299.807 143.018 299.082 142.156 298.356 141.295C304.752 142.08 312.175 143.095 320.529 140.29ZM304.267 62.516C297.356 59.3072 285.395 67.8215 282.325 71.5052C289.787 68.5998 293.669 64.6493 304.267 62.516ZM310.877 104.713C310.514 104.561 310.15 104.409 309.786 104.258C310.15 104.409 310.514 104.561 310.877 104.713ZM319.527 152.197C319.291 152.131 319.056 152.066 318.82 152.001C319.056 152.066 319.291 152.131 319.527 152.197ZM318.82 152.001C315.369 149.097 308.531 146.811 303.932 145.889C304.466 146.341 305 146.794 305.534 147.247C310.135 148.365 313.325 151.833 318.82 152.001ZM309.264 106.702C309.029 106.637 308.794 106.571 308.558 106.506C308.794 106.571 309.029 106.637 309.264 106.702ZM322.971 179.959C322.416 179.399 321.861 178.838 321.305 178.279C321.861 178.838 322.416 179.399 322.971 179.959ZM307.915 106.632C305.973 105.639 298.224 106.314 295.83 108C299.858 107.544 303.887 107.088 307.915 106.632ZM317.702 159.915C317.467 159.85 317.231 159.784 316.996 159.719C317.231 159.784 317.467 159.85 317.702 159.915ZM320.921 178.019C320.879 177.805 320.837 177.59 320.794 177.375C320.837 177.59 320.879 177.805 320.921 178.019ZM320.605 176.409C316.909 173.454 313.206 170.466 309.517 167.544C311.509 171.226 316.515 175.796 320.605 176.409ZM316.674 159.782C316.439 159.717 316.204 159.652 315.969 159.586C316.204 159.652 316.439 159.717 316.674 159.782ZM321.146 187.677C319.957 184.454 318.768 181.229 317.579 178.006C317.472 178.027 317.365 178.048 317.258 178.069C318.554 181.271 319.85 184.475 321.146 187.677ZM317.032 168.411C316.797 168.345 316.561 168.28 316.326 168.215C316.561 168.28 316.797 168.345 317.032 168.411ZM323.98 205.522C323.789 205.114 323.597 204.705 323.406 204.297C323.234 204.554 323.061 204.811 322.889 205.067C323.253 205.219 323.617 205.371 323.98 205.522ZM322.958 203.716C320.532 196.856 316.588 185.381 310.88 183.001C310.149 183.813 309.418 184.626 308.687 185.438C309.432 186.965 310.177 188.492 310.921 190.018C309.564 190.42 309.685 190.37 309.119 191.041C311.585 194.538 314.066 198.1 316.539 201.629C318.042 205.277 316.172 209.89 318.045 212.709C318.516 212.84 318.986 212.971 319.457 213.101C319.522 212.865 319.587 212.63 319.653 212.394C316.233 208.929 319.595 205.653 317.314 200.474C315.074 197.568 312.828 194.629 310.595 191.755C311.111 190.985 311.628 190.214 312.144 189.444C310.487 187.484 309.707 186.38 310.49 184.415C310.79 184.245 311.091 184.074 311.391 183.904C316.186 187.649 317.104 201.532 322.958 203.716ZM317.516 177.683C317.26 177.511 317.003 177.338 316.747 177.166C317.003 177.338 317.26 177.511 317.516 177.683ZM305.811 121.431C305.126 121.343 304.44 121.254 303.755 121.166C304.419 121.147 305.084 121.128 305.748 121.109C305.769 121.217 305.79 121.324 305.811 121.431ZM299.168 89.2781C298.27 88.6736 297.373 88.0692 296.475 87.4645C297.373 88.0692 298.27 88.6736 299.168 89.2781ZM313.886 167.69C313.65 167.624 313.415 167.559 313.179 167.494C313.415 167.559 313.65 167.624 313.886 167.69ZM312.242 159.314C312.007 159.248 311.771 159.183 311.536 159.118C311.771 159.183 312.007 159.248 312.242 159.314ZM304.64 125.676C304.405 125.61 304.17 125.545 303.934 125.48C304.17 125.545 304.405 125.61 304.64 125.676ZM303.934 125.48C301.556 123.458 297.498 122.65 293.725 122.799C293.747 122.906 293.768 123.014 293.789 123.121C294.003 123.079 294.218 123.037 294.432 122.995C297.599 123.823 300.767 124.652 303.934 125.48ZM310.187 159.048C309.951 158.982 309.716 158.917 309.481 158.852C309.716 158.917 309.951 158.982 310.187 159.048ZM295.706 86.9467C294.606 84.9162 291.643 83.0114 289.745 82.094C291.13 84.264 293.526 85.9267 295.706 86.9467ZM309.159 158.915C308.924 158.849 308.688 158.784 308.453 158.719C308.688 158.784 308.924 158.849 309.159 158.915ZM309.264 166.255C308.516 165.844 307.767 165.433 307.018 165.023C307.684 166.324 308.236 166.333 309.264 166.255ZM303.932 145.889C303.44 145.651 302.948 145.412 302.457 145.175C302.948 145.412 303.44 145.651 303.932 145.889ZM307.777 168.888C304.159 163.144 283.866 144.737 278.113 141.922C278.918 144.328 279.725 146.736 280.531 149.142C280.301 147.403 280.071 145.663 279.841 143.924C280.333 144.162 280.825 144.401 281.317 144.639C283.871 147.449 286.439 150.325 289 153.168C292.449 158.102 294.387 165.593 297.363 170.263C297.47 170.242 297.577 170.221 297.684 170.2C295.046 164.696 292.401 159.158 289.77 153.686C290.262 153.924 290.753 154.162 291.245 154.4C294.283 159.98 302.401 166.328 307.777 168.888ZM305.433 158.642C305.198 158.577 304.962 158.512 304.727 158.447C304.962 158.512 305.198 158.577 305.433 158.642ZM304.727 158.447C304.491 158.381 304.256 158.316 304.021 158.25C304.256 158.316 304.491 158.381 304.727 158.447ZM302.993 158.118C300.96 157.401 298.927 156.684 296.895 155.968C292.604 151.681 288.312 147.392 284.021 143.104C284.941 143.258 285.862 143.412 286.782 143.566C286.633 143.372 286.484 143.179 286.335 142.985C282.232 142.132 279.546 138.494 276.074 136.634C279.734 142.34 292.933 155.29 298.687 158.293C298.794 158.272 298.901 158.251 299.008 158.23C298.731 157.95 298.453 157.67 298.175 157.39C299.781 157.632 301.387 157.875 302.993 158.118ZM293.258 108.505C288.428 107.494 279.768 113.395 277.683 115.91C282.842 113.448 288.067 110.972 293.258 108.505ZM295.528 121.776C295.186 121.732 294.843 121.688 294.5 121.643C294.521 121.751 294.542 121.858 294.564 121.965C294.885 121.902 295.207 121.839 295.528 121.776ZM307.022 183.758C302.638 176.691 291.978 176.367 286.178 171.119C282.63 167.908 282.979 163.247 280.435 158.863C280.403 162.103 280.371 165.344 280.339 168.585C280.689 179.824 286.125 188.888 289.18 196.626C289.073 196.647 288.966 196.668 288.859 196.689C287.687 194.689 286.515 192.688 285.344 190.688C285.237 190.709 285.13 190.73 285.022 190.751C285.107 191.18 285.191 191.61 285.275 192.039C287.486 195.78 290.396 203.712 293.97 205.723C292.735 203.401 291.5 201.077 290.265 198.755C294.562 202.978 297.37 208.011 303.92 208.789C295.583 201.278 291.091 199.221 285.487 186.31C290.962 189.184 295.09 193.535 302.62 193.654C302.471 193.461 302.322 193.267 302.172 193.073C291.696 192.957 284.702 186.395 282.378 173.872C281.811 170.98 280.805 167.526 281.826 165.951C286.508 175.739 298.849 178.882 307.022 183.758ZM301.891 161.01C301.849 160.795 301.807 160.58 301.765 160.366C301.561 160.99 301.485 160.494 301.891 161.01ZM301.121 160.492C300.716 160.125 300.31 159.759 299.904 159.393C300.571 160.542 300.003 160.069 301.121 160.492ZM293.404 122.862C293.169 122.797 292.933 122.731 292.698 122.666C292.933 122.731 293.169 122.797 293.404 122.862ZM282.389 71.8273C282.153 71.7621 281.918 71.6969 281.683 71.6313C281.918 71.6969 282.153 71.7621 282.389 71.8273ZM309.185 210.098C308.95 210.033 308.715 209.968 308.479 209.902C308.715 209.968 308.95 210.033 309.185 210.098ZM275.04 39.4782C273.455 37.4077 269.787 35.9824 267.472 34.9412C268.689 36.0403 269.907 37.14 271.124 38.2394C268.25 39.4721 265.375 40.7057 262.501 41.9384C262.522 42.046 262.543 42.1532 262.565 42.2605C265.917 41.4017 272.613 40.4305 275.04 39.4782ZM310.112 221.626C306.95 219.124 303.788 216.622 300.626 214.12C302.668 217.291 306.751 220.302 310.112 221.626ZM275.634 54.417C264.446 53.2048 253.248 76.9204 242.839 81.2607C242.86 81.368 242.881 81.4753 242.902 81.5829C253.635 78.4147 256.852 69.2862 262.947 62.9285C266.101 59.5026 271.347 56.7737 275.634 54.417ZM304.627 208.985C304.391 208.92 304.156 208.855 303.92 208.789C304.156 208.855 304.391 208.92 304.627 208.985ZM308.092 230.052C307.773 229.557 307.453 229.062 307.134 228.568C306.961 228.824 306.789 229.081 306.617 229.338C307.109 229.576 307.601 229.814 308.092 230.052ZM277.55 77.7952C277.014 77.9004 276.478 78.0055 275.942 78.1107C276.478 78.0055 277.014 77.9004 277.55 77.7952ZM276.981 74.8961C275.095 74.4407 270.963 75.66 269.65 76.6688C271.856 76.5705 274.063 76.4723 276.269 76.3737C275.927 75.3665 275.562 75.7152 276.981 74.8961ZM306.364 228.049C305.35 226.477 304.199 225.965 302.775 225.073C301.939 225.349 301.102 225.624 300.266 225.9C300.414 226.652 300.561 227.403 300.709 228.155C293.902 224.723 288.523 217.44 284.704 209.549C283.826 209.609 282.947 209.67 282.069 209.731C280.428 207.042 278.788 204.353 277.147 201.663C274.144 194.678 275.846 182.435 270.282 178.588C269.745 179.25 269.207 179.914 268.669 180.577C268.562 180.598 268.455 180.619 268.348 180.64C265.914 171.901 260.699 160.344 254.352 156.955C253.923 157.04 253.495 157.124 253.066 157.208C252.678 158.064 252.289 158.921 251.901 159.778C251.578 164.196 254.892 167.697 256.232 171.642C254.241 171.624 253.365 172.052 252.179 173.106C252.072 176.356 253.887 180.587 254.017 180.775C257.53 182.303 265.946 198.121 266.153 203.486C264.318 203.515 264.02 203.621 263.064 204.761C263.765 206.631 264.466 208.501 265.166 210.371C265.059 210.392 264.952 210.413 264.845 210.434C263.78 208.866 262.048 208.037 260.292 207.647C264.533 211.617 268.47 216.208 272.265 221.023C263.213 220.591 251.485 218.425 245.945 212.804C244.09 210.157 242.235 207.51 240.38 204.863C238.961 205.278 239.102 205.618 238.067 204.983C237.619 204.401 237.17 203.82 236.723 203.239C236.7 203.689 236.677 204.14 236.654 204.59C235.906 204.18 235.157 203.769 234.409 203.358C232.512 200.497 230.615 197.634 228.718 194.772C226.637 190.094 226.584 185.1 223.875 182.006C223.768 182.027 223.661 182.048 223.554 182.069C223.039 182.281 222.524 182.493 222.01 182.706C222.027 183.929 222.045 185.153 222.062 186.376C211.391 179.308 215.036 155.307 207.035 143.824C205.083 141.022 202.418 143.095 199.91 141.542C189.325 128.738 195.296 108.419 174.699 108.347C171.361 102.86 169.138 90.094 163.586 87.4429C162.534 88.3185 161.481 89.1945 160.429 90.0701C161.579 91.9629 162.73 93.8566 163.88 95.7493C164.786 100.367 165.693 104.985 166.599 109.603C169.432 115.132 175.297 116.137 177.865 122.782C177.05 123.165 176.235 123.548 175.42 123.931C176.381 124.857 177.341 125.784 178.302 126.711C168.695 126.932 159.779 120.211 154.955 113.225C153.21 109.999 151.464 106.773 149.718 103.547C150.331 106.103 150.944 108.66 151.557 111.215C151.321 111.15 151.086 111.085 150.85 111.02C148.153 104.078 145.454 97.1338 142.757 90.192C145.718 103.75 139.384 109.125 137.905 119.917C138.701 118.868 139.497 117.82 140.293 116.771C140.577 121.409 139.597 126.493 141.593 131.906C143.65 137.458 150.088 149.849 146.914 155.62C143.504 145.97 134.044 143.157 134.078 131.039C133.798 131.317 133.519 131.595 133.24 131.873C130.622 117.05 132.851 98.3682 125.228 85.9363C123.009 82.2958 117.979 76.8396 113.618 79.5154C113.488 79.9872 113.358 80.4587 113.227 80.9306C112.864 80.7787 112.5 80.6269 112.137 80.4754C109.566 74.7803 104.85 66.1254 100.111 63.4298C98.3915 63.964 98.081 64.4321 97.1489 65.3497C97.2955 72.2023 99.548 76.6242 102.365 81.7233C99.416 79.7375 96.4656 77.7506 93.5168 75.7648C96.0168 79.5881 100.55 80.9556 103.772 83.7892C103.171 84.1302 102.57 84.4713 101.969 84.8124C103.162 90.8374 106.551 92.4552 109.062 97.1378C107.438 96.2298 105.812 95.3219 104.187 94.4138C105.969 96.2322 107.844 97.294 109.246 99.7783C104.519 100.985 111.001 108.675 112.55 111.509C107.664 109.173 101.465 107.067 96.7654 104.235C99.4466 107.689 102.141 111.21 104.828 114.697C107.495 118.892 107.27 123.601 107.868 128.487C107.633 128.421 107.397 128.356 107.162 128.291C105.25 123.523 103.902 125.483 100.237 123.627C98.937 121.54 97.6371 119.453 96.3375 117.367C96.2301 117.388 96.1231 117.409 96.016 117.43C97.3025 120.372 99.1907 122.159 100.358 125.945C100.293 126.181 100.228 126.417 100.163 126.653C99.7992 126.501 99.4352 126.349 99.0719 126.198C96.8567 121.359 91.8237 119.286 88.6951 115.855C87.3113 113.339 85.927 110.822 84.5428 108.305C83.7068 108.581 82.8704 108.857 82.034 109.132C83.3979 104.739 84.762 100.344 86.1252 95.9507C86.3067 92.9041 86.4878 89.8571 86.669 86.8105C87.6491 88.4024 88.6297 89.9949 89.6097 91.5865C89.7168 91.5655 89.8238 91.5445 89.9312 91.5234C89.1462 89.2244 88.3608 86.9245 87.5757 84.6252C88.196 84.9498 88.8162 85.274 89.4365 85.5987C82.9871 75.2607 81.1903 65.1367 76.2481 50.715C76.4833 50.7803 76.7188 50.8455 76.954 50.9111C80.0249 58.2531 85.1566 69.0701 90.9556 72.9213C88.2909 68.9841 85.6259 65.0449 82.9612 61.1073C76.6515 49.8065 71.7156 38.121 64.6237 28.9072C68.1123 29.672 71.6017 30.4377 75.0905 31.2025C74.9411 31.009 74.7918 30.8151 74.6423 30.6216C70.1387 30.074 66.6138 27.875 61.6724 27.4789C63.0369 29.3296 64.4021 31.1812 65.7666 33.0319C65.6595 33.053 65.5525 33.074 65.4454 33.095C65.4033 32.8804 65.3612 32.6655 65.3191 32.451C61.1824 29.8634 57.9861 26.4393 53.3925 24.4196C43.1218 21.4167 32.7782 18.3936 22.5774 15.4101C15.9454 12.9218 11.0742 7.81056 4.29522 5.61468C11.5718 17.3815 39.3975 20.7265 52.3594 25.9605C57.8808 27.9548 67.8107 31.302 67.732 41.3453C67.5591 51.186 59.9211 55.841 59.9397 66.2936C59.8323 66.3146 59.7252 66.3356 59.6182 66.3566C59.2634 63.4155 58.9089 60.4736 58.5542 57.5325C57.1475 55.4665 55.7401 53.4004 54.3335 51.3344C54.62 48.8252 54.9064 46.3149 55.1934 43.8056C55.7378 35.8157 49.5807 28.2759 45.0338 26.0597C48.0021 31.2281 57.8047 40.6271 53.2476 49.2055C53.2055 48.991 53.1634 48.7761 53.1212 48.5612C48.0211 45.886 44.1809 39.5307 39.9253 35.7604C30.7793 29.415 21.6304 23.0671 12.4841 16.7218C8.11202 12.8579 4.84055 6.6703 0.126592 3.08731C2.50268 15.4744 27.2316 29.47 36.0731 34.8437C43.9126 39.4344 53.0257 48.5083 57.3313 58.1066C59.0244 61.8806 58.3416 65.8928 59.8021 68.9971C60.491 67.97 61.1798 66.9425 61.8684 65.9151C62.1688 65.7448 62.4696 65.5743 62.7697 65.4037C61.7967 78.472 65.0547 96.9378 75.6314 102.024C76.0617 101.382 76.4923 100.74 76.9229 100.098C77.1581 100.164 77.3936 100.229 77.6288 100.294C78.2972 104.331 79.6755 109.5 82.0921 111.128C82.6066 110.916 83.1215 110.703 83.636 110.491C86.9715 119.211 94.4789 123.197 99.9623 129.034C100.283 128.971 100.605 128.908 100.927 128.845C101.317 127.43 101.707 126.015 102.097 124.601C102.717 124.925 103.337 125.249 103.958 125.573C106.299 130.875 109.814 137.393 114.128 139.972C115.78 138.123 115.289 135.238 116.016 132.576C118.573 119.502 115.092 112.355 108.34 101.964C110.023 101.544 109.904 101.734 110.4 100.555C111.949 94.1719 104.841 90.2205 102.997 84.9452C103.726 84.6904 104.455 84.436 105.185 84.1815C102.954 77.147 97.091 72.8058 99.0782 64.9711C99.3994 64.9081 99.7212 64.845 100.043 64.7819C103.777 69.6592 107.522 80.4502 113.676 81.5114C114.018 81.556 114.361 81.6001 114.703 81.6444C114.919 81.0446 115.136 80.4444 115.352 79.8446C119.041 82.8484 123.1 84.5814 125.601 89.5429C130.675 99.6042 129.11 113.181 129.477 122.908C129.92 135.334 141.234 153.21 147.357 157.875C148.564 156.643 148.151 156.463 149.802 156.726C152.398 160.721 156.142 166.657 160.431 168.358C161.053 168.124 161.675 167.891 162.297 167.657C162.223 166.142 162.363 166.18 162.819 165.213C162.926 165.192 163.033 165.171 163.141 165.15C167.084 171.434 173.001 177.957 181.286 177.649C181.437 177.285 181.588 176.92 181.739 176.556C181.228 175.653 180.716 174.749 180.205 173.846C187.866 177.453 197.381 180.951 207.3 180.908C207.558 180.523 207.817 180.138 208.075 179.753C205.153 165.454 194.805 162.204 191.776 152.84C192.802 153.531 193.828 154.221 194.854 154.912C194.961 154.891 195.068 154.87 195.176 154.849C195.755 154.401 196.335 153.952 196.915 153.504C195.091 148.128 192.472 142.295 189.058 138.987C185.913 135.939 181.987 134.526 179.641 130.129C180.22 129.68 180.8 129.232 181.38 128.783C180.079 127.255 178.777 125.725 177.475 124.196C178.12 123.513 178.765 122.828 179.41 122.144C176.424 116.388 171.199 114.608 168.269 109.609C167.448 105.422 166.619 101.201 165.804 97.0447C164.725 94.3227 162.952 92.5276 162.875 88.9211C162.982 88.9001 163.089 88.8791 163.196 88.8581C163.538 88.9023 163.881 88.9464 164.224 88.991C169.41 93.9175 168.074 103.068 172.132 107.178C177.248 112.677 185.579 111.44 189.893 119.418C193.802 126.774 194.418 140.374 200.8 144.378C201.338 143.715 201.876 143.051 202.413 142.388C212.487 146.297 210.474 181.466 222.057 188.05C222.378 187.987 222.7 187.924 223.021 187.861C223.325 186.574 223.629 185.288 223.933 184.002C227.974 193.725 230.996 204.533 239.084 208.463C240.368 207.025 239.53 206.763 241.081 206.733C246.362 217.888 260.121 223.582 274.062 221.674C274.041 221.566 274.02 221.459 273.999 221.352C270.72 215.643 266.308 212.048 264.414 204.831C264.521 204.81 264.628 204.789 264.735 204.768C266.214 204.911 266.656 204.903 267.18 203.619C270.087 194.965 254.12 182.322 253.849 173.113C254.278 173.029 254.707 172.945 255.135 172.861C255.649 173.206 256.161 173.551 256.674 173.897C257.04 173.491 257.405 173.084 257.771 172.678C257.836 172.442 257.901 172.206 257.966 171.971C256.912 166.974 252.826 163.052 253.64 158.433C253.897 158.606 254.153 158.779 254.409 158.951C262.627 161.638 262.524 178.386 269.755 182.706C270.206 182.171 270.658 181.636 271.109 181.102C271.238 181.188 271.366 181.274 271.494 181.36C274.005 192.708 275.887 207.396 283.413 211.475C283.799 211.176 284.186 210.877 284.572 210.578C287.115 221.378 295.807 225.105 302.179 230.543C302.372 230.394 302.566 230.244 302.759 230.095C302.249 228.634 301.74 227.172 301.231 225.711C301.552 225.648 301.874 225.584 302.195 225.521C302.302 225.5 302.41 225.479 302.517 225.458C303.799 226.322 305.082 227.186 306.364 228.049ZM302.808 215.03C302.082 214.169 301.357 213.307 300.631 212.446C301.357 213.307 302.082 214.169 302.808 215.03ZM287.004 134.489C284.126 129.601 278.66 128.21 274.763 124.847C276.134 124.466 277.507 124.085 278.879 123.705C274.231 123.836 269.549 123.974 264.933 124.099C264.954 124.207 264.975 124.314 264.996 124.421C274.94 123.609 279.816 130.953 287.004 134.489ZM275.879 77.7888C274.111 77.2155 270.681 77.7054 269.386 78.7283C271.55 78.4151 273.715 78.1018 275.879 77.7888ZM278.575 98.3374C278.34 98.2718 278.105 98.2066 277.87 98.1413C278.105 98.2066 278.34 98.2718 278.575 98.3374ZM300.626 214.12C300.348 213.84 300.071 213.559 299.793 213.279C300.071 213.559 300.348 213.84 300.626 214.12ZM277.87 98.1413C277.634 98.0758 277.398 98.0106 277.163 97.9454C277.398 98.0106 277.634 98.0758 277.87 98.1413ZM265.164 33.3864C260.574 28.4063 254.211 22.8762 246.692 22.6249C241.484 22.4506 237.081 23.644 233.004 22.634C232.92 22.2042 232.836 21.7748 232.751 21.345C233.588 21.0695 234.424 20.7939 235.26 20.5182C235.09 20.2173 234.92 19.9159 234.749 19.615C232.375 18.5248 227.548 16.2367 223.892 18.7342C227.459 18.1382 229.851 19.0516 232.757 19.6714C232.497 20.6144 232.237 21.5577 231.977 22.501C232.275 22.8884 232.574 23.2758 232.873 23.6631C241.513 26.0575 253.769 22.8683 259.456 29.8224C257.325 29.7005 253.233 29.3852 251.292 30.7551C257.458 29.7276 260.735 32.2061 265.164 33.3864ZM299.793 213.279C299.516 212.999 299.238 212.719 298.961 212.439C299.238 212.719 299.516 212.999 299.793 213.279ZM298.961 212.439C298.919 212.224 298.876 212.009 298.834 211.795C298.876 212.009 298.919 212.224 298.961 212.439ZM276.394 97.4269C274.597 96.7761 272.799 96.1248 271.002 95.4737C265.656 92.8053 262.027 87.0014 255.482 86.1404C255.631 86.3339 255.78 86.5278 255.93 86.7216C263.523 88.5259 267.744 97.12 276.394 97.4269ZM264.378 37.8902C264.143 37.8247 263.907 37.7595 263.672 37.6943C263.907 37.7595 264.143 37.8247 264.378 37.8902ZM298.128 211.599C298.086 211.384 298.043 211.169 298.001 210.954C298.043 211.169 298.086 211.384 298.128 211.599ZM297.68 211.017C297.638 210.803 297.596 210.588 297.553 210.373C297.596 210.588 297.638 210.803 297.68 211.017ZM297.232 210.436C297.19 210.221 297.148 210.007 297.106 209.792C297.148 210.007 297.19 210.221 297.232 210.436ZM296.784 209.855C296.742 209.64 296.7 209.425 296.658 209.211C296.7 209.425 296.742 209.64 296.784 209.855ZM296.336 209.274C296.294 209.059 296.252 208.844 296.21 208.629C296.252 208.844 296.294 209.059 296.336 209.274ZM295.888 208.692C295.676 208.177 295.463 207.661 295.251 207.145C295.143 207.166 295.036 207.187 294.929 207.208C295.249 207.703 295.569 208.198 295.888 208.692ZM277.746 116.232C277.511 116.167 277.275 116.101 277.04 116.036C277.275 116.101 277.511 116.167 277.746 116.232ZM294.929 207.208C294.866 206.886 294.803 206.563 294.74 206.241C294.803 206.563 294.866 206.886 294.929 207.208ZM262.628 42.583C262.092 42.6881 261.556 42.7933 261.02 42.8985C261.556 42.7933 262.092 42.6881 262.628 42.583ZM294.418 206.304C294.376 206.09 294.334 205.875 294.291 205.66C294.334 205.875 294.376 206.09 294.418 206.304ZM297.062 223.183C296.446 221.743 295.829 220.302 295.212 218.862C295.573 220.907 296.077 222.156 297.062 223.183ZM275.043 117.766C274.807 117.701 274.572 117.636 274.336 117.57C274.572 117.636 274.807 117.701 275.043 117.766ZM258.918 37.2884C258.682 37.2232 258.447 37.158 258.211 37.0925C258.447 37.158 258.682 37.2232 258.918 37.2884ZM274.141 118.277C273.906 118.212 273.67 118.147 273.435 118.081C273.67 118.147 273.906 118.212 274.141 118.277ZM273.561 118.726C272.811 118.873 272.061 119.02 271.311 119.167C271.332 119.275 271.353 119.382 271.374 119.49C272.103 119.235 272.832 118.981 273.561 118.726ZM279.171 152.42C278.274 147.535 277.433 142.941 275.357 139.786C271.864 134.479 265.862 131.742 261.644 127.756C251.706 119.103 231.221 99.3187 219.078 96.2945C219.099 96.4018 219.12 96.509 219.141 96.6166C225.827 109.026 222.849 126.062 222.094 137.189C221.409 146.088 224.793 157.154 228.431 164.383C232.011 171.959 236.732 176.616 245.353 177.457C245.204 177.263 245.055 177.069 244.905 176.875C231.784 175.022 224.396 158.893 223.69 140.221C223.524 135.839 221.899 132.083 223.47 128.889C223.896 127.996 223.43 128.66 224.308 128.055C224.81 138.596 237.662 154.757 244.195 157.944C239.907 153.099 235.578 148.226 231.327 143.407C225.967 135.328 225.543 123.798 223.651 112.794C223.886 112.86 224.122 112.925 224.357 112.991C229.07 122.878 239.188 125.558 243.881 135.925C243.989 135.904 244.096 135.883 244.203 135.862C240.987 125.344 230.816 122.69 225.959 114.349C223.75 110.555 223.083 104.692 222.023 99.3963C223.285 100.153 224.546 100.909 225.808 101.665C230.918 108.902 241.89 110.958 248.184 117.014C253.569 122.195 253.111 128.873 257.506 135.593C256.447 129.473 254.425 124.167 251.9 120.634C254.843 121.746 256.851 125.204 259.204 127.231C265.752 132.873 277.689 137.545 276.478 150.607C276.757 150.329 277.037 150.051 277.316 149.773C278.356 157.829 277.153 164.976 279.68 173.733C279.51 166.629 279.34 159.524 279.171 152.42ZM271.437 119.812C271.008 119.896 270.58 119.98 270.151 120.064C270.58 119.98 271.008 119.896 271.437 119.812ZM254.744 36.435C254.508 36.3694 254.273 36.3042 254.037 36.2387C254.273 36.3042 254.508 36.3694 254.744 36.435ZM284.069 187.592C284.026 187.377 283.984 187.162 283.942 186.948C283.984 187.162 284.026 187.377 284.069 187.592ZM262.634 80.0531C258.743 79.2477 253.169 82.1438 249.901 83.2204C249.922 83.328 249.943 83.4352 249.964 83.5425C254.187 82.3797 258.411 81.216 262.634 80.0531ZM254.037 36.2387C251.341 35.5412 248.644 34.8436 245.947 34.1458C246.097 34.3396 246.246 34.5335 246.395 34.727C248.726 35.8311 251.058 36.935 253.389 38.0387C252.599 37.4132 251.808 36.7879 251.018 36.162C252.024 36.1877 253.031 36.2133 254.037 36.2387ZM282.093 182.627C281.945 181.875 281.798 181.123 281.65 180.371C281.155 181.215 281.237 181.632 282.093 182.627ZM281.587 180.049C281.12 178.803 280.653 177.556 280.185 176.31C280.18 177.983 280.175 179.658 280.169 181.332C280.642 180.904 281.115 180.477 281.587 180.049ZM260.648 78.4351C260.412 78.3699 260.177 78.3047 259.941 78.2395C260.177 78.3047 260.412 78.3699 260.648 78.4351ZM259.103 79.0728C250.209 80.8179 241.312 82.5636 232.418 84.3087C241.361 83.1095 249.814 81.0178 259.103 79.0728ZM279.383 185.835C279.341 185.62 279.299 185.405 279.257 185.19C279.299 185.405 279.341 185.62 279.383 185.835ZM279.315 187.187C279.231 186.757 279.146 186.327 279.062 185.898C278.997 186.134 278.932 186.37 278.867 186.606C276.801 191.982 279.306 201.007 281.305 207.539C282.066 201.534 277.736 193.096 279.315 187.187ZM266.846 128.742C266.803 128.528 266.761 128.313 266.719 128.098C266.761 128.313 266.803 128.528 266.846 128.742ZM266.013 127.902C264.353 124.981 263.239 123.186 260.438 123.308C262.296 124.84 264.155 126.371 266.013 127.902ZM264.933 124.099C264.591 124.055 264.248 124.011 263.905 123.966C263.926 124.074 263.947 124.181 263.968 124.289C264.29 124.225 264.612 124.162 264.933 124.099ZM271.818 160.888C271.776 160.674 271.734 160.459 271.691 160.244C271.54 160.608 271.389 160.973 271.238 161.337C271.431 161.188 271.625 161.038 271.818 160.888ZM271.364 161.982C271.322 161.767 271.28 161.552 271.238 161.337C268.962 163.747 265.835 170.512 268.818 174.525C268.239 170.113 269.343 164.837 271.364 161.982ZM248.413 46.7101C246.02 44.7265 243.627 42.742 241.235 40.758C242.739 43.1896 245.686 46.0502 248.413 46.7101ZM245.947 34.1458C245.712 34.0805 245.477 34.0153 245.241 33.9501C245.477 34.0153 245.712 34.0805 245.947 34.1458ZM255.482 86.1404C255.246 86.0749 255.011 86.0096 254.775 85.9441C255.011 86.0096 255.246 86.0749 255.482 86.1404ZM254.775 85.9441C254.54 85.8789 254.305 85.8137 254.069 85.7481C254.305 85.8137 254.54 85.8789 254.775 85.9441ZM254.069 85.7481C253.834 85.6829 253.598 85.6177 253.363 85.5521C253.598 85.6177 253.834 85.6829 254.069 85.7481ZM271.046 180.78C270.725 180.843 270.403 180.906 270.082 180.969C270.019 180.647 269.955 180.324 269.892 180.002C270.234 180.047 270.577 180.091 270.92 180.135C270.962 180.35 271.004 180.565 271.046 180.78ZM252.335 85.4192C252.1 85.354 251.864 85.2887 251.629 85.2235C251.864 85.2887 252.1 85.354 252.335 85.4192ZM241.52 32.0037C240.407 31.999 239.293 31.9944 238.179 31.9901C238.2 32.0974 238.221 32.2047 238.242 32.3123C239.721 32.2965 240.514 33.0624 240.878 32.1298C241.092 32.0877 241.306 32.0457 241.52 32.0037ZM251.629 85.2235C251.394 85.158 251.158 85.0927 250.923 85.0276C251.158 85.0927 251.394 85.158 251.629 85.2235ZM250.923 85.0276C249.6 84.2847 246.785 83.8333 244.946 85.1962C246.938 85.1399 248.931 85.0838 250.923 85.0276ZM239.696 39.722C239.654 39.5071 239.612 39.2922 239.57 39.0774C239.612 39.2922 239.654 39.5071 239.696 39.722ZM259.006 148.347C258.922 147.917 258.838 147.488 258.754 147.058C258.646 147.079 258.539 147.1 258.432 147.121C258.624 147.53 258.815 147.938 259.006 148.347ZM259.507 152.598C259.147 151.331 258.787 150.063 258.427 148.795C258.89 151.158 259.354 153.521 259.818 155.883C259.714 154.788 259.61 153.693 259.507 152.598ZM231.534 20.2459C226.366 20.0682 223.496 28.3733 218.521 30.4943C218.542 30.6016 218.563 30.7089 218.584 30.8165C219.462 30.7556 220.341 30.6946 221.219 30.634C220.847 29.2646 228.67 21.6295 231.534 20.2459ZM233.219 35.6399C232.984 35.5743 232.748 35.5091 232.513 35.4438C232.748 35.5091 232.984 35.5743 233.219 35.6399ZM232.128 35.1845C231.893 35.1192 231.657 35.054 231.422 34.9885C231.657 35.054 231.893 35.1192 232.128 35.1845ZM236.231 57.7989C234.363 56.0488 225.788 69.0715 224.108 70.8838C225.707 66.5559 227.3 62.1944 228.906 57.8984C228.454 58.433 228.003 58.9676 227.551 59.5022C226.505 65.1478 223.181 70.2675 220.561 74.9258C227.683 70.9538 231.192 63.3923 236.231 57.7989ZM231.422 34.9885C228.866 33.2608 224.665 32.5584 221.214 32.3079C221.193 32.2003 221.172 32.093 221.15 31.9854C223.293 31.5649 225.437 31.1443 227.58 30.7237C225.567 30.6728 223.554 30.6219 221.54 30.571C221.561 30.6782 221.582 30.7855 221.603 30.8928C222.075 31.0235 222.545 31.1543 223.016 31.2848C219.757 32.2587 216.498 33.2332 213.239 34.2072C220.978 32.5207 225.724 34.1774 231.422 34.9885ZM261.927 198.962C255.186 193.295 245.29 195.724 239.475 186.64C239.368 186.661 239.261 186.682 239.154 186.703C239.6 187.842 240.046 188.981 240.493 190.12C240.129 189.968 239.765 189.817 239.401 189.665C237.549 186.46 235.695 183.254 233.842 180.05C233.735 180.071 233.628 180.092 233.521 180.113C236.562 188.367 233.544 194.441 236.08 203.365C236.679 197.361 233.401 190.353 236.587 185.533C239.521 194.903 247.455 197.944 252.075 204.91C254.944 209.235 255.914 214.953 260.196 217.368C260.282 217.24 260.368 217.112 260.454 216.984C258.301 214.296 256.435 211.807 254.442 208.461C255.938 209.282 257.435 210.104 258.932 210.925C259.466 211.378 260 211.831 260.534 212.284C257.523 209.418 254.512 206.551 251.501 203.685C252.55 203.925 253.599 204.165 254.647 204.406C254.37 204.126 254.092 203.845 253.815 203.565C249.461 202.459 245.175 197.425 243.053 192.963C248.978 195.171 255.283 198.088 261.927 198.962ZM228.993 31.116C228.564 31.2002 228.136 31.2843 227.707 31.3684C228.136 31.2843 228.564 31.2002 228.993 31.116ZM246.607 127.695C246.372 127.629 246.136 127.564 245.901 127.499C246.136 127.564 246.372 127.629 246.607 127.695ZM261.366 213.124C261.324 212.91 261.282 212.695 261.24 212.48C261.282 212.695 261.324 212.91 261.366 213.124ZM230.455 55.5866C230.413 55.3721 230.371 55.1572 230.329 54.9426C230.371 55.1572 230.413 55.3721 230.455 55.5866ZM222.991 19.2456C220.505 19.6216 218.019 19.9981 215.533 20.3744C216.374 18.5001 216.546 19.3607 215.027 17.7971C209.931 17.5434 204.767 19.7381 199.274 20.8881C196.163 14.6039 185.556 21.9703 183.099 15.0283C184.022 14.6245 184.944 14.2202 185.867 13.8164C185.61 13.6436 185.353 13.4708 185.097 13.2983C177.658 3.21682 153.649 18.8157 141.958 19.7554C141.937 19.6478 141.915 19.5406 141.894 19.4333C142.026 18.4037 142.158 17.3738 142.29 16.3445C141.948 16.3 141.605 16.2559 141.262 16.2113C138.061 14.2264 132.673 17.9469 128.982 18.2863C128.833 18.0928 128.684 17.8989 128.534 17.7051C129.83 15.2812 132.225 14.859 134.269 12.8999C134.098 12.5988 133.928 12.2973 133.758 11.9962C131.81 11.7097 129.861 11.4225 127.913 11.1359C128.447 11.5886 128.981 12.0415 129.515 12.4941C118.492 13.0424 108.961 20.9901 100.684 25.5118C97.8963 26.6163 95.1078 27.7211 92.3196 28.8259C109.537 25.536 115.319 13.859 131.892 12.6968C131.934 12.9117 131.976 13.1266 132.019 13.3415C129.549 14.0763 128.904 15.1173 127.638 16.5429C127.935 17.488 128.232 18.4338 128.529 19.3793C132.387 19.543 138.011 15.6047 141.452 17.1781C141.129 17.799 140.805 18.4201 140.482 19.041C141.206 19.9705 141.341 20.2738 142.469 20.6585C148.578 21.9366 155.258 16.9367 159.709 14.9338C167.807 11.2902 177.455 11.6421 183.748 13.2282C183.683 13.4641 183.618 13.7 183.553 13.9359C182.952 14.2766 182.351 14.6177 181.75 14.9587C184.13 23.4308 190.203 17.1462 196.644 19.3968C196.62 19.4434 198.575 21.9219 200.169 22.0504C204.939 21.0032 209.773 19.9432 214.574 18.8897C214.85 19.7276 215.126 20.5658 215.401 21.404C217.931 20.6845 220.461 19.9648 222.991 19.2456ZM235.37 85.7373C234.941 85.8214 234.512 85.9055 234.084 85.9897C234.512 85.9055 234.941 85.8214 235.37 85.7373ZM253.185 179.935C252.949 179.869 252.714 179.804 252.478 179.739C252.714 179.804 252.949 179.869 253.185 179.935ZM235.733 92.6919C234.791 92.4304 233.849 92.1692 232.908 91.9076C233.057 92.1015 233.206 92.2954 233.356 92.4889C234.148 92.5566 234.94 92.6243 235.733 92.6919ZM251.388 179.284C251.152 179.218 250.917 179.153 250.681 179.088C250.917 179.153 251.152 179.218 251.388 179.284ZM231.712 84.1126C231.37 84.0684 231.027 84.0243 230.684 83.9801C230.705 84.0874 230.726 84.1947 230.747 84.3019C231.069 84.2389 231.391 84.1757 231.712 84.1126ZM232.908 91.9076C232.672 91.8424 232.437 91.7772 232.201 91.712C232.437 91.7772 232.672 91.8424 232.908 91.9076ZM229.72 84.1694C229.485 84.1038 229.249 84.0386 229.014 83.9733C229.249 84.0386 229.485 84.1038 229.72 84.1694ZM246.765 177.849C246.53 177.783 246.295 177.718 246.06 177.653C246.295 177.718 246.53 177.783 246.765 177.849ZM228.371 84.0995C228.135 84.0339 227.9 83.9687 227.665 83.9035C227.9 83.9687 228.135 84.0339 228.371 84.0995ZM246.06 177.653C245.824 177.587 245.588 177.522 245.353 177.457C245.588 177.522 245.824 177.587 246.06 177.653ZM227.021 84.0297C226.679 83.9851 226.336 83.941 225.994 83.8967C226.015 84.004 226.036 84.1113 226.057 84.2189C226.378 84.1559 226.7 84.0927 227.021 84.0297ZM225.994 83.8967C225.565 83.9809 225.137 84.065 224.708 84.1491C225.137 84.065 225.565 83.9809 225.994 83.8967ZM213.03 19.5271C211.592 20.07 210.325 22.1334 209.93 24.1503C210.963 22.6093 211.997 21.068 213.03 19.5271ZM224.645 83.8266C219.378 83.076 214.11 82.3248 208.844 81.5738C200.307 79.466 184.594 72.6848 177.919 66.8987C183.533 67.9035 190.29 69.0792 196.939 66.8471C196.918 66.7395 196.897 66.6323 196.876 66.525C170.723 72.033 157.032 52.6129 136.916 48.5133C136.895 48.406 136.874 48.2987 136.853 48.1911C141.199 48.788 145.546 49.3854 149.892 49.9823C153.641 49.8042 157.39 49.6262 161.139 49.4483C167.071 50.3292 172.233 53.1284 179.764 52.4848C179.743 52.3775 179.722 52.2702 179.701 52.1629C173.239 52.4914 168.537 50.0223 162.488 49.5182C162.467 49.4106 162.446 49.3033 162.425 49.196C163.904 48.794 165.384 48.3923 166.863 47.9903C150.42 50.7624 137.797 46.1309 124.784 44.5373C125.446 45.0762 126.109 45.6157 126.771 46.1548C134.509 46.847 140.085 51.4597 146.408 54.3459C157.647 59.3889 169.081 64.3957 180.416 69.4201C194.1 75.8928 205.171 85.4875 224.645 83.8266ZM214.83 38.9134C212.926 37.1536 210.035 35.5949 207.13 35.4058C207.044 35.5341 206.958 35.6623 206.872 35.791C207.022 35.9845 207.171 36.1784 207.32 36.3719C209.823 37.219 212.327 38.0663 214.83 38.9134ZM213.182 32.2111C210.875 31.6973 207.575 33.2624 205.85 33.9838C205.871 34.0914 205.892 34.1987 205.913 34.306C208.336 33.6079 210.759 32.9092 213.182 32.2111ZM220.624 75.2479C220.389 75.1824 220.153 75.1172 219.918 75.052C220.153 75.1172 220.389 75.1824 220.624 75.2479ZM209.798 25.1799C209.756 24.965 209.714 24.7501 209.672 24.5356C204.753 29.6852 200.777 35.0716 192.984 38.1814C193.005 38.2887 193.026 38.396 193.047 38.5036C194.355 38.3585 195.662 38.2134 196.969 38.0688C191.544 39.9137 186.118 41.7589 180.693 43.6042C180.672 43.4966 180.651 43.3893 180.63 43.2821C181.659 42.8569 182.689 42.4317 183.719 42.0065C168.796 45.8321 154.506 46.912 141.807 46.2156C141.786 46.108 141.765 46.0007 141.744 45.8934C142.366 45.6597 142.988 45.4262 143.61 45.1927C129.245 47.7565 117.786 37.1231 104.889 36.7312C104.91 36.8384 104.931 36.9457 104.952 37.0533C105.166 37.0113 105.381 36.9692 105.595 36.9272C116.308 42.6103 139.943 48.0465 154.588 48.3917C161.174 48.4843 175.658 43.3981 180.435 43.9894C179.191 44.4563 177.947 44.9236 176.703 45.3904C185.204 43.3343 194.82 40.9701 201.322 43.2365C204.829 44.667 208.339 46.098 211.846 47.5285C210.928 46.8165 210.009 46.1045 209.09 45.3928C205.731 44.1558 202.372 42.919 199.013 41.682C195.908 41.734 192.801 41.7859 189.695 41.8379C189.91 41.7958 190.124 41.7537 190.338 41.7117C195.42 39.8222 200.504 37.9324 205.586 36.0433C202.619 36.7178 199.494 37.8055 197.486 37.2982C199.137 36.6397 200.789 35.9806 202.44 35.3221C201.797 35.4482 201.154 35.5745 200.511 35.7006C200.662 35.3367 200.813 34.9721 200.964 34.6082C205.232 32.7119 207.115 28.2599 209.798 25.1799ZM238.132 184.896C238.069 184.574 238.006 184.251 237.942 183.929C238.006 184.251 238.069 184.574 238.132 184.896ZM237.621 183.992C236.068 180.617 234.509 177.209 232.962 173.865C232.855 173.886 232.748 173.907 232.641 173.929C233.567 177.362 235.463 182.012 237.621 183.992ZM216.502 78.0641C216.267 77.9985 216.031 77.9333 215.796 77.8677C216.031 77.9333 216.267 77.9985 216.502 78.0641ZM215.601 78.5755C215.366 78.5099 215.13 78.4448 214.895 78.3795C215.13 78.4448 215.366 78.5099 215.601 78.5755ZM221.348 109.566C217.468 88.4663 202.253 84.2107 188.485 78.2084C191.927 82.7359 196.546 85.24 199.43 91.4506C207.017 107.793 198.248 120.324 199.547 134.587C199.855 132.185 200.162 129.782 200.47 127.38C203.336 112.71 203.707 99.5667 196.116 83.0679C202.868 85.8767 212.181 89.7228 216.379 96.1548C223.678 107.337 219.692 124.094 219.722 135.312C219.738 141.295 222.018 149.396 221.586 155.02C221.951 154.614 222.317 154.208 222.682 153.802C223.619 158.989 225.386 165.729 228.03 169.146C225.966 161.295 221.196 152.855 220.918 143.107C220.654 134.861 221.265 127.109 221.637 119.546C221.54 116.22 221.438 112.86 221.348 109.566ZM214.378 79.15C214.036 79.1055 213.693 79.0613 213.351 79.0171C213.372 79.1243 213.393 79.2316 213.414 79.3392C213.735 79.2762 214.057 79.2131 214.378 79.15ZM232.578 173.606C232.536 173.392 232.493 173.177 232.451 172.962C232.493 173.177 232.536 173.392 232.578 173.606ZM233.521 180.113C233.458 179.791 233.394 179.468 233.331 179.146C233.394 179.468 233.458 179.791 233.521 180.113ZM233.01 179.209C232.947 178.887 232.883 178.565 232.82 178.243C232.883 178.565 232.947 178.887 233.01 179.209ZM232.435 177.984C232.393 177.769 232.351 177.554 232.309 177.34C232.351 177.554 232.393 177.769 232.435 177.984ZM213.155 79.7245C212.62 79.8296 212.084 79.9348 211.548 80.0399C212.084 79.9348 212.62 79.8296 213.155 79.7245ZM231.924 177.08C231.882 176.866 231.84 176.651 231.797 176.436C231.84 176.651 231.882 176.866 231.924 177.08ZM231.35 175.855C231.308 175.64 231.266 175.425 231.223 175.211C231.266 175.425 231.308 175.64 231.35 175.855ZM203.726 35.0697C203.383 35.0255 203.041 34.9814 202.698 34.9369C202.719 35.0445 202.74 35.1518 202.761 35.259C203.083 35.196 203.404 35.1328 203.726 35.0697ZM230.839 174.952C230.797 174.737 230.754 174.522 230.712 174.307C230.754 174.522 230.797 174.737 230.839 174.952ZM230.264 173.726C230.222 173.511 230.18 173.296 230.138 173.082C230.18 173.296 230.222 173.511 230.264 173.726ZM229.753 172.823C229.69 172.501 229.626 172.178 229.563 171.856C229.626 172.178 229.69 172.501 229.753 172.823ZM229.179 171.597C229.095 171.167 229.01 170.738 228.926 170.308C228.819 170.33 228.712 170.351 228.605 170.372C228.796 170.78 228.987 171.188 229.179 171.597ZM228.605 170.372C228.52 169.942 228.436 169.512 228.352 169.083C228.244 169.104 228.137 169.125 228.03 169.146C228.222 169.554 228.413 169.963 228.605 170.372ZM195.995 21.1966C189.403 20.3074 178.765 35.1927 175.054 38.6884C172.521 40.5234 169.987 42.3593 167.454 44.1942C177.982 40.3787 184.934 27.3336 195.995 21.1966ZM221.259 156.757C221.216 156.543 221.174 156.328 221.132 156.113C221.174 156.328 221.216 156.543 221.259 156.757ZM221.064 157.464C221.022 157.25 220.98 157.035 220.937 156.82C220.44 158.256 219.943 159.692 219.445 161.128C219.985 159.907 220.524 158.685 221.064 157.464ZM223.623 180.717C222.651 178.009 220.042 168.784 218.849 166.598C218.742 166.619 218.635 166.64 218.528 166.661C219.021 171.79 220.246 178.481 223.623 180.717ZM219.572 161.772C219.529 161.558 219.487 161.343 219.445 161.128C219.487 161.343 219.529 161.558 219.572 161.772ZM219.377 162.479C219.335 162.265 219.292 162.05 219.25 161.835C219.292 162.05 219.335 162.265 219.377 162.479ZM219.182 163.187C219.14 162.972 219.097 162.757 219.055 162.542C219.097 162.757 219.14 162.972 219.182 163.187ZM218.137 168.076C218.095 167.861 218.053 167.646 218.011 167.432C218.053 167.646 218.095 167.861 218.137 168.076ZM218.006 169.105C217.943 168.783 217.879 168.461 217.816 168.139C217.879 168.461 217.943 168.783 218.006 169.105ZM217.937 170.457C217.874 170.135 217.811 169.813 217.748 169.491C217.811 169.813 217.874 170.135 217.937 170.457ZM217.868 171.809C217.805 171.487 217.742 171.164 217.678 170.842C217.742 171.164 217.805 171.487 217.868 171.809ZM179.953 14.3076C174.561 13.946 156.088 36.926 153.198 41.3042C164.523 35.0146 166.956 21.5795 179.953 14.3076ZM182.463 52.6244C182.228 52.5592 181.992 52.494 181.757 52.4284C181.992 52.494 182.228 52.5592 182.463 52.6244ZM207.047 179.62C203.731 178.345 196.651 178.715 193.508 173.577C193.401 173.598 193.294 173.619 193.186 173.64C193.868 174.845 194.55 176.05 195.231 177.254C189.909 177.081 182.54 176.081 179.826 171.913C179.547 172.191 179.267 172.469 178.988 172.746C178.842 173.561 179.247 174.468 178.277 174.224C176.725 166.875 176.74 161.237 176.539 155.16C176.903 155.312 177.267 155.464 177.63 155.615C179.603 160.803 195.01 172.118 199.29 174.116C194.442 169.826 189.561 165.541 184.745 161.245C195.633 163.202 202.73 168.127 207.047 179.62ZM200.982 167.427C198.674 165.873 196.365 164.318 194.057 162.763C190.44 161.912 186.823 161.061 183.206 160.209C178.095 157.913 173.086 148.765 170.474 142.968C171.309 143.25 172.143 143.532 172.977 143.815C168.13 139.454 154.259 125.529 154.818 115.928C160.136 123.279 170.054 125.489 178.877 127.937C178.288 129.354 177.416 130.483 178.929 131.606C183.329 137.819 190.784 141.705 194.227 150.017C193.265 149.648 192.302 149.279 191.339 148.911C193.092 150.391 194.462 150.366 195.244 153.498C194.09 152.72 192.936 151.943 191.782 151.166C191.374 151.357 190.967 151.549 190.559 151.74C190.429 152.212 190.299 152.683 190.169 153.155C192.577 159.826 198.279 161.561 200.982 167.427ZM200.892 175.475C200.614 175.194 200.337 174.914 200.059 174.634C200.337 174.914 200.614 175.194 200.892 175.475ZM191.339 148.911C191.104 148.845 190.868 148.78 190.633 148.715C190.868 148.78 191.104 148.845 191.339 148.911ZM173.987 70.6817C173.623 70.5299 173.259 70.3781 172.895 70.2263C173.259 70.3781 173.623 70.5299 173.987 70.6817ZM193.123 173.318C193.081 173.104 193.039 172.889 192.997 172.674C193.039 172.889 193.081 173.104 193.123 173.318ZM172.895 70.2263C170.672 69.1016 168.447 67.9766 166.224 66.8518C170.426 71.6557 174.53 77.1823 174.449 86.6501C174.306 91.5732 172.027 100.561 175.221 105.903C173.787 98.4235 175.305 93.0046 175.476 86.783C175.634 80.2947 172.449 74.1895 170.392 69.3796C171.227 69.6618 172.061 69.9441 172.895 70.2263ZM184.599 146.887C184.363 146.822 184.128 146.757 183.892 146.691C184.128 146.757 184.363 146.822 184.599 146.887ZM183.892 146.691C183.657 146.626 183.421 146.561 183.186 146.495C183.421 146.561 183.657 146.626 183.892 146.691ZM182.864 146.559C182.629 146.493 182.394 146.428 182.158 146.363C182.394 146.428 182.629 146.493 182.864 146.559ZM182.158 146.363C181.923 146.297 181.687 146.232 181.452 146.167C181.687 146.232 181.923 146.297 182.158 146.363ZM181.452 146.167C181.217 146.101 180.981 146.036 180.746 145.971C180.981 146.036 181.217 146.101 181.452 146.167ZM165.838 66.5925C165.475 66.4409 165.111 66.2892 164.748 66.1373C165.111 66.2892 165.475 66.4409 165.838 66.5925ZM180.746 145.971C180.403 145.926 180.061 145.882 179.718 145.838C179.739 145.945 179.76 146.053 179.781 146.16C180.103 146.097 180.425 146.034 180.746 145.971ZM179.718 145.838C179.483 145.772 179.247 145.707 179.012 145.642C179.247 145.707 179.483 145.772 179.718 145.838ZM179.012 145.642C178.777 145.576 178.541 145.511 178.306 145.446C178.541 145.511 178.777 145.576 179.012 145.642ZM178.306 145.446C178.07 145.38 177.835 145.315 177.6 145.25C177.835 145.315 178.07 145.38 178.306 145.446ZM161.027 64.1909C160.792 64.1257 160.556 64.0605 160.321 63.9949C160.556 64.0605 160.792 64.1257 161.027 64.1909ZM159.936 63.7362C159.573 63.5843 159.209 63.4326 158.845 63.281C159.209 63.4326 159.573 63.5843 159.936 63.7362ZM158.845 63.281C155.016 60.2621 127.09 47.202 122.27 47.0381C122.291 47.1453 122.312 47.2526 122.333 47.3602C126.322 51.8189 130.786 56.0979 134.111 61.4426C140.024 70.947 143.883 87.3494 147.421 98.6444C146.467 95.4865 145.513 92.3274 144.56 89.1688C138.552 73.4181 135.195 60.7766 126.886 50.1467C132.933 52.607 138.994 55.132 145.048 57.6238C149.461 62.4816 149.328 72.3781 154.754 76.4624C152.011 70.4218 149.267 64.3789 146.523 58.3383C146.631 58.3173 146.738 58.2963 146.845 58.2753C147.187 58.3195 147.53 58.3636 147.873 58.4081C150.444 60.7166 155.204 62.7405 158.845 63.281ZM173.684 144.011C173.448 143.945 173.213 143.88 172.977 143.815C173.213 143.88 173.448 143.945 173.684 144.011ZM176.08 157.927C174.362 162.428 176.126 171.487 178.914 175.772C171.776 175.066 165.365 162.843 161.28 164.176C160.999 165.012 160.718 165.848 160.437 166.684C157.706 153.465 162.788 145.668 160.356 132.239C160.591 132.305 160.827 132.37 161.062 132.435C165.334 142.089 173.452 145.857 176.08 157.927ZM138.616 19.7419C138.381 19.6764 138.145 19.6112 137.91 19.5456C138.145 19.6112 138.381 19.6764 138.616 19.7419ZM160.282 135.265C160.403 137.583 160.524 139.902 160.645 142.22C160.053 149.967 158.323 156.624 159.794 166.81C158.917 166.313 158.041 165.816 157.164 165.319C154.697 159.876 152.366 156.928 147.752 154.787C148.649 148.338 145.254 140.103 143.127 134.617C138.553 122.823 140.111 106.295 145.681 99.9898C148.601 114.292 156.622 123.079 160.282 135.265ZM137.198 21.0238C135.162 21.027 124.665 31.0419 122.893 33.1985C129.914 30.5483 132.328 24.7972 137.198 21.0238ZM155.956 121.728C154.871 120.841 153.517 118.631 153.722 117.148C154.467 118.674 155.211 120.201 155.956 121.728ZM152.411 105.36C152.369 105.146 152.326 104.931 152.284 104.716C152.081 105.34 152.005 104.845 152.411 105.36ZM149.592 102.902C149.528 102.58 149.465 102.258 149.402 101.936C149.465 102.258 149.528 102.58 149.592 102.902ZM148.954 101.355C148.891 101.033 148.827 100.71 148.764 100.388C148.827 100.71 148.891 101.033 148.954 101.355ZM148.379 100.129C148.167 99.6134 147.954 99.0973 147.742 98.5813C147.954 99.0973 148.167 99.6134 148.379 100.129ZM127.913 11.1359C127.678 11.0704 127.442 11.0052 127.206 10.9397C127.442 11.0052 127.678 11.0704 127.913 11.1359ZM136.835 73.622C136.75 73.1922 136.666 72.7628 136.582 72.3331C136.475 72.3541 136.367 72.3751 136.26 72.3961C136.452 72.8048 136.643 73.2133 136.835 73.622ZM136.26 72.3961C130.661 48.5374 106.205 36.0564 86.0053 34.0793C86.1546 34.2732 86.3038 34.4671 86.4533 34.6606C102.614 36.7581 107.43 61.9352 112.717 80.0271C111.872 76.2898 111.027 72.5515 110.183 68.8142C109.02 64.0245 107.851 59.2012 106.695 54.4431C103.991 47.9005 100.104 43.6341 96.53 38.3713C109.693 42.3451 120.403 46.0242 128.403 57.8786C131.016 62.6856 133.642 67.5575 136.26 72.3961ZM120.397 10.2687C105.459 6.12594 93.3413 19.7732 78.4701 19.499C65.4722 19.2591 53.0566 17.0327 42.1834 13.2363C35.5087 10.9775 28.8314 8.7182 22.1567 6.45972C22.3059 6.65328 22.4551 6.84714 22.6043 7.0407C28.3483 9.25929 34.1573 11.4655 39.9332 13.6778C50.0701 17.436 61.0005 19.9552 73.3261 20.5083C88.8675 21.2582 104.248 12.797 120.397 10.2687ZM122.957 33.5207C122.614 33.4761 122.271 33.432 121.929 33.3877C121.95 33.495 121.971 33.6023 121.992 33.7099C122.313 33.6469 122.635 33.5837 122.957 33.5207ZM136.476 124.546C136.434 124.331 136.392 124.117 136.35 123.902C136.392 124.117 136.434 124.331 136.476 124.546ZM136.281 125.254C136.239 125.039 136.197 124.824 136.155 124.609C135.939 125.209 135.722 125.809 135.506 126.409C135.765 126.024 136.023 125.639 136.281 125.254ZM118.708 35.6922C118.172 35.7973 117.636 35.9025 117.101 36.0076C117.636 35.9025 118.172 35.7973 118.708 35.6922ZM135.633 127.053C135.59 126.839 135.548 126.624 135.506 126.409C135.548 126.624 135.59 126.839 135.633 127.053ZM135.438 127.761C135.395 127.546 135.353 127.331 135.311 127.117C135.353 127.331 135.395 127.546 135.438 127.761ZM135.243 128.469C135.201 128.254 135.158 128.039 135.116 127.824C135.158 128.039 135.201 128.254 135.243 128.469ZM117.164 36.3297C115.449 36.6662 113.734 37.0027 112.02 37.3391C113.734 37.0027 115.449 36.6662 117.164 36.3297ZM135.048 129.176C135.006 128.961 134.963 128.746 134.921 128.532C134.963 128.746 135.006 128.961 135.048 129.176ZM134.852 129.883C134.81 129.669 134.768 129.454 134.726 129.239C134.768 129.454 134.81 129.669 134.852 129.883ZM104.889 36.7312C104.654 36.6656 104.418 36.6004 104.183 36.5348C104.418 36.6004 104.654 36.6656 104.889 36.7312ZM104.183 36.5348C103.819 36.3834 103.455 36.2316 103.092 36.0798C103.455 36.2316 103.819 36.3834 104.183 36.5348ZM103.092 36.0798C102.856 36.0146 102.621 35.9493 102.386 35.8841C102.621 35.9493 102.856 36.0146 103.092 36.0798ZM102.386 35.8841C102.15 35.8186 101.915 35.7534 101.679 35.6882C101.915 35.7534 102.15 35.8186 102.386 35.8841ZM101.679 35.6882C101.08 35.4711 100.481 35.2538 99.8824 35.037C100.032 35.2306 100.181 35.4244 100.33 35.6183C100.78 35.6415 101.23 35.6646 101.679 35.6882ZM99.8824 35.037C96.0529 32.3387 89.7351 30.419 84.5406 30.0174C84.5195 29.9101 84.4985 29.8028 84.4773 29.6952C84.9919 29.4828 85.5068 29.2704 86.0214 29.0577C78.2179 29.7625 71.1166 25.4455 64.5768 23.5633C52.9147 20.2757 41.1536 17.0062 29.5873 13.7001C23.5974 11.5304 17.6057 9.35976 11.6157 7.18942C12.1496 7.64236 12.6836 8.0953 13.2179 8.54821C19.3399 10.9934 25.54 13.4912 31.7005 15.962C54.4253 22.32 77.1573 28.6791 99.8824 35.037ZM116.174 123.176C115.254 126.206 115.751 130.961 115.304 134.053C115.09 134.095 114.875 134.137 114.661 134.179C114.675 130.042 112.147 126.352 110.841 123.22C110.734 123.241 110.627 123.262 110.52 123.283C111.633 127.114 114.76 133.238 113.622 137.395C113.473 137.201 113.324 137.007 113.175 136.813C106.202 132.201 111.537 123.043 108.096 117.736C105.837 114.253 102.141 111.052 99.9696 106.952C108.17 109.093 114.124 111.592 116.174 123.176ZM113.867 121.622C112.86 120.222 111.663 119.404 110.019 119.031C111.301 119.895 112.584 120.759 113.867 121.622ZM87.7556 29.3866C87.2197 29.4917 86.6837 29.5969 86.1478 29.702C86.6837 29.5969 87.2197 29.4917 87.7556 29.3866ZM97.389 90.3947C96.7688 90.0704 96.1486 89.7461 95.5287 89.4218C96.1486 89.7461 96.7688 90.0704 97.389 90.3947ZM86.0053 34.0793C85.7698 34.0141 85.5344 33.9489 85.2992 33.8836C85.5344 33.9489 85.7698 34.0141 86.0053 34.0793ZM93.5168 75.7648C92.8123 75.0107 92.1077 74.2567 91.4036 73.5029C92.1077 74.2567 92.8123 75.0107 93.5168 75.7648ZM85.2992 33.8836C85.0636 33.8181 84.8281 33.7529 84.593 33.6877C84.8281 33.7529 85.0636 33.8181 85.2992 33.8836ZM84.593 33.6877C84.3574 33.6221 84.1219 33.5569 83.8867 33.4917C84.1219 33.5569 84.3574 33.6221 84.593 33.6877ZM95.1437 89.1627C94.2672 88.6656 93.3906 88.1681 92.5142 87.6713C93.3906 88.1681 94.2672 88.6656 95.1437 89.1627ZM83.8867 33.4917C83.6512 33.4261 83.4157 33.3609 83.1805 33.2957C83.4157 33.3609 83.6512 33.4261 83.8867 33.4917ZM91.4036 73.5029C91.3614 73.288 91.3192 73.0731 91.2771 72.8582C91.3192 73.0731 91.3614 73.288 91.4036 73.5029ZM83.1805 33.2957C82.945 33.2301 82.7095 33.1649 82.4742 33.0993C82.7095 33.1649 82.945 33.2301 83.1805 33.2957ZM96.7654 104.235C96.7233 104.02 96.6811 103.805 96.639 103.59C96.6811 103.805 96.7233 104.02 96.7654 104.235ZM96.3178 103.653C96.2757 103.438 96.2335 103.223 96.1913 103.009C96.2335 103.223 96.2757 103.438 96.3178 103.653ZM82.4742 33.0993C82.2387 33.0341 82.0032 32.9689 81.768 32.9033C82.0032 32.9689 82.2387 33.0341 82.4742 33.0993ZM81.768 32.9033C81.5325 32.8382 81.297 32.7729 81.0618 32.7074C81.297 32.7729 81.5325 32.8382 81.768 32.9033ZM94.4628 101.006C94.0799 100.189 93.6968 99.3719 93.3141 98.5547C93.2067 98.5757 93.0997 98.5967 92.9923 98.6178C93.3525 99.8854 93.7125 101.153 94.0727 102.421C94.2025 101.949 94.3327 101.478 94.4628 101.006ZM93.9405 103.45C93.8773 103.128 93.8141 102.806 93.7509 102.484C93.8141 102.806 93.8773 103.128 93.9405 103.45ZM93.809 104.48C93.7458 104.158 93.6825 103.835 93.6193 103.513C93.5119 103.534 93.4049 103.555 93.2978 103.576C92.8233 107.558 92.5447 110.814 94.2875 115.427C94.3946 115.406 94.5016 115.385 94.609 115.364C93.3163 111.49 92.4858 107.87 93.809 104.48ZM96.016 117.43C95.9738 117.215 95.9317 117 95.8895 116.785C95.9317 117 95.9738 117.215 96.016 117.43ZM95.568 116.848C95.3553 116.332 95.1429 115.816 94.9302 115.301C94.8231 115.322 94.7161 115.343 94.609 115.364C94.9284 115.858 95.2483 116.353 95.568 116.848ZM90.4421 92.4272C90.3789 92.105 90.3156 91.7826 90.2524 91.4604C90.3156 91.7826 90.3789 92.105 90.4421 92.4272ZM77.2089 31.7908C76.9737 31.7252 76.7382 31.6601 76.503 31.5945C76.7382 31.6601 76.9737 31.7252 77.2089 31.7908ZM76.503 31.5945C76.2675 31.5293 76.032 31.4641 75.7964 31.3985C76.032 31.4641 76.2675 31.5293 76.503 31.5945ZM75.7964 31.3985C75.5613 31.3333 75.3258 31.2681 75.0905 31.2025C75.3258 31.2681 75.5613 31.3333 75.7964 31.3985ZM85.7103 85.3261C83.3571 92.4798 85.8991 102.759 81.2016 108.292C79.9452 103.405 79.1319 100.689 76.0267 98.9356C74.7471 96.4439 75.3257 92.2951 73.6141 90.0415C74.4204 93.0499 76.2524 97.8331 74.9303 100.154C72.3038 94.7389 67.4549 91.4701 64.8921 84.727C62.3038 77.9169 67.8005 68.0543 62.1325 63.8562C61.5526 64.3042 60.9726 64.753 60.3927 65.201C60.8393 58.5656 65.5438 54.358 67.5148 48.7481C67.9526 45.8746 68.3906 43 68.8283 40.1262C70.5493 44.3607 72.2708 48.5961 73.9921 52.8302C72.891 48.9204 71.7895 45.0096 70.6888 41.0998C73.0524 48.8188 77.4315 54.0506 79.2929 62.8311C79.0576 62.7655 78.8221 62.7003 78.5869 62.6347C78.2039 61.8179 77.8209 61.0008 77.4379 60.1837C77.3308 60.2047 77.2237 60.2257 77.1167 60.2467C79.9809 68.6059 82.8458 76.9669 85.7103 85.3261ZM77.1167 60.2467C77.0746 60.0321 77.0324 59.8172 76.9903 59.6024C77.0324 59.8172 77.0746 60.0321 77.1167 60.2467ZM76.6055 59.3433C76.2226 58.5265 75.8395 57.7093 75.4566 56.8925C75.4987 57.1071 75.5408 57.322 75.5829 57.5365C71.7861 62.9751 65.319 77.3276 72.2754 86.6236C69.9457 77.4305 70.4007 61.6217 76.6055 59.3433ZM75.3302 56.2482C75.2669 55.926 75.2037 55.6036 75.1405 55.2814C75.2037 55.6036 75.2669 55.926 75.3302 56.2482ZM74.6928 54.7001C74.6086 54.2706 74.5243 53.8412 74.4401 53.4117C74.3327 53.4328 74.2256 53.4538 74.1186 53.4748C74.3099 53.8833 74.5012 54.2917 74.6928 54.7001ZM73.6141 90.0415C73.4014 89.5255 73.1889 89.0094 72.9766 88.4937C73.1889 89.0094 73.4014 89.5255 73.6141 90.0415ZM72.9766 88.4937C72.7638 87.9778 72.5514 87.4617 72.3386 86.9458C72.5514 87.4617 72.7638 87.9778 72.9766 88.4937ZM22.1567 6.45972C21.9212 6.3942 21.6857 6.32897 21.4505 6.26372C21.6857 6.32897 21.9212 6.3942 22.1567 6.45972ZM21.4505 6.26372C21.215 6.1982 20.9795 6.13297 20.7443 6.06772C20.9795 6.13297 21.215 6.1982 21.4505 6.26372ZM18.9577 2.06892C15.4959 0.53534 9.56312 0.708449 4.82273 1.49673C6.30482 3.83293 7.46456 5.53382 10.0769 6.15342C8.79631 4.73185 7.51537 3.31003 6.23518 1.88873C9.27381 2.63044 12.3138 3.37253 15.3524 4.11425C14.5623 3.48875 13.7715 2.86338 12.9813 2.23786C14.9732 2.18129 16.9658 2.12518 18.9577 2.06892ZM16.4438 4.56959C16.2082 4.50404 15.9727 4.43885 15.7376 4.37359C15.9727 4.43885 16.2082 4.50404 16.4438 4.56959ZM3.0147 4.19344C2.48651 2.81863 2.58537 3.03478 1.67061 2.44978C2.11845 3.03071 2.56677 3.61222 3.0147 4.19344Z" fill="#EB5C37" fill-opacity="0.1"/>
</svg>
