<svg id="圖層_1" data-name="圖層 1" xmlns="http://www.w3.org/2000/svg" xmlns:xlink="http://www.w3.org/1999/xlink" viewBox="0 0 248.85 340.19"><defs><style>.cls-1{fill:#f9b112;}.cls-2{clip-path:url(#clip-path);}</style><clipPath id="clip-path"><path class="cls-1" d="M225.43,167.6c-12.42-2.54-23.59.77-34.8,5.53-26.89,11.42-39,31.39-37.53,60.33.52,10.23-1.43,20.59-2.25,30.88l-1.75.11c-.79-1-1.65-1.92-2.38-2.95-7.09-10.05-13.86-20.34-21.3-30.13C111.35,212.85,103.92,192,101.06,169c-1.25-10-2.16-19.44,5.63-27.41,1-1,1.46-2.59,2.16-3.91a179,179,0,0,0,17.91-53.09c2.71-15.67,1.66-30.79-5.84-45.1-2.59-5-5.89-9.2-9.64-10.58L99.61,36.83C95.8,32.12,91.25,34.74,87,35.29,76.18,36.65,75.49,46.22,72.69,54.07c-2.92-1.66-5.25-3.24-7.78-4.38-14-6.37-29.09,1.45-30.82,16.63A68.34,68.34,0,0,0,35,88C38.69,105.35,48,120.36,57.47,135c22,33.81,44.65,67.27,67,100.86,4.31,6.47,8.67,12.9,13,19.35l-.66,1.15c-2-.81-4.15-1.33-5.89-2.48-10.27-6.77-20.37-13.78-30.65-20.52a122.7,122.7,0,0,1-24.45-21.8C68.51,203.21,60.7,195.1,52,188.25c-15-11.9-32.8-15-51.92-13.12-.72,11,9.93,16.08,11.42,26L.6,189.48v12.08l8.37.82a12.19,12.19,0,0,1-4.86,3c-1.36.59-2.64,1.35-4,2,.19.45.38.91.56,1.36,7.41-3.4,14.83-3.1,22.38-.7a10.16,10.16,0,0,1-4.15,2.42c-5.37,1.75-10.79,3.34-16.1,5.23-1.13.41-1.9,1.82-2.84,2.77l1,1c5.39-2.16,10.79-4.28,16.16-6.47,10.34-4.23,11.51-4.36,17.2-1.3L.27,227.28l.54,1.12c1.32-.57,2.65-1.1,4-1.7,8.89-4.11,17.75-8.27,26.66-12.34,4.63-2.12,9.29-3.3,14.22,1.14-11.69,6.19-22.87,12.32-34.26,18-3.17,1.59-7,1.91-11.19,3,.48.64,1.21,2.41,2.53,3.26,11.2,7.18,23.15,8.14,35.84,4.42,11.14-3.27,22.34-6.49,33.7-8.82,12.48-2.55,24.22-2.32,34.63,7.86a82.77,82.77,0,0,0,32.75,19.45,12.51,12.51,0,0,1,6,4.91c5.62,8.6,10.88,17.44,16.86,27.14-2.68-.87-4.34-1.45-6-2-11.11-3.35-22-8.08-33.39-9.64-12.86-1.77-25.12-3.77-35.63-11.89a12.23,12.23,0,0,0-2.22-1.14c-22.44-10.63-46.63-15.25-70.68-20.23-5.62-1.17-9.41,2.88-9.48,8.73,0,2.95.21,6.06-.62,8.81-3,9.79-1,15.72,7.71,21.24,12.44,7.91,26.21,9.8,40.28,7.15,13-2.44,25.72-6.48,38.58-9.72,4-1,8.12-2.56,12.12-2.37a185.83,185.83,0,0,1,25.23,2.81c20.46,3.76,39.36,10.17,48.94,31.29.78,1.71,4.14,2.25,6.31,3.34l.82-1.42c-.87-1.38-1.68-2.79-2.59-4.14q-10.32-15.3-20.65-30.58c-5.85-8.69-9.09-18-7.22-28.71,1.08-6.18,4-10.48,10.15-13,12.92-5.24,25.85-10.54,38.35-16.68,17.2-8.45,28.9-22.07,34.54-40.56C240,176.29,235.39,169.64,225.43,167.6ZM82.64,122.27c1.42,6,.64,8-5.67,15.47C75,132.5,76.53,128.08,82.64,122.27ZM74,131.56c-3.75-4.82-3.53-8.43.41-12,1.87-1.71,3.14-4.09,5-6.55C83.42,121.12,77.3,125.46,74,131.56Zm-4.17-10.35c-3.28-5.31-2.28-7.79,7-17.12C79.6,110.8,78,114.65,69.85,121.21Zm-4.06-8.79c-.51-7.72,5.58-11.7,8.57-17.52C77.79,100.29,74,107.85,65.79,112.42Zm-2.85-6.78C66.25,97,69.12,89.48,72,81.9,76.5,87.51,72.11,100.13,62.94,105.64Zm.22-53.08c5.21,1.17,8.26,3.84,8.84,8.38,1.71,13.4-2.87,25.31-8.72,36.86l-1.69-.14C62.11,82.8,62.63,68,63.16,52.56Zm-4.82-1.74c1.82,1,2.73,5,2.84,7.64.41,10.09.34,20.19.4,30.29A18.78,18.78,0,0,1,61.06,92l-2.13.45L48.75,51C52.35,50.78,56,49.58,58.34,50.82Zm-10.66,1.1c3.13,13.84,6.2,27.36,9.26,40.88l-.84.4a16.44,16.44,0,0,1-1.64-2.4c-4.38-9.83-9-19.57-12.94-29.58C39.34,55.68,40.85,53.87,47.68,51.92Zm-9.36,8.51,22.13,45.28-.44.45-8.2-10-.72.45q5.46,8.06,10.93,16.12l-.9.78c-6.48-7.07-12.83-14.25-19.48-21.15-4.43-4.61-6-10-5-16.9.43,1.24.86,2.49,1.3,3.73l1.31-.89C37.5,72.35,33.47,66.39,38.32,60.43Zm29.9,62.05C58.14,121.63,41.11,104,41.37,96.11Zm-18-8c5.85,4.56,11.76,9,17.5,13.75a11.91,11.91,0,0,1,3.15,5.07c-9-3.91-15.8-10.3-21.56-18Zm3.93,9.3,20.12,17.09-.89,1.1C64.91,138.27,58.64,132.05,54.14,123.75ZM61,139.33l1.19-1.73,13.1,8.83-1.4,1.71Zm20.37,26.5-6.17-8.06C81.19,157.83,81.65,161.54,81.39,165.83Zm-1.23-20.57-1.62-.66c-2.07-5.45,1.8-8.68,4.73-12.26l2,.76Zm8.59,16.68c.37-5.39-1-10.89-1.51-16.34a19,19,0,0,1,.47-6.17c13.77,16,9.62,36.07,13.23,54.32C93.62,184.28,87.88,174.47,88.75,161.94ZM75,219.17c-5.21-1.21-8.15-5.1-17.82-23.89C64,199.62,71.16,209.45,75,219.17ZM46.51,186.89c1.54,1.31,3.5,2.35,4.56,4,5.12,7.88,10,15.92,15.48,24.73-4.43-.07-7.51-1.39-9.23-4.46-4.25-7.59-8.14-15.37-12.17-23.08ZM33.08,181c2.54,1.61,6,2.64,7.45,4.93,5.12,8.07,9.58,16.57,14.22,24.94a6.37,6.37,0,0,1,.3,2.27l-1.15,1c-2.64-2.43-5.92-4.45-7.8-7.37-5.06-7.88-9.52-16.15-14.22-24.26ZM20.52,204.09c-9.37-6.1-13-16.32-18.15-25.42l1.06-1.39c1.94.9,4.75,1.28,5.67,2.8,4.56,7.54,8.63,15.38,12.87,23.12Zm24.59,7.2-11-5.81c-4.31,3-7.46.25-9.4-2.83-5-7.94-9.41-16.27-14-24.44l1.05-1.28c2,1.51,4.55,2.65,6,4.6,4.15,5.77,7.82,11.9,11.77,17.82a29.17,29.17,0,0,0,3.24,3.54c-4.6-8.18-9.21-16.36-14-24.89,5.42-.63,9.46.59,12.18,5.48C35.8,192.4,41,201.19,46,210Zm-37,28.77L8,238.33q8.17-4.52,16.36-9c6.82-3.75,13.55-7.7,20.54-11.1,2.52-1.22,5.68-1.12,8.55-1.63l.37,2.2c-12.75,7.34-25.42,14.84-38.34,21.86C13.66,241.64,10.6,240.32,8.11,240.06Zm9.63,3.54c-.16-.48-.32-1-.49-1.45a37.7,37.7,0,0,1,3.29-2.39q16.32-9.47,32.69-18.84c3.55-2,7.18-3.49,11.7.43C51.71,228.67,39,235.89,26.06,242.69,23.76,243.9,20.54,243.34,17.74,243.6Zm14.59-1.5c13.18-6.9,24.94-16.67,39.64-20.48.31.76.63,1.52,1,2.28C59.07,229.28,48,240.41,32.33,242.1Zm22-4c3.08-5.28,13.89-11,22.9-11.66Zm19.7-6.4c4.46-5.06,7.89-5.47,13.16-1.31Zm83,2c-.34-6-.62-10.78-.85-15.53,0-.39.31-.79.89-1.18C157.89,222.18,162.12,227.17,157.05,233.71Zm6.64-10.33c0,.77-.45,1.53-1.13,3.71-4-9.86-3.24-17.94,1.16-27.13C163.72,208.64,163.74,216,163.69,223.38Zm69.13-48.73-19,9.88C220.67,170.06,223.74,167,232.82,174.65Zm-15.64-3.4,1.45,1L211.7,182.5l-1.53-.92Zm-3.06-.91-12.86,24.82C199.46,188.49,207.76,171.82,214.12,170.34ZM205.33,172c-3.07,9-6.1,17.8-9.13,26.65l-1.37-.42C193.52,188.47,198.28,176.5,205.33,172Zm-7.88,1.81c-3.6,10.64-1.94,22.34-10.28,31.51C183.85,196.58,190.27,176.32,197.45,173.79Zm-9.68,4,1.41.7c-.93,3.63-2,7.24-2.74,10.91a135.17,135.17,0,0,0-2.32,13.68c-.43,4.25-2.78,6.35-7.32,8.22.4-4.68.72-8.53,1-12.38l-.78-.15-2.76,14.56-1.67-.38c-.24-11,1.44-21.5,8.47-30.74-.42,2.55-.83,5.1-1.33,8.24C182.66,185.89,185.21,181.84,187.77,177.8Zm-13.64,10L168,222.61C162.06,212.55,165.61,194.22,174.13,187.79Zm-6.06,43.15c-.68-.33-1.36-2.23-1-2.7a3.31,3.31,0,0,1,2.86-1.19c4,1.25,8,2.82,13,4.66C176.8,235.14,172.39,233,168.07,230.94Zm1.65-6.52-.28-1.69c1.82-.42,3.9-1.62,5.41-1.11a92.37,92.37,0,0,1,14.91,6.75C182.25,231.36,176.11,227.22,169.72,224.42Zm4-6.72c2.11-.39,4.21-.82,6.33-1.14.44-.06.94.29,1.4.46l18.7,7.21C192.75,227.42,188.07,226.39,173.74,217.7Zm22.73,2.59c-5.54-1.61-11-3.58-16.9-5.54,2.41-3.73,5.06-4.52,8.68-3.2,5.71,2.07,11.48,3.94,17.23,5.9.13-.41.25-.82.38-1.24l-19.28-6.73c2.4-4.09,5.56-5.22,9.44-3.57,7.5,3.19,15.2,4.58,23.44,3C215.39,217.56,204.92,222.75,196.47,220.29Zm-1.77-16.85c2.14-4.42,5.91-4.5,9.19-4,6.65,1.1,13.18,2.91,19.76,4.42C213.89,210.75,204.49,206.34,194.7,203.44Zm30.67-2.89c-7.81-.21-15.6-.94-23.39-1.5,0-.74,0-1.48,0-2.22,8.62-4.66,17.72,0,26.53-1.09l.87,1.44C228,198.36,226.67,200.59,225.37,200.55Zm3.54-7.09c-6.83.25-13.67.13-20.5.13-.07-.73-.14-1.45-.2-2.18l23-1.58.66.93C230.89,191.7,229.93,193.43,228.91,193.46Zm-1.35-5.61c-4.57.46-9.16.8-13.74,1.2l-.65-1.62,20-10.62C236.2,183.59,234.29,187.17,227.56,187.85Z"/></clipPath></defs><path class="cls-1" d="M225.43,167.6c-12.42-2.54-23.59.77-34.8,5.53-26.89,11.42-39,31.39-37.53,60.33.52,10.23-1.43,20.59-2.25,30.88l-1.75.11c-.79-1-1.65-1.92-2.38-2.95-7.09-10.05-13.86-20.34-21.3-30.13C111.35,212.85,103.92,192,101.06,169c-1.25-10-2.16-19.44,5.63-27.41,1-1,1.46-2.59,2.16-3.91a179,179,0,0,0,17.91-53.09c2.71-15.67,1.66-30.79-5.84-45.1-2.59-5-5.89-9.2-9.64-10.58L99.61,36.83C95.8,32.12,91.25,34.74,87,35.29,76.18,36.65,75.49,46.22,72.69,54.07c-2.92-1.66-5.25-3.24-7.78-4.38-14-6.37-29.09,1.45-30.82,16.63A68.34,68.34,0,0,0,35,88C38.69,105.35,48,120.36,57.47,135c22,33.81,44.65,67.27,67,100.86,4.31,6.47,8.67,12.9,13,19.35l-.66,1.15c-2-.81-4.15-1.33-5.89-2.48-10.27-6.77-20.37-13.78-30.65-20.52a122.7,122.7,0,0,1-24.45-21.8C68.51,203.21,60.7,195.1,52,188.25c-15-11.9-32.8-15-51.92-13.12-.72,11,9.93,16.08,11.42,26L.6,189.48v12.08l8.37.82a12.19,12.19,0,0,1-4.86,3c-1.36.59-2.64,1.35-4,2,.19.45.38.91.56,1.36,7.41-3.4,14.83-3.1,22.38-.7a10.16,10.16,0,0,1-4.15,2.42c-5.37,1.75-10.79,3.34-16.1,5.23-1.13.41-1.9,1.82-2.84,2.77l1,1c5.39-2.16,10.79-4.28,16.16-6.47,10.34-4.23,11.51-4.36,17.2-1.3L.27,227.28l.54,1.12c1.32-.57,2.65-1.1,4-1.7,8.89-4.11,17.75-8.27,26.66-12.34,4.63-2.12,9.29-3.3,14.22,1.14-11.69,6.19-22.87,12.32-34.26,18-3.17,1.59-7,1.91-11.19,3,.48.64,1.21,2.41,2.53,3.26,11.2,7.18,23.15,8.14,35.84,4.42,11.14-3.27,22.34-6.49,33.7-8.82,12.48-2.55,24.22-2.32,34.63,7.86a82.77,82.77,0,0,0,32.75,19.45,12.51,12.51,0,0,1,6,4.91c5.62,8.6,10.88,17.44,16.86,27.14-2.68-.87-4.34-1.45-6-2-11.11-3.35-22-8.08-33.39-9.64-12.86-1.77-25.12-3.77-35.63-11.89a12.23,12.23,0,0,0-2.22-1.14c-22.44-10.63-46.63-15.25-70.68-20.23-5.62-1.17-9.41,2.88-9.48,8.73,0,2.95.21,6.06-.62,8.81-3,9.79-1,15.72,7.71,21.24,12.44,7.91,26.21,9.8,40.28,7.15,13-2.44,25.72-6.48,38.58-9.72,4-1,8.12-2.56,12.12-2.37a185.83,185.83,0,0,1,25.23,2.81c20.46,3.76,39.36,10.17,48.94,31.29.78,1.71,4.14,2.25,6.31,3.34l.82-1.42c-.87-1.38-1.68-2.79-2.59-4.14q-10.32-15.3-20.65-30.58c-5.85-8.69-9.09-18-7.22-28.71,1.08-6.18,4-10.48,10.15-13,12.92-5.24,25.85-10.54,38.35-16.68,17.2-8.45,28.9-22.07,34.54-40.56C240,176.29,235.39,169.64,225.43,167.6ZM82.64,122.27c1.42,6,.64,8-5.67,15.47C75,132.5,76.53,128.08,82.64,122.27ZM74,131.56c-3.75-4.82-3.53-8.43.41-12,1.87-1.71,3.14-4.09,5-6.55C83.42,121.12,77.3,125.46,74,131.56Zm-4.17-10.35c-3.28-5.31-2.28-7.79,7-17.12C79.6,110.8,78,114.65,69.85,121.21Zm-4.06-8.79c-.51-7.72,5.58-11.7,8.57-17.52C77.79,100.29,74,107.85,65.79,112.42Zm-2.85-6.78C66.25,97,69.12,89.48,72,81.9,76.5,87.51,72.11,100.13,62.94,105.64Zm.22-53.08c5.21,1.17,8.26,3.84,8.84,8.38,1.71,13.4-2.87,25.31-8.72,36.86l-1.69-.14C62.11,82.8,62.63,68,63.16,52.56Zm-4.82-1.74c1.82,1,2.73,5,2.84,7.64.41,10.09.34,20.19.4,30.29A18.78,18.78,0,0,1,61.06,92l-2.13.45L48.75,51C52.35,50.78,56,49.58,58.34,50.82Zm-10.66,1.1c3.13,13.84,6.2,27.36,9.26,40.88l-.84.4a16.44,16.44,0,0,1-1.64-2.4c-4.38-9.83-9-19.57-12.94-29.58C39.34,55.68,40.85,53.87,47.68,51.92Zm-9.36,8.51,22.13,45.28-.44.45-8.2-10-.72.45q5.46,8.06,10.93,16.12l-.9.78c-6.48-7.07-12.83-14.25-19.48-21.15-4.43-4.61-6-10-5-16.9.43,1.24.86,2.49,1.3,3.73l1.31-.89C37.5,72.35,33.47,66.39,38.32,60.43Zm29.9,62.05C58.14,121.63,41.11,104,41.37,96.11Zm-18-8c5.85,4.56,11.76,9,17.5,13.75a11.91,11.91,0,0,1,3.15,5.07c-9-3.91-15.8-10.3-21.56-18Zm3.93,9.3,20.12,17.09-.89,1.1C64.91,138.27,58.64,132.05,54.14,123.75ZM61,139.33l1.19-1.73,13.1,8.83-1.4,1.71Zm20.37,26.5-6.17-8.06C81.19,157.83,81.65,161.54,81.39,165.83Zm-1.23-20.57-1.62-.66c-2.07-5.45,1.8-8.68,4.73-12.26l2,.76Zm8.59,16.68c.37-5.39-1-10.89-1.51-16.34a19,19,0,0,1,.47-6.17c13.77,16,9.62,36.07,13.23,54.32C93.62,184.28,87.88,174.47,88.75,161.94ZM75,219.17c-5.21-1.21-8.15-5.1-17.82-23.89C64,199.62,71.16,209.45,75,219.17ZM46.51,186.89c1.54,1.31,3.5,2.35,4.56,4,5.12,7.88,10,15.92,15.48,24.73-4.43-.07-7.51-1.39-9.23-4.46-4.25-7.59-8.14-15.37-12.17-23.08ZM33.08,181c2.54,1.61,6,2.64,7.45,4.93,5.12,8.07,9.58,16.57,14.22,24.94a6.37,6.37,0,0,1,.3,2.27l-1.15,1c-2.64-2.43-5.92-4.45-7.8-7.37-5.06-7.88-9.52-16.15-14.22-24.26ZM20.52,204.09c-9.37-6.1-13-16.32-18.15-25.42l1.06-1.39c1.94.9,4.75,1.28,5.67,2.8,4.56,7.54,8.63,15.38,12.87,23.12Zm24.59,7.2-11-5.81c-4.31,3-7.46.25-9.4-2.83-5-7.94-9.41-16.27-14-24.44l1.05-1.28c2,1.51,4.55,2.65,6,4.6,4.15,5.77,7.82,11.9,11.77,17.82a29.17,29.17,0,0,0,3.24,3.54c-4.6-8.18-9.21-16.36-14-24.89,5.42-.63,9.46.59,12.18,5.48C35.8,192.4,41,201.19,46,210Zm-37,28.77L8,238.33q8.17-4.52,16.36-9c6.82-3.75,13.55-7.7,20.54-11.1,2.52-1.22,5.68-1.12,8.55-1.63l.37,2.2c-12.75,7.34-25.42,14.84-38.34,21.86C13.66,241.64,10.6,240.32,8.11,240.06Zm9.63,3.54c-.16-.48-.32-1-.49-1.45a37.7,37.7,0,0,1,3.29-2.39q16.32-9.47,32.69-18.84c3.55-2,7.18-3.49,11.7.43C51.71,228.67,39,235.89,26.06,242.69,23.76,243.9,20.54,243.34,17.74,243.6Zm14.59-1.5c13.18-6.9,24.94-16.67,39.64-20.48.31.76.63,1.52,1,2.28C59.07,229.28,48,240.41,32.33,242.1Zm22-4c3.08-5.28,13.89-11,22.9-11.66Zm19.7-6.4c4.46-5.06,7.89-5.47,13.16-1.31Zm83,2c-.34-6-.62-10.78-.85-15.53,0-.39.31-.79.89-1.18C157.89,222.18,162.12,227.17,157.05,233.71Zm6.64-10.33c0,.77-.45,1.53-1.13,3.71-4-9.86-3.24-17.94,1.16-27.13C163.72,208.64,163.74,216,163.69,223.38Zm69.13-48.73-19,9.88C220.67,170.06,223.74,167,232.82,174.65Zm-15.64-3.4,1.45,1L211.7,182.5l-1.53-.92Zm-3.06-.91-12.86,24.82C199.46,188.49,207.76,171.82,214.12,170.34ZM205.33,172c-3.07,9-6.1,17.8-9.13,26.65l-1.37-.42C193.52,188.47,198.28,176.5,205.33,172Zm-7.88,1.81c-3.6,10.64-1.94,22.34-10.28,31.51C183.85,196.58,190.27,176.32,197.45,173.79Zm-9.68,4,1.41.7c-.93,3.63-2,7.24-2.74,10.91a135.17,135.17,0,0,0-2.32,13.68c-.43,4.25-2.78,6.35-7.32,8.22.4-4.68.72-8.53,1-12.38l-.78-.15-2.76,14.56-1.67-.38c-.24-11,1.44-21.5,8.47-30.74-.42,2.55-.83,5.1-1.33,8.24C182.66,185.89,185.21,181.84,187.77,177.8Zm-13.64,10L168,222.61C162.06,212.55,165.61,194.22,174.13,187.79Zm-6.06,43.15c-.68-.33-1.36-2.23-1-2.7a3.31,3.31,0,0,1,2.86-1.19c4,1.25,8,2.82,13,4.66C176.8,235.14,172.39,233,168.07,230.94Zm1.65-6.52-.28-1.69c1.82-.42,3.9-1.62,5.41-1.11a92.37,92.37,0,0,1,14.91,6.75C182.25,231.36,176.11,227.22,169.72,224.42Zm4-6.72c2.11-.39,4.21-.82,6.33-1.14.44-.06.94.29,1.4.46l18.7,7.21C192.75,227.42,188.07,226.39,173.74,217.7Zm22.73,2.59c-5.54-1.61-11-3.58-16.9-5.54,2.41-3.73,5.06-4.52,8.68-3.2,5.71,2.07,11.48,3.94,17.23,5.9.13-.41.25-.82.38-1.24l-19.28-6.73c2.4-4.09,5.56-5.22,9.44-3.57,7.5,3.19,15.2,4.58,23.44,3C215.39,217.56,204.92,222.75,196.47,220.29Zm-1.77-16.85c2.14-4.42,5.91-4.5,9.19-4,6.65,1.1,13.18,2.91,19.76,4.42C213.89,210.75,204.49,206.34,194.7,203.44Zm30.67-2.89c-7.81-.21-15.6-.94-23.39-1.5,0-.74,0-1.48,0-2.22,8.62-4.66,17.72,0,26.53-1.09l.87,1.44C228,198.36,226.67,200.59,225.37,200.55Zm3.54-7.09c-6.83.25-13.67.13-20.5.13-.07-.73-.14-1.45-.2-2.18l23-1.58.66.93C230.89,191.7,229.93,193.43,228.91,193.46Zm-1.35-5.61c-4.57.46-9.16.8-13.74,1.2l-.65-1.62,20-10.62C236.2,183.59,234.29,187.17,227.56,187.85Z"/><g class="cls-2"><path class="cls-1" d="M78.54,144.6l1.62.66,5.13-12.16-2-.76C80.34,135.92,76.47,139.15,78.54,144.6Z"/><path class="cls-1" d="M75.22,157.77l6.17,8.06C81.65,161.54,81.19,157.83,75.22,157.77Z"/><path class="cls-1" d="M73.37,141.94l.89-1.1L54.14,123.75C58.64,132.05,64.91,138.27,73.37,141.94Z"/><path class="cls-1" d="M62.21,137.6,61,139.33l12.89,8.81,1.4-1.71Z"/><path class="cls-1" d="M87.24,145.6c.48,5.45,1.88,11,1.51,16.34-.87,12.53,4.87,22.34,12.19,31.81-3.61-18.25.54-38.36-13.23-54.32A19,19,0,0,0,87.24,145.6Z"/><path class="cls-1" d="M3.43,177.28l-1.06,1.39c5.17,9.1,8.78,19.32,18.15,25.42L22,203.2c-4.24-7.74-8.31-15.58-12.87-23.12C8.18,178.56,5.37,178.18,3.43,177.28Z"/><path class="cls-1" d="M30.86,183.48c-2.72-4.89-6.76-6.11-12.18-5.48,4.79,8.53,9.4,16.71,14,24.89a29.17,29.17,0,0,1-3.24-3.54c-4-5.92-7.62-12-11.77-17.82-1.4-1.95-3.94-3.09-6-4.6l-1.05,1.28c4.64,8.17,9,16.5,14.05,24.44,1.94,3.08,5.09,5.86,9.4,2.83l11,5.81L46,210C41,201.19,35.8,192.4,30.86,183.48Z"/><path class="cls-1" d="M75,219.17c-3.8-9.72-11-19.55-17.82-23.89C66.81,214.07,69.75,218,75,219.17Z"/><path class="cls-1" d="M66.55,215.59c-5.48-8.81-10.36-16.85-15.48-24.73-1.06-1.62-3-2.66-4.56-4l-1.36,1.16c4,7.71,7.92,15.49,12.17,23.08C59,214.2,62.12,215.52,66.55,215.59Z"/><path class="cls-1" d="M53.9,214.08l1.15-1a6.37,6.37,0,0,0-.3-2.27c-4.64-8.37-9.1-16.87-14.22-24.94-1.46-2.29-4.91-3.32-7.45-4.93l-1.2,1.48c4.7,8.11,9.16,16.38,14.22,24.26C48,209.63,51.26,211.65,53.9,214.08Z"/><path class="cls-1" d="M61.06,92a18.78,18.78,0,0,0,.52-3.22c-.06-10.1,0-20.2-.4-30.29-.11-2.69-1-6.68-2.84-7.64-2.35-1.24-6,0-9.59.13L58.93,92.42Z"/><path class="cls-1" d="M69.85,121.21c8.1-6.56,9.75-10.41,7-17.12C67.57,113.42,66.57,115.9,69.85,121.21Z"/><path class="cls-1" d="M65.79,112.42c8.22-4.57,12-12.13,8.57-17.52C71.37,100.72,65.28,104.7,65.79,112.42Z"/><path class="cls-1" d="M77,137.74c6.31-7.44,7.09-9.49,5.67-15.47C76.53,128.08,75,132.5,77,137.74Z"/><path class="cls-1" d="M62.94,105.64C72.11,100.13,76.5,87.51,72,81.9,69.12,89.48,66.25,97,62.94,105.64Z"/><path class="cls-1" d="M74.43,119.53c-3.94,3.6-4.16,7.21-.41,12,3.28-6.1,9.4-10.44,5.38-18.58C77.57,115.44,76.3,117.82,74.43,119.53Z"/><path class="cls-1" d="M70.86,133.27a11.91,11.91,0,0,0-3.15-5.07C62,123.5,56.06,119,50.21,114.45l-.91.87C55.06,123,61.88,129.36,70.86,133.27Z"/><path class="cls-1" d="M36.67,75.48c-1,6.92.54,12.29,5,16.9,6.65,6.9,13,14.08,19.48,21.15l.9-.78q-5.48-8.06-10.93-16.12l.72-.45,8.2,10,.44-.45L38.32,60.43c-4.85,6-.82,11.92,1,17.89L38,79.21C37.53,78,37.1,76.72,36.67,75.48Z"/><path class="cls-1" d="M68.22,122.48,41.37,96.11C41.11,104,58.14,121.63,68.22,122.48Z"/><path class="cls-1" d="M54.46,90.8a16.44,16.44,0,0,0,1.64,2.4l.84-.4c-3.06-13.52-6.13-27-9.26-40.88-6.83,1.95-8.34,3.76-6.16,9.3C45.46,71.23,50.08,81,54.46,90.8Z"/><path class="cls-1" d="M72,60.94c-.58-4.54-3.63-7.21-8.84-8.38-.53,15.39-1,30.24-1.57,45.1l1.69.14C69.13,86.25,73.71,74.34,72,60.94Z"/><path class="cls-1" d="M53.45,216.59c-2.87.51-6,.41-8.55,1.63-7,3.4-13.72,7.35-20.54,11.1q-8.19,4.49-16.36,9l.11,1.73c2.49.26,5.55,1.58,7.37.59,12.92-7,25.59-14.52,38.34-21.86Z"/><path class="cls-1" d="M211.7,182.5l6.93-10.27-1.45-1-7,10.33Z"/><path class="cls-1" d="M194.7,203.44c9.79,2.9,19.19,7.31,29,.46-6.58-1.51-13.11-3.32-19.76-4.42C200.61,198.94,196.84,199,194.7,203.44Z"/><path class="cls-1" d="M180.07,216.56c-2.12.32-4.22.75-6.33,1.14,14.33,8.69,19,9.72,26.43,6.53L181.47,217C181,216.85,180.51,216.5,180.07,216.56Z"/><path class="cls-1" d="M196,205.91c-3.88-1.65-7-.52-9.44,3.57l19.28,6.73c-.13.42-.25.83-.38,1.24-5.75-2-11.52-3.83-17.23-5.9-3.62-1.32-6.27-.53-8.68,3.2,5.92,2,11.36,3.93,16.9,5.54,8.45,2.46,18.92-2.73,23-11.38C211.22,210.49,203.52,209.1,196,205.91Z"/><path class="cls-1" d="M167,228.24c-.33.47.35,2.37,1,2.7,4.32,2.08,8.73,4.2,14.83.77-5-1.84-9-3.41-13-4.66A3.31,3.31,0,0,0,167,228.24Z"/><path class="cls-1" d="M169.44,222.73l.28,1.69c6.39,2.8,12.53,6.94,20,4a92.37,92.37,0,0,0-14.91-6.75C173.34,221.11,171.26,222.31,169.44,222.73Z"/><path class="cls-1" d="M213.17,187.43l.65,1.62c4.58-.4,9.17-.74,13.74-1.2,6.73-.68,8.64-4.26,5.58-11Z"/><path class="cls-1" d="M174.13,187.79c-8.52,6.43-12.07,24.76-6.12,34.82Z"/><path class="cls-1" d="M202,196.83c0,.74,0,1.48,0,2.22,7.79.56,15.58,1.29,23.39,1.5,1.3,0,2.66-2.19,4-3.37l-.87-1.44C219.68,196.86,210.58,192.17,202,196.83Z"/><path class="cls-1" d="M208.21,191.41c.06.73.13,1.45.2,2.18,6.83,0,13.67.12,20.5-.13,1,0,2-1.76,3-2.7l-.66-.93Z"/><path class="cls-1" d="M72,221.62c-14.7,3.81-26.46,13.58-39.64,20.48,15.63-1.69,26.74-12.82,40.59-18.2C72.6,223.14,72.28,222.38,72,221.62Z"/><path class="cls-1" d="M156.2,218.18c.23,4.75.51,9.5.85,15.53,5.07-6.54.84-11.53,0-16.71C156.51,217.39,156.18,217.79,156.2,218.18Z"/><path class="cls-1" d="M74,231.74l13.16-1.31C81.93,226.27,78.5,226.68,74,231.74Z"/><path class="cls-1" d="M53.23,220.92q-16.36,9.38-32.69,18.84a37.7,37.7,0,0,0-3.29,2.39c.17.49.33,1,.49,1.45,2.8-.26,6,.3,8.32-.91,12.94-6.8,25.65-14,38.87-21.34C60.41,217.43,56.78,218.89,53.23,220.92Z"/><path class="cls-1" d="M54.34,238.14l22.9-11.66C68.23,227.17,57.42,232.86,54.34,238.14Z"/><path class="cls-1" d="M162.56,227.09c.68-2.18,1.12-2.94,1.13-3.71.05-7.37,0-14.74,0-23.42C159.32,209.15,158.52,217.23,162.56,227.09Z"/><path class="cls-1" d="M187.17,205.3c8.34-9.17,6.68-20.87,10.28-31.51C190.27,176.32,183.85,196.58,187.17,205.3Z"/><path class="cls-1" d="M172.64,213l1.67.38,2.76-14.56.78.15c-.33,3.85-.65,7.7-1,12.38,4.54-1.87,6.89-4,7.32-8.22a135.17,135.17,0,0,1,2.32-13.68c.75-3.67,1.81-7.28,2.74-10.91l-1.41-.7c-2.56,4-5.11,8.09-8,12.66.5-3.14.91-5.69,1.33-8.24C174.08,191.46,172.4,202,172.64,213Z"/><path class="cls-1" d="M232.82,174.65c-9.08-7.64-12.15-4.59-19,9.88Z"/><path class="cls-1" d="M194.83,198.21l1.37.42c3-8.85,6.06-17.7,9.13-26.65C198.28,176.5,193.52,188.47,194.83,198.21Z"/><path class="cls-1" d="M201.26,195.16l12.86-24.82C207.76,171.82,199.46,188.49,201.26,195.16Z"/></g></svg>