<svg id="圖層_1" data-name="圖層 1" xmlns="http://www.w3.org/2000/svg" xmlns:xlink="http://www.w3.org/1999/xlink" viewBox="0 0 248.1 340.19"><defs><style>.cls-1{fill:#1b7754;}.cls-2{clip-path:url(#clip-path);}</style><clipPath id="clip-path"><path class="cls-1" d="M11.1,190.88c5.63,18.48,17.33,32.1,34.53,40.55,12.5,6.14,25.43,11.44,38.35,16.69,6.14,2.49,9.07,6.8,10.15,13,1.87,10.67-1.37,20-7.22,28.72q-10.3,15.3-20.64,30.57c-.91,1.35-1.73,2.76-2.59,4.15L64.5,326c2.16-1.09,5.53-1.63,6.3-3.35,9.59-21.11,28.49-27.52,49-31.28A187.49,187.49,0,0,1,145,288.5c4-.18,8.12,1.37,12.12,2.38,12.86,3.24,25.57,7.27,38.59,9.72,14.06,2.65,27.83.76,40.28-7.16,8.66-5.51,10.67-11.45,7.71-21.24-.84-2.75-.59-5.86-.63-8.8-.07-5.86-3.86-9.9-9.48-8.74-24.05,5-48.23,9.61-70.68,20.23a11.82,11.82,0,0,0-2.21,1.14c-10.52,8.12-22.78,10.12-35.64,11.89-11.36,1.56-22.28,6.3-33.39,9.65-1.69.5-3.35,1.08-6,2,6-9.7,11.24-18.54,16.86-27.15a12.53,12.53,0,0,1,6-4.9A82.79,82.79,0,0,0,141.21,248c10.41-10.17,22.15-10.41,34.63-7.85,11.36,2.32,22.56,5.54,33.71,8.81,12.68,3.73,24.63,2.77,35.84-4.41,1.32-.85,2-2.62,2.52-3.26-4.22-1.08-8-1.41-11.18-3-11.4-5.7-22.58-11.83-34.27-18,4.93-4.44,9.59-3.25,14.23-1.13,8.9,4.06,17.76,8.23,26.65,12.34,1.3.6,2.63,1.13,3.95,1.69.18-.37.36-.74.55-1.11l-34.1-15.56c5.69-3.05,6.85-2.92,17.19,1.3,5.37,2.2,10.77,4.32,16.16,6.47l1-1c-.94-1-1.71-2.37-2.84-2.77-5.31-1.9-10.73-3.49-16.09-5.24a10.21,10.21,0,0,1-4.16-2.41c7.56-2.4,15-2.71,22.38.69l.56-1.35c-1.32-.69-2.6-1.45-4-2.05a12.19,12.19,0,0,1-4.86-3l8.37-.82V194.27L236.56,206c1.49-9.94,12.14-15,11.42-26-19.11-1.86-36.88,1.22-51.92,13.12-8.66,6.85-16.46,15-23.8,23.26a122.14,122.14,0,0,1-24.46,21.8c-10.28,6.74-20.38,13.75-30.64,20.52-1.75,1.15-3.92,1.67-5.9,2.48L110.6,260q6.51-9.67,13-19.34c22.38-33.6,45-67.05,67-100.86,9.52-14.59,18.78-29.6,22.46-46.94A68.65,68.65,0,0,0,214,71.12c-1.73-15.18-16.79-23-30.83-16.64-2.53,1.15-4.86,2.73-7.78,4.39-2.8-7.86-3.49-17.42-14.28-18.79-4.28-.54-8.83-3.16-12.64,1.54l-11.66-7.88c-3.75,1.38-7.06,5.63-9.65,10.59-7.5,14.31-8.54,29.43-5.83,45.09a178.89,178.89,0,0,0,17.9,53.09c.7,1.33,1.16,2.89,2.16,3.91,7.79,8,6.88,17.36,5.63,27.41-2.85,22.94-10.29,43.82-24.36,62.34-7.43,9.78-14.21,20.07-21.3,30.12-.73,1-1.58,2-2.38,3l-1.75-.11c-.82-10.3-2.77-20.65-2.25-30.88,1.47-28.94-10.63-48.91-37.53-60.33-11.21-4.76-22.38-8.08-34.8-5.53C12.71,174.44,8.11,181.09,11.1,190.88Zm160-48.35c-6.32-7.44-7.1-9.48-5.67-15.47C171.58,132.87,173.13,137.3,171.14,142.53Zm-2.43-24.75c1.83,2.46,3.09,4.83,5,6.55,3.93,3.6,4.15,7.21.4,12C170.8,130.26,164.69,125.91,168.71,117.78Zm2.5-8.9c9.32,9.33,10.32,11.81,7,17.12C170.15,119.45,168.51,115.6,171.21,108.88Zm2.54-9.19c3,5.83,9.07,9.81,8.56,17.52C174.09,112.65,170.31,105.08,173.75,99.69Zm2.33-13,9.09,23.74C176,104.92,171.6,92.3,176.08,86.7Zm10.43,15.75-1.69.15C179,91.05,174.39,79.13,176.1,65.74c.58-4.55,3.63-7.21,8.84-8.39C185.48,72.75,186,87.6,186.51,102.45Zm12.85-46.7c-3.61,14.67-6.9,28.07-10.19,41.47L187,96.77a20.17,20.17,0,0,1-.52-3.22c.06-10.1,0-20.21.41-30.29.11-2.69,1-6.68,2.83-7.64C192.12,54.38,195.76,55.57,199.36,55.75ZM206.58,66C202.64,76,198,85.76,193.64,95.6A14.49,14.49,0,0,1,192,98l-.84-.4c3.07-13.52,6.13-27,9.27-40.87C207.26,58.66,208.76,60.48,206.58,66Zm2.24,17.11,1.32.89c.43-1.25.86-2.49,1.3-3.74,1,6.92-.55,12.3-5,16.9-6.65,6.9-13,14.09-19.48,21.15l-.89-.78L197,101.43l-.73-.45-8.2,10-.43-.45q11-22.6,22.13-45.28C214.63,71.19,210.61,77.14,208.82,83.12Zm-2.09,17.79c.26,7.84-16.76,25.51-26.85,26.37Zm-7.92,19.21c-5.77,7.64-12.59,14-21.56,17.94A11.94,11.94,0,0,1,180.4,133c5.73-4.7,11.65-9.18,17.5-13.75Zm-24.08,26.62-.89-1.1L194,128.54C189.46,136.84,183.19,143.06,174.73,146.74Zm-.53,6.19-1.4-1.71,13.09-8.83,1.19,1.73Zm-1.32,9.64-6.16,8.05C166.46,166.33,166.91,162.63,172.88,162.57Zm-10.07-24.68,2-.76c2.93,3.58,6.81,6.82,4.73,12.27l-1.62.66Zm-15.65,60.66c3.62-18.25-.54-38.37,13.23-54.32a19,19,0,0,1,.47,6.16c-.48,5.46-1.88,11-1.51,16.34C160.22,179.27,154.48,189.07,147.16,198.55Zm43.8,1.53c-9.67,18.79-12.6,22.68-17.82,23.88C176.94,214.25,184.12,204.42,191,200.08Zm12-7.23c-4,7.7-7.92,15.49-12.16,23.07-1.73,3.08-4.8,4.39-9.24,4.47,5.49-8.82,10.36-16.85,15.48-24.73,1.06-1.63,3-2.66,4.56-4C202.05,192.07,202.5,192.46,203,192.85Zm13.27-5.61c-4.7,8.12-9.16,16.38-14.22,24.26-1.88,2.93-5.16,4.94-7.8,7.37l-1.15-1a6.4,6.4,0,0,1,.3-2.28c4.65-8.37,9.1-16.86,14.22-24.93,1.46-2.3,4.91-3.33,7.45-4.94ZM226.13,208c4.24-7.73,8.31-15.57,12.88-23.11.92-1.53,3.72-1.9,5.66-2.81l1.06,1.4c-5.17,9.1-8.78,19.31-18.14,25.42Zm-24.07,6.83c5.08-8.84,10.25-17.63,15.19-26.54,2.71-4.89,6.75-6.12,12.17-5.48l-14,24.89a30.82,30.82,0,0,0,3.24-3.54c4-5.93,7.61-12.05,11.76-17.83,1.41-1.95,3.94-3.09,6-4.6.34.43.69.86,1,1.28-4.64,8.18-9,16.5-14.05,24.45-1.94,3.07-5.08,5.85-9.4,2.82l-11,5.82Zm30.57,30.63c-12.93-7-25.59-14.52-38.34-21.87l.36-2.19c2.87.5,6,.4,8.56,1.63,7,3.4,13.71,7.35,20.53,11.09l16.36,9-.11,1.74C237.5,245.11,234.44,246.43,232.63,245.45Zm-10.59,2c-12.93-6.8-25.65-14-38.87-21.34,4.52-3.93,8.15-2.47,11.7-.44q16.38,9.38,32.69,18.84a36.36,36.36,0,0,1,3.29,2.4l-.49,1.44C227.56,248.14,224.34,248.69,222,247.49Zm-46.86-18.8,1-2.28c14.69,3.81,26.46,13.58,39.63,20.49C200.14,245.2,189,234.07,175.18,228.69Zm-4.32,2.58c9,.7,19.83,6.39,22.9,11.66Zm-10,3.95c5.27-4.16,8.71-3.75,13.16,1.32ZM91,221.8c.57.38.9.78.88,1.17-.23,4.75-.51,9.5-.85,15.53C86,232,90.22,227,91,221.8Zm-6.64-17c4.4,9.19,5.2,17.27,1.16,27.13-.68-2.19-1.12-2.95-1.12-3.71C84.36,220.81,84.38,213.43,84.38,204.76Zm-50-15.43-19-9.89C24.37,171.8,27.43,174.85,34.33,189.33Zm3.6-3-1.53.93L29.47,177l1.45-1ZM46.84,200c-4.33-8.35-8.37-16.15-12.86-24.83C40.34,176.61,48.65,193.29,46.84,200Zm6.44,3-1.38.41-9.13-26.65C49.83,181.3,54.59,193.27,53.28,203Zm7.66,7.09c-8.35-9.17-6.69-20.87-10.28-31.51C57.83,181.12,64.25,201.38,60.94,210.1Zm7.38-14.85c-.5-3.13-.91-5.68-1.32-8.23,7,9.24,8.7,19.75,8.46,30.73l-1.67.38L71,203.58l-.78.15c.33,3.84.66,7.69,1.06,12.38-4.54-1.88-6.9-4-7.33-8.23a135.65,135.65,0,0,0-2.32-13.68c-.75-3.67-1.81-7.27-2.73-10.91l1.41-.7ZM80.1,227.41C77.94,215.17,76,204.13,74,192.58,82.49,199,86,217.35,80.1,227.41Zm-14.9,9.1c5-1.85,9-3.41,13-4.67A3.32,3.32,0,0,1,81.07,233c.32.48-.36,2.37-1,2.7C75.71,237.81,71.3,239.94,65.2,236.51Zm-6.86-3.35a92.94,92.94,0,0,1,14.92-6.75c1.5-.5,3.58.7,5.4,1.12l-.28,1.69C72,232,65.85,236.15,58.34,233.16ZM47.93,229l18.71-7.21c.46-.18,1-.53,1.39-.46,2.12.31,4.22.75,6.33,1.14C60,231.18,55.35,232.21,47.93,229ZM28.64,213.71c8.24,1.57,15.94.19,23.44-3,3.88-1.65,7-.51,9.44,3.58L42.24,221c.13.41.26.82.38,1.24,5.75-2,11.53-3.83,17.23-5.91,3.62-1.32,6.28-.52,8.69,3.2-5.93,2-11.37,3.93-16.9,5.54C43.18,227.54,32.71,222.36,28.64,213.71Zm-4.19-5c6.59-1.52,13.12-3.33,19.77-4.43,3.27-.54,7-.46,9.18,4C43.61,211.14,34.21,215.55,24.45,208.7ZM18.74,202c.29-.48.58-1,.88-1.43,8.8,1.11,17.91-3.58,26.52,1.09,0,.74,0,1.48,0,2.22-7.8.55-15.59,1.28-23.39,1.5C21.43,205.38,20.07,203.15,18.74,202Zm-2.51-6.42.67-.92,23,1.57c-.07.73-.14,1.46-.2,2.19-6.84,0-13.68.11-20.5-.13C18.18,198.22,17.22,196.5,16.23,195.55ZM15,181.6l20,10.63-.66,1.61c-4.58-.39-9.17-.73-13.74-1.19C13.82,192,11.9,188.38,15,181.6Z"/></clipPath></defs><path class="cls-1" d="M11.1,190.88c5.63,18.48,17.33,32.1,34.53,40.55,12.5,6.14,25.43,11.44,38.35,16.69,6.14,2.49,9.07,6.8,10.15,13,1.87,10.67-1.37,20-7.22,28.72q-10.3,15.3-20.64,30.57c-.91,1.35-1.73,2.76-2.59,4.15L64.5,326c2.16-1.09,5.53-1.63,6.3-3.35,9.59-21.11,28.49-27.52,49-31.28A187.49,187.49,0,0,1,145,288.5c4-.18,8.12,1.37,12.12,2.38,12.86,3.24,25.57,7.27,38.59,9.72,14.06,2.65,27.83.76,40.28-7.16,8.66-5.51,10.67-11.45,7.71-21.24-.84-2.75-.59-5.86-.63-8.8-.07-5.86-3.86-9.9-9.48-8.74-24.05,5-48.23,9.61-70.68,20.23a11.82,11.82,0,0,0-2.21,1.14c-10.52,8.12-22.78,10.12-35.64,11.89-11.36,1.56-22.28,6.3-33.39,9.65-1.69.5-3.35,1.08-6,2,6-9.7,11.24-18.54,16.86-27.15a12.53,12.53,0,0,1,6-4.9A82.79,82.79,0,0,0,141.21,248c10.41-10.17,22.15-10.41,34.63-7.85,11.36,2.32,22.56,5.54,33.71,8.81,12.68,3.73,24.63,2.77,35.84-4.41,1.32-.85,2-2.62,2.52-3.26-4.22-1.08-8-1.41-11.18-3-11.4-5.7-22.58-11.83-34.27-18,4.93-4.44,9.59-3.25,14.23-1.13,8.9,4.06,17.76,8.23,26.65,12.34,1.3.6,2.63,1.13,3.95,1.69.18-.37.36-.74.55-1.11l-34.1-15.56c5.69-3.05,6.85-2.92,17.19,1.3,5.37,2.2,10.77,4.32,16.16,6.47l1-1c-.94-1-1.71-2.37-2.84-2.77-5.31-1.9-10.73-3.49-16.09-5.24a10.21,10.21,0,0,1-4.16-2.41c7.56-2.4,15-2.71,22.38.69l.56-1.35c-1.32-.69-2.6-1.45-4-2.05a12.19,12.19,0,0,1-4.86-3l8.37-.82V194.27L236.56,206c1.49-9.94,12.14-15,11.42-26-19.11-1.86-36.88,1.22-51.92,13.12-8.66,6.85-16.46,15-23.8,23.26a122.14,122.14,0,0,1-24.46,21.8c-10.28,6.74-20.38,13.75-30.64,20.52-1.75,1.15-3.92,1.67-5.9,2.48L110.6,260q6.51-9.67,13-19.34c22.38-33.6,45-67.05,67-100.86,9.52-14.59,18.78-29.6,22.46-46.94A68.65,68.65,0,0,0,214,71.12c-1.73-15.18-16.79-23-30.83-16.64-2.53,1.15-4.86,2.73-7.78,4.39-2.8-7.86-3.49-17.42-14.28-18.79-4.28-.54-8.83-3.16-12.64,1.54l-11.66-7.88c-3.75,1.38-7.06,5.63-9.65,10.59-7.5,14.31-8.54,29.43-5.83,45.09a178.89,178.89,0,0,0,17.9,53.09c.7,1.33,1.16,2.89,2.16,3.91,7.79,8,6.88,17.36,5.63,27.41-2.85,22.94-10.29,43.82-24.36,62.34-7.43,9.78-14.21,20.07-21.3,30.12-.73,1-1.58,2-2.38,3l-1.75-.11c-.82-10.3-2.77-20.65-2.25-30.88,1.47-28.94-10.63-48.91-37.53-60.33-11.21-4.76-22.38-8.08-34.8-5.53C12.71,174.44,8.11,181.09,11.1,190.88Zm160-48.35c-6.32-7.44-7.1-9.48-5.67-15.47C171.58,132.87,173.13,137.3,171.14,142.53Zm-2.43-24.75c1.83,2.46,3.09,4.83,5,6.55,3.93,3.6,4.15,7.21.4,12C170.8,130.26,164.69,125.91,168.71,117.78Zm2.5-8.9c9.32,9.33,10.32,11.81,7,17.12C170.15,119.45,168.51,115.6,171.21,108.88Zm2.54-9.19c3,5.83,9.07,9.81,8.56,17.52C174.09,112.65,170.31,105.08,173.75,99.69Zm2.33-13,9.09,23.74C176,104.92,171.6,92.3,176.08,86.7Zm10.43,15.75-1.69.15C179,91.05,174.39,79.13,176.1,65.74c.58-4.55,3.63-7.21,8.84-8.39C185.48,72.75,186,87.6,186.51,102.45Zm12.85-46.7c-3.61,14.67-6.9,28.07-10.19,41.47L187,96.77a20.17,20.17,0,0,1-.52-3.22c.06-10.1,0-20.21.41-30.29.11-2.69,1-6.68,2.83-7.64C192.12,54.38,195.76,55.57,199.36,55.75ZM206.58,66C202.64,76,198,85.76,193.64,95.6A14.49,14.49,0,0,1,192,98l-.84-.4c3.07-13.52,6.13-27,9.27-40.87C207.26,58.66,208.76,60.48,206.58,66Zm2.24,17.11,1.32.89c.43-1.25.86-2.49,1.3-3.74,1,6.92-.55,12.3-5,16.9-6.65,6.9-13,14.09-19.48,21.15l-.89-.78L197,101.43l-.73-.45-8.2,10-.43-.45q11-22.6,22.13-45.28C214.63,71.19,210.61,77.14,208.82,83.12Zm-2.09,17.79c.26,7.84-16.76,25.51-26.85,26.37Zm-7.92,19.21c-5.77,7.64-12.59,14-21.56,17.94A11.94,11.94,0,0,1,180.4,133c5.73-4.7,11.65-9.18,17.5-13.75Zm-24.08,26.62-.89-1.1L194,128.54C189.46,136.84,183.19,143.06,174.73,146.74Zm-.53,6.19-1.4-1.71,13.09-8.83,1.19,1.73Zm-1.32,9.64-6.16,8.05C166.46,166.33,166.91,162.63,172.88,162.57Zm-10.07-24.68,2-.76c2.93,3.58,6.81,6.82,4.73,12.27l-1.62.66Zm-15.65,60.66c3.62-18.25-.54-38.37,13.23-54.32a19,19,0,0,1,.47,6.16c-.48,5.46-1.88,11-1.51,16.34C160.22,179.27,154.48,189.07,147.16,198.55Zm43.8,1.53c-9.67,18.79-12.6,22.68-17.82,23.88C176.94,214.25,184.12,204.42,191,200.08Zm12-7.23c-4,7.7-7.92,15.49-12.16,23.07-1.73,3.08-4.8,4.39-9.24,4.47,5.49-8.82,10.36-16.85,15.48-24.73,1.06-1.63,3-2.66,4.56-4C202.05,192.07,202.5,192.46,203,192.85Zm13.27-5.61c-4.7,8.12-9.16,16.38-14.22,24.26-1.88,2.93-5.16,4.94-7.8,7.37l-1.15-1a6.4,6.4,0,0,1,.3-2.28c4.65-8.37,9.1-16.86,14.22-24.93,1.46-2.3,4.91-3.33,7.45-4.94ZM226.13,208c4.24-7.73,8.31-15.57,12.88-23.11.92-1.53,3.72-1.9,5.66-2.81l1.06,1.4c-5.17,9.1-8.78,19.31-18.14,25.42Zm-24.07,6.83c5.08-8.84,10.25-17.63,15.19-26.54,2.71-4.89,6.75-6.12,12.17-5.48l-14,24.89a30.82,30.82,0,0,0,3.24-3.54c4-5.93,7.61-12.05,11.76-17.83,1.41-1.95,3.94-3.09,6-4.6.34.43.69.86,1,1.28-4.64,8.18-9,16.5-14.05,24.45-1.94,3.07-5.08,5.85-9.4,2.82l-11,5.82Zm30.57,30.63c-12.93-7-25.59-14.52-38.34-21.87l.36-2.19c2.87.5,6,.4,8.56,1.63,7,3.4,13.71,7.35,20.53,11.09l16.36,9-.11,1.74C237.5,245.11,234.44,246.43,232.63,245.45Zm-10.59,2c-12.93-6.8-25.65-14-38.87-21.34,4.52-3.93,8.15-2.47,11.7-.44q16.38,9.38,32.69,18.84a36.36,36.36,0,0,1,3.29,2.4l-.49,1.44C227.56,248.14,224.34,248.69,222,247.49Zm-46.86-18.8,1-2.28c14.69,3.81,26.46,13.58,39.63,20.49C200.14,245.2,189,234.07,175.18,228.69Zm-4.32,2.58c9,.7,19.83,6.39,22.9,11.66Zm-10,3.95c5.27-4.16,8.71-3.75,13.16,1.32ZM91,221.8c.57.38.9.78.88,1.17-.23,4.75-.51,9.5-.85,15.53C86,232,90.22,227,91,221.8Zm-6.64-17c4.4,9.19,5.2,17.27,1.16,27.13-.68-2.19-1.12-2.95-1.12-3.71C84.36,220.81,84.38,213.43,84.38,204.76Zm-50-15.43-19-9.89C24.37,171.8,27.43,174.85,34.33,189.33Zm3.6-3-1.53.93L29.47,177l1.45-1ZM46.84,200c-4.33-8.35-8.37-16.15-12.86-24.83C40.34,176.61,48.65,193.29,46.84,200Zm6.44,3-1.38.41-9.13-26.65C49.83,181.3,54.59,193.27,53.28,203Zm7.66,7.09c-8.35-9.17-6.69-20.87-10.28-31.51C57.83,181.12,64.25,201.38,60.94,210.1Zm7.38-14.85c-.5-3.13-.91-5.68-1.32-8.23,7,9.24,8.7,19.75,8.46,30.73l-1.67.38L71,203.58l-.78.15c.33,3.84.66,7.69,1.06,12.38-4.54-1.88-6.9-4-7.33-8.23a135.65,135.65,0,0,0-2.32-13.68c-.75-3.67-1.81-7.27-2.73-10.91l1.41-.7ZM80.1,227.41C77.94,215.17,76,204.13,74,192.58,82.49,199,86,217.35,80.1,227.41Zm-14.9,9.1c5-1.85,9-3.41,13-4.67A3.32,3.32,0,0,1,81.07,233c.32.48-.36,2.37-1,2.7C75.71,237.81,71.3,239.94,65.2,236.51Zm-6.86-3.35a92.94,92.94,0,0,1,14.92-6.75c1.5-.5,3.58.7,5.4,1.12l-.28,1.69C72,232,65.85,236.15,58.34,233.16ZM47.93,229l18.71-7.21c.46-.18,1-.53,1.39-.46,2.12.31,4.22.75,6.33,1.14C60,231.18,55.35,232.21,47.93,229ZM28.64,213.71c8.24,1.57,15.94.19,23.44-3,3.88-1.65,7-.51,9.44,3.58L42.24,221c.13.41.26.82.38,1.24,5.75-2,11.53-3.83,17.23-5.91,3.62-1.32,6.28-.52,8.69,3.2-5.93,2-11.37,3.93-16.9,5.54C43.18,227.54,32.71,222.36,28.64,213.71Zm-4.19-5c6.59-1.52,13.12-3.33,19.77-4.43,3.27-.54,7-.46,9.18,4C43.61,211.14,34.21,215.55,24.45,208.7ZM18.74,202c.29-.48.58-1,.88-1.43,8.8,1.11,17.91-3.58,26.52,1.09,0,.74,0,1.48,0,2.22-7.8.55-15.59,1.28-23.39,1.5C21.43,205.38,20.07,203.15,18.74,202Zm-2.51-6.42.67-.92,23,1.57c-.07.73-.14,1.46-.2,2.19-6.84,0-13.68.11-20.5-.13C18.18,198.22,17.22,196.5,16.23,195.55ZM15,181.6l20,10.63-.66,1.61c-4.58-.39-9.17-.73-13.74-1.19C13.82,192,11.9,188.38,15,181.6Z"/><g class="cls-2"><path class="cls-1" d="M177.25,138.06A11.94,11.94,0,0,1,180.4,133c5.73-4.7,11.65-9.18,17.5-13.75l.91.88C193,127.76,186.22,134.15,177.25,138.06Z"/><path class="cls-1" d="M169.56,149.4l-1.62.66-5.13-12.17,2-.76C167.76,140.71,171.64,144,169.56,149.4Z"/><path class="cls-1" d="M185.89,142.39l1.19,1.73-12.88,8.81-1.4-1.71Z"/><path class="cls-1" d="M174.73,146.74l-.89-1.1L194,128.54C189.46,136.84,183.19,143.06,174.73,146.74Z"/><path class="cls-1" d="M160.86,150.39c-.48,5.46-1.88,11-1.51,16.34.87,12.54-4.87,22.34-12.19,31.82,3.62-18.25-.54-38.37,13.23-54.32A19,19,0,0,1,160.86,150.39Z"/><path class="cls-1" d="M172.88,162.57l-6.16,8.05C166.46,166.33,166.91,162.63,172.88,162.57Z"/><path class="cls-1" d="M244.67,182.07l1.06,1.4c-5.17,9.1-8.78,19.31-18.14,25.42l-1.46-.9c4.24-7.73,8.31-15.57,12.88-23.11C239.93,183.35,242.73,183,244.67,182.07Z"/><path class="cls-1" d="M173.14,224c3.8-9.71,11-19.54,17.82-23.88C181.29,218.87,178.36,222.76,173.14,224Z"/><path class="cls-1" d="M217.25,188.28c2.71-4.89,6.75-6.12,12.17-5.48l-14,24.89a30.82,30.82,0,0,0,3.24-3.54c4-5.93,7.61-12.05,11.76-17.83,1.41-1.95,3.94-3.09,6-4.6.34.43.69.86,1,1.28-4.64,8.18-9,16.5-14.05,24.45-1.94,3.07-5.08,5.85-9.4,2.82l-11,5.82-.93-1.27C207.14,206,212.31,197.19,217.25,188.28Z"/><path class="cls-1" d="M194.2,218.87l-1.15-1a6.4,6.4,0,0,1,.3-2.28c4.65-8.37,9.1-16.86,14.22-24.93,1.46-2.3,4.91-3.33,7.45-4.94l1.2,1.48c-4.7,8.12-9.16,16.38-14.22,24.26C200.12,214.43,196.84,216.44,194.2,218.87Z"/><path class="cls-1" d="M194.65,221.39c2.87.5,6,.4,8.56,1.63,7,3.4,13.71,7.35,20.53,11.09l16.36,9-.11,1.74c-2.49.25-5.55,1.57-7.36.59-12.93-7-25.59-14.52-38.34-21.87Z"/><path class="cls-1" d="M181.55,220.39c5.49-8.82,10.36-16.85,15.48-24.73,1.06-1.63,3-2.66,4.56-4,.46.38.91.77,1.36,1.16-4,7.7-7.92,15.49-12.16,23.07C189.06,219,186,220.31,181.55,220.39Z"/><path class="cls-1" d="M173.68,124.33c3.93,3.6,4.15,7.21.4,12-3.28-6.09-9.39-10.44-5.37-18.57C170.54,120.24,171.8,122.61,173.68,124.33Z"/><path class="cls-1" d="M178.25,126c-8.1-6.55-9.74-10.4-7-17.12C180.53,118.21,181.53,120.69,178.25,126Z"/><path class="cls-1" d="M179.88,127.28l26.85-26.37C207,108.75,190,126.42,179.88,127.28Z"/><path class="cls-1" d="M171.14,142.53c-6.32-7.44-7.1-9.48-5.67-15.47C171.58,132.87,173.13,137.3,171.14,142.53Z"/><path class="cls-1" d="M185.17,110.44C176,104.92,171.6,92.3,176.08,86.7Z"/><path class="cls-1" d="M176.1,65.74c.58-4.55,3.63-7.21,8.84-8.39.54,15.4,1.06,30.25,1.57,45.1l-1.69.15C179,91.05,174.39,79.13,176.1,65.74Z"/><path class="cls-1" d="M211.44,80.27c1,6.92-.55,12.3-5,16.9-6.65,6.9-13,14.09-19.48,21.15l-.89-.78L197,101.43l-.73-.45-8.2,10-.43-.45q11-22.6,22.13-45.28c4.84,6,.82,11.92-1,17.9l1.32.89C210.57,82.76,211,81.52,211.44,80.27Z"/><path class="cls-1" d="M193.64,95.6A14.49,14.49,0,0,1,192,98l-.84-.4c3.07-13.52,6.13-27,9.27-40.87,6.83,1.94,8.33,3.76,6.15,9.29C202.64,76,198,85.76,193.64,95.6Z"/><path class="cls-1" d="M187,96.77a20.17,20.17,0,0,1-.52-3.22c.06-10.1,0-20.21.41-30.29.11-2.69,1-6.68,2.83-7.64,2.36-1.24,6,0,9.6.13-3.61,14.67-6.9,28.07-10.19,41.47Z"/><path class="cls-1" d="M182.31,117.21c-8.22-4.56-12-12.13-8.56-17.52C176.73,105.52,182.82,109.5,182.31,117.21Z"/><path class="cls-1" d="M68,221.36c2.12.31,4.22.75,6.33,1.14-14.32,8.68-19,9.71-26.43,6.53l18.71-7.21C67.1,221.64,67.6,221.29,68,221.36Z"/><path class="cls-1" d="M52.08,210.7c3.88-1.65,7-.51,9.44,3.58L42.24,221c.13.41.26.82.38,1.24,5.75-2,11.53-3.83,17.23-5.91,3.62-1.32,6.28-.52,8.69,3.2-5.93,2-11.37,3.93-16.9,5.54-8.46,2.46-18.93-2.72-23-11.37C36.88,215.28,44.58,213.9,52.08,210.7Z"/><path class="cls-1" d="M74,192.58C82.49,199,86,217.35,80.1,227.41,77.94,215.17,76,204.13,74,192.58Z"/><path class="cls-1" d="M78.66,227.53l-.28,1.69c-6.39,2.8-12.53,6.93-20,3.94a92.94,92.94,0,0,1,14.92-6.75C74.76,225.91,76.84,227.11,78.66,227.53Z"/><path class="cls-1" d="M53.4,208.23c-9.79,2.91-19.19,7.32-28.95.47,6.59-1.52,13.12-3.33,19.77-4.43C47.49,203.73,51.26,203.81,53.4,208.23Z"/><path class="cls-1" d="M34.94,192.23l-.66,1.61c-4.58-.39-9.17-.73-13.74-1.19C13.82,192,11.9,188.38,15,181.6Z"/><path class="cls-1" d="M194.87,225.71q16.38,9.38,32.69,18.84a36.36,36.36,0,0,1,3.29,2.4l-.49,1.44c-2.8-.25-6,.3-8.32-.9-12.93-6.8-25.65-14-38.87-21.34C187.69,222.22,191.32,223.68,194.87,225.71Z"/><path class="cls-1" d="M46.14,201.63c0,.74,0,1.48,0,2.22-7.8.55-15.59,1.28-23.39,1.5-1.31,0-2.67-2.2-4-3.38.29-.48.58-1,.88-1.43C28.42,201.65,37.53,197,46.14,201.63Z"/><path class="cls-1" d="M39.9,196.2c-.07.73-.14,1.46-.2,2.19-6.84,0-13.68.11-20.5-.13-1,0-2-1.76-3-2.71l.67-.92Z"/><path class="cls-1" d="M75.46,217.75l-1.67.38L71,203.58l-.78.15c.33,3.84.66,7.69,1.06,12.38-4.54-1.88-6.9-4-7.33-8.23a135.65,135.65,0,0,0-2.32-13.68c-.75-3.67-1.81-7.27-2.73-10.91l1.41-.7,8,12.66c-.5-3.13-.91-5.68-1.32-8.23C74,196.26,75.7,206.77,75.46,217.75Z"/><path class="cls-1" d="M81.07,233c.32.48-.36,2.37-1,2.7-4.32,2.08-8.73,4.21-14.83.78,5-1.85,9-3.41,13-4.67A3.32,3.32,0,0,1,81.07,233Z"/><path class="cls-1" d="M91.9,223c-.23,4.75-.51,9.5-.85,15.53C86,232,90.22,227,91,221.8,91.59,222.18,91.92,222.58,91.9,223Z"/><path class="cls-1" d="M85.54,231.89c-.68-2.19-1.12-2.95-1.12-3.71-.06-7.37,0-14.75,0-23.42C88.78,214,89.58,222,85.54,231.89Z"/><path class="cls-1" d="M174.06,236.54l-13.16-1.32C166.17,231.06,169.61,231.47,174.06,236.54Z"/><path class="cls-1" d="M176.14,226.41c14.69,3.81,26.46,13.58,39.63,20.49-15.63-1.7-26.73-12.83-40.59-18.21Z"/><path class="cls-1" d="M60.94,210.1c-8.35-9.17-6.69-20.87-10.28-31.51C57.83,181.12,64.25,201.38,60.94,210.1Z"/><path class="cls-1" d="M193.76,242.93l-22.9-11.66C179.87,232,190.69,237.66,193.76,242.93Z"/><path class="cls-1" d="M15.28,179.44c9.09-7.64,12.15-4.59,19,9.89Z"/><path class="cls-1" d="M46.84,200c-4.33-8.35-8.37-16.15-12.86-24.83C40.34,176.61,48.65,193.29,46.84,200Z"/><path class="cls-1" d="M53.28,203l-1.38.41-9.13-26.65C49.83,181.3,54.59,193.27,53.28,203Z"/><path class="cls-1" d="M36.4,187.3,29.47,177l1.45-1,7,10.32Z"/></g></svg>